<?xml version="1.0" encoding="UTF-8"?>
<svg id="_Слой_2" data-name="Слой 2" xmlns="http://www.w3.org/2000/svg" viewBox="0 0 135.08 104">
  <g id="_Минимальные_размеры" data-name="Минимальные размеры">
    <g id="_Логотипы_копия_" data-name="Логотипы (копия)">
      <g id="Logo_vertical_копия_2" data-name="Logo vertical копия 2">
        <g>
          <g>
            <path d="M67.53,63.65c-2.66-.22-5.26-.66-7.64-1.92-.25,.34-.48,.64-.71,.94-2.55,.09-5.03-.13-7.64-.54,.05-.75,.03-1.41,.15-2.04,.28-1.54,.66-3.06,.94-4.59,.15-.83,.22-1.68-.15-2.53-1.01,.14-1.94,.31-2.87,.37-1.4,.09-2.81,.18-4.21,.13-.97-.04-1.19-.36-1.32-1.32-.87-6.48-1.74-12.95-2.59-19.43-.67-5.12-1.32-10.24-2.01-15.56-.13,.53-.25,.87-.3,1.21-.5,3.64-.99,7.29-1.48,10.93-.59,4.42-1.17,8.84-1.75,13.27-.38,2.95-.75,5.89-1.12,8.84-.09,.7-.21,1.4-.95,2.01-2.55-.16-5.23-.34-8-.52-.07,.5-.23,.92-.18,1.32,.15,1.27,.36,2.54,.59,3.81,.23,1.26,.37,2.45,.57,4.05-.44,.12-.9,.07-1.32,.12-1.55,.17-3.12,.25-4.67,.45-.28,.02-1.15-.67-2.09-1.1-.54,.25-1.03,.5-1.53,.72-2.11,.93-4.36,1.21-6.62,1.39-2.12,.11-4.59,.37-6.97-.09-1.45-.2-2.28-.65-3.67-1.15,0-.39,0-2.43,.18-2.95,.76-2.1,1.93-2.94,4.14-2.91,.62,0,1.25,.08,1.86,.17,.58,.09,1.17,.17,1.72,.37,2.82,1.04,5.37,.26,7.9-1.14-.23-.09-.4-.14-.56-.23-.2-.11-.38-.24-.56-.36,.44-1.06,.71-1.26,1.64-1.2,.38,.03,.76,.15,1.13,.26,.88,.26,1.34,.1,1.66-.75,.2-.53,.25-1.13,.38-1.75-1.74-.43-3.41-.82-5.06-1.26-2.99-.79-5.92-1.74-8.59-3.34-1.07-.64-2.1-1.36-2.77-2.47,.11-.28,.2-.54,.3-.79,3.93-9.27,7.86-18.55,11.8-27.81,2.02-4.74,4.08-9.46,6.12-14.2C21.77,.94,22.46,.11,23.76,0c1.36,0,2.72,0,4.09,0,.3,0,.6,.01,.9,.02,2.42,.25,4.78,.74,7.04,1.68,1.29,.54,2.13,1.42,2.59,2.7,.22,.62,.36,1.28,.54,1.92,.11,.38,.23,.76,.34,1.14,.45-1.02,.71-2.02,.99-3.02,.32-1.15,1-2.02,2.12-2.51,3.91-1.69,7.96-2.22,12.17-1.54,.99,.16,1.77,.65,2.29,1.48,.35,.56,.64,1.16,.9,1.77,.56,1.29,1.08,2.6,1.64,3.88,4.66,10.7,9.34,21.4,14,32.1,.69,1.57,1.37,3.14,2.08,4.77-.41,.51-.72,1.09-1.2,1.46-.92,.72-1.88,1.41-2.91,1.96-2.67,1.41-5.57,2.24-8.46,3.07-1.26,.37-2.53,.73-3.76,1.09-.03,.23-.06,.35-.05,.46,.08,1.84,.55,2.21,2.33,1.91,.5-.08,1.02-.14,1.51-.08,.77,.1,.93,.39,.94,1.32-.27,.16-.55,.33-1,.6,1.12,.4,2.06,.77,3.02,1.06,1.7,.51,3.38,.51,5.04-.23,1.13-.51,2.35-.58,3.57-.46,1.89,.18,3.39,1.36,3.81,3,.12,.45,.08,2.48,.3,2.86-.86,.57-2.37,1.02-3.97,1.2-3.04,.33-4.76,.14-7.11,.05Zm-10.15-12.63c-3.81-16.42-7.56-32.62-11.33-48.87-.37,.03-.6,.03-.82,.07-.22,.04-.43,.13-.7,.22,3.02,16.42,6.03,32.79,9.06,49.27,1.26-.23,2.4-.44,3.79-.69ZM34.15,2.47c-.59-.19-1.05-.34-1.6-.52-3.6,16.36-8.03,32.46-11.07,48.97,1.19,.21,2.25,.59,3.41,.41,3.09-16.31,6.17-32.55,9.25-48.86ZM11.54,48.45C17.07,32.66,22.56,16.99,28.07,1.28c-.36-.06-.58-.11-.81-.13-.22-.02-.44,0-.7,0-6.08,15.35-12.27,30.6-17.82,46.15,.23,.11,.39,.21,.57,.28,.69,.27,1.38,.54,2.23,.87ZM50.59,1.49c5.49,15.65,10.78,31.28,16.52,46.87,1.05-.45,1.97-.84,2.96-1.26-6.04-15.3-12.02-30.48-17.99-45.61h-1.49Zm-3.03,.32c4.42,16.16,8.81,32.24,13.24,48.47,1.02-.29,2.01-.56,3.01-.85-4.96-16.04-9.86-31.92-14.78-47.83-.54,.08-.95,.14-1.47,.21Zm-17.89-.37c-2.66,7.23-14.51,46.4-14.54,48.14,.87,.22,1.77,.44,2.66,.67C22.21,34,26.6,17.87,31.01,1.66c-.53-.09-.91-.15-1.34-.22Zm23.35,58.02c1.7,.62,4.19,.54,5.21-.15,.1,.04,.22,.07,.31,.13,2.85,2.07,6.04,3.06,9.56,2.96,2.19-.06,4.38-.09,6.56-.25,.94-.07,1.87-.43,2.81-.66,0-.35,0-.54,0-.74-.01-1.78-1.05-3.39-3.39-3.32-1.42,.04-2.79,.29-4.15,.64-.87,.22-1.72,.4-2.64,.14-1.27-.36-2.56-.61-3.81-.89-.46,.51-.87,.96-1.34,1.48-.49-.9,.55-1.06,.49-1.76-.27-.13-.6-.3-.94-.46-.39,.25-.75,.48-1.07,.69-.08,.34-.15,.62-.22,.93-.81-.33-.54-.94-.58-1.43,.27-.29,.52-.57,.75-.82-.41-.78-.99-.53-1.45-.29-1.11,.58-2.29,.45-3.45,.38-.69-.04-1.37-.18-2.08-.28-.59,1.23-.66,2.42-.57,3.71ZM1.03,61.38c1.66,.63,3.38,.95,5.13,1.01,2.42,.09,4.83-.07,7.25-.39,2.2-.28,4.15-1.01,5.95-2.26,.35-.24,.73-.42,1.1-.63,.3,.28,.54,.52,.83,.79,1.39-.12,2.77-.25,4.14-.37,.12-1.39-.15-2.55-.72-3.74-.46,.02-.94-.02-1.39,.08-1.37,.31-2.71,.35-3.98-.34-.56-.3-1.02-.21-1.45,.34,.53,.37,1,.69,1.43,1q-.01,1-.66,1.2c-.03-.38-.07-.75-.11-1.18-.83-.27-1.62-.18-2.39-.05-.1,.74,1.12,1.16,.26,2.08-.36-.62-.67-1.15-1-1.71-.28,.08-.54,.15-.79,.23-2.46,.86-4.94,1.06-7.47,.26-.7-.22-1.44-.37-2.18-.41-1.02-.05-2.03,.08-2.88,.75-1.06,.85-1.28,1.99-1.08,3.31Zm29.13-9.3c.57-3.9,1.1-7.61,1.65-11.33,.59-4.03,1.17-8.05,1.76-12.08,.58-3.95,1.18-7.89,1.78-11.83,.53-3.48,1.08-6.95,1.59-10.43,.08-.54,.1-1.1,.05-1.64-.06-.65-.36-1.17-1.09-1.35-2.81,16.14-5.59,32.23-7.98,48.54,.82,.04,1.47,.08,2.23,.12Zm20.54,0c-2.66-16.38-5.28-32.54-7.93-48.86-.36,.21-.56,.31-.73,.44-.18,.14-.34,.31-.53,.48,2.32,16.04,4.64,32.06,6.97,48.19,.8-.09,1.44-.16,2.22-.25ZM6.15,45.74C12.2,30.96,18.25,16.17,24.37,1.22c-.57,.12-.98,.21-1.5,.32C16.74,15.89,10.61,30.25,4.49,44.59c.35,.66,.81,1.09,1.66,1.15ZM54.27,1.7c6.06,14.77,12.04,29.38,18.42,44.02,.53-.46,.92-.8,1.33-1.15-.96-2.34-1.85-4.59-2.81-6.81-3.43-7.92-6.88-15.83-10.32-23.74-1.59-3.65-3.19-7.3-4.78-10.95-.32-.75-.72-1.37-1.84-1.38Zm-20.88,50.44c.31-2.23,.6-4.32,.88-6.41,.6-4.46,1.19-8.93,1.77-13.39,.45-3.42,.9-6.83,1.33-10.25,.38-3.03,.8-6.05,1.09-9.09,.14-1.47,.03-2.96-.45-4.64-1.96,14.76-4.41,29.18-6.11,43.79h1.48Zm7.33-43.94c-.57,1.13-.75,2.36-.6,3.61,.56,4.62,1.16,9.24,1.75,13.85,.96,7.45,1.91,14.9,2.88,22.35,.19,1.43,.43,2.84,.65,4.27h1.44c-2.05-14.74-4.08-29.41-6.12-44.09Zm12.9,46.75c1.79,.49,3.42,1.05,5.14-.02-.19-.97-.38-1.9-.57-2.85-1.68,.3-3.2,.57-4.78,.85,.08,.71,.14,1.32,.22,2.02Zm-33.29-2.91c-.21,1.03-.4,1.93-.59,2.86,1.78,1.13,3.37,.36,4.96-.06,.09-.73,.17-1.34,.26-2.08-1.53-.24-3.02-.47-4.63-.71Zm41.84,3.25c-.25-.49-.39-.32-.53,.06,.15-.02,.3-.03,.53-.06Zm-45.07-.14c0-.05-.01-.11-.02-.16h-.92c0,.09,.01,.18,.02,.27,.31-.04,.61-.07,.92-.11Z" fill="#141313"/>
            <path d="M57.39,51.03c-1.39,.25-2.52,.46-3.79,.69-3.03-16.48-6.04-32.85-9.06-49.27,.26-.08,.48-.17,.7-.22,.22-.04,.46-.04,.82-.07,3.77,16.24,7.52,32.45,11.33,48.87Z" fill="#f1f0f0"/>
            <path d="M34.15,2.47c-3.09,16.31-6.17,32.55-9.25,48.86-1.16,.18-2.22-.2-3.41-.41,3.04-16.5,7.46-32.6,11.07-48.97,.54,.18,1.01,.33,1.6,.52Z" fill="#f1f0f0"/>
            <path d="M11.54,48.45c-.86-.33-1.55-.6-2.23-.87-.18-.07-.34-.17-.57-.28C14.28,31.75,20.48,16.5,26.56,1.15c.25,0,.48-.02,.7,0,.23,.02,.46,.07,.81,.13-5.5,15.71-10.99,31.37-16.53,47.17Z" fill="#f1f0f0"/>
            <path d="M50.59,1.49h1.49c5.97,15.13,11.95,30.31,17.99,45.61-.99,.42-1.91,.81-2.96,1.26-5.74-15.6-11.03-31.23-16.52-46.87Z" fill="#f1f0f0"/>
            <path d="M47.55,1.81c.51-.07,.93-.13,1.47-.21,4.92,15.92,9.83,31.8,14.78,47.83-1,.28-1.99,.56-3.01,.85-4.43-16.23-8.83-32.31-13.24-48.47Z" fill="#f1f0f0"/>
            <path d="M29.67,1.44c.43,.07,.81,.14,1.34,.22-4.41,16.21-8.8,32.34-13.22,48.58-.9-.22-1.79-.45-2.66-.67,.03-1.74,11.88-40.91,14.54-48.14Z" fill="#f1f0f0"/>
            <path d="M53.02,59.46c-.09-1.29-.02-2.48,.57-3.71,.7,.1,1.39,.24,2.08,.28,1.17,.07,2.34,.2,3.45-.38,.46-.24,1.04-.49,1.45,.29-.23,.25-.48,.52-.75,.82,.04,.49-.23,1.1,.58,1.43,.07-.31,.14-.59,.22-.93,.32-.2,.68-.43,1.07-.69,.34,.17,.67,.33,.94,.46,.07,.7-.98,.86-.49,1.76,.47-.52,.88-.97,1.34-1.48,1.24,.28,2.54,.53,3.81,.89,.92,.26,1.76,.09,2.64-.14,1.36-.35,2.73-.6,4.15-.64,2.34-.07,3.38,1.54,3.39,3.32,0,.19,0,.38,0,.74-.94,.23-1.86,.59-2.81,.66-2.18,.16-4.37,.19-6.56,.25-3.52,.1-6.71-.89-9.56-2.96-.09-.07-.21-.09-.31-.13-1.02,.69-3.51,.77-5.21,.15Z" fill="#e03035"/>
            <path d="M1.03,61.38c-.19-1.32,.02-2.46,1.08-3.31,.84-.68,1.86-.8,2.88-.75,.73,.04,1.48,.19,2.18,.41,2.53,.8,5.01,.6,7.47-.26,.25-.09,.51-.15,.79-.23,.33,.57,.64,1.09,1,1.71,.85-.91-.37-1.34-.26-2.08,.77-.12,1.55-.21,2.39,.05,.04,.43,.07,.81,.11,1.18q.65-.2,.66-1.2c-.44-.3-.91-.63-1.43-1,.43-.55,.89-.64,1.45-.34,1.28,.69,2.61,.65,3.98,.34,.44-.1,.92-.06,1.39-.08,.57,1.19,.84,2.34,.72,3.74-1.37,.12-2.75,.25-4.14,.37-.29-.27-.53-.51-.83-.79-.37,.21-.76,.39-1.1,.63-1.8,1.24-3.75,1.97-5.95,2.26-2.42,.31-4.82,.47-7.25,.39-1.75-.06-3.47-.38-5.13-1.01Z" fill="#e03035"/>
            <path d="M30.16,52.09c-.77-.04-1.41-.07-2.23-.12,2.39-16.31,5.16-32.4,7.98-48.54,.73,.18,1.03,.7,1.09,1.35,.05,.54,.03,1.1-.05,1.64-.52,3.48-1.06,6.95-1.59,10.43-.6,3.94-1.2,7.89-1.78,11.83-.6,4.02-1.18,8.05-1.76,12.08-.54,3.71-1.08,7.43-1.65,11.33Z" fill="#f1f0f0"/>
            <path d="M50.7,52.08c-.78,.09-1.42,.16-2.22,.25-2.33-16.12-4.65-32.14-6.97-48.19,.19-.18,.35-.35,.53-.48,.17-.13,.37-.23,.73-.44,2.65,16.32,5.27,32.49,7.93,48.86Z" fill="#f1f0f0"/>
            <path d="M6.15,45.74c-.86-.05-1.31-.49-1.66-1.15C10.61,30.25,16.74,15.89,22.87,1.54c.53-.11,.93-.2,1.5-.32-6.12,14.95-12.17,29.74-18.22,44.52Z" fill="#f1f0f0"/>
            <path d="M54.27,1.7c1.12,.02,1.51,.64,1.84,1.38,1.59,3.65,3.19,7.3,4.78,10.95,3.45,7.91,6.9,15.82,10.32,23.74,.96,2.22,1.84,4.47,2.81,6.81-.41,.35-.8,.69-1.33,1.15-6.38-14.64-12.36-29.26-18.42-44.02Z" fill="#f1f0f0"/>
            <path d="M33.39,52.14h-1.48c1.7-14.6,4.15-29.03,6.11-43.79,.48,1.69,.59,3.18,.45,4.64-.29,3.04-.71,6.06-1.09,9.09-.43,3.42-.88,6.83-1.33,10.25-.59,4.46-1.18,8.93-1.77,13.39-.28,2.09-.58,4.19-.88,6.41Z" fill="#f1f0f0"/>
            <path d="M40.72,8.2c2.04,14.67,4.07,29.34,6.12,44.09h-1.44c-.22-1.43-.46-2.85-.65-4.27-.97-7.45-1.93-14.9-2.88-22.35-.59-4.62-1.19-9.23-1.75-13.85-.15-1.25,.03-2.48,.6-3.61Z" fill="#f1f0f0"/>
            <path d="M53.61,54.94c-.08-.7-.14-1.31-.22-2.02,1.59-.28,3.11-.55,4.78-.85,.19,.95,.38,1.88,.57,2.85-1.72,1.08-3.35,.51-5.14,.02Z" fill="#f1f0f0"/>
            <path d="M20.32,52.03c1.61,.25,3.1,.48,4.63,.71-.09,.74-.17,1.35-.26,2.08-1.59,.42-3.18,1.19-4.96,.06,.19-.92,.38-1.82,.59-2.86Z" fill="#f1f0f0"/>
          </g>
          <g>
            <path d="M16.98,92.6c-3.8,.92,1.67-12.85,1.63-15.08-2.72,4.2-4.79,10.91-9.47,13.25-4.65-.07-.23-9.23-.25-11.71-2.66,4.17-4.85,9.87-7.65,13.82-2.33-.73-.82-3.74,.19-4.96,1.92-3.72,4.56-8.36,6.62-11.74,.48-.93,1.05-2.77,2.24-2.15,3.52,1.83-1.24,10.5-.63,13.59,3.32-3.5,5.16-8.34,8.05-12.63,.77-1.46,1.78-2.5,3.12-1.07,1.6,1.38-1.06,7.53-1.39,9.75-.62,1.94-.74,3.34-1.15,5.28-.14,1.35,.13,3.24-1.31,3.65Z" fill="#010101"/>
            <path d="M31.4,93.8c-.81-.33-1.37-.93-1.17-1.81,2.05-4.23,3.89-9.84,5.7-14.47-3.51,3.95-6.86,8.56-10.62,12.22-.87,.78-1.92,1.89-3.05,2.25-1.17-.21-1.7-.62-1.45-1.67,1.61-5.59,2.97-11.18,5.66-16.38,.38-.62,.06-1.19,.56-1.55,1.27-.61,2.38,.9,1.84,2.08-1.48,3.64-3.85,10.01-5.28,13.62,1.39-1.42,6.02-5.83,7.09-7.38,1.86-2.43,4.89-5.17,6.9-7.46,.84-.49,1.71-.28,1.99,.71-1.27,4.94-4.02,9.94-5.44,14.98-.52,.93-1.47,5.59-2.73,4.86Z" fill="#010101"/>
            <path d="M38.14,92.57c-1.03-.47-.88-1.47-.64-2.4,1.61-4.77,3.22-10.02,5.44-14.66,.25-.3,.45-1.26,.8-1.57,1.31-.79,1.98-.23,2.05,1.08-.75,2.15-2.3,4.66-2.91,6.86-.69,1.66-1.53,3.66-2.03,5.5-.5,.89-1.33,6.65-2.72,5.18Zm3.25-10.23c1.8-.74,11.44-10.8,12.11-7.45,.37,.82,.24,1.15-.6,1.59-2.39,1.29-4.43,3.31-6.42,4.61-1.19,1.2-2.93,2.01-4.13,3.25l-.96-2Zm6.18,10.18c-3.26-1.2-5.12-5.21-5.7-8.45,0,0,.03-1.65,.03-1.65l1.95-.13c.33,3.03,1.68,6.64,4.5,7.86,1.92,.45,1.1,3.48-.77,2.37Z" fill="#010101"/>
            <path d="M53.52,92.25c-4.21-2.31-1.08-10.58,.88-13.99,1.3-2.33,3.68-4.29,5.81-4.74,10.76-2.3,.97,22.54-6.69,18.73Zm5.48-9.04c2.01,0,5.33-7.41,2.13-7.27-1.56,.66-4.67,6.79-2.13,7.27Z" fill="#e03035"/>
            <path d="M67.88,93.08c-8.29-2.88,1.43-22.34,8.39-20.16,3.33,1.33,.43,8.69-1.43,7.85-.48-.13-1.44-.82-1.11-1.2,.45-.59,1.07-1.75,1.33-2.45,1.92-7.09-8.45,5.04-7.78,10.14-.51,6.29,4.57,1.91,7.44,.71,3.47,1.24-5.32,5.86-6.85,5.12Z" fill="#010101"/>
          </g>
          <g>
            <path d="M0,98.07H4.73v.81H0v-.81Zm1.85,.36h1.02v4.14H1.85v-4.14Z" fill="#010101"/>
            <path d="M7.62,102.68c-1.93,.15-3.39-1.92-2.36-3.6,1.36-2.12,4.95-1.05,4.67,1.6H5.73v-.79h3.69l-.51,.29c.06-1.49-2.06-1.94-2.75-.73-1.06,2.33,2.19,3.03,3.65,1.79v.75c-.57,.45-1.44,.69-2.19,.68Z" fill="#010101"/>
            <path d="M15.25,100.32c-.27,2.95-4.78,3.19-4.71,0-.08-3.18,4.46-2.96,4.71,0Zm-3.67,0c0,2.17,2.9,1.8,3.31,0-.41-1.8-3.31-2.17-3.31,0Zm3.35,2.25l-.17-1.67,.2-.58-.2-.57,.17-1.68h1.06l-.24,2.25,.24,2.25h-1.06Z" fill="#010101"/>
            <path d="M16.53,98.07h4.73v.81h-4.73v-.81Zm1.85,.36h1.02v4.14h-1.02v-4.14Z" fill="#010101"/>
            <path d="M21.9,98.07h1.02c-.04,1.65,0,4.14,0,5.81h-1.02v-5.81Zm.63,2.25c.26-2.96,4.79-3.19,4.71,0,.07,3.19-4.44,2.95-4.71,0Zm3.67,0c0-2.18-2.89-1.8-3.31,0,.42,1.8,3.3,2.17,3.31,0Z" fill="#010101"/>
            <path d="M30.18,102.57v-4.5h1.02v3.63l-.31-.11,2.84-3.51h1.17l-3.78,4.5h-.95Zm3.67,0l-1.39-2.23,.72-.65,1.87,2.88h-1.2Z" fill="#010101"/>
            <path d="M36.34,98.07h4.39v4.5h-1.02v-4.18l.47,.48h-3.32l.44-.37c.23,1.72,.31,5.04-2.19,3.96v-.77c1.96,.67,1.26-2.43,1.24-3.62Z" fill="#010101"/>
            <path d="M44.28,102.68c-3.57,.17-3.57-4.89,0-4.72,3.57-.17,3.57,4.89,0,4.72Zm0-.81c2.2,.17,2.2-3.27,0-3.1-2.2-.17-2.2,3.27,0,3.1Z" fill="#010101"/>
            <path d="M49.17,102.43l-2.05-4.36h1.13l1.94,4.36h-1.02Zm-.51,1.57c-.49,0-.91-.12-1.31-.37v-.79c.68,.46,1.8,.62,2.17-.29,0,0,2.01-4.47,2.01-4.47h1.09c-.83,1.12-2.07,6.16-3.96,5.92Z" fill="#010101"/>
            <path d="M53.22,98.07h1.02v4.5h-1.02v-4.5Zm.57,1.82h3.64v.8h-3.64v-.8Zm3.21-1.82h1.02v4.5h-1.02v-4.5Z" fill="#010101"/>
            <path d="M63.59,100.32c-.27,2.95-4.78,3.19-4.71,0-.08-3.18,4.46-2.96,4.71,0Zm-3.67,0c0,2.17,2.9,1.8,3.31,0-.41-1.8-3.31-2.17-3.31,0Zm3.35,2.25l-.17-1.67,.2-.58-.2-.57,.17-1.68h1.06l-.24,2.25,.24,2.25h-1.06Z" fill="#010101"/>
            <path d="M71.08,101.77v1.93h-.89v-1.14h-4.46v1.14h-.89v-1.93c1.74,.02,4.5,.02,6.24,0Zm-5.25-3.71h4.42v4.2h-1.02v-3.88l.47,.48h-3.33l.44-.35c.07,1.24,.34,3.52-1.12,3.75l-.42-.36c.74-.43,.71-2.72,.56-3.84Z" fill="#010101"/>
            <path d="M71.82,102.57v-4.5h1.02v4.21l-.36-.48c.71-.13,2.84,.45,2.8-.79,.05-1.24-2.06-.67-2.76-.8v-.74c.66,.05,2.39-.14,2.95,.19,1.13,.47,1.13,2.23,0,2.7-.58,.35-2.97,.13-3.65,.19Zm5.01-4.5h1.02v4.5h-1.02v-4.5Z" fill="#010101"/>
          </g>
        </g>
      </g>
      <g id="Logo_Vertical_2_копия_2" data-name="Logo Vertical 2 копия 2">
        <line x1="84.21" y1="0" x2="84.21" y2="104" fill="none" opacity=".3" stroke="#010101" stroke-miterlimit="10" stroke-width=".64"/>
        <g opacity=".6">
          <path d="M93.62,46.59v9h-1.58v-8.52l.86,.77-3.77,.66v-1.26l3.3-.65h1.19Z" fill="#1d1d1b"/>
          <path d="M100.04,55.76c-.98,0-1.83-.19-2.54-.58-.71-.39-1.26-.93-1.64-1.63-.38-.7-.58-1.52-.58-2.45s.19-1.75,.58-2.45c.38-.7,.93-1.24,1.64-1.63s1.56-.58,2.54-.58,1.83,.19,2.54,.58,1.25,.93,1.64,1.63c.38,.7,.58,1.52,.58,2.45s-.19,1.75-.58,2.45c-.38,.7-.93,1.24-1.64,1.63-.71,.39-1.55,.58-2.54,.58Zm0-1.31c1,0,1.78-.29,2.33-.88,.55-.59,.83-1.41,.83-2.48s-.28-1.89-.83-2.48c-.55-.59-1.33-.88-2.33-.88s-1.78,.29-2.33,.88-.83,1.41-.83,2.48,.28,1.89,.83,2.48,1.33,.88,2.33,.88Z" fill="#1d1d1b"/>
          <path d="M113.05,46.59v9h-1.58v-8.34h.65l-5.16,5.74-.04-.56h7.78v1.27h-9.02v-1.14l5.36-5.96h2.02Z" fill="#1d1d1b"/>
          <path d="M119.04,48.8h1.56v2.36l-.07,.24v1.37l.07,.42v4.38h-1.56v-8.77Zm.96,3.4c.15-.72,.4-1.35,.76-1.88s.79-.95,1.3-1.24c.52-.3,1.09-.44,1.72-.44,.66,0,1.25,.15,1.76,.45,.51,.3,.91,.72,1.2,1.25,.29,.53,.43,1.15,.43,1.87s-.14,1.32-.43,1.86c-.29,.54-.69,.95-1.2,1.25-.51,.3-1.1,.45-1.76,.45s-1.2-.15-1.72-.44c-.51-.3-.95-.71-1.3-1.25s-.61-1.16-.76-1.87Zm5.59,0c0-.46-.09-.86-.28-1.21-.19-.35-.45-.62-.77-.82-.33-.2-.7-.29-1.13-.29s-.82,.1-1.19,.29c-.37,.2-.7,.47-.98,.82-.28,.35-.51,.75-.68,1.21,.18,.46,.4,.86,.68,1.21,.28,.35,.61,.62,.98,.82,.37,.2,.77,.29,1.19,.29s.8-.1,1.13-.29c.33-.2,.59-.47,.77-.82,.19-.35,.28-.75,.28-1.21Z" fill="#1d1d1b"/>
          <path d="M127.18,55.59l3.28-3.88v.77s-3.08-3.68-3.08-3.68h1.79l2.33,2.76h-.66l2.34-2.76h1.73l-3.13,3.71-.06-.9,3.38,3.98h-1.79l-2.54-2.98h.68l-2.52,2.98h-1.74Z" fill="#1d1d1b"/>
        </g>
      </g>
    </g>
  </g>
</svg>