<?xml version="1.0" encoding="UTF-8"?>
<svg id="_Слой_2" data-name="Слой 2" xmlns="http://www.w3.org/2000/svg" viewBox="0 0 146.67 113.39">
  <g id="_Минимальные_размеры" data-name="Минимальные размеры">
    <g id="_Логотипы_копия_" data-name="Логотипы (копия)">
      <g id="Logo_Vertical_2_копия_2" data-name="Logo Vertical 2 копия 2">
        <g>
          <g>
            <path d="M73.63,69.4c-2.9-.24-5.73-.72-8.33-2.09-.28,.37-.52,.7-.77,1.03-2.78,.09-5.48-.14-8.33-.59,.05-.81,.03-1.53,.16-2.22,.31-1.68,.71-3.33,1.02-5.01,.17-.9,.24-1.83-.17-2.76-1.1,.15-2.11,.34-3.13,.41-1.53,.1-3.06,.2-4.59,.14-1.06-.04-1.3-.39-1.44-1.44-.95-7.06-1.9-14.12-2.83-21.18-.73-5.58-1.44-11.16-2.19-16.97-.15,.58-.27,.95-.32,1.32-.54,3.97-1.08,7.95-1.61,11.92-.64,4.82-1.28,9.64-1.91,14.46-.42,3.21-.81,6.43-1.22,9.64-.1,.77-.23,1.52-1.03,2.19-2.78-.18-5.7-.37-8.72-.56-.08,.54-.25,1.01-.2,1.44,.17,1.39,.39,2.77,.64,4.15,.25,1.37,.4,2.67,.62,4.41-.48,.13-.99,.08-1.44,.13-1.69,.18-3.4,.27-5.09,.49-.31,.03-1.25-.73-2.28-1.2-.59,.28-1.12,.54-1.67,.78-2.3,1.01-4.75,1.32-7.22,1.51-2.31,.12-5.01,.4-7.6-.1-1.58-.22-2.49-.71-4-1.26,0-.43-.01-2.65,.2-3.22,.83-2.29,2.1-3.2,4.51-3.18,.68,0,1.36,.09,2.03,.19,.63,.09,1.28,.18,1.87,.4,3.08,1.13,5.85,.29,8.61-1.24-.25-.1-.44-.15-.61-.25-.21-.12-.41-.27-.61-.39,.48-1.15,.77-1.38,1.78-1.3,.42,.03,.83,.16,1.24,.28,.96,.29,1.46,.11,1.81-.82,.22-.58,.27-1.23,.41-1.91-1.9-.47-3.72-.9-5.52-1.37-3.26-.86-6.46-1.9-9.37-3.64-1.17-.7-2.29-1.48-3.02-2.69,.12-.31,.22-.59,.33-.86,4.29-10.11,8.56-20.22,12.87-30.32,2.2-5.17,4.45-10.32,6.68-15.48C23.73,1.03,24.49,.12,25.91,0c1.49,0,2.97,0,4.46,0,.33,0,.66,.01,.98,.02,2.64,.28,5.21,.8,7.68,1.83,1.41,.58,2.32,1.55,2.82,2.95,.24,.68,.39,1.39,.58,2.09,.12,.42,.25,.83,.38,1.25,.49-1.11,.77-2.21,1.08-3.29,.35-1.26,1.09-2.2,2.31-2.73C50.46,.26,54.87-.32,59.46,.42c1.08,.17,1.92,.71,2.5,1.62,.39,.61,.7,1.27,.98,1.93,.61,1.4,1.18,2.83,1.79,4.23,5.09,11.67,10.18,23.33,15.27,34.99,.75,1.71,1.49,3.43,2.26,5.2-.45,.56-.79,1.19-1.3,1.6-1,.78-2.05,1.54-3.17,2.13-2.91,1.54-6.07,2.44-9.22,3.35-1.38,.4-2.76,.8-4.1,1.19-.03,.25-.06,.38-.06,.5,.08,2,.6,2.41,2.54,2.08,.54-.09,1.11-.16,1.65-.09,.83,.1,1.02,.42,1.02,1.44-.3,.18-.6,.36-1.09,.65,1.23,.43,2.25,.84,3.3,1.15,1.85,.56,3.69,.56,5.5-.25,1.24-.55,2.56-.63,3.89-.5,2.06,.2,3.69,1.48,4.16,3.27,.13,.49,.08,2.7,.33,3.11-.93,.62-2.58,1.11-4.33,1.31-3.32,.36-5.19,.15-7.76,.05Zm-11.06-13.77c-4.15-17.9-8.25-35.57-12.35-53.28-.4,.03-.65,.03-.9,.08-.24,.05-.47,.14-.76,.24,3.29,17.91,6.58,35.75,9.88,53.72,1.38-.25,2.62-.48,4.13-.75ZM37.23,2.69c-.64-.21-1.15-.37-1.74-.56-3.93,17.84-8.75,35.39-12.06,53.38,1.29,.23,2.45,.64,3.71,.44,3.37-17.78,6.72-35.49,10.09-53.27ZM12.58,52.83C18.62,35.61,24.6,18.53,30.6,1.4c-.39-.07-.64-.12-.89-.15-.24-.02-.48,0-.76,0-6.63,16.74-13.38,33.36-19.43,50.32,.25,.12,.43,.23,.62,.31,.75,.3,1.5,.59,2.44,.95ZM55.15,1.63c5.98,17.06,11.76,34.1,18.01,51.1,1.15-.49,2.15-.92,3.23-1.38-6.58-16.69-13.1-33.23-19.61-49.73h-1.63Zm-3.31,.35c4.81,17.62,9.6,35.15,14.44,52.85,1.11-.31,2.19-.61,3.28-.92-5.4-17.48-10.75-34.8-16.12-52.15-.59,.08-1.04,.15-1.6,.23Zm-19.5-.4c-2.9,7.88-15.82,50.59-15.86,52.48,.95,.24,1.93,.48,2.9,.73C24.21,37.07,29,19.49,33.8,1.81c-.58-.1-.99-.17-1.46-.24Zm25.46,63.25c1.85,.68,4.57,.59,5.68-.16,.11,.04,.24,.07,.34,.14,3.11,2.26,6.58,3.33,10.42,3.22,2.39-.07,4.78-.1,7.16-.27,1.03-.08,2.03-.47,3.06-.72,0-.38,0-.59,0-.8-.01-1.94-1.15-3.7-3.7-3.62-1.55,.05-3.04,.32-4.52,.7-.95,.24-1.87,.43-2.88,.15-1.38-.39-2.8-.66-4.15-.97-.5,.56-.95,1.04-1.46,1.61-.54-.98,.6-1.15,.53-1.92-.3-.15-.66-.32-1.03-.51-.43,.28-.82,.52-1.17,.75-.09,.37-.16,.67-.24,1.01-.88-.36-.59-1.02-.63-1.56,.3-.32,.57-.62,.82-.89-.45-.85-1.08-.58-1.58-.32-1.21,.63-2.49,.49-3.76,.42-.75-.04-1.5-.2-2.27-.31-.65,1.34-.72,2.63-.62,4.04ZM1.12,66.92c1.81,.68,3.68,1.03,5.59,1.1,2.64,.1,5.27-.08,7.9-.42,2.4-.31,4.52-1.1,6.49-2.46,.38-.26,.8-.46,1.2-.68,.32,.31,.59,.57,.9,.86,1.51-.14,3.02-.27,4.51-.4,.13-1.52-.16-2.78-.79-4.07-.51,.02-1.03-.03-1.51,.09-1.5,.34-2.95,.38-4.34-.37-.61-.33-1.11-.23-1.58,.37,.57,.4,1.09,.76,1.56,1.09q-.01,1.09-.72,1.31c-.04-.41-.08-.82-.12-1.29-.91-.29-1.76-.19-2.6-.06-.11,.81,1.22,1.27,.29,2.27-.39-.67-.73-1.25-1.09-1.87-.3,.09-.58,.16-.86,.25-2.68,.94-5.38,1.16-8.14,.29-.76-.24-1.58-.41-2.37-.45-1.11-.05-2.22,.08-3.14,.82-1.16,.93-1.39,2.17-1.18,3.61Zm31.76-10.14c.62-4.25,1.2-8.3,1.79-12.35,.64-4.39,1.27-8.78,1.92-13.17,.64-4.3,1.29-8.6,1.95-12.9,.58-3.79,1.17-7.58,1.74-11.37,.09-.59,.11-1.2,.05-1.79-.07-.7-.4-1.27-1.19-1.47-3.07,17.6-6.09,35.14-8.7,52.92,.9,.05,1.6,.08,2.44,.13Zm22.39-.01c-2.9-17.86-5.76-35.48-8.65-53.27-.39,.23-.61,.34-.8,.48-.2,.15-.37,.33-.58,.53,2.53,17.49,5.06,34.96,7.6,52.53,.88-.1,1.57-.18,2.42-.27ZM6.71,49.87C13.3,33.75,19.9,17.63,26.57,1.33c-.63,.13-1.06,.23-1.64,.35-6.68,15.65-13.36,31.3-20.04,46.93,.39,.71,.88,1.19,1.81,1.25ZM59.16,1.85c6.61,16.1,13.13,32.03,20.08,48,.58-.5,1.01-.87,1.45-1.25-1.05-2.56-2.01-5.01-3.06-7.43-3.74-8.63-7.5-17.25-11.25-25.88-1.73-3.98-3.48-7.95-5.21-11.94-.35-.82-.78-1.49-2-1.51Zm-22.76,54.99c.33-2.43,.66-4.71,.96-6.99,.65-4.87,1.29-9.73,1.93-14.6,.49-3.72,.98-7.45,1.45-11.17,.42-3.3,.87-6.6,1.19-9.91,.15-1.6,.03-3.22-.49-5.06-2.13,16.09-4.81,31.82-6.66,47.74h1.61Zm7.99-47.91c-.62,1.23-.82,2.57-.66,3.93,.62,5.04,1.27,10.07,1.91,15.1,1.04,8.12,2.09,16.25,3.14,24.37,.2,1.55,.47,3.1,.7,4.66h1.57c-2.23-16.07-4.45-32.07-6.67-48.06Zm14.06,50.96c1.95,.53,3.73,1.15,5.6-.02-.21-1.06-.42-2.07-.62-3.11-1.83,.33-3.48,.62-5.22,.93,.08,.78,.15,1.44,.24,2.2Zm-36.29-3.17c-.23,1.12-.44,2.11-.64,3.11,1.95,1.23,3.68,.39,5.41-.07,.1-.8,.18-1.46,.28-2.27-1.67-.26-3.29-.51-5.05-.78Zm45.61,3.55c-.27-.53-.43-.35-.58,.06,.16-.02,.32-.03,.58-.06Zm-49.13-.15c0-.06-.01-.12-.02-.17h-1.01c0,.1,.01,.19,.02,.29,.33-.04,.67-.08,1-.12Z" fill="#141313"/>
            <path d="M62.56,55.63c-1.51,.28-2.75,.5-4.13,.75-3.31-17.97-6.59-35.81-9.88-53.72,.29-.09,.52-.19,.76-.24,.24-.05,.5-.05,.9-.08,4.11,17.71,8.2,35.38,12.35,53.28Z" fill="#f1f0f0"/>
            <path d="M37.23,2.69c-3.37,17.78-6.72,35.49-10.09,53.27-1.26,.2-2.42-.21-3.71-.44,3.31-17.99,8.14-35.55,12.06-53.38,.59,.19,1.1,.36,1.74,.56Z" fill="#f1f0f0"/>
            <path d="M12.58,52.83c-.93-.36-1.69-.65-2.44-.95-.19-.08-.37-.18-.62-.31C15.57,34.61,22.32,17.99,28.95,1.25c.28,0,.52-.02,.76,0,.25,.02,.5,.08,.89,.15-6,17.13-11.99,34.21-18.02,51.43Z" fill="#f1f0f0"/>
            <path d="M55.15,1.63h1.63c6.51,16.5,13.03,33.04,19.61,49.73-1.08,.46-2.08,.89-3.23,1.38-6.26-17-12.03-34.04-18.01-51.1Z" fill="#f1f0f0"/>
            <path d="M51.84,1.97c.56-.08,1.01-.14,1.6-.23,5.36,17.35,10.71,34.67,16.12,52.15-1.09,.31-2.17,.61-3.28,.92-4.83-17.7-9.62-35.23-14.44-52.85Z" fill="#f1f0f0"/>
            <path d="M32.34,1.57c.47,.08,.88,.15,1.46,.24-4.81,17.67-9.59,35.26-14.41,52.97-.98-.24-1.95-.49-2.9-.73,.04-1.9,12.96-44.6,15.86-52.48Z" fill="#f1f0f0"/>
            <path d="M57.8,64.82c-.1-1.41-.02-2.71,.62-4.04,.77,.11,1.51,.27,2.27,.31,1.27,.08,2.55,.21,3.76-.42,.5-.26,1.13-.54,1.58,.32-.25,.27-.53,.57-.82,.89,.04,.54-.25,1.2,.63,1.56,.08-.34,.15-.64,.24-1.01,.35-.22,.74-.47,1.17-.75,.37,.18,.73,.36,1.03,.51,.07,.77-1.07,.94-.53,1.92,.52-.57,.96-1.05,1.46-1.61,1.35,.31,2.77,.58,4.15,.97,1,.28,1.92,.09,2.88-.15,1.48-.38,2.97-.65,4.52-.7,2.55-.08,3.69,1.68,3.7,3.62,0,.21,0,.42,0,.8-1.03,.25-2.03,.65-3.06,.72-2.38,.17-4.77,.21-7.16,.27-3.84,.11-7.31-.97-10.42-3.22-.1-.07-.23-.1-.34-.14-1.11,.75-3.83,.84-5.68,.16Z" fill="#e03035"/>
            <path d="M1.12,66.92c-.21-1.44,.02-2.68,1.18-3.61,.92-.74,2.03-.88,3.14-.82,.8,.04,1.61,.2,2.37,.45,2.76,.87,5.46,.65,8.14-.29,.27-.1,.56-.17,.86-.25,.36,.62,.7,1.19,1.09,1.87,.93-1-.4-1.46-.29-2.27,.84-.14,1.69-.23,2.6,.06,.04,.47,.08,.88,.12,1.29q.71-.22,.72-1.31c-.47-.33-.99-.69-1.56-1.09,.47-.6,.97-.7,1.58-.37,1.39,.75,2.85,.71,4.34,.37,.48-.11,1-.06,1.51-.09,.63,1.29,.92,2.55,.79,4.07-1.49,.13-3,.27-4.51,.4-.31-.3-.58-.55-.9-.86-.4,.23-.83,.42-1.2,.68-1.96,1.36-4.09,2.15-6.49,2.46-2.63,.34-5.26,.52-7.9,.42-1.91-.07-3.78-.42-5.59-1.1Z" fill="#e03035"/>
            <path d="M32.88,56.79c-.83-.04-1.54-.08-2.44-.13,2.6-17.78,5.63-35.32,8.7-52.92,.79,.2,1.12,.76,1.19,1.47,.06,.59,.03,1.2-.05,1.79-.56,3.79-1.16,7.58-1.74,11.37-.65,4.3-1.31,8.6-1.95,12.9-.65,4.39-1.28,8.78-1.92,13.17-.59,4.05-1.18,8.1-1.79,12.35Z" fill="#f1f0f0"/>
            <path d="M55.27,56.78c-.85,.1-1.55,.17-2.42,.27-2.54-17.58-5.07-35.04-7.6-52.53,.21-.19,.38-.38,.58-.53,.19-.14,.41-.25,.8-.48,2.89,17.79,5.75,35.42,8.65,53.27Z" fill="#f1f0f0"/>
            <path d="M6.71,49.87c-.93-.06-1.43-.54-1.81-1.25C11.57,32.98,18.25,17.33,24.93,1.68c.57-.12,1.01-.22,1.64-.35C19.9,17.63,13.3,33.75,6.71,49.87Z" fill="#f1f0f0"/>
            <path d="M59.16,1.85c1.22,.02,1.65,.69,2,1.51,1.73,3.98,3.48,7.96,5.21,11.94,3.76,8.62,7.52,17.25,11.25,25.88,1.05,2.42,2.01,4.87,3.06,7.43-.44,.38-.87,.75-1.45,1.25-6.95-15.96-13.47-31.9-20.08-48Z" fill="#f1f0f0"/>
            <path d="M36.4,56.85h-1.61c1.85-15.92,4.53-31.65,6.66-47.74,.53,1.84,.65,3.46,.49,5.06-.32,3.31-.77,6.61-1.19,9.91-.47,3.73-.96,7.45-1.45,11.17-.64,4.87-1.28,9.73-1.93,14.6-.31,2.28-.63,4.56-.96,6.99Z" fill="#f1f0f0"/>
            <path d="M44.39,8.94c2.22,16,4.44,31.99,6.67,48.06h-1.57c-.24-1.56-.5-3.1-.7-4.66-1.06-8.12-2.1-16.25-3.14-24.37-.65-5.03-1.3-10.07-1.91-15.1-.17-1.36,.04-2.7,.66-3.93Z" fill="#f1f0f0"/>
            <path d="M58.45,59.9c-.08-.76-.15-1.43-.24-2.2,1.73-.31,3.39-.6,5.22-.93,.21,1.04,.41,2.05,.62,3.11-1.88,1.17-3.65,.55-5.6,.02Z" fill="#f1f0f0"/>
            <path d="M22.16,56.73c1.75,.27,3.37,.52,5.05,.78-.1,.81-.18,1.47-.28,2.27-1.73,.46-3.46,1.29-5.41,.07,.21-1.01,.41-1.99,.64-3.11Z" fill="#f1f0f0"/>
          </g>
          <g>
            <path d="M18.51,100.96c-4.14,1.01,1.82-14,1.77-16.45-2.96,4.58-5.23,11.89-10.33,14.44-5.06-.08-.25-10.07-.28-12.77-2.9,4.54-5.29,10.76-8.34,15.06-2.54-.8-.9-4.07,.2-5.4,2.1-4.06,4.97-9.12,7.22-12.8,.52-1.01,1.14-3.02,2.44-2.34,3.84,1.99-1.35,11.45-.68,14.82,3.62-3.82,5.62-9.09,8.78-13.77,.84-1.6,1.94-2.72,3.4-1.16,1.74,1.5-1.15,8.21-1.51,10.63-.67,2.11-.81,3.65-1.25,5.75-.15,1.47,.15,3.54-1.42,3.98Z" fill="#010101"/>
            <path d="M34.23,102.26c-.89-.36-1.49-1.02-1.28-1.98,2.23-4.61,4.24-10.73,6.22-15.78-3.83,4.31-7.48,9.33-11.58,13.32-.95,.85-2.09,2.06-3.33,2.46-1.28-.22-1.86-.68-1.58-1.82,1.76-6.1,3.24-12.19,6.17-17.85,.42-.68,.06-1.29,.61-1.69,1.38-.67,2.59,.98,2,2.27-1.61,3.97-4.2,10.92-5.75,14.85,1.51-1.55,6.56-6.36,7.73-8.05,2.02-2.65,5.33-5.64,7.53-8.14,.91-.53,1.86-.3,2.16,.77-1.38,5.39-4.38,10.84-5.93,16.33-.56,1.01-1.6,6.1-2.98,5.3Z" fill="#010101"/>
            <path d="M41.58,100.93c-1.13-.51-.96-1.6-.7-2.61,1.75-5.2,3.51-10.92,5.93-15.98,.27-.32,.49-1.37,.87-1.71,1.43-.86,2.16-.25,2.24,1.18-.82,2.35-2.51,5.09-3.17,7.48-.75,1.81-1.67,3.99-2.21,6-.55,.97-1.45,7.25-2.96,5.65Zm3.54-11.16c1.96-.81,12.48-11.77,13.2-8.12,.4,.89,.26,1.25-.65,1.73-2.61,1.4-4.83,3.61-7,5.03-1.29,1.31-3.19,2.19-4.5,3.54l-1.05-2.18Zm6.74,11.1c-3.56-1.31-5.58-5.68-6.22-9.21,0,0,.03-1.8,.03-1.8l2.12-.15c.35,3.31,1.84,7.24,4.91,8.57,2.09,.49,1.2,3.79-.84,2.59Z" fill="#010101"/>
            <path d="M58.35,100.58c-4.59-2.52-1.17-11.53,.96-15.25,1.42-2.54,4.01-4.68,6.33-5.17,11.74-2.5,1.06,24.57-7.29,20.43Zm5.98-9.85c2.19,0,5.81-8.08,2.32-7.92-1.7,.72-5.1,7.4-2.32,7.92Z" fill="#e03035"/>
            <path d="M74.01,101.48c-9.04-3.14,1.55-24.36,9.15-21.98,3.63,1.45,.47,9.47-1.55,8.56-.52-.14-1.57-.9-1.21-1.31,.49-.64,1.17-1.9,1.45-2.67,2.09-7.73-9.22,5.49-8.48,11.06-.56,6.86,4.98,2.08,8.11,.77,3.78,1.35-5.8,6.39-7.47,5.58Z" fill="#010101"/>
          </g>
          <g>
            <path d="M0,106.92H5.15v.88H0v-.88Zm2.02,.39h1.12v4.52h-1.12v-4.52Z" fill="#010101"/>
            <path d="M8.3,111.95c-2.1,.16-3.7-2.1-2.57-3.92,1.48-2.31,5.4-1.14,5.1,1.75H6.25v-.86h4.02l-.56,.32c.06-1.62-2.25-2.12-3-.79-1.16,2.54,2.38,3.31,3.98,1.95v.81c-.62,.49-1.57,.75-2.39,.75Z" fill="#010101"/>
            <path d="M16.62,109.37c-.29,3.22-5.22,3.47-5.13,0-.09-3.47,4.86-3.22,5.13,0Zm-4,0c0,2.37,3.16,1.96,3.61,0-.44-1.97-3.61-2.37-3.61,0Zm3.66,2.45l-.19-1.82,.22-.63-.22-.62,.19-1.83h1.15l-.26,2.45,.26,2.45h-1.15Z" fill="#010101"/>
            <path d="M18.02,106.92h5.15v.88h-5.15v-.88Zm2.02,.39h1.12v4.52h-1.12v-4.52Z" fill="#010101"/>
            <path d="M23.88,106.92h1.12c-.04,1.79,0,4.52,0,6.34h-1.12v-6.34Zm.69,2.45c.29-3.22,5.22-3.47,5.13,0,.08,3.47-4.84,3.22-5.13,0Zm4,0c0-2.37-3.15-1.96-3.61,0,.45,1.96,3.6,2.37,3.61,0Z" fill="#010101"/>
            <path d="M32.9,111.83v-4.91h1.12v3.95l-.33-.12,3.1-3.83h1.27l-4.12,4.91h-1.03Zm4,0l-1.51-2.43,.78-.71,2.03,3.14h-1.31Z" fill="#010101"/>
            <path d="M39.62,106.92h4.78v4.91h-1.12v-4.56l.52,.52h-3.62l.48-.4c.25,1.88,.34,5.5-2.39,4.32v-.84c2.14,.73,1.37-2.65,1.35-3.94Z" fill="#010101"/>
            <path d="M48.27,111.95c-3.89,.18-3.89-5.34,0-5.15,3.89-.19,3.89,5.33,0,5.15Zm0-.88c2.4,.19,2.4-3.57,0-3.38-2.4-.18-2.4,3.56,0,3.38Z" fill="#010101"/>
            <path d="M53.61,111.67l-2.23-4.75h1.23l2.11,4.75h-1.11Zm-.56,1.71c-.54,0-.99-.14-1.43-.41v-.86c.74,.5,1.96,.68,2.37-.32,0,0,2.19-4.87,2.19-4.87h1.18c-.9,1.22-2.25,6.71-4.32,6.46Z" fill="#010101"/>
            <path d="M58.03,106.92h1.11v4.91h-1.11v-4.91Zm.63,1.99h3.97v.87h-3.97v-.87Zm3.5-1.99h1.11v4.91h-1.11v-4.91Z" fill="#010101"/>
            <path d="M69.32,109.37c-.29,3.22-5.22,3.47-5.13,0-.09-3.47,4.86-3.22,5.13,0Zm-4,0c0,2.37,3.16,1.96,3.61,0-.44-1.97-3.61-2.37-3.61,0Zm3.66,2.45l-.19-1.82,.22-.63-.22-.62,.19-1.83h1.15l-.26,2.45,.26,2.45h-1.15Z" fill="#010101"/>
            <path d="M77.5,110.96v2.11h-.97v-1.24h-4.86v1.24h-.97v-2.11c1.89,.02,4.91,.02,6.8,0Zm-5.72-4.04h4.82v4.58h-1.12v-4.23l.52,.52h-3.63l.48-.38c.07,1.36,.37,3.83-1.22,4.09l-.46-.39c.81-.47,.77-2.97,.61-4.19Z" fill="#010101"/>
            <path d="M78.31,111.83v-4.91h1.12v4.59l-.39-.52c.77-.14,3.1,.49,3.05-.86,.06-1.35-2.25-.73-3.01-.87v-.81c.72,.05,2.6-.15,3.22,.21,1.23,.52,1.23,2.43,0,2.94-.63,.38-3.24,.15-3.98,.21Zm5.46-4.91h1.12v4.91h-1.12v-4.91Z" fill="#010101"/>
          </g>
        </g>
        <line x1="95.59" x2="95.59" y2="113.39" fill="none" opacity=".3" stroke="#010101" stroke-miterlimit="10" stroke-width=".67"/>
        <g opacity=".6">
          <path d="M108.07,52.19v9h-1.58v-8.34h.65l-5.16,5.74-.04-.56h7.78v1.27h-9.02v-1.14l5.36-5.96h2.02Z" fill="#1d1d1b"/>
          <path d="M115.41,61.36c-.98,0-1.83-.19-2.54-.58-.71-.39-1.26-.93-1.64-1.63-.38-.7-.58-1.52-.58-2.45s.19-1.75,.58-2.45c.38-.7,.93-1.24,1.64-1.63s1.56-.58,2.54-.58,1.83,.19,2.54,.58,1.25,.93,1.64,1.63c.38,.7,.58,1.52,.58,2.45s-.19,1.75-.58,2.45c-.38,.7-.93,1.24-1.64,1.63-.71,.39-1.55,.58-2.54,.58Zm0-1.31c1,0,1.78-.29,2.33-.88,.55-.59,.83-1.41,.83-2.48s-.28-1.89-.83-2.48c-.55-.59-1.33-.88-2.33-.88s-1.78,.29-2.33,.88-.83,1.41-.83,2.48,.28,1.89,.83,2.48,1.33,.88,2.33,.88Z" fill="#1d1d1b"/>
          <path d="M124.77,61.19v-6.79h2.32l2.86,6.05h-.61l2.83-6.05h2.32v6.79h-1.46v-6.28h.41l-3.04,6.28h-1.52l-3.04-6.25h.41s0,6.25,0,6.25h-1.46Z" fill="#1d1d1b"/>
          <path d="M136.13,61.19v-6.79h2.32l2.86,6.05h-.61l2.83-6.05h2.32v6.79h-1.46v-6.28h.41l-3.04,6.28h-1.52l-3.04-6.25h.41s0,6.25,0,6.25h-1.46Z" fill="#1d1d1b"/>
        </g>
      </g>
    </g>
  </g>
</svg>