<?xml version="1.0" encoding="UTF-8"?>
<svg id="_Слой_2" data-name="Слой 2" xmlns="http://www.w3.org/2000/svg" viewBox="0 0 78 103.18">
  <g id="_Минимальные_размеры" data-name="Минимальные размеры">
    <g id="_Логотипы_копия_" data-name="Логотипы (копия)">
      <g id="Logo_vertical_копия_2" data-name="Logo vertical копия 2">
        <g>
          <path d="M67,63.15c-2.64-.21-5.22-.66-7.58-1.9-.25,.34-.48,.64-.7,.94-2.53,.08-4.99-.13-7.58-.53,.05-.74,.03-1.39,.15-2.02,.28-1.52,.65-3.03,.93-4.56,.15-.82,.22-1.67-.15-2.51-1.01,.14-1.92,.31-2.85,.37-1.39,.09-2.78,.18-4.17,.13-.96-.04-1.18-.36-1.31-1.31-.86-6.43-1.73-12.85-2.57-19.28-.67-5.08-1.31-10.16-1.99-15.44-.13,.53-.25,.86-.3,1.2-.49,3.62-.98,7.23-1.46,10.85-.58,4.39-1.16,8.77-1.74,13.16-.38,2.92-.74,5.85-1.11,8.77-.09,.7-.21,1.39-.94,2-2.53-.16-5.19-.33-7.94-.51-.07,.49-.23,.92-.18,1.31,.15,1.26,.36,2.52,.59,3.78,.23,1.25,.37,2.43,.57,4.01-.43,.12-.9,.07-1.31,.12-1.54,.16-3.09,.24-4.63,.45-.28,.02-1.14-.67-2.07-1.09-.54,.25-1.02,.49-1.52,.71-2.09,.92-4.32,1.2-6.57,1.38-2.1,.11-4.56,.37-6.91-.09-1.44-.2-2.26-.65-3.64-1.14,0-.39,0-2.41,.18-2.93,.76-2.08,1.91-2.91,4.11-2.89,.62,0,1.24,.08,1.85,.17,.57,.08,1.16,.17,1.7,.36,2.8,1.03,5.33,.26,7.84-1.13-.22-.09-.4-.14-.56-.23-.2-.11-.38-.24-.55-.36,.44-1.05,.7-1.25,1.62-1.19,.38,.03,.76,.15,1.13,.26,.88,.26,1.33,.1,1.65-.74,.2-.53,.25-1.12,.38-1.74-1.73-.43-3.38-.82-5.02-1.25-2.97-.78-5.88-1.73-8.53-3.32-1.06-.64-2.08-1.35-2.75-2.45,.11-.28,.2-.53,.3-.78,3.9-9.2,7.79-18.4,11.71-27.59,2-4.7,4.05-9.39,6.08-14.08C21.6,.94,22.28,.11,23.58,0c1.35,0,2.7,0,4.05,0,.3,0,.6,.01,.9,.02,2.4,.25,4.74,.73,6.99,1.67,1.28,.53,2.12,1.41,2.57,2.68,.22,.62,.35,1.27,.53,1.9,.11,.38,.23,.76,.34,1.13,.45-1.01,.7-2.01,.98-3,.32-1.14,.99-2,2.1-2.49,3.88-1.68,7.9-2.2,12.07-1.53,.98,.16,1.75,.65,2.28,1.47,.35,.55,.63,1.15,.9,1.75,.56,1.28,1.07,2.57,1.63,3.85,4.63,10.62,9.26,21.23,13.89,31.85,.68,1.56,1.36,3.12,2.06,4.74-.41,.51-.72,1.08-1.19,1.45-.91,.71-1.87,1.4-2.89,1.94-2.65,1.4-5.53,2.22-8.39,3.05-1.25,.36-2.51,.73-3.73,1.08-.03,.23-.06,.34-.05,.46,.08,1.82,.55,2.19,2.32,1.89,.49-.08,1.01-.14,1.5-.08,.76,.1,.93,.39,.93,1.31-.27,.16-.55,.33-.99,.59,1.12,.39,2.05,.76,3,1.05,1.69,.51,3.36,.51,5-.23,1.13-.5,2.33-.57,3.54-.46,1.88,.18,3.36,1.35,3.78,2.98,.12,.44,.07,2.46,.3,2.83-.85,.57-2.35,1.01-3.94,1.19-3.02,.32-4.73,.14-7.06,.05Zm-10.07-12.53c-3.78-16.29-7.51-32.37-11.24-48.48-.36,.03-.59,.03-.82,.07-.22,.04-.43,.13-.69,.22,3,16.3,5.98,32.53,8.99,48.88,1.25-.23,2.38-.44,3.76-.69ZM33.88,2.45c-.58-.19-1.05-.34-1.58-.51-3.58,16.23-7.96,32.21-10.98,48.58,1.18,.21,2.23,.58,3.38,.4,3.06-16.18,6.12-32.29,9.18-48.47ZM11.45,48.07C16.94,32.4,22.39,16.86,27.85,1.27c-.35-.06-.58-.11-.81-.13-.22-.02-.44,0-.69,0-6.03,15.23-12.18,30.36-17.68,45.79,.23,.11,.39,.21,.56,.28,.68,.27,1.37,.54,2.22,.87ZM50.19,1.48c5.44,15.52,10.7,31.03,16.39,46.51,1.04-.45,1.95-.83,2.93-1.25-5.99-15.18-11.93-30.24-17.85-45.25h-1.48Zm-3.01,.32c4.38,16.03,8.74,31.99,13.14,48.09,1.01-.29,1.99-.56,2.98-.84-4.92-15.91-9.79-31.67-14.67-47.46-.54,.08-.95,.13-1.46,.21Zm-17.75-.37c-2.64,7.17-14.39,46.03-14.43,47.76,.87,.22,1.75,.44,2.64,.66C22.03,33.74,26.39,17.73,30.76,1.65c-.52-.09-.9-.15-1.33-.22Zm23.17,57.56c1.68,.62,4.16,.54,5.17-.14,.1,.04,.22,.07,.31,.13,2.83,2.05,5.99,3.03,9.48,2.93,2.17-.06,4.35-.09,6.51-.25,.94-.07,1.85-.43,2.78-.66,0-.35,0-.54,0-.73,0-1.77-1.04-3.36-3.36-3.29-1.41,.04-2.77,.29-4.12,.64-.87,.22-1.71,.39-2.62,.14-1.26-.36-2.54-.6-3.78-.88-.46,.51-.86,.95-1.33,1.47-.49-.89,.55-1.05,.48-1.75-.27-.13-.6-.3-.93-.46-.39,.25-.75,.48-1.06,.68-.08,.34-.14,.61-.22,.92-.8-.33-.54-.93-.58-1.42,.27-.29,.52-.56,.75-.81-.41-.78-.98-.52-1.44-.29-1.11,.57-2.27,.45-3.42,.38-.68-.04-1.36-.18-2.06-.28-.59,1.22-.65,2.4-.57,3.68ZM1.02,60.9c1.64,.62,3.35,.94,5.09,1,2.4,.09,4.79-.07,7.19-.38,2.18-.28,4.12-1,5.9-2.24,.34-.24,.73-.42,1.09-.62,.3,.28,.54,.52,.82,.79,1.38-.12,2.75-.25,4.11-.37,.12-1.38-.15-2.53-.72-3.71-.46,.02-.93-.02-1.38,.08-1.36,.31-2.68,.35-3.95-.34-.56-.3-1.01-.21-1.43,.34,.52,.36,.99,.69,1.42,.99q-.01,.99-.66,1.2c-.03-.37-.07-.74-.11-1.17-.83-.26-1.6-.18-2.37-.05-.1,.73,1.11,1.16,.26,2.06-.36-.61-.66-1.14-.99-1.7-.27,.08-.53,.14-.78,.23-2.44,.85-4.9,1.06-7.41,.26-.69-.22-1.43-.37-2.16-.41-1.01-.05-2.02,.08-2.85,.75-1.05,.85-1.27,1.98-1.07,3.29Zm28.91-9.22c.56-3.87,1.1-7.55,1.63-11.24,.58-3.99,1.16-7.99,1.75-11.98,.58-3.91,1.17-7.83,1.77-11.74,.53-3.45,1.07-6.9,1.58-10.35,.08-.53,.1-1.09,.05-1.63-.06-.64-.36-1.16-1.08-1.34-2.79,16.01-5.55,31.98-7.92,48.16,.82,.04,1.46,.08,2.22,.12Zm20.38,0c-2.64-16.25-5.24-32.29-7.87-48.48-.36,.21-.55,.31-.73,.44-.18,.14-.34,.3-.53,.48,2.3,15.92,4.6,31.81,6.92,47.81,.8-.09,1.43-.16,2.21-.25ZM6.1,45.38C12.1,30.71,18.11,16.04,24.18,1.21c-.57,.12-.97,.21-1.49,.32C16.61,15.77,10.53,30.01,4.45,44.24c.35,.65,.8,1.09,1.65,1.14ZM53.84,1.69c6.01,14.65,11.95,29.15,18.27,43.68,.53-.45,.92-.79,1.32-1.14-.96-2.33-1.83-4.56-2.78-6.76-3.4-7.86-6.82-15.7-10.24-23.55-1.58-3.62-3.17-7.24-4.74-10.86-.32-.74-.71-1.36-1.82-1.37Zm-20.71,50.05c.3-2.21,.6-4.29,.88-6.36,.59-4.43,1.18-8.86,1.76-13.28,.45-3.39,.89-6.78,1.32-10.17,.38-3,.79-6.01,1.08-9.02,.14-1.45,.03-2.93-.45-4.61-1.94,14.64-4.37,28.95-6.06,43.44h1.47Zm7.27-43.6c-.56,1.12-.75,2.34-.6,3.58,.56,4.58,1.15,9.16,1.74,13.75,.95,7.39,1.9,14.79,2.86,22.18,.18,1.41,.42,2.82,.64,4.24h1.43c-2.03-14.63-4.05-29.18-6.07-43.74Zm12.79,46.38c1.77,.48,3.39,1.05,5.1-.02-.19-.96-.38-1.88-.57-2.83-1.66,.3-3.17,.57-4.75,.85,.08,.71,.14,1.31,.22,2Zm-33.03-2.89c-.21,1.02-.4,1.92-.59,2.83,1.77,1.12,3.35,.36,4.92-.06,.09-.72,.16-1.33,.26-2.06-1.52-.23-3-.46-4.59-.71Zm41.51,3.23c-.25-.48-.39-.32-.53,.06,.15-.02,.29-.03,.53-.06Zm-44.71-.14c0-.05-.01-.11-.02-.16h-.92c0,.09,.01,.18,.02,.26,.3-.04,.61-.07,.91-.11Z" fill="#141313"/>
          <path d="M56.94,50.63c-1.37,.25-2.51,.46-3.76,.69-3.01-16.35-5.99-32.59-8.99-48.88,.26-.08,.47-.17,.69-.22,.22-.04,.45-.04,.82-.07,3.74,16.11,7.46,32.19,11.24,48.48Z" fill="#f1f0f0"/>
          <path d="M33.88,2.45c-3.06,16.18-6.12,32.29-9.18,48.47-1.15,.18-2.2-.19-3.38-.4,3.01-16.37,7.4-32.35,10.98-48.58,.54,.17,1,.32,1.58,.51Z" fill="#f1f0f0"/>
          <path d="M11.45,48.07c-.85-.33-1.54-.6-2.22-.87-.17-.07-.34-.17-.56-.28C14.17,31.5,20.32,16.37,26.35,1.14c.25,0,.47-.01,.69,0,.23,.02,.46,.07,.81,.13-5.46,15.58-10.91,31.13-16.4,46.8Z" fill="#f1f0f0"/>
          <path d="M50.19,1.48h1.48c5.92,15.01,11.86,30.07,17.85,45.25-.98,.42-1.89,.81-2.93,1.25-5.69-15.47-10.95-30.98-16.39-46.51Z" fill="#f1f0f0"/>
          <path d="M47.18,1.8c.51-.07,.92-.13,1.46-.21,4.88,15.79,9.75,31.55,14.67,47.46-1,.28-1.97,.55-2.98,.84-4.4-16.1-8.76-32.06-13.14-48.09Z" fill="#f1f0f0"/>
          <path d="M29.43,1.43c.43,.07,.81,.13,1.33,.22-4.38,16.08-8.73,32.09-13.12,48.2-.89-.22-1.78-.44-2.64-.66,.03-1.73,11.79-40.59,14.43-47.76Z" fill="#f1f0f0"/>
          <path d="M52.6,58.99c-.09-1.28-.02-2.46,.57-3.68,.7,.1,1.38,.24,2.06,.28,1.16,.07,2.32,.19,3.42-.38,.46-.24,1.03-.49,1.44,.29-.23,.25-.48,.52-.75,.81,.04,.49-.23,1.09,.58,1.42,.07-.31,.14-.58,.22-.92,.32-.2,.67-.43,1.06-.68,.33,.17,.67,.33,.93,.46,.07,.7-.97,.86-.48,1.75,.47-.52,.87-.96,1.33-1.47,1.23,.28,2.52,.53,3.78,.88,.91,.26,1.75,.09,2.62-.14,1.35-.34,2.71-.59,4.12-.64,2.32-.07,3.35,1.52,3.36,3.29,0,.19,0,.38,0,.73-.93,.23-1.85,.59-2.78,.66-2.17,.16-4.34,.19-6.51,.25-3.49,.1-6.65-.88-9.48-2.93-.09-.07-.21-.09-.31-.13-1.01,.68-3.49,.76-5.17,.14Z" fill="#e03035"/>
          <path d="M1.02,60.9c-.19-1.31,.02-2.44,1.07-3.29,.84-.67,1.85-.8,2.85-.75,.73,.04,1.46,.19,2.16,.41,2.51,.79,4.97,.59,7.41-.26,.25-.09,.51-.15,.78-.23,.33,.56,.63,1.09,.99,1.7,.85-.91-.36-1.33-.26-2.06,.76-.12,1.54-.21,2.37,.05,.04,.43,.07,.8,.11,1.17q.64-.2,.66-1.2c-.43-.3-.9-.63-1.42-.99,.43-.54,.88-.64,1.43-.34,1.27,.68,2.59,.65,3.95,.34,.44-.1,.91-.06,1.38-.08,.57,1.18,.84,2.32,.72,3.71-1.36,.12-2.73,.24-4.11,.37-.28-.27-.53-.5-.82-.79-.37,.21-.75,.38-1.09,.62-1.79,1.23-3.72,1.96-5.9,2.24-2.4,.31-4.79,.47-7.19,.38-1.74-.06-3.44-.38-5.09-1Z" fill="#e03035"/>
          <path d="M29.92,51.68c-.76-.04-1.4-.07-2.22-.12,2.37-16.18,5.12-32.15,7.92-48.16,.72,.18,1.02,.7,1.08,1.34,.05,.54,.03,1.09-.05,1.63-.51,3.45-1.06,6.9-1.58,10.35-.6,3.91-1.19,7.82-1.77,11.74-.59,3.99-1.17,7.99-1.75,11.98-.54,3.69-1.07,7.37-1.63,11.24Z" fill="#f1f0f0"/>
          <path d="M50.3,51.67c-.77,.09-1.41,.16-2.21,.25-2.31-16-4.61-31.89-6.92-47.81,.19-.18,.35-.34,.53-.48,.17-.13,.37-.23,.73-.44,2.63,16.19,5.23,32.23,7.87,48.48Z" fill="#f1f0f0"/>
          <path d="M6.1,45.38c-.85-.05-1.3-.49-1.65-1.14C10.53,30.01,16.61,15.77,22.69,1.53c.52-.11,.92-.2,1.49-.32-6.07,14.83-12.07,29.5-18.07,44.17Z" fill="#f1f0f0"/>
          <path d="M53.84,1.69c1.11,.02,1.5,.63,1.82,1.37,1.57,3.62,3.16,7.24,4.74,10.86,3.42,7.85,6.84,15.69,10.24,23.55,.95,2.2,1.83,4.43,2.78,6.76-.4,.35-.79,.68-1.32,1.14-6.33-14.53-12.26-29.03-18.27-43.68Z" fill="#f1f0f0"/>
          <path d="M33.13,51.73h-1.47c1.69-14.49,4.12-28.8,6.06-43.44,.48,1.67,.59,3.15,.45,4.61-.29,3.01-.7,6.01-1.08,9.02-.43,3.39-.88,6.78-1.32,10.17-.58,4.43-1.17,8.86-1.76,13.28-.28,2.08-.57,4.15-.88,6.36Z" fill="#f1f0f0"/>
          <path d="M40.4,8.13c2.02,14.56,4.04,29.11,6.07,43.74h-1.43c-.22-1.42-.46-2.82-.64-4.24-.96-7.39-1.91-14.78-2.86-22.18-.59-4.58-1.18-9.16-1.74-13.75-.15-1.24,.03-2.46,.6-3.58Z" fill="#f1f0f0"/>
          <path d="M53.19,54.51c-.07-.69-.14-1.3-.22-2,1.58-.28,3.08-.55,4.75-.85,.19,.95,.38,1.87,.57,2.83-1.71,1.07-3.33,.5-5.1,.02Z" fill="#f1f0f0"/>
          <path d="M20.16,51.62c1.6,.25,3.07,.47,4.59,.71-.09,.73-.17,1.34-.26,2.06-1.58,.42-3.15,1.18-4.92,.06,.19-.92,.37-1.81,.59-2.83Z" fill="#f1f0f0"/>
        </g>
        <g>
          <path d="M17.25,91.87c-3.77,.92,1.66-12.74,1.61-14.97-2.69,4.17-4.76,10.82-9.4,13.14-4.61-.07-.23-9.16-.25-11.62-2.64,4.13-4.81,9.8-7.59,13.71-2.31-.73-.82-3.71,.19-4.92,1.91-3.69,4.52-8.3,6.57-11.65,.48-.92,1.04-2.75,2.22-2.13,3.5,1.81-1.23,10.42-.62,13.48,3.3-3.47,5.12-8.27,7.99-12.53,.76-1.45,1.77-2.48,3.09-1.06,1.59,1.37-1.05,7.47-1.37,9.68-.61,1.92-.73,3.32-1.14,5.24-.14,1.34,.13,3.22-1.3,3.62Z" fill="#010101"/>
          <path d="M31.56,93.06c-.81-.32-1.36-.93-1.16-1.8,2.03-4.19,3.86-9.76,5.66-14.36-3.49,3.92-6.81,8.49-10.54,12.12-.86,.78-1.91,1.88-3.03,2.23-1.17-.2-1.69-.62-1.44-1.65,1.6-5.55,2.95-11.09,5.62-16.25,.38-.62,.06-1.18,.55-1.53,1.26-.61,2.36,.89,1.82,2.06-1.46,3.61-3.82,9.93-5.24,13.51,1.37-1.41,5.97-5.79,7.03-7.32,1.84-2.41,4.85-5.13,6.85-7.4,.83-.48,1.69-.27,1.97,.7-1.26,4.91-3.99,9.86-5.39,14.86-.51,.92-1.46,5.55-2.71,4.83Z" fill="#010101"/>
          <path d="M38.25,91.85c-1.02-.46-.87-1.46-.63-2.38,1.6-4.73,3.19-9.94,5.39-14.54,.25-.29,.45-1.25,.79-1.56,1.3-.78,1.97-.22,2.04,1.07-.75,2.14-2.28,4.63-2.88,6.81-.69,1.65-1.52,3.63-2.01,5.46-.5,.88-1.32,6.6-2.7,5.14Zm3.23-10.15c1.79-.73,11.36-10.71,12.02-7.39,.37,.81,.24,1.14-.59,1.57-2.37,1.28-4.39,3.28-6.37,4.57-1.18,1.19-2.91,1.99-4.1,3.23l-.95-1.98Zm6.13,10.1c-3.24-1.19-5.08-5.17-5.66-8.38,0,0,.03-1.64,.03-1.64l1.93-.13c.32,3.01,1.67,6.59,4.47,7.8,1.9,.45,1.1,3.45-.77,2.35Z" fill="#010101"/>
          <path d="M53.5,91.53c-4.18-2.29-1.07-10.49,.87-13.88,1.29-2.31,3.65-4.26,5.76-4.71,10.68-2.28,.96,22.36-6.64,18.59Zm5.44-8.96c2,0,5.29-7.35,2.11-7.21-1.55,.66-4.64,6.74-2.11,7.21Z" fill="#e03035"/>
          <path d="M67.75,92.35c-8.22-2.86,1.41-22.17,8.33-20,3.31,1.32,.43,8.62-1.41,7.79-.47-.13-1.43-.82-1.1-1.19,.45-.58,1.06-1.73,1.32-2.43,1.91-7.03-8.39,5-7.72,10.06-.51,6.24,4.54,1.89,7.38,.7,3.44,1.23-5.28,5.82-6.8,5.08Z" fill="#010101"/>
        </g>
        <g>
          <path d="M.38,97.3H5.07v.8H.38v-.8Zm1.84,.36h1.02v4.11h-1.02v-4.11Z" fill="#010101"/>
          <path d="M7.93,101.87c-1.91,.15-3.37-1.91-2.34-3.57,1.35-2.11,4.91-1.04,4.64,1.59H6.07v-.78h3.66l-.51,.29c.06-1.47-2.05-1.93-2.73-.72-1.05,2.31,2.17,3.01,3.62,1.77v.74c-.57,.44-1.43,.68-2.17,.68Z" fill="#010101"/>
          <path d="M15.5,99.53c-.27,2.93-4.75,3.16-4.67,0-.08-3.16,4.42-2.93,4.67,0Zm-3.64,0c0,2.16,2.88,1.79,3.28,0-.4-1.79-3.28-2.16-3.28,0Zm3.33,2.23l-.17-1.66,.2-.58-.2-.57,.17-1.66h1.05l-.23,2.23,.23,2.23h-1.05Z" fill="#010101"/>
          <path d="M16.78,97.3h4.69v.8h-4.69v-.8Zm1.84,.36h1.02v4.11h-1.02v-4.11Z" fill="#010101"/>
          <path d="M22.11,97.3h1.02c-.04,1.63,0,4.11,0,5.77h-1.02v-5.77Zm.63,2.23c.26-2.93,4.75-3.16,4.67,0,.07,3.16-4.4,2.93-4.67,0Zm3.64,0c0-2.16-2.87-1.79-3.28,0,.41,1.79,3.28,2.16,3.28,0Z" fill="#010101"/>
          <path d="M30.32,101.76v-4.47h1.02v3.6l-.3-.11,2.82-3.49h1.16l-3.75,4.47h-.94Zm3.64,0l-1.38-2.21,.71-.65,1.85,2.86h-1.19Z" fill="#010101"/>
          <path d="M36.43,97.3h4.35v4.47h-1.02v-4.15l.47,.47h-3.3l.44-.36c.23,1.71,.31,5-2.17,3.93v-.77c1.94,.67,1.25-2.41,1.23-3.59Z" fill="#010101"/>
          <path d="M44.31,101.87c-3.54,.17-3.54-4.86,0-4.69,3.54-.17,3.54,4.85,0,4.69Zm0-.8c2.18,.17,2.18-3.25,0-3.08-2.18-.17-2.18,3.24,0,3.08Z" fill="#010101"/>
          <path d="M49.17,101.62l-2.03-4.32h1.12l1.92,4.32h-1.01Zm-.51,1.55c-.49,0-.9-.12-1.3-.37v-.78c.67,.45,1.79,.62,2.16-.29,0,0,1.99-4.43,1.99-4.43h1.08c-.82,1.11-2.05,6.11-3.93,5.88Z" fill="#010101"/>
          <path d="M53.18,97.3h1.01v4.47h-1.01v-4.47Zm.57,1.81h3.61v.79h-3.61v-.79Zm3.19-1.81h1.01v4.47h-1.01v-4.47Z" fill="#010101"/>
          <path d="M63.46,99.53c-.27,2.93-4.75,3.16-4.67,0-.08-3.16,4.42-2.93,4.67,0Zm-3.64,0c0,2.16,2.88,1.79,3.28,0-.4-1.79-3.28-2.16-3.28,0Zm3.33,2.23l-.17-1.66,.2-.58-.2-.57,.17-1.66h1.05l-.23,2.23,.23,2.23h-1.05Z" fill="#010101"/>
          <path d="M70.9,100.97v1.92h-.88v-1.13h-4.42v1.13h-.88v-1.92c1.72,.02,4.47,.02,6.19,0Zm-5.2-3.68h4.38v4.17h-1.02v-3.85l.47,.47h-3.31l.44-.35c.06,1.23,.33,3.49-1.11,3.72l-.41-.36c.74-.43,.7-2.7,.55-3.81Z" fill="#010101"/>
          <path d="M71.64,101.76v-4.47h1.02v4.18l-.36-.47c.7-.13,2.82,.45,2.77-.78,.05-1.23-2.04-.67-2.74-.79v-.73c.65,.05,2.37-.14,2.93,.19,1.12,.47,1.12,2.21,0,2.68-.58,.35-2.95,.13-3.62,.19Zm4.97-4.47h1.02v4.47h-1.02v-4.47Z" fill="#010101"/>
        </g>
      </g>
    </g>
  </g>
</svg>