<?xml version="1.0" encoding="UTF-8"?>
<svg id="_Слой_2" data-name="Слой 2" xmlns="http://www.w3.org/2000/svg" xmlns:xlink="http://www.w3.org/1999/xlink" viewBox="0 0 334.37 136.32">
  <defs>
    <style>
      .cls-1 {
        fill: #e03035;
      }

      .cls-2 {
        fill: #010101;
      }
    </style>
    <symbol id="Logo_horizontal" data-name="Logo horizontal" viewBox="0 0 334.37 136.32">
      <g>
        <g>
          <path class="cls-2" d="M73.05,87.36c-16.31,3.97,7.16-55.17,6.98-64.78-11.66,18.05-20.59,46.84-40.69,56.88-19.95-.32-.97-39.65-1.09-50.3-11.41,17.9-20.84,42.4-32.85,59.34-9.99-3.15-3.54-16.05,.8-21.29,8.26-15.99,19.59-35.92,28.44-50.42,2.06-3.99,4.49-11.9,9.61-9.21,15.13,7.85-5.31,45.1-2.69,58.37,14.27-15.03,22.15-35.81,34.57-54.25,3.3-6.29,7.65-10.73,13.39-4.58,6.86,5.93-4.54,32.33-5.95,41.89-2.65,8.32-3.18,14.36-4.92,22.66-.59,5.79,.58,13.93-5.61,15.68Z"/>
          <path class="cls-2" d="M134.97,92.51c-3.49-1.4-5.87-4.01-5.04-7.78,8.8-18.16,16.69-42.26,24.49-62.15-15.09,16.99-29.47,36.74-45.61,52.48-3.73,3.36-8.25,8.12-13.11,9.67-5.05-.88-7.32-2.68-6.24-7.15,6.92-24.03,12.76-48.01,24.32-70.33,1.64-2.68,.25-5.09,2.4-6.64,5.45-2.63,10.2,3.85,7.9,8.93-6.34,15.64-16.53,43-22.66,58.49,5.95-6.1,25.85-25.06,30.45-31.7,7.97-10.44,20.98-22.22,29.64-32.05,3.59-2.1,7.34-1.18,8.53,3.03-5.45,21.23-17.27,42.7-23.35,64.32-2.23,3.98-6.31,24.01-11.73,20.89Z"/>
          <path class="cls-2" d="M163.93,87.25c-4.43-2-3.78-6.31-2.75-10.3,6.91-20.48,13.81-43.03,23.35-62.95,1.06-1.27,1.93-5.4,3.43-6.75,5.61-3.39,8.52-.97,8.81,4.64-3.24,9.24-9.87,20.03-12.48,29.47-2.97,7.15-6.57,15.71-8.7,23.63-2.16,3.82-5.72,28.55-11.67,22.26Zm13.96-43.95c7.74-3.17,49.15-46.37,52.02-31.99,1.59,3.51,1.04,4.93-2.57,6.81-10.27,5.53-19.02,14.21-27.58,19.8-5.09,5.17-12.58,8.63-17.74,13.96l-4.12-8.58Zm26.55,43.72c-14.01-5.15-22-22.39-24.49-36.28,0,0,.12-7.1,.12-7.1l8.35-.57c1.4,13.03,7.23,28.54,19.34,33.76,8.24,1.94,4.74,14.94-3.32,10.19Z"/>
          <path class="cls-1" d="M229.96,85.87c-18.09-9.91-4.62-45.43,3.78-60.09,5.58-10.01,15.81-18.42,24.95-20.37,46.23-9.86,4.16,96.79-28.73,80.46Zm23.55-38.8c8.64-.02,22.88-31.81,9.14-31.22-6.69,2.86-20.07,29.16-9.14,31.22Z"/>
          <path class="cls-2" d="M291.65,89.42c-35.6-12.37,6.12-95.96,36.05-86.59,14.31,5.71,1.84,37.31-6.12,33.71-2.05-.55-6.19-3.54-4.75-5.15,1.93-2.52,4.61-7.5,5.72-10.53,8.25-30.45-36.31,21.64-33.42,43.55-2.2,27.01,19.63,8.2,31.93,3.03,14.9,5.32-22.85,25.19-29.41,21.98Z"/>
        </g>
        <g>
          <path class="cls-2" d="M0,110.84H20.29v3.48H0v-3.48Zm7.95,1.54h4.4v17.79H7.95v-17.79Z"/>
          <path class="cls-2" d="M32.71,130.65c-8.29,.65-14.57-8.26-10.13-15.45,5.83-9.12,21.27-4.49,20.07,6.88H24.62v-3.38h15.83l-2.2,1.26c.25-6.38-8.85-8.34-11.8-3.12-4.55,9.99,9.39,13.03,15.66,7.67v3.21c-2.46,1.92-6.19,2.95-9.4,2.94Z"/>
          <path class="cls-2" d="M65.48,120.51c-1.15,12.69-20.55,13.68-20.23,0-.36-13.68,19.15-12.69,20.23,0Zm-15.76,0c0,9.34,12.46,7.74,14.21,0-1.74-7.74-14.2-9.33-14.21,0Zm14.41,9.66l-.74-7.17,.88-2.49-.88-2.46,.74-7.21h4.53l-1.01,9.67,1.01,9.66h-4.53Z"/>
          <path class="cls-2" d="M70.99,110.84h20.29v3.48h-20.29v-3.48Zm7.95,1.54h4.4v17.79h-4.4v-17.79Z"/>
          <path class="cls-2" d="M94.06,110.84h4.4c-.16,7.06,0,17.79,0,24.96h-4.4v-24.96Zm2.71,9.67c1.13-12.69,20.57-13.68,20.23,0,.31,13.69-19.05,12.67-20.23,0Zm15.76,0c-.02-9.34-12.42-7.73-14.21,0,1.79,7.73,14.19,9.34,14.21,0Z"/>
          <path class="cls-2" d="M129.61,130.17v-19.33h4.4v15.57l-1.32-.48,12.21-15.09h5.01l-16.23,19.33h-4.06Zm15.76,0l-5.95-9.56,3.08-2.8,8.02,12.36h-5.14Z"/>
          <path class="cls-2" d="M156.06,110.84h18.84v19.33h-4.4v-17.96l2.03,2.05h-14.27l1.89-1.57c.97,7.4,1.34,21.65-9.4,17.01v-3.31c8.42,2.89,5.41-10.42,5.31-15.54Z"/>
          <path class="cls-2" d="M190.15,130.65c-15.32,.72-15.32-21.02,0-20.29,15.32-.73,15.31,21.01,0,20.29Zm0-3.48c9.45,.73,9.45-14.05,0-13.32-9.45-.72-9.45,14.04,0,13.32Z"/>
          <path class="cls-2" d="M211.19,129.56l-8.79-18.71h4.84l8.32,18.71h-4.36Zm-2.2,6.73c-2.12,0-3.9-.53-5.61-1.61v-3.38c2.91,1.96,7.73,2.68,9.33-1.26,0,0,8.63-19.19,8.63-19.19h4.67c-3.56,4.8-8.88,26.45-17.01,25.44Z"/>
          <path class="cls-2" d="M228.57,110.84h4.36v19.33h-4.36v-19.33Zm2.47,7.82h15.63v3.42h-15.63v-3.42Zm13.8-7.82h4.36v19.33h-4.36v-19.33Z"/>
          <path class="cls-2" d="M273.08,120.51c-1.15,12.69-20.55,13.68-20.23,0-.36-13.68,19.15-12.69,20.23,0Zm-15.76,0c0,9.34,12.46,7.74,14.21,0-1.74-7.74-14.21-9.33-14.21,0Zm14.41,9.66l-.74-7.17,.88-2.49-.88-2.46,.74-7.21h4.53l-1.01,9.67,1.01,9.66h-4.53Z"/>
          <path class="cls-2" d="M305.28,126.76v8.3h-3.82v-4.88h-19.14v4.88h-3.82v-8.3c7.45,.08,19.34,.07,26.79,0Zm-22.53-15.91h18.97v18.03h-4.4v-16.67l2.03,2.05h-14.31l1.89-1.5c.28,5.34,1.45,15.1-4.8,16.12l-1.79-1.54c3.19-1.86,3.03-11.69,2.4-16.49Z"/>
          <path class="cls-2" d="M308.46,130.17v-19.33h4.4v18.1l-1.56-2.05c3.04-.55,12.2,1.94,12.01-3.38,.23-5.34-8.84-2.89-11.87-3.42v-3.18c2.82,.2,10.24-.6,12.68,.84,4.84,2.03,4.84,9.57,0,11.59-2.5,1.5-12.75,.58-15.66,.82Zm21.51-19.33h4.4v19.33h-4.4v-19.33Z"/>
        </g>
      </g>
    </symbol>
  </defs>
  <g id="_Слой_1-2" data-name="Слой 1">
    <use width="334.37" height="136.32" xlink:href="#Logo_horizontal"/>
  </g>
</svg>