<?xml version="1.0" encoding="UTF-8"?>
<svg id="_Слой_2" data-name="Слой 2" xmlns="http://www.w3.org/2000/svg" xmlns:xlink="http://www.w3.org/1999/xlink" viewBox="0 0 170.03 138.04">
  <defs>
    <style>
      .cls-1 {
        fill: #141313;
      }

      .cls-2 {
        fill: #e03035;
      }

      .cls-3 {
        fill: #f1f0f0;
      }
    </style>
    <symbol id="Logo_Sign" data-name="Logo Sign" viewBox="0 0 170.03 138.04">
      <g>
        <path class="cls-1" d="M146.05,137.67c-5.75-.47-11.37-1.44-16.53-4.15-.55,.73-1.04,1.39-1.53,2.04-5.52,.18-10.87-.27-16.53-1.16,.11-1.61,.06-3.04,.32-4.41,.61-3.32,1.42-6.61,2.03-9.93,.33-1.79,.48-3.64-.33-5.47-2.19,.29-4.19,.67-6.2,.81-3.03,.2-6.07,.39-9.1,.27-2.09-.08-2.58-.78-2.86-2.86-1.88-14.01-3.76-28.01-5.61-42.03-1.46-11.07-2.86-22.14-4.34-33.66-.29,1.16-.54,1.87-.64,2.61-1.08,7.88-2.14,15.76-3.19,23.65-1.27,9.56-2.54,19.13-3.78,28.69-.83,6.37-1.61,12.75-2.43,19.12-.19,1.52-.45,3.03-2.05,4.35-5.51-.36-11.3-.73-17.3-1.12-.16,1.08-.49,2-.39,2.86,.33,2.75,.78,5.5,1.28,8.23,.5,2.71,.8,5.29,1.23,8.75-.94,.25-1.96,.16-2.86,.26-3.36,.36-6.74,.53-10.09,.97-.61,.05-2.48-1.45-4.52-2.38-1.17,.55-2.23,1.07-3.31,1.55-4.56,2-9.42,2.61-14.32,3-4.59,.23-9.93,.8-15.07-.2-3.13-.44-4.93-1.41-7.94-2.49,0-.85-.02-5.26,.39-6.38,1.65-4.54,4.17-6.35,8.95-6.3,1.35,.01,2.7,.18,4.03,.37,1.25,.19,2.54,.36,3.71,.79,6.1,2.24,11.61,.57,17.08-2.46-.49-.19-.87-.31-1.22-.49-.43-.23-.82-.53-1.2-.78,.96-2.28,1.53-2.73,3.54-2.58,.83,.06,1.65,.32,2.45,.56,1.91,.57,2.9,.22,3.59-1.62,.43-1.16,.54-2.43,.82-3.79-3.76-.93-7.37-1.78-10.95-2.73-6.47-1.71-12.81-3.76-18.59-7.23-2.31-1.39-4.53-2.94-6-5.34,.23-.61,.43-1.16,.66-1.71,8.5-20.05,16.99-40.11,25.53-60.15,4.37-10.25,8.83-20.47,13.24-30.7C47.08,2.04,48.58,.23,51.4,.01c2.95,0,5.89,0,8.84-.01,.65,.01,1.3,.02,1.95,.03,5.24,.55,10.34,1.6,15.23,3.63,2.79,1.16,4.61,3.08,5.6,5.84,.48,1.35,.77,2.77,1.16,4.15,.23,.83,.5,1.65,.74,2.47,.98-2.21,1.53-4.38,2.14-6.53,.7-2.49,2.15-4.37,4.58-5.42C100.09,.51,108.86-.63,117.96,.84c2.14,.34,3.82,1.41,4.96,3.2,.77,1.2,1.38,2.51,1.95,3.82,1.22,2.78,2.33,5.61,3.55,8.4,10.09,23.14,20.19,46.28,30.29,69.42,1.48,3.4,2.95,6.8,4.49,10.32-.89,1.11-1.56,2.36-2.59,3.17-1.99,1.56-4.07,3.06-6.29,4.24-5.78,3.05-12.05,4.83-18.3,6.65-2.74,.8-5.47,1.59-8.13,2.36-.06,.5-.12,.75-.11,1,.17,3.97,1.19,4.78,5.05,4.13,1.07-.18,2.2-.31,3.26-.18,1.66,.21,2.02,.84,2.03,2.85-.59,.35-1.19,.72-2.16,1.29,2.43,.86,4.46,1.66,6.54,2.29,3.67,1.1,7.32,1.11,10.9-.49,2.45-1.1,5.09-1.25,7.72-.99,4.09,.39,7.32,2.95,8.25,6.49,.25,.97,.16,5.36,.65,6.18-1.85,1.23-5.13,2.2-8.59,2.59-6.58,.71-10.3,.3-15.38,.1Zm-21.94-27.31c-8.23-35.51-16.36-70.56-24.51-105.69-.79,.06-1.29,.06-1.78,.16-.48,.09-.94,.29-1.51,.47,6.53,35.52,13.04,70.91,19.6,106.56,2.73-.5,5.19-.95,8.19-1.5ZM73.86,5.33c-1.27-.41-2.28-.74-3.45-1.12-7.79,35.39-17.36,70.21-23.93,105.9,2.57,.46,4.86,1.27,7.37,.88,6.68-35.27,13.33-70.4,20.02-105.66ZM24.96,104.79C36.93,70.63,48.8,36.75,60.7,2.78c-.77-.13-1.26-.24-1.76-.29-.48-.04-.96,0-1.51,0-13.15,33.2-26.54,66.18-38.54,99.81,.49,.24,.85,.46,1.23,.61,1.49,.59,2.98,1.17,4.83,1.89ZM109.41,3.23c11.87,33.84,23.32,67.64,35.73,101.38,2.27-.97,4.26-1.82,6.4-2.73-13.05-33.1-26-65.91-38.9-98.64h-3.23Zm-6.56,.69c9.55,34.95,19.05,69.73,28.64,104.83,2.21-.62,4.34-1.22,6.51-1.83-10.72-34.68-21.33-69.03-31.97-103.45-1.17,.17-2.06,.29-3.17,.45Zm-38.69-.8c-5.75,15.63-31.38,100.35-31.45,104.12,1.89,.47,3.82,.96,5.76,1.44C48.03,73.54,57.52,38.65,67.06,3.6c-1.14-.19-1.96-.33-2.9-.48Zm50.5,125.48c3.67,1.34,9.07,1.18,11.27-.31,.21,.09,.48,.14,.67,.29,6.17,4.47,13.06,6.61,20.67,6.4,4.73-.13,9.48-.2,14.2-.54,2.04-.15,4.03-.93,6.07-1.44,0-.76,0-1.17,0-1.59-.02-3.85-2.28-7.33-7.33-7.17-3.07,.1-6.03,.63-8.97,1.38-1.89,.48-3.72,.86-5.71,.29-2.74-.78-5.54-1.31-8.23-1.93-1,1.1-1.88,2.07-2.9,3.19-1.06-1.94,1.19-2.28,1.05-3.81-.59-.29-1.31-.64-2.04-1-.85,.55-1.63,1.04-2.32,1.48-.17,.73-.32,1.33-.48,2.01-1.75-.72-1.17-2.02-1.26-3.09,.59-.64,1.13-1.22,1.63-1.77-.9-1.69-2.14-1.14-3.14-.63-2.41,1.25-4.94,.97-7.47,.82-1.49-.09-2.97-.4-4.49-.62-1.28,2.65-1.43,5.23-1.23,8.02ZM2.22,132.76c3.58,1.36,7.3,2.05,11.09,2.19,5.24,.19,10.45-.16,15.67-.83,4.76-.61,8.98-2.19,12.87-4.88,.75-.52,1.59-.9,2.39-1.35,.64,.62,1.17,1.12,1.79,1.71,3-.27,5.99-.54,8.95-.8,.26-3.02-.32-5.51-1.56-8.08-1,.05-2.04-.05-3,.17-2.97,.68-5.85,.76-8.62-.73-1.21-.65-2.2-.45-3.13,.73,1.14,.79,2.16,1.5,3.1,2.16q-.03,2.17-1.43,2.61c-.07-.81-.15-1.62-.23-2.56-1.81-.58-3.5-.38-5.16-.12-.22,1.6,2.41,2.52,.57,4.5-.78-1.34-1.45-2.48-2.16-3.7-.6,.18-1.16,.31-1.71,.51-5.33,1.86-10.68,2.3-16.15,.57-1.51-.48-3.12-.81-4.71-.88-2.2-.11-4.4,.17-6.22,1.63-2.3,1.85-2.76,4.31-2.34,7.16Zm63.01-20.11c1.22-8.43,2.39-16.47,3.56-24.5,1.27-8.71,2.52-17.42,3.81-26.12,1.26-8.53,2.56-17.06,3.86-25.59,1.14-7.52,2.33-15.04,3.45-22.56,.17-1.16,.22-2.37,.11-3.54-.13-1.4-.79-2.52-2.36-2.91-6.09,34.91-12.09,69.71-17.26,104.98,1.78,.09,3.18,.17,4.83,.25Zm44.42-.02c-5.75-35.42-11.42-70.38-17.15-105.68-.78,.46-1.21,.67-1.59,.96-.39,.3-.73,.66-1.15,1.05,5.02,34.7,10.03,69.34,15.08,104.22,1.74-.19,3.12-.35,4.81-.54ZM13.31,98.92C26.39,66.95,39.48,34.96,52.7,2.64c-1.24,.26-2.11,.45-3.25,.69-13.25,31.05-26.51,62.09-39.75,93.1,.77,1.42,1.75,2.37,3.6,2.48ZM117.37,3.68c13.11,31.94,26.04,63.55,39.83,95.21,1.15-.99,2-1.72,2.87-2.48-2.08-5.07-3.99-9.93-6.07-14.73-7.41-17.12-14.87-34.23-22.32-51.33-3.44-7.9-6.91-15.78-10.34-23.68-.7-1.62-1.56-2.96-3.98-2.99Zm-45.15,109.09c.66-4.82,1.3-9.34,1.91-13.87,1.29-9.65,2.57-19.3,3.84-28.96,.97-7.39,1.95-14.77,2.88-22.17,.83-6.55,1.72-13.09,2.36-19.66,.3-3.17,.07-6.39-.98-10.04-4.23,31.92-9.53,63.12-13.21,94.7h3.2Zm15.85-95.04c-1.23,2.44-1.63,5.1-1.3,7.8,1.22,9.99,2.51,19.98,3.79,29.96,2.07,16.12,4.14,32.23,6.23,48.34,.4,3.08,.93,6.15,1.4,9.24h3.11c-4.43-31.89-8.83-63.62-13.23-95.35Zm27.89,101.1c3.87,1.05,7.4,2.28,11.12-.05-.42-2.09-.82-4.11-1.24-6.17-3.63,.65-6.91,1.23-10.35,1.85,.17,1.54,.31,2.86,.47,4.37Zm-72-6.29c-.46,2.23-.86,4.18-1.28,6.17,3.86,2.44,7.3,.77,10.73-.13,.2-1.58,.36-2.9,.56-4.5-3.32-.51-6.53-1.01-10.01-1.54Zm91.63,7.03c-1.07-1.06-1.69-.69-2.29,.12,.64-.03,1.29-.07,2.29-.12Zm-98.62-.3c-.01-.12-.02-.23-.04-.35h-2c.01,.19,.03,.38,.04,.58,.66-.08,1.33-.15,1.99-.23Z"/>
        <path class="cls-3" d="M124.11,110.36c-3,.55-5.46,1-8.19,1.5-6.56-35.64-13.07-71.04-19.6-106.56,.57-.18,1.03-.37,1.51-.47,.48-.09,.99-.09,1.78-.16,8.15,35.13,16.27,70.18,24.51,105.69Z"/>
        <path class="cls-3" d="M73.86,5.33c-6.68,35.27-13.34,70.4-20.02,105.66-2.51,.39-4.8-.42-7.37-.88,6.57-35.69,16.14-70.51,23.93-105.9,1.17,.38,2.18,.71,3.45,1.12Z"/>
        <path class="cls-3" d="M24.96,104.79c-1.85-.72-3.35-1.3-4.83-1.89-.38-.15-.74-.36-1.23-.61C30.89,68.66,44.28,35.68,57.43,2.48c.55,0,1.03-.03,1.51,0,.5,.04,.99,.16,1.76,.29-11.9,33.97-23.78,67.85-35.75,102.02Z"/>
        <path class="cls-3" d="M109.41,3.23h3.23c12.91,32.73,25.85,65.54,38.9,98.64-2.14,.91-4.12,1.76-6.4,2.73-12.41-33.73-23.87-67.54-35.73-101.38Z"/>
        <path class="cls-3" d="M102.84,3.92c1.11-.16,2-.28,3.17-.45,10.64,34.42,21.25,68.77,31.97,103.45-2.17,.61-4.3,1.21-6.51,1.83-9.59-35.1-19.09-69.88-28.64-104.83Z"/>
        <path class="cls-3" d="M64.16,3.11c.94,.16,1.76,.29,2.9,.48-9.54,35.05-19.03,69.95-28.59,105.07-1.94-.48-3.88-.97-5.76-1.44,.07-3.77,25.7-88.48,31.45-104.12Z"/>
        <path class="cls-2" d="M114.66,128.59c-.19-2.79-.05-5.37,1.23-8.02,1.52,.22,3,.53,4.49,.62,2.52,.15,5.05,.42,7.47-.82,1-.52,2.24-1.06,3.14,.63-.5,.54-1.04,1.13-1.63,1.77,.08,1.06-.49,2.37,1.26,3.09,.16-.68,.3-1.27,.48-2.01,.69-.44,1.46-.94,2.32-1.48,.73,.36,1.45,.71,2.04,1,.14,1.52-2.12,1.87-1.05,3.81,1.02-1.13,1.9-2.09,2.9-3.19,2.69,.62,5.49,1.15,8.23,1.93,1.99,.56,3.82,.19,5.71-.29,2.94-.75,5.9-1.29,8.97-1.38,5.06-.16,7.31,3.32,7.33,7.17,0,.42,0,.83,0,1.59-2.04,.5-4.03,1.29-6.07,1.44-4.72,.35-9.46,.41-14.2,.54-7.61,.21-14.5-1.92-20.67-6.4-.2-.14-.46-.2-.67-.29-2.21,1.49-7.6,1.66-11.27,.31Z"/>
        <path class="cls-2" d="M2.22,132.76c-.42-2.86,.04-5.32,2.34-7.16,1.82-1.47,4.02-1.74,6.22-1.63,1.58,.08,3.19,.4,4.71,.88,5.47,1.73,10.83,1.29,16.15-.57,.55-.19,1.11-.33,1.71-.51,.72,1.22,1.38,2.37,2.16,3.7,1.85-1.98-.79-2.9-.57-4.5,1.67-.27,3.36-.46,5.16,.12,.09,.93,.16,1.74,.23,2.56q1.41-.44,1.43-2.61c-.94-.66-1.96-1.36-3.1-2.16,.93-1.19,1.92-1.39,3.13-.73,2.77,1.49,5.65,1.41,8.62,.73,.96-.22,1.99-.12,3-.17,1.24,2.57,1.82,5.07,1.56,8.08-2.96,.26-5.95,.53-8.95,.8-.62-.59-1.15-1.1-1.79-1.71-.8,.45-1.64,.83-2.39,1.35-3.89,2.69-8.11,4.26-12.87,4.88-5.23,.67-10.43,1.03-15.67,.83-3.79-.14-7.5-.83-11.09-2.19Z"/>
        <path class="cls-3" d="M65.23,112.65c-1.66-.09-3.05-.16-4.83-.25,5.16-35.27,11.17-70.07,17.26-104.98,1.57,.39,2.23,1.52,2.36,2.91,.11,1.17,.07,2.38-.11,3.54-1.12,7.53-2.3,15.04-3.45,22.56-1.3,8.53-2.59,17.06-3.86,25.59-1.29,8.7-2.54,17.41-3.81,26.12-1.17,8.03-2.33,16.07-3.56,24.5Z"/>
        <path class="cls-3" d="M109.65,112.63c-1.69,.19-3.07,.34-4.81,.54-5.04-34.87-10.06-69.51-15.08-104.22,.41-.38,.75-.75,1.15-1.05,.38-.28,.81-.5,1.59-.96,5.73,35.3,11.4,70.26,17.15,105.68Z"/>
        <path class="cls-3" d="M13.31,98.92c-1.85-.12-2.83-1.07-3.6-2.48C22.95,65.42,36.2,34.38,49.46,3.33c1.14-.24,2.01-.43,3.25-.69C39.48,34.96,26.39,66.95,13.31,98.92Z"/>
        <path class="cls-3" d="M117.37,3.68c2.42,.03,3.27,1.38,3.98,2.99,3.43,7.9,6.9,15.78,10.34,23.68,7.45,17.11,14.91,34.21,22.32,51.33,2.08,4.8,3.99,9.66,6.07,14.73-.88,.76-1.73,1.49-2.87,2.48-13.79-31.67-26.72-63.27-39.83-95.21Z"/>
        <path class="cls-3" d="M72.22,112.77h-3.2c3.67-31.58,8.98-62.78,13.21-94.7,1.05,3.65,1.28,6.87,.98,10.04-.63,6.57-1.53,13.11-2.36,19.66-.94,7.39-1.91,14.78-2.88,22.17-1.27,9.65-2.55,19.31-3.84,28.96-.61,4.53-1.24,9.05-1.91,13.87Z"/>
        <path class="cls-3" d="M88.06,17.73c4.4,31.73,8.81,63.46,13.23,95.35h-3.11c-.47-3.09-.99-6.16-1.4-9.24-2.1-16.11-4.17-32.23-6.23-48.34-1.28-9.99-2.57-19.97-3.79-29.96-.33-2.7,.07-5.36,1.3-7.8Z"/>
        <path class="cls-3" d="M115.95,118.83c-.16-1.51-.3-2.83-.47-4.37,3.43-.61,6.72-1.2,10.35-1.85,.41,2.06,.82,4.07,1.24,6.17-3.72,2.33-7.25,1.1-11.12,.05Z"/>
        <path class="cls-3" d="M43.96,112.54c3.48,.54,6.69,1.03,10.01,1.54-.2,1.6-.36,2.92-.56,4.5-3.43,.91-6.87,2.57-10.73,.13,.41-2,.82-3.95,1.28-6.17Z"/>
      </g>
    </symbol>
  </defs>
  <g id="_Слой_1-2" data-name="Слой 1">
    <use width="170.03" height="138.04" xlink:href="#Logo_Sign"/>
  </g>
</svg>