<?xml version="1.0" encoding="UTF-8"?>
<svg id="_Слой_2" data-name="Слой 2" xmlns="http://www.w3.org/2000/svg" viewBox="0 0 374.86 102.49">
  <defs>
    <style>
      .cls-1 {
        fill: #e03035;
        stroke: #f2f1f0;
        stroke-miterlimit: 10;
        stroke-width: 2px;
      }

      .cls-2 {
        fill: #f2f1f0;
      }
    </style>
  </defs>
  <g id="_Слой_1-2" data-name="Слой 1">
    <g id="Logo_Vertical_2" data-name="Logo Vertical 2">
      <g>
        <path class="cls-2" d="M80.51,96.44c-18.01,4.39,7.91-60.9,7.71-71.51-12.88,19.93-22.73,51.71-44.92,62.8-22.02-.35-1.08-43.78-1.2-55.53C29.5,51.95,19.1,79,5.84,97.71c-11.03-3.48-3.9-17.72,.89-23.5,9.12-17.65,21.62-39.66,31.4-55.66,2.27-4.4,4.96-13.13,10.61-10.17,16.71,8.66-5.86,49.79-2.97,64.44,15.75-16.6,24.45-39.53,38.16-59.89,3.64-6.94,8.45-11.85,14.78-5.05,7.58,6.54-5.01,35.69-6.57,46.24-2.92,9.18-3.51,15.85-5.43,25.02-.66,6.39,.64,15.38-6.19,17.31Z"/>
        <path class="cls-2" d="M148.87,102.13c-3.85-1.55-6.48-4.42-5.56-8.59,9.72-20.04,18.42-46.65,27.04-68.61-16.66,18.75-32.53,40.56-50.35,57.93-4.12,3.71-9.11,8.96-14.47,10.68-5.57-.97-8.08-2.96-6.89-7.9,7.64-26.53,14.08-53,26.85-77.64,1.81-2.96,.28-5.62,2.65-7.33,6.02-2.9,11.26,4.25,8.72,9.86-7,17.27-18.24,47.47-25.02,64.57,6.57-6.74,28.54-27.66,33.61-35,8.8-11.53,23.16-24.53,32.72-35.38,3.96-2.32,8.1-1.31,9.41,3.35-6.01,23.44-19.06,47.14-25.77,71.01-2.46,4.4-6.97,26.51-12.95,23.06Z"/>
        <path class="cls-2" d="M180.83,96.32c-4.89-2.21-4.17-6.96-3.03-11.37,7.63-22.61,15.25-47.5,25.78-69.49,1.17-1.4,2.13-5.97,3.79-7.46,6.2-3.75,9.4-1.07,9.73,5.12-3.57,10.21-10.9,22.12-13.77,32.54-3.28,7.89-7.26,17.34-9.6,26.09-2.38,4.21-6.31,31.52-12.89,24.58Zm15.42-48.52c8.54-3.51,54.26-51.19,57.42-35.32,1.75,3.87,1.14,5.44-2.84,7.52-11.34,6.1-21,15.69-30.45,21.86-5.62,5.71-13.89,9.53-19.58,15.41l-4.55-9.48Zm29.31,48.27c-15.47-5.69-24.28-24.72-27.04-40.05,0,0,.13-7.83,.13-7.83l9.22-.63c1.54,14.39,7.98,31.5,21.35,37.27,9.1,2.14,5.24,16.49-3.66,11.24Z"/>
        <path class="cls-1" d="M256.74,94.8c-19.97-10.94-5.1-50.15,4.17-66.33,6.16-11.05,17.45-20.34,27.55-22.49,51.03-10.88,4.59,106.86-31.71,88.82Zm26-42.84c9.54-.03,25.26-35.12,10.09-34.46-7.39,3.15-22.16,32.2-10.09,34.46Z"/>
        <path class="cls-2" d="M327.84,98.72c-39.3-13.66,6.76-105.93,39.8-95.59,15.8,6.31,2.04,41.19-6.76,37.21-2.26-.61-6.83-3.9-5.24-5.69,2.13-2.78,5.08-8.28,6.32-11.62,9.11-33.61-40.09,23.89-36.89,48.08-2.43,29.82,21.67,9.05,35.25,3.35,16.45,5.87-25.22,27.81-32.47,24.26Z"/>
      </g>
    </g>
  </g>
</svg>