<?xml version="1.0" encoding="UTF-8"?>
<svg id="_Слой_2" data-name="Слой 2" xmlns="http://www.w3.org/2000/svg" viewBox="0 0 78.49 32">
  <g id="_Минимальные_размеры" data-name="Минимальные размеры">
    <g id="_Логотипы_копия_" data-name="Логотипы (копия)">
      <g id="Logo_Vertical_2_копия_2" data-name="Logo Vertical 2 копия 2">
        <g>
          <path d="M17.15,20.51c-3.83,.93,1.68-12.95,1.64-15.21-2.74,4.24-4.83,11-9.55,13.35-4.68-.07-.23-9.31-.26-11.81-2.68,4.2-4.89,9.95-7.71,13.93-2.35-.74-.83-3.77,.19-5,1.94-3.75,4.6-8.43,6.68-11.83,.48-.94,1.05-2.79,2.26-2.16,3.55,1.84-1.25,10.59-.63,13.7,3.35-3.53,5.2-8.41,8.11-12.73,.77-1.48,1.8-2.52,3.14-1.07,1.61,1.39-1.07,7.59-1.4,9.83-.62,1.95-.75,3.37-1.16,5.32-.14,1.36,.14,3.27-1.32,3.68Z" fill="#010101"/>
          <path d="M31.68,21.72c-.82-.33-1.38-.94-1.18-1.83,2.07-4.26,3.92-9.92,5.75-14.59-3.54,3.99-6.92,8.63-10.71,12.32-.88,.79-1.94,1.91-3.08,2.27-1.18-.21-1.72-.63-1.46-1.68,1.63-5.64,2.99-11.27,5.71-16.51,.39-.63,.06-1.2,.56-1.56,1.28-.62,2.39,.9,1.85,2.1-1.49,3.67-3.88,10.09-5.32,13.73,1.4-1.43,6.07-5.88,7.15-7.44,1.87-2.45,4.93-5.22,6.96-7.52,.84-.49,1.72-.28,2,.71-1.28,4.98-4.05,10.02-5.48,15.1-.52,.93-1.48,5.64-2.75,4.9Z" fill="#010101"/>
          <path d="M38.48,20.48c-1.04-.47-.89-1.48-.64-2.42,1.62-4.81,3.24-10.1,5.48-14.78,.25-.3,.45-1.27,.81-1.59,1.32-.8,2-.23,2.07,1.09-.76,2.17-2.32,4.7-2.93,6.92-.7,1.68-1.54,3.69-2.04,5.55-.51,.9-1.34,6.7-2.74,5.23Zm3.28-10.32c1.82-.75,11.54-10.89,12.21-7.51,.37,.82,.24,1.16-.6,1.6-2.41,1.3-4.46,3.34-6.47,4.65-1.2,1.21-2.95,2.03-4.16,3.28l-.97-2.02Zm6.23,10.26c-3.29-1.21-5.16-5.26-5.75-8.52,0,0,.03-1.67,.03-1.67l1.96-.13c.33,3.06,1.7,6.7,4.54,7.93,1.93,.45,1.11,3.51-.78,2.39Z" fill="#010101"/>
          <path d="M53.98,20.16c-4.25-2.33-1.09-10.66,.89-14.1,1.31-2.35,3.71-4.32,5.86-4.78,10.85-2.31,.98,22.72-6.74,18.89Zm5.53-9.11c2.03,0,5.37-7.47,2.15-7.33-1.57,.67-4.71,6.85-2.15,7.33Z" fill="#e03035"/>
          <path d="M68.46,20.99c-8.36-2.9,1.44-22.53,8.46-20.33,3.36,1.34,.43,8.76-1.44,7.91-.48-.13-1.45-.83-1.12-1.21,.45-.59,1.08-1.76,1.34-2.47,1.94-7.15-8.52,5.08-7.84,10.22-.52,6.34,4.61,1.92,7.5,.71,3.5,1.25-5.36,5.91-6.9,5.16Z" fill="#010101"/>
        </g>
        <g>
          <path d="M0,26.02H4.76v.82H0v-.82Zm1.87,.36h1.03v4.18H1.87v-4.18Z" fill="#010101"/>
          <path d="M7.68,30.67c-1.95,.15-3.42-1.94-2.38-3.63,1.37-2.14,4.99-1.05,4.71,1.62H5.78v-.79h3.72l-.52,.3c.06-1.5-2.08-1.96-2.77-.73-1.07,2.35,2.21,3.06,3.68,1.8v.75c-.58,.45-1.45,.69-2.21,.69Z" fill="#010101"/>
          <path d="M15.37,28.29c-.27,2.98-4.82,3.21-4.75,0-.08-3.21,4.49-2.98,4.75,0Zm-3.7,0c0,2.19,2.93,1.82,3.33,0-.41-1.82-3.33-2.19-3.33,0Zm3.38,2.27l-.17-1.68,.21-.59-.21-.58,.17-1.69h1.06l-.24,2.27,.24,2.27h-1.06Z" fill="#010101"/>
          <path d="M16.67,26.02h4.76v.82h-4.76v-.82Zm1.87,.36h1.03v4.18h-1.03v-4.18Z" fill="#010101"/>
          <path d="M22.08,26.02h1.03c-.04,1.66,0,4.18,0,5.86h-1.03v-5.86Zm.64,2.27c.26-2.98,4.83-3.21,4.75,0,.07,3.21-4.47,2.97-4.75,0Zm3.7,0c0-2.19-2.92-1.81-3.33,0,.42,1.81,3.33,2.19,3.33,0Z" fill="#010101"/>
          <path d="M30.42,30.56v-4.54h1.03v3.66l-.31-.11,2.87-3.54h1.17l-3.81,4.54h-.95Zm3.7,0l-1.4-2.24,.72-.66,1.88,2.9h-1.21Z" fill="#010101"/>
          <path d="M36.63,26.02h4.42v4.54h-1.03v-4.22l.48,.48h-3.35l.44-.37c.23,1.74,.31,5.08-2.21,3.99v-.78c1.98,.68,1.27-2.45,1.25-3.65Z" fill="#010101"/>
          <path d="M44.64,30.67c-3.6,.17-3.6-4.93,0-4.76,3.6-.17,3.6,4.93,0,4.76Zm0-.82c2.22,.17,2.22-3.3,0-3.13-2.22-.17-2.22,3.3,0,3.13Z" fill="#010101"/>
          <path d="M49.57,30.41l-2.06-4.39h1.14l1.95,4.39h-1.02Zm-.52,1.58c-.5,0-.92-.13-1.32-.38v-.79c.68,.46,1.82,.63,2.19-.3,0,0,2.02-4.51,2.02-4.51h1.1c-.84,1.13-2.09,6.21-3.99,5.97Z" fill="#010101"/>
          <path d="M53.66,26.02h1.02v4.54h-1.02v-4.54Zm.58,1.84h3.67v.8h-3.67v-.8Zm3.24-1.84h1.02v4.54h-1.02v-4.54Z" fill="#010101"/>
          <path d="M64.1,28.29c-.27,2.98-4.82,3.21-4.75,0-.08-3.21,4.49-2.98,4.75,0Zm-3.7,0c0,2.19,2.93,1.82,3.33,0-.41-1.82-3.33-2.19-3.33,0Zm3.38,2.27l-.17-1.68,.21-.59-.21-.58,.17-1.69h1.06l-.24,2.27,.24,2.27h-1.06Z" fill="#010101"/>
          <path d="M71.66,29.76v1.95h-.9v-1.15h-4.49v1.15h-.9v-1.95c1.75,.02,4.54,.02,6.29,0Zm-5.29-3.74h4.45v4.23h-1.03v-3.91l.48,.48h-3.36l.44-.35c.07,1.25,.34,3.55-1.13,3.78l-.42-.36c.75-.44,.71-2.75,.56-3.87Z" fill="#010101"/>
          <path d="M72.41,30.56v-4.54h1.03v4.25l-.37-.48c.71-.13,2.86,.46,2.82-.79,.05-1.25-2.08-.68-2.79-.8v-.75c.66,.05,2.4-.14,2.98,.2,1.14,.48,1.14,2.25,0,2.72-.59,.35-2.99,.14-3.68,.19Zm5.05-4.54h1.03v4.54h-1.03v-4.54Z" fill="#010101"/>
        </g>
      </g>
    </g>
  </g>
</svg>