<?xml version="1.0" encoding="UTF-8"?>
<svg id="_Слой_2" data-name="Слой 2" xmlns="http://www.w3.org/2000/svg" viewBox="0 0 71.98 20">
  <g id="_Минимальные_размеры" data-name="Минимальные размеры">
    <g id="_Логотипы_копия_" data-name="Логотипы (копия)">
      <g id="Logo_Vertical_2_копия_2" data-name="Logo Vertical 2 копия 2">
        <g>
          <path d="M15.71,18.82c-3.51,.86,1.54-11.88,1.5-13.95-2.51,3.89-4.44,10.09-8.76,12.25-4.3-.07-.21-8.54-.23-10.84-2.46,3.86-4.49,9.13-7.08,12.78-2.15-.68-.76-3.46,.17-4.59,1.78-3.44,4.22-7.74,6.13-10.86,.44-.86,.97-2.56,2.07-1.98,3.26,1.69-1.14,9.72-.58,12.57,3.07-3.24,4.77-7.71,7.45-11.69,.71-1.35,1.65-2.31,2.88-.99,1.48,1.28-.98,6.96-1.28,9.02-.57,1.79-.69,3.09-1.06,4.88-.13,1.25,.12,3-1.21,3.38Z" fill="#010101"/>
          <path d="M29.05,19.93c-.75-.3-1.26-.86-1.08-1.68,1.9-3.91,3.6-9.1,5.28-13.39-3.25,3.66-6.35,7.92-9.83,11.3-.8,.72-1.78,1.75-2.82,2.08-1.09-.19-1.58-.58-1.34-1.54,1.49-5.18,2.75-10.34,5.24-15.15,.35-.58,.05-1.1,.52-1.43,1.17-.57,2.2,.83,1.7,1.92-1.37,3.37-3.56,9.26-4.88,12.6,1.28-1.31,5.57-5.4,6.56-6.83,1.72-2.25,4.52-4.79,6.39-6.9,.77-.45,1.58-.25,1.84,.65-1.17,4.57-3.72,9.2-5.03,13.86-.48,.86-1.36,5.17-2.53,4.5Z" fill="#010101"/>
          <path d="M35.29,18.79c-.95-.43-.81-1.36-.59-2.22,1.49-4.41,2.98-9.27,5.03-13.56,.23-.27,.42-1.16,.74-1.45,1.21-.73,1.83-.21,1.9,1-.7,1.99-2.13,4.32-2.69,6.35-.64,1.54-1.42,3.38-1.87,5.09-.46,.82-1.23,6.15-2.51,4.8Zm3.01-9.47c1.67-.68,10.59-9.99,11.21-6.89,.34,.76,.22,1.06-.55,1.47-2.21,1.19-4.1,3.06-5.94,4.27-1.1,1.11-2.71,1.86-3.82,3.01l-.89-1.85Zm5.72,9.42c-3.02-1.11-4.74-4.82-5.28-7.82,0,0,.02-1.53,.02-1.53l1.8-.12c.3,2.81,1.56,6.15,4.17,7.27,1.78,.42,1.02,3.22-.71,2.19Z" fill="#010101"/>
          <path d="M49.51,18.5c-3.9-2.14-1-9.79,.81-12.94,1.2-2.16,3.41-3.97,5.38-4.39,9.96-2.12,.9,20.85-6.19,17.33Zm5.07-8.36c1.86,0,4.93-6.85,1.97-6.72-1.44,.62-4.32,6.28-1.97,6.72Z" fill="#e03035"/>
          <path d="M62.8,19.26c-7.67-2.67,1.32-20.67,7.77-18.65,3.08,1.23,.4,8.04-1.32,7.26-.44-.12-1.33-.76-1.02-1.11,.42-.54,.99-1.62,1.23-2.27,1.78-6.56-7.82,4.66-7.2,9.38-.47,5.82,4.23,1.77,6.88,.65,3.21,1.15-4.92,5.43-6.34,4.73Z" fill="#010101"/>
        </g>
      </g>
    </g>
  </g>
</svg>