<?xml version="1.0" encoding="UTF-8"?>
<svg id="_Слой_2" data-name="Слой 2" xmlns="http://www.w3.org/2000/svg" viewBox="0 0 558.34 290.83">
  <defs>
    <style>
      .cls-1 {
        stroke-dasharray: 0 0 12.08 12.08;
      }

      .cls-1, .cls-2, .cls-3, .cls-4, .cls-5 {
        fill: none;
        stroke: #221e1f;
        stroke-miterlimit: 10;
      }

      .cls-6 {
        opacity: .2;
      }

      .cls-6, .cls-7 {
        fill: #010101;
      }

      .cls-8 {
        fill: #e03035;
      }

      .cls-2 {
        stroke-dasharray: 0 0 12.89 12.89;
      }

      .cls-3 {
        stroke-dasharray: 0 0 12.12 12.12;
      }

      .cls-4 {
        stroke-dasharray: 0 0 12.37 12.37;
      }

      .cls-9 {
        opacity: .6;
      }
    </style>
  </defs>
  <g id="_Слой_1_копия_" data-name="Слой 1 (копия)">
    <g id="Logo_Vertical_2_копия_" data-name="Logo Vertical 2 (копия)">
      <g>
        <path class="cls-7" d="M175.48,190.16c-17.93,4.37,7.88-60.65,7.68-71.22-12.82,19.84-22.64,51.5-44.73,62.54-21.93-.35-1.07-43.6-1.2-55.3-12.55,19.68-22.91,46.62-36.11,65.25-10.99-3.47-3.89-17.64,.88-23.41,9.08-17.58,21.54-39.49,31.27-55.43,2.26-4.39,4.94-13.08,10.57-10.13,16.64,8.63-5.84,49.59-2.96,64.18,15.69-16.53,24.35-39.37,38-59.65,3.62-6.91,8.42-11.8,14.72-5.03,7.55,6.52-4.99,35.54-6.54,46.05-2.91,9.14-3.5,15.79-5.41,24.91-.65,6.37,.63,15.32-6.17,17.24Z"/>
        <path class="cls-7" d="M243.56,195.82c-3.84-1.54-6.46-4.41-5.54-8.56,9.68-19.96,18.35-46.46,26.93-68.33-16.6,18.67-32.4,40.4-50.14,57.7-4.1,3.7-9.07,8.93-14.41,10.63-5.55-.97-8.05-2.95-6.86-7.87,7.61-26.42,14.03-52.79,26.74-77.33,1.8-2.95,.27-5.6,2.64-7.3,5.99-2.89,11.22,4.23,8.68,9.82-6.97,17.2-18.17,47.27-24.92,64.3,6.54-6.71,28.42-27.55,33.47-34.86,8.76-11.48,23.07-24.43,32.59-35.23,3.94-2.31,8.06-1.3,9.38,3.34-5.99,23.35-18.98,46.94-25.67,70.72-2.45,4.38-6.94,26.4-12.9,22.96Z"/>
        <path class="cls-7" d="M275.39,190.03c-4.87-2.2-4.16-6.93-3.02-11.33,7.6-22.52,15.18-47.31,25.67-69.21,1.17-1.4,2.13-5.94,3.78-7.43,6.17-3.73,9.36-1.06,9.69,5.1-3.56,10.16-10.86,22.03-13.72,32.4-3.26,7.86-7.23,17.27-9.56,25.98-2.37,4.2-6.28,31.39-12.84,24.47Zm15.35-48.32c8.51-3.49,54.04-50.98,57.19-35.17,1.74,3.86,1.14,5.42-2.83,7.49-11.29,6.08-20.91,15.62-30.33,21.77-5.6,5.69-13.83,9.49-19.5,15.35l-4.53-9.44Zm29.19,48.07c-15.41-5.66-24.19-24.61-26.93-39.89,0,0,.13-7.8,.13-7.8l9.19-.63c1.54,14.33,7.95,31.37,21.27,37.12,9.06,2.13,5.22,16.43-3.65,11.2Z"/>
        <path class="cls-8" d="M348,188.52c-19.88-10.9-5.08-49.94,4.15-66.06,6.14-11.01,17.38-20.26,27.43-22.4,50.82-10.84,4.58,106.42-31.59,88.46Zm25.89-42.66c9.5-.03,25.16-34.98,10.05-34.32-7.36,3.14-22.07,32.06-10.05,34.32Z"/>
        <path class="cls-7" d="M415.82,192.42c-39.14-13.6,6.73-105.5,39.64-95.2,15.73,6.28,2.03,41.03-6.73,37.06-2.25-.6-6.81-3.89-5.22-5.66,2.12-2.77,5.06-8.25,6.29-11.58,9.07-33.48-39.92,23.79-36.74,47.88-2.42,29.7,21.58,9.02,35.11,3.33,16.38,5.85-25.12,27.69-32.34,24.16Z"/>
      </g>
    </g>
  </g>
  <g id="_Слой_14" data-name="Слой 14">
    <path class="cls-6" d="M243.99,198.62c17.93-4.37-7.88,60.65-7.68,71.22,12.82-19.84,22.64-51.5,44.73-62.54,21.93,.35,1.07,43.6,1.2,55.3,12.55-19.68,22.91-46.62,36.11-65.25,10.99,3.47,3.89,17.64-.88,23.41-9.08,17.58-21.54,39.49-31.27,55.43-2.26,4.39-4.94,13.08-10.57,10.13-16.64-8.63,5.84-49.59,2.96-64.18-15.69,16.53-24.35,39.37-38,59.65-3.62,6.91-8.42,11.8-14.72,5.03-7.55-6.52,4.99-35.54,6.54-46.05,2.91-9.14,3.5-15.79,5.41-24.91,.65-6.37-.63-15.32,6.17-17.24Z"/>
    <g class="cls-9">
      <polyline class="cls-5" points="464.5 190.98 464.5 196.98 458.5 196.98"/>
      <line class="cls-4" x1="446.13" y1="196.98" x2="106.03" y2="196.98"/>
      <polyline class="cls-5" points="99.84 196.98 93.84 196.98 93.84 190.98"/>
      <line class="cls-2" x1="93.84" y1="178.1" x2="93.84" y2="107.23"/>
      <polyline class="cls-5" points="93.84 100.79 93.84 94.79 99.84 94.79"/>
      <line class="cls-4" x1="112.21" y1="94.79" x2="452.31" y2="94.79"/>
      <polyline class="cls-5" points="458.5 94.79 464.5 94.79 464.5 100.79"/>
      <line class="cls-2" x1="464.5" y1="113.67" x2="464.5" y2="184.54"/>
    </g>
    <g class="cls-9">
      <polyline class="cls-5" points="557.84 284.33 557.84 290.33 551.84 290.33"/>
      <line class="cls-3" x1="539.72" y1="290.33" x2="12.56" y2="290.33"/>
      <polyline class="cls-5" points="6.5 290.33 .5 290.33 .5 284.33"/>
      <line class="cls-1" x1=".5" y1="272.25" x2=".5" y2="12.54"/>
      <polyline class="cls-5" points=".5 6.5 .5 .5 6.5 .5"/>
      <line class="cls-3" x1="18.62" y1=".5" x2="545.78" y2=".5"/>
      <polyline class="cls-5" points="551.84 .5 557.84 .5 557.84 6.5"/>
      <line class="cls-1" x1="557.84" y1="18.58" x2="557.84" y2="278.29"/>
    </g>
    <path class="cls-6" d="M303.65,93.02c-17.93,4.37,7.88-60.65,7.68-71.22-12.82,19.84-22.64,51.5-44.73,62.54-21.93-.35-1.07-43.6-1.2-55.3-12.55,19.68-22.91,46.62-36.11,65.25-10.99-3.47-3.89-17.64,.88-23.41,9.08-17.58,21.54-39.49,31.27-55.43,2.26-4.39,4.94-13.08,10.57-10.13,16.64,8.63-5.84,49.59-2.96,64.18,15.69-16.53,24.35-39.37,38-59.65,3.62-6.91,8.42-11.8,14.72-5.03,7.55,6.52-4.99,35.54-6.54,46.05-2.91,9.14-3.5,15.79-5.41,24.91-.65,6.37,.63,15.32-6.17,17.24Z"/>
    <path class="cls-6" d="M92.55,115.69c4.37,17.93-60.65-7.88-71.22-7.68,19.84,12.82,51.5,22.64,62.54,44.73-.35,21.93-43.6,1.07-55.3,1.2,19.68,12.55,46.62,22.91,65.25,36.11-3.47,10.99-17.64,3.89-23.41-.88-17.58-9.08-39.49-21.54-55.43-31.27-4.39-2.26-13.08-4.94-10.13-10.57,8.63-16.64,49.59,5.84,64.18,2.96-16.53-15.69-39.37-24.35-59.65-38-6.91-3.62-11.8-8.42-5.03-14.72,6.52-7.55,35.54,4.99,46.05,6.54,9.14,2.91,15.79,3.5,24.91,5.41,6.37,.65,15.32-.63,17.24,6.17Z"/>
    <path class="cls-6" d="M466.01,175.35c-4.37-17.93,60.65,7.88,71.22,7.68-19.84-12.82-51.5-22.64-62.54-44.73,.35-21.93,43.6-1.07,55.3-1.2-19.68-12.55-46.62-22.91-65.25-36.11,3.47-10.99,17.64-3.89,23.41,.88,17.58,9.08,39.49,21.54,55.43,31.27,4.39,2.26,13.08,4.94,10.13,10.57-8.63,16.64-49.59-5.84-64.18-2.96,16.53,15.69,39.37,24.35,59.65,38,6.91,3.62,11.8,8.42,5.03,14.72-6.52,7.55-35.54-4.99-46.05-6.54-9.14-2.91-15.79-3.5-24.91-5.41-6.37-.65-15.32,.63-17.24-6.17Z"/>
  </g>
</svg>