<?xml version="1.0" encoding="UTF-8"?>
<svg id="_Слой_2" data-name="Слой 2" xmlns="http://www.w3.org/2000/svg" viewBox="0 0 104.29 42.52">
  <g id="_Минимальные_размеры" data-name="Минимальные размеры">
    <g id="_Логотипы_копия_" data-name="Логотипы (копия)">
      <g id="Logo_Vertical_2_копия_2" data-name="Logo Vertical 2 копия 2">
        <g>
          <g>
            <path d="M22.75,27.25c-5.09,1.24,2.23-17.21,2.18-20.21-3.64,5.63-6.42,14.61-12.69,17.74-6.22-.1-.3-12.37-.34-15.69-3.56,5.58-6.5,13.23-10.25,18.51-3.12-.98-1.1-5.01,.25-6.64,2.58-4.99,6.11-11.2,8.87-15.73,.64-1.24,1.4-3.71,3-2.87,4.72,2.45-1.66,14.07-.84,18.21,4.45-4.69,6.91-11.17,10.78-16.92,1.03-1.96,2.39-3.35,4.18-1.43,2.14,1.85-1.42,10.08-1.86,13.07-.83,2.59-.99,4.48-1.54,7.07-.19,1.81,.18,4.35-1.75,4.89Z" fill="#010101"/>
            <path d="M42.06,28.86c-1.09-.44-1.83-1.25-1.57-2.43,2.75-5.66,5.21-13.18,7.64-19.38-4.71,5.3-9.19,11.46-14.23,16.37-1.16,1.05-2.57,2.53-4.09,3.02-1.57-.27-2.28-.84-1.95-2.23,2.16-7.49,3.98-14.98,7.59-21.94,.51-.84,.08-1.59,.75-2.07,1.7-.82,3.18,1.2,2.46,2.78-1.98,4.88-5.15,13.41-7.07,18.24,1.86-1.9,8.06-7.82,9.5-9.89,2.49-3.26,6.54-6.93,9.25-10,1.12-.65,2.29-.37,2.66,.95-1.7,6.62-5.39,13.32-7.28,20.06-.69,1.24-1.97,7.49-3.66,6.52Z" fill="#010101"/>
            <path d="M51.09,27.21c-1.38-.62-1.18-1.97-.86-3.21,2.16-6.39,4.31-13.42,7.28-19.63,.33-.4,.6-1.69,1.07-2.11,1.75-1.06,2.66-.3,2.75,1.45-1.01,2.88-3.08,6.25-3.89,9.19-.93,2.23-2.05,4.9-2.71,7.37-.67,1.19-1.78,8.91-3.64,6.94Zm4.36-13.71c2.41-.99,15.33-14.46,16.22-9.98,.49,1.09,.32,1.54-.8,2.12-3.2,1.72-5.93,4.43-8.6,6.18-1.59,1.61-3.92,2.69-5.53,4.36l-1.29-2.68Zm8.28,13.64c-4.37-1.61-6.86-6.98-7.64-11.32,0,0,.04-2.21,.04-2.21l2.61-.18c.44,4.06,2.26,8.9,6.03,10.53,2.57,.6,1.48,4.66-1.04,3.18Z" fill="#010101"/>
            <path d="M71.69,26.78c-5.64-3.09-1.44-14.17,1.18-18.74,1.74-3.12,4.93-5.75,7.78-6.35,14.42-3.07,1.3,30.19-8.96,25.1Zm7.35-12.1c2.7,0,7.14-9.92,2.85-9.74-2.09,.89-6.26,9.1-2.85,9.74Z" fill="#e03035"/>
            <path d="M90.93,27.89c-11.1-3.86,1.91-29.93,11.24-27.01,4.46,1.78,.58,11.64-1.91,10.51-.64-.17-1.93-1.1-1.48-1.61,.6-.79,1.44-2.34,1.79-3.28,2.57-9.5-11.33,6.75-10.42,13.58-.69,8.42,6.12,2.56,9.96,.95,4.65,1.66-7.13,7.86-9.17,6.85Z" fill="#010101"/>
          </g>
          <g>
            <path d="M0,34.57H6.33v1.09H0v-1.09Zm2.48,.48h1.37v5.55h-1.37v-5.55Z" fill="#010101"/>
            <path d="M10.2,40.75c-2.58,.2-4.54-2.58-3.16-4.82,1.82-2.84,6.64-1.4,6.26,2.15H7.68v-1.05h4.94l-.69,.39c.08-1.99-2.76-2.6-3.68-.97-1.42,3.12,2.93,4.06,4.88,2.39v1c-.77,.6-1.93,.92-2.93,.92Z" fill="#010101"/>
            <path d="M20.42,37.59c-.36,3.96-6.41,4.27-6.31,0-.11-4.27,5.97-3.96,6.31,0Zm-4.92,0c0,2.91,3.89,2.41,4.43,0-.54-2.42-4.43-2.91-4.43,0Zm4.49,3.01l-.23-2.24,.27-.78-.27-.77,.23-2.25h1.41l-.32,3.01,.32,3.01h-1.41Z" fill="#010101"/>
            <path d="M22.14,34.57h6.33v1.09h-6.33v-1.09Zm2.48,.48h1.37v5.55h-1.37v-5.55Z" fill="#010101"/>
            <path d="M29.34,34.57h1.37c-.05,2.2,0,5.55,0,7.79h-1.37v-7.79Zm.84,3.01c.35-3.96,6.42-4.27,6.31,0,.1,4.27-5.94,3.95-6.31,0Zm4.92,0c0-2.91-3.87-2.41-4.43,0,.56,2.41,4.43,2.91,4.43,0Z" fill="#010101"/>
            <path d="M40.43,40.6v-6.03h1.37v4.86l-.41-.15,3.81-4.71h1.56l-5.06,6.03h-1.27Zm4.92,0l-1.86-2.98,.96-.87,2.5,3.86h-1.6Z" fill="#010101"/>
            <path d="M48.68,34.57h5.88v6.03h-1.37v-5.6l.63,.64h-4.45l.59-.49c.3,2.31,.42,6.75-2.93,5.3v-1.03c2.63,.9,1.69-3.25,1.66-4.85Z" fill="#010101"/>
            <path d="M59.31,40.75c-4.78,.23-4.78-6.56,0-6.33,4.78-.23,4.78,6.55,0,6.33Zm0-1.09c2.95,.23,2.95-4.38,0-4.15-2.95-.22-2.95,4.38,0,4.15Z" fill="#010101"/>
            <path d="M65.87,40.41l-2.74-5.84h1.51l2.6,5.84h-1.36Zm-.69,2.1c-.66,0-1.22-.17-1.75-.5v-1.05c.91,.61,2.41,.84,2.91-.39,0,0,2.69-5.99,2.69-5.99h1.46c-1.11,1.5-2.77,8.25-5.31,7.94Z" fill="#010101"/>
            <path d="M71.29,34.57h1.36v6.03h-1.36v-6.03Zm.77,2.44h4.87v1.07h-4.87v-1.07Zm4.3-2.44h1.36v6.03h-1.36v-6.03Z" fill="#010101"/>
            <path d="M85.18,37.59c-.36,3.96-6.41,4.27-6.31,0-.11-4.27,5.97-3.96,6.31,0Zm-4.92,0c0,2.91,3.89,2.41,4.43,0-.54-2.42-4.43-2.91-4.43,0Zm4.49,3.01l-.23-2.24,.27-.78-.27-.77,.23-2.25h1.41l-.32,3.01,.32,3.01h-1.41Z" fill="#010101"/>
            <path d="M95.22,39.54v2.59h-1.19v-1.52h-5.97v1.52h-1.19v-2.59c2.33,.03,6.03,.02,8.36,0Zm-7.03-4.96h5.92v5.62h-1.37v-5.2l.63,.64h-4.46l.59-.47c.09,1.67,.45,4.71-1.5,5.03l-.56-.48c1-.58,.95-3.65,.75-5.14Z" fill="#010101"/>
            <path d="M96.21,40.6v-6.03h1.37v5.65l-.49-.64c.95-.17,3.81,.61,3.75-1.05,.07-1.66-2.76-.9-3.7-1.07v-.99c.88,.06,3.2-.19,3.96,.26,1.51,.63,1.51,2.98,0,3.62-.78,.47-3.98,.18-4.88,.26Zm6.71-6.03h1.37v6.03h-1.37v-6.03Z" fill="#010101"/>
          </g>
        </g>
      </g>
    </g>
  </g>
</svg>