<?xml version="1.0" encoding="UTF-8"?>
<svg id="_Слой_2" data-name="Слой 2" xmlns="http://www.w3.org/2000/svg" viewBox="0 0 102.01 28.35">
  <g id="_Минимальные_размеры" data-name="Минимальные размеры">
    <g id="_Логотипы_копия_" data-name="Логотипы (копия)">
      <g id="Logo_Vertical_2_копия_2" data-name="Logo Vertical 2 копия 2">
        <g>
          <path d="M22.27,26.67c-4.98,1.21,2.19-16.84,2.13-19.78-3.56,5.51-6.29,14.3-12.42,17.37-6.09-.1-.3-12.11-.33-15.36-3.48,5.46-6.36,12.95-10.03,18.12-3.05-.96-1.08-4.9,.24-6.5,2.52-4.88,5.98-10.97,8.68-15.39,.63-1.22,1.37-3.63,2.94-2.81,4.62,2.4-1.62,13.77-.82,17.82,4.36-4.59,6.76-10.93,10.55-16.56,1.01-1.92,2.34-3.28,4.09-1.4,2.1,1.81-1.39,9.87-1.82,12.79-.81,2.54-.97,4.38-1.5,6.92-.18,1.77,.18,4.25-1.71,4.79Z" fill="#010101"/>
          <path d="M41.17,28.25c-1.07-.43-1.79-1.22-1.54-2.38,2.69-5.54,5.1-12.9,7.48-18.97-4.61,5.19-9,11.22-13.93,16.02-1.14,1.03-2.52,2.48-4,2.95-1.54-.27-2.24-.82-1.9-2.18,2.11-7.34,3.89-14.66,7.43-21.47,.5-.82,.08-1.56,.73-2.03,1.66-.8,3.11,1.17,2.41,2.73-1.94,4.78-5.05,13.13-6.92,17.86,1.82-1.86,7.89-7.65,9.3-9.68,2.43-3.19,6.41-6.78,9.05-9.78,1.1-.64,2.24-.36,2.6,.93-1.66,6.48-5.27,13.04-7.13,19.64-.68,1.22-1.93,7.33-3.58,6.38Z" fill="#010101"/>
          <path d="M50.01,26.64c-1.35-.61-1.15-1.93-.84-3.14,2.11-6.25,4.22-13.14,7.13-19.22,.32-.39,.59-1.65,1.05-2.06,1.71-1.04,2.6-.3,2.69,1.42-.99,2.82-3.01,6.12-3.81,9-.91,2.18-2.01,4.8-2.66,7.22-.66,1.17-1.74,8.72-3.56,6.8Zm4.26-13.42c2.36-.97,15.01-14.16,15.88-9.77,.48,1.07,.32,1.5-.79,2.08-3.14,1.69-5.81,4.34-8.42,6.05-1.56,1.58-3.84,2.63-5.42,4.26l-1.26-2.62Zm8.11,13.35c-4.28-1.57-6.72-6.84-7.48-11.08,0,0,.04-2.17,.04-2.17l2.55-.17c.43,3.98,2.21,8.71,5.91,10.31,2.52,.59,1.45,4.56-1.01,3.11Z" fill="#010101"/>
          <path d="M70.17,26.22c-5.52-3.03-1.41-13.87,1.15-18.35,1.7-3.06,4.83-5.62,7.62-6.22,14.11-3.01,1.27,29.55-8.77,24.57Zm7.19-11.85c2.64,0,6.99-9.71,2.79-9.53-2.04,.87-6.13,8.9-2.79,9.53Z" fill="#e03035"/>
          <path d="M89.01,27.3c-10.87-3.78,1.87-29.3,11.01-26.44,4.37,1.74,.56,11.39-1.87,10.29-.63-.17-1.89-1.08-1.45-1.57,.59-.77,1.41-2.29,1.75-3.21,2.52-9.3-11.09,6.61-10.2,13.3-.67,8.25,5.99,2.5,9.75,.93,4.55,1.62-6.98,7.69-8.98,6.71Z" fill="#010101"/>
        </g>
      </g>
    </g>
  </g>
</svg>