<?xml version="1.0" encoding="UTF-8"?>
<svg id="_Слой_2" data-name="Слой 2" xmlns="http://www.w3.org/2000/svg" viewBox="0 0 558.35 338.42">
  <defs>
    <style>
      .cls-1 {
        stroke-dasharray: 0 0 12.51 12.51;
      }

      .cls-1, .cls-2, .cls-3, .cls-4, .cls-5, .cls-6 {
        fill: none;
        stroke: #221e1f;
        stroke-miterlimit: 10;
      }

      .cls-1, .cls-4, .cls-6 {
        stroke-width: 1.02px;
      }

      .cls-2 {
        stroke-dasharray: 0 0 12.12 12.12;
      }

      .cls-2, .cls-3, .cls-5 {
        stroke-width: 1.01px;
      }

      .cls-7 {
        opacity: .2;
      }

      .cls-7, .cls-8 {
        fill: #010101;
      }

      .cls-9 {
        fill: #e03035;
      }

      .cls-4 {
        stroke-dasharray: 0 0 12.36 12.36;
      }

      .cls-5 {
        stroke-dasharray: 0 0 12.05 12.05;
      }

      .cls-10 {
        opacity: .6;
      }
    </style>
  </defs>
  <g id="_Слой_1_копия_" data-name="Слой 1 (копия)">
    <g id="Logo_Vertical_2_копия_" data-name="Logo Vertical 2 (копия)">
      <g>
        <path class="cls-8" d="M175.97,191.21c-17.93,4.37,7.88-60.65,7.68-71.22-12.82,19.84-22.64,51.5-44.73,62.54-21.93-.35-1.07-43.6-1.2-55.3-12.55,19.68-22.91,46.62-36.11,65.25-10.99-3.47-3.89-17.64,.88-23.41,9.08-17.58,21.54-39.49,31.27-55.43,2.26-4.39,4.94-13.08,10.57-10.13,16.64,8.63-5.84,49.59-2.96,64.18,15.69-16.53,24.35-39.37,38-59.65,3.62-6.91,8.42-11.8,14.72-5.03,7.55,6.52-4.99,35.54-6.54,46.05-2.91,9.14-3.5,15.79-5.41,24.91-.65,6.37,.63,15.32-6.17,17.24Z"/>
        <path class="cls-8" d="M244.04,196.87c-3.84-1.54-6.46-4.41-5.54-8.56,9.68-19.96,18.35-46.46,26.93-68.33-16.6,18.67-32.4,40.4-50.14,57.7-4.1,3.7-9.07,8.93-14.41,10.63-5.55-.97-8.05-2.95-6.86-7.87,7.61-26.42,14.03-52.79,26.74-77.33,1.8-2.95,.27-5.6,2.64-7.3,5.99-2.89,11.22,4.23,8.68,9.82-6.97,17.2-18.17,47.27-24.92,64.3,6.54-6.71,28.42-27.55,33.47-34.86,8.76-11.48,23.07-24.43,32.59-35.23,3.94-2.31,8.06-1.3,9.38,3.34-5.99,23.35-18.98,46.94-25.67,70.72-2.45,4.38-6.94,26.4-12.9,22.96Z"/>
        <path class="cls-8" d="M275.88,191.08c-4.87-2.2-4.16-6.93-3.02-11.33,7.6-22.52,15.18-47.31,25.67-69.21,1.17-1.4,2.13-5.94,3.78-7.43,6.17-3.73,9.36-1.06,9.69,5.1-3.56,10.16-10.86,22.03-13.72,32.4-3.26,7.86-7.23,17.27-9.56,25.98-2.37,4.2-6.28,31.39-12.84,24.47Zm15.35-48.32c8.51-3.49,54.04-50.98,57.19-35.17,1.74,3.86,1.14,5.42-2.83,7.49-11.29,6.08-20.91,15.62-30.33,21.77-5.6,5.69-13.83,9.49-19.5,15.35l-4.53-9.44Zm29.19,48.07c-15.41-5.66-24.19-24.61-26.93-39.89,0,0,.13-7.8,.13-7.8l9.19-.63c1.54,14.33,7.95,31.37,21.27,37.12,9.06,2.13,5.22,16.43-3.65,11.2Z"/>
        <path class="cls-9" d="M348.48,189.57c-19.88-10.9-5.08-49.94,4.15-66.06,6.14-11.01,17.38-20.26,27.43-22.4,50.82-10.84,4.58,106.42-31.59,88.46Zm25.89-42.66c9.5-.03,25.16-34.98,10.05-34.32-7.36,3.14-22.07,32.06-10.05,34.32Z"/>
        <path class="cls-8" d="M416.31,193.47c-39.14-13.6,6.73-105.5,39.64-95.2,15.73,6.28,2.03,41.03-6.73,37.06-2.25-.6-6.81-3.89-5.22-5.66,2.12-2.77,5.06-8.25,6.29-11.58,9.07-33.48-39.92,23.79-36.74,47.88-2.42,29.7,21.58,9.02,35.11,3.33,16.38,5.85-25.12,27.69-32.34,24.16Z"/>
      </g>
      <g>
        <path class="cls-8" d="M95.65,217.03h22.31v3.83h-22.31v-3.83Zm8.74,1.69h4.83v19.56h-4.83v-19.56Z"/>
        <path class="cls-8" d="M131.61,238.8c-9.11,.71-16.02-9.08-11.14-16.99,6.41-10.02,23.39-4.94,22.07,7.57h-19.82v-3.72h17.4l-2.42,1.39c.27-7.01-9.74-9.16-12.98-3.44-5.01,10.99,10.33,14.32,17.22,8.43v3.53c-2.7,2.11-6.81,3.25-10.34,3.23Z"/>
        <path class="cls-8" d="M167.64,227.65c-1.26,13.95-22.59,15.04-22.24,0-.4-15.04,21.05-13.96,22.24,0Zm-17.33,0c0,10.27,13.7,8.51,15.62,0-1.92-8.51-15.62-10.26-15.62,0Zm15.84,10.63l-.82-7.89,.97-2.74-.97-2.7,.82-7.92h4.98l-1.12,10.63,1.12,10.63h-4.98Z"/>
        <path class="cls-8" d="M173.7,217.03h22.31v3.83h-22.31v-3.83Zm8.74,1.69h4.83v19.56h-4.83v-19.56Z"/>
        <path class="cls-8" d="M199.07,217.03h4.83c-.18,7.77,0,19.56,0,27.45h-4.83v-27.45Zm2.97,10.63c1.24-13.95,22.61-15.04,22.24,0,.34,15.05-20.95,13.93-22.24,0Zm17.33,0c-.02-10.27-13.66-8.5-15.62,0,1.96,8.5,15.6,10.27,15.62,0Z"/>
        <path class="cls-8" d="M238.15,238.28v-21.25h4.83v17.12l-1.45-.53,13.42-16.6h5.5l-17.85,21.25h-4.46Zm17.33,0l-6.54-10.51,3.38-3.08,8.81,13.59h-5.65Z"/>
        <path class="cls-8" d="M267.23,217.03h20.71v21.25h-4.83v-19.75l2.23,2.25h-15.69l2.08-1.73c1.07,8.13,1.47,23.8-10.34,18.7v-3.64c9.26,3.18,5.95-11.46,5.84-17.08Z"/>
        <path class="cls-8" d="M304.71,238.8c-16.84,.8-16.85-23.11,0-22.3,16.85-.8,16.84,23.1,0,22.3Zm0-3.83c10.39,.81,10.39-15.45,0-14.64-10.38-.79-10.38,15.43,0,14.64Z"/>
        <path class="cls-8" d="M327.84,237.6l-9.67-20.58h5.32l9.15,20.58h-4.8Zm-2.42,7.4c-2.33,0-4.29-.59-6.17-1.77v-3.72c3.2,2.16,8.5,2.95,10.26-1.39,0,0,9.48-21.1,9.48-21.1h5.13c-3.92,5.27-9.77,29.08-18.7,27.97Z"/>
        <path class="cls-8" d="M346.96,217.03h4.8v21.25h-4.8v-21.25Zm2.71,8.6h17.18v3.75h-17.18v-3.75Zm15.17-8.6h4.8v21.25h-4.8v-21.25Z"/>
        <path class="cls-8" d="M395.89,227.65c-1.26,13.95-22.59,15.04-22.24,0-.4-15.04,21.05-13.96,22.24,0Zm-17.33,0c0,10.27,13.7,8.51,15.62,0-1.92-8.51-15.62-10.26-15.62,0Zm15.84,10.63l-.82-7.89,.97-2.74-.97-2.7,.82-7.92h4.98l-1.12,10.63,1.12,10.63h-4.98Z"/>
        <path class="cls-8" d="M431.29,234.52v9.12h-4.2v-5.37h-21.05v5.37h-4.2v-9.12c8.2,.09,21.26,.07,29.45,0Zm-24.77-17.5h20.86v19.82h-4.83v-18.32l2.23,2.25h-15.73l2.08-1.65c.31,5.88,1.59,16.6-5.28,17.72l-1.97-1.69c3.51-2.04,3.33-12.86,2.64-18.13Z"/>
        <path class="cls-8" d="M434.79,238.28v-21.25h4.83v19.9l-1.71-2.25c3.34-.6,13.41,2.13,13.2-3.72,.26-5.87-9.72-3.18-13.05-3.76v-3.49c3.1,.22,11.26-.66,13.94,.92,5.32,2.24,5.32,10.52,0,12.75-2.75,1.65-14.02,.63-17.22,.9Zm23.65-21.25h4.83v21.25h-4.83v-21.25Z"/>
      </g>
    </g>
  </g>
  <g id="_Слой_14" data-name="Слой 14">
    <path class="cls-7" d="M243.99,246.63c17.93-4.37-7.88,60.65-7.68,71.22,12.82-19.84,22.64-51.5,44.73-62.54,21.93,.35,1.07,43.6,1.2,55.3,12.55-19.68,22.91-46.62,36.11-65.25,10.99,3.47,3.89,17.64-.88,23.41-9.08,17.58-21.54,39.49-31.27,55.43-2.26,4.39-4.94,13.08-10.57,10.13-16.64-8.63,5.84-49.59,2.96-64.18-15.69,16.53-24.35,39.37-38,59.65-3.62,6.91-8.42,11.8-14.72,5.03-7.55-6.52,4.99-35.54,6.54-46.05,2.91-9.14,3.5-15.79,5.41-24.91,.65-6.37-.63-15.32,6.17-17.24Z"/>
    <g class="cls-10">
      <polyline class="cls-6" points="464.5 238.48 464.5 244.57 458.41 244.57"/>
      <line class="cls-4" x1="446.05" y1="244.57" x2="106.12" y2="244.57"/>
      <polyline class="cls-6" points="99.94 244.57 93.85 244.57 93.85 238.48"/>
      <line class="cls-1" x1="93.85" y1="225.97" x2="93.85" y2="107.14"/>
      <polyline class="cls-6" points="93.85 100.88 93.85 94.79 99.94 94.79"/>
      <line class="cls-4" x1="112.3" y1="94.79" x2="452.23" y2="94.79"/>
      <polyline class="cls-6" points="458.41 94.79 464.5 94.79 464.5 100.88"/>
      <line class="cls-1" x1="464.5" y1="113.39" x2="464.5" y2="232.23"/>
    </g>
    <g class="cls-10">
      <polyline class="cls-3" points="557.84 331.88 557.84 337.91 551.8 337.91"/>
      <line class="cls-2" x1="539.69" y1="337.91" x2="12.6" y2="337.91"/>
      <polyline class="cls-3" points="6.54 337.91 .5 337.91 .5 331.88"/>
      <line class="cls-5" x1=".5" y1="319.83" x2=".5" y2="12.57"/>
      <polyline class="cls-3" points=".5 6.54 .5 .5 6.54 .5"/>
      <line class="cls-2" x1="18.66" y1=".5" x2="545.75" y2=".5"/>
      <polyline class="cls-3" points="551.8 .5 557.84 .5 557.84 6.54"/>
      <line class="cls-5" x1="557.84" y1="18.59" x2="557.84" y2="325.85"/>
    </g>
    <path class="cls-7" d="M303.65,93.02c-17.93,4.37,7.88-60.65,7.68-71.22-12.82,19.84-22.64,51.5-44.73,62.54-21.93-.35-1.07-43.6-1.2-55.3-12.55,19.68-22.91,46.62-36.11,65.25-10.99-3.47-3.89-17.64,.88-23.41,9.08-17.58,21.54-39.49,31.27-55.43,2.26-4.39,4.94-13.08,10.57-10.13,16.64,8.63-5.84,49.59-2.96,64.18,15.69-16.53,24.35-39.37,38-59.65,3.62-6.91,8.42-11.8,14.72-5.03,7.55,6.52-4.99,35.54-6.54,46.05-2.91,9.14-3.5,15.79-5.41,24.91-.65,6.37,.63,15.32-6.17,17.24Z"/>
    <path class="cls-7" d="M92.55,143.69c4.37,17.93-60.65-7.88-71.22-7.68,19.84,12.82,51.5,22.64,62.54,44.73-.35,21.93-43.6,1.07-55.3,1.2,19.68,12.55,46.62,22.91,65.25,36.11-3.47,10.99-17.64,3.89-23.41-.88-17.58-9.08-39.49-21.54-55.43-31.27-4.39-2.26-13.08-4.94-10.13-10.57,8.63-16.64,49.59,5.84,64.18,2.96-16.53-15.69-39.37-24.35-59.65-38-6.91-3.62-11.8-8.42-5.03-14.72,6.52-7.55,35.54,4.99,46.05,6.54,9.14,2.91,15.79,3.5,24.91,5.41,6.37,.65,15.32-.63,17.24,6.17Z"/>
    <path class="cls-7" d="M466.01,203.35c-4.37-17.93,60.65,7.88,71.22,7.68-19.84-12.82-51.5-22.64-62.54-44.73,.35-21.93,43.6-1.07,55.3-1.2-19.68-12.55-46.62-22.91-65.25-36.11,3.47-10.99,17.64-3.89,23.41,.88,17.58,9.08,39.49,21.54,55.43,31.27,4.39,2.26,13.08,4.94,10.13,10.57-8.63,16.64-49.59-5.84-64.18-2.96,16.53,15.69,39.37,24.35,59.65,38,6.91,3.62,11.8,8.42,5.03,14.72-6.52,7.55-35.54-4.99-46.05-6.54-9.14-2.91-15.79-3.5-24.91-5.41-6.37-.65-15.32,.63-17.24-6.17Z"/>
  </g>
</svg>