<?xml version="1.0" encoding="UTF-8"?>
<svg id="_Слой_2" data-name="Слой 2" xmlns="http://www.w3.org/2000/svg" viewBox="0 0 381.13 150.3">
  <defs>
    <style>
      .cls-1 {
        fill: #e03035;
        stroke: #f2f1f0;
        stroke-miterlimit: 10;
        stroke-width: 2px;
      }

      .cls-2 {
        fill: #f2f1f0;
      }
    </style>
  </defs>
  <g id="_Слой_1-2" data-name="Слой 1">
    <g id="Logo_Vertical_2" data-name="Logo Vertical 2">
      <g>
        <path class="cls-2" d="M83.65,96.44c-18.01,4.39,7.91-60.9,7.71-71.51-12.88,19.93-22.73,51.71-44.92,62.8-22.02-.35-1.08-43.78-1.2-55.53-12.6,19.76-23,46.81-36.26,65.51-11.03-3.48-3.9-17.72,.89-23.5,9.12-17.65,21.62-39.66,31.4-55.66,2.27-4.4,4.96-13.13,10.61-10.17,16.71,8.66-5.86,49.79-2.97,64.44,15.75-16.6,24.45-39.53,38.16-59.89,3.64-6.94,8.45-11.85,14.78-5.05,7.58,6.54-5.01,35.69-6.57,46.24-2.92,9.18-3.51,15.85-5.43,25.02-.66,6.39,.64,15.38-6.19,17.31Z"/>
        <path class="cls-2" d="M152,102.13c-3.85-1.55-6.48-4.42-5.56-8.59,9.72-20.04,18.42-46.65,27.04-68.61-16.66,18.75-32.53,40.56-50.35,57.93-4.12,3.71-9.11,8.96-14.47,10.68-5.57-.97-8.08-2.96-6.89-7.9,7.64-26.53,14.08-53,26.85-77.64,1.81-2.96,.28-5.62,2.65-7.33,6.02-2.9,11.26,4.25,8.72,9.86-7,17.27-18.24,47.47-25.02,64.57,6.57-6.74,28.54-27.66,33.61-35,8.8-11.53,23.16-24.53,32.72-35.38,3.96-2.32,8.1-1.31,9.41,3.35-6.01,23.44-19.06,47.14-25.77,71.01-2.46,4.4-6.97,26.51-12.95,23.06Z"/>
        <path class="cls-2" d="M183.97,96.32c-4.89-2.21-4.17-6.96-3.03-11.37,7.63-22.61,15.25-47.5,25.78-69.49,1.17-1.4,2.13-5.97,3.79-7.46,6.2-3.75,9.4-1.07,9.73,5.12-3.57,10.21-10.9,22.12-13.77,32.54-3.28,7.89-7.26,17.34-9.6,26.09-2.38,4.21-6.31,31.52-12.89,24.58Zm15.42-48.52c8.54-3.51,54.26-51.19,57.42-35.32,1.75,3.87,1.14,5.44-2.84,7.52-11.34,6.1-21,15.69-30.45,21.86-5.62,5.71-13.89,9.53-19.58,15.41l-4.55-9.48Zm29.31,48.27c-15.47-5.69-24.28-24.72-27.04-40.05,0,0,.13-7.83,.13-7.83l9.22-.63c1.54,14.39,7.98,31.5,21.35,37.27,9.1,2.14,5.24,16.49-3.66,11.24Z"/>
        <path class="cls-1" d="M259.87,94.8c-19.97-10.94-5.1-50.15,4.17-66.33,6.16-11.05,17.45-20.34,27.55-22.49,51.03-10.88,4.59,106.86-31.71,88.82Zm26-42.84c9.54-.03,25.26-35.12,10.09-34.46-7.39,3.15-22.16,32.2-10.09,34.46Z"/>
        <path class="cls-2" d="M330.97,98.72c-39.3-13.66,6.76-105.93,39.8-95.59,15.8,6.31,2.04,41.19-6.76,37.21-2.26-.61-6.83-3.9-5.24-5.69,2.13-2.78,5.08-8.28,6.32-11.62,9.11-33.61-40.09,23.89-36.89,48.08-2.43,29.82,21.67,9.05,35.25,3.35,16.45,5.87-25.22,27.81-32.47,24.26Z"/>
      </g>
      <g>
        <path class="cls-2" d="M0,122.17H22.4v3.85H0v-3.85Zm8.77,1.7h4.85v19.64h-4.85v-19.64Z"/>
        <path class="cls-2" d="M37.11,144.04c-9.15,.72-16.09-9.12-11.18-17.06,6.44-10.06,23.49-4.96,22.16,7.6H28.18v-3.73h17.48l-2.43,1.4c.27-7.04-9.78-9.2-13.03-3.45-5.03,11.03,10.37,14.38,17.29,8.46v3.54c-2.71,2.12-6.84,3.26-10.38,3.24Z"/>
        <path class="cls-2" d="M74.29,132.84c-1.27,14-22.68,15.1-22.33,0-.4-15.1,21.14-14.01,22.33,0Zm-17.4,0c0,10.31,13.76,8.54,15.68,0-1.92-8.55-15.68-10.3-15.68,0Zm15.91,10.67l-.82-7.92,.97-2.75-.97-2.71,.82-7.96h5l-1.12,10.67,1.12,10.67h-5Z"/>
        <path class="cls-2" d="M81.37,122.17h22.4v3.85h-22.4v-3.85Zm8.77,1.7h4.85v19.64h-4.85v-19.64Z"/>
        <path class="cls-2" d="M107.84,122.17h4.85c-.18,7.8,0,19.64,0,27.56h-4.85v-27.56Zm2.99,10.67c1.24-14.01,22.71-15.1,22.33,0,.35,15.11-21.03,13.99-22.33,0Zm17.4,0c-.02-10.32-13.71-8.53-15.68,0,1.97,8.53,15.66,10.31,15.68,0Z"/>
        <path class="cls-2" d="M148.08,143.51v-21.34h4.85v17.19l-1.46-.53,13.48-16.66h5.53l-17.92,21.34h-4.48Zm17.4,0l-6.57-10.56,3.4-3.09,8.85,13.65h-5.68Z"/>
        <path class="cls-2" d="M178.28,122.17h20.8v21.34h-4.85v-19.83l2.24,2.26h-15.76l2.09-1.73c1.08,8.16,1.48,23.9-10.38,18.77v-3.66c9.29,3.19,5.97-11.51,5.86-17.15Z"/>
        <path class="cls-2" d="M216.92,144.04c-16.91,.8-16.92-23.21,0-22.39,16.91-.81,16.91,23.2,0,22.39Zm0-3.85c10.43,.81,10.43-15.51,0-14.7-10.43-.79-10.43,15.5,0,14.7Z"/>
        <path class="cls-2" d="M241.14,142.83l-9.71-20.66h5.34l9.19,20.66h-4.82Zm-2.43,7.43c-2.34,0-4.31-.59-6.2-1.77v-3.73c3.21,2.16,8.54,2.96,10.31-1.4,0,0,9.52-21.19,9.52-21.19h5.15c-3.94,5.3-9.81,29.19-18.78,28.09Z"/>
        <path class="cls-2" d="M261.34,122.17h4.82v21.34h-4.82v-21.34Zm2.73,8.63h17.25v3.77h-17.25v-3.77Zm15.23-8.63h4.82v21.34h-4.82v-21.34Z"/>
        <path class="cls-2" d="M311.47,132.84c-1.27,14-22.68,15.1-22.33,0-.4-15.1,21.14-14.01,22.33,0Zm-17.4,0c0,10.31,13.76,8.54,15.68,0-1.92-8.55-15.68-10.3-15.68,0Zm15.91,10.67l-.82-7.92,.97-2.75-.97-2.71,.82-7.96h5l-1.12,10.67,1.12,10.67h-5Z"/>
        <path class="cls-2" d="M348.02,139.74v9.16h-4.22v-5.39h-21.13v5.39h-4.22v-9.16c8.23,.09,21.35,.07,29.57,0Zm-24.87-17.57h20.95v19.91h-4.85v-18.4l2.24,2.26h-15.79l2.09-1.66c.31,5.9,1.6,16.67-5.3,17.79l-1.98-1.7c3.52-2.05,3.35-12.91,2.65-18.21Z"/>
        <path class="cls-2" d="M352.53,143.51v-21.34h4.85v19.98l-1.72-2.26c3.35-.6,13.47,2.14,13.26-3.73,.26-5.89-9.76-3.19-13.11-3.77v-3.51c3.11,.22,11.31-.66,14,.92,5.34,2.25,5.34,10.56,0,12.8-2.76,1.66-14.08,.64-17.29,.9Zm23.75-21.34h4.85v21.34h-4.85v-21.34Z"/>
      </g>
    </g>
  </g>
</svg>