<?xml version="1.0" encoding="UTF-8"?>
<svg id="_Слой_2" data-name="Слой 2" xmlns="http://www.w3.org/2000/svg" viewBox="0 0 122.51 20.18">
  <g id="_Минимальные_размеры" data-name="Минимальные размеры">
    <g id="_Логотипы_копия_" data-name="Логотипы (копия)">
      <g id="Logo_Vertical_2_копия_2" data-name="Logo Vertical 2 копия 2">
        <g>
          <path d="M15.71,19c-3.51,.86,1.54-11.88,1.5-13.95-2.51,3.89-4.44,10.09-8.76,12.25-4.3-.07-.21-8.54-.23-10.84-2.46,3.86-4.49,9.13-7.08,12.78-2.15-.68-.76-3.46,.17-4.59,1.78-3.44,4.22-7.74,6.13-10.86,.44-.86,.97-2.56,2.07-1.98,3.26,1.69-1.14,9.72-.58,12.57,3.07-3.24,4.77-7.71,7.45-11.69,.71-1.35,1.65-2.31,2.88-.99,1.48,1.28-.98,6.96-1.28,9.02-.57,1.79-.69,3.09-1.06,4.88-.13,1.25,.12,3-1.21,3.38Z" fill="#010101"/>
          <path d="M29.05,20.11c-.75-.3-1.26-.86-1.08-1.68,1.9-3.91,3.6-9.1,5.28-13.39-3.25,3.66-6.35,7.92-9.83,11.3-.8,.72-1.78,1.75-2.82,2.08-1.09-.19-1.58-.58-1.34-1.54,1.49-5.18,2.75-10.34,5.24-15.15,.35-.58,.05-1.1,.52-1.43,1.17-.57,2.2,.83,1.7,1.92-1.37,3.37-3.56,9.26-4.88,12.6,1.28-1.31,5.57-5.4,6.56-6.83,1.72-2.25,4.52-4.79,6.39-6.9,.77-.45,1.58-.25,1.84,.65-1.17,4.57-3.72,9.2-5.03,13.86-.48,.86-1.36,5.17-2.53,4.5Z" fill="#010101"/>
          <path d="M35.29,18.98c-.95-.43-.81-1.36-.59-2.22,1.49-4.41,2.98-9.27,5.03-13.56,.23-.27,.42-1.16,.74-1.45,1.21-.73,1.83-.21,1.9,1-.7,1.99-2.13,4.32-2.69,6.35-.64,1.54-1.42,3.38-1.87,5.09-.46,.82-1.23,6.15-2.51,4.8Zm3.01-9.47c1.67-.68,10.59-9.99,11.21-6.89,.34,.76,.22,1.06-.55,1.47-2.21,1.19-4.1,3.06-5.94,4.27-1.1,1.11-2.71,1.86-3.82,3.01l-.89-1.85Zm5.72,9.42c-3.02-1.11-4.74-4.82-5.28-7.82,0,0,.02-1.53,.02-1.53l1.8-.12c.3,2.81,1.56,6.15,4.17,7.27,1.78,.42,1.02,3.22-.71,2.19Z" fill="#010101"/>
          <path d="M49.51,18.68c-3.9-2.14-1-9.79,.81-12.94,1.2-2.16,3.41-3.97,5.38-4.39,9.96-2.12,.9,20.85-6.19,17.33Zm5.07-8.36c1.86,0,4.93-6.85,1.97-6.72-1.44,.62-4.32,6.28-1.97,6.72Z" fill="#e03035"/>
          <path d="M62.8,19.44c-7.67-2.67,1.32-20.67,7.77-18.65,3.08,1.23,.4,8.04-1.32,7.26-.44-.12-1.33-.76-1.02-1.11,.42-.54,.99-1.62,1.23-2.27,1.78-6.56-7.82,4.66-7.2,9.38-.47,5.82,4.23,1.77,6.88,.65,3.21,1.15-4.92,5.43-6.34,4.73Z" fill="#010101"/>
        </g>
        <line x1="76.91" x2="76.91" y2="20" fill="none" opacity=".3" stroke="#010101" stroke-miterlimit="10" stroke-width=".4"/>
        <g opacity=".6">
          <path d="M82.78,7.69c.05-.66,.26-1.24,.64-1.73,.38-.49,.89-.87,1.52-1.13,.63-.27,1.35-.4,2.16-.4s1.44,.12,2.02,.36c.58,.24,1.03,.58,1.36,1.01,.32,.43,.49,.93,.49,1.5,0,.44-.11,.85-.32,1.22-.21,.38-.56,.76-1.04,1.15-.48,.39-1.14,.83-1.96,1.31l-2.99,1.76-.2-.47h6.79v1.32h-8.38v-1.15l3.83-2.33c.67-.41,1.2-.76,1.59-1.06s.67-.58,.83-.85c.17-.26,.25-.54,.25-.84,0-.31-.08-.59-.25-.84s-.42-.44-.76-.59c-.34-.14-.77-.22-1.3-.22-.6,0-1.09,.09-1.48,.26-.38,.18-.67,.41-.86,.71s-.3,.63-.34,.99h-1.6Z" fill="#1d1d1b"/>
          <path d="M97.11,13.76c-.98,0-1.83-.19-2.54-.58-.71-.39-1.26-.93-1.64-1.63-.38-.7-.58-1.52-.58-2.45s.19-1.75,.58-2.45c.38-.7,.93-1.24,1.64-1.63s1.56-.58,2.54-.58,1.83,.19,2.54,.58,1.25,.93,1.64,1.63c.38,.7,.58,1.52,.58,2.45s-.19,1.75-.58,2.45c-.38,.7-.93,1.24-1.64,1.63-.71,.39-1.55,.58-2.54,.58Zm0-1.31c1,0,1.78-.29,2.33-.88,.55-.59,.83-1.41,.83-2.48s-.28-1.89-.83-2.48c-.55-.59-1.33-.88-2.33-.88s-1.78,.29-2.33,.88-.83,1.41-.83,2.48,.28,1.89,.83,2.48,1.33,.88,2.33,.88Z" fill="#1d1d1b"/>
          <path d="M106.47,6.8h1.56v2.36l-.07,.24v1.37l.07,.42v4.38h-1.56V6.8Zm.96,3.4c.15-.72,.4-1.35,.76-1.88s.79-.95,1.3-1.24c.52-.3,1.09-.44,1.72-.44,.66,0,1.25,.15,1.76,.45,.51,.3,.91,.72,1.2,1.25,.29,.53,.43,1.15,.43,1.87s-.14,1.32-.43,1.86c-.29,.54-.69,.95-1.2,1.25-.51,.3-1.1,.45-1.76,.45s-1.2-.15-1.72-.44c-.51-.3-.95-.71-1.3-1.25s-.61-1.16-.76-1.87Zm5.59,0c0-.46-.09-.86-.28-1.21-.19-.35-.45-.62-.77-.82-.33-.2-.7-.29-1.13-.29s-.82,.1-1.19,.29c-.37,.2-.7,.47-.98,.82-.28,.35-.51,.75-.68,1.21,.18,.46,.4,.86,.68,1.21,.28,.35,.61,.62,.98,.82,.37,.2,.77,.29,1.19,.29s.8-.1,1.13-.29c.33-.2,.59-.47,.77-.82,.19-.35,.28-.75,.28-1.21Z" fill="#1d1d1b"/>
          <path d="M114.6,13.59l3.28-3.88v.77s-3.08-3.68-3.08-3.68h1.79l2.33,2.76h-.66l2.34-2.76h1.73l-3.13,3.71-.06-.9,3.38,3.98h-1.79l-2.54-2.98h.68l-2.52,2.98h-1.74Z" fill="#1d1d1b"/>
        </g>
      </g>
    </g>
  </g>
</svg>