<?xml version="1.0" encoding="UTF-8"?>
<svg id="_Слой_2" data-name="Слой 2" xmlns="http://www.w3.org/2000/svg" viewBox="0 0 20.95 17.01">
  <g id="_Минимальные_размеры" data-name="Минимальные размеры">
    <g id="_Логотипы_копия_" data-name="Логотипы (копия)">
      <g id="Logo_Vertical_2_копия_2" data-name="Logo Vertical 2 копия 2">
        <g>
          <path d="M18,16.96c-.71-.06-1.4-.18-2.04-.51-.07,.09-.13,.17-.19,.25-.68,.02-1.34-.03-2.04-.14,.01-.2,0-.37,.04-.54,.08-.41,.17-.81,.25-1.22,.04-.22,.06-.45-.04-.67-.27,.04-.52,.08-.76,.1-.37,.02-.75,.05-1.12,.03-.26,0-.32-.1-.35-.35-.23-1.73-.46-3.45-.69-5.18-.18-1.36-.35-2.73-.54-4.15-.04,.14-.07,.23-.08,.32-.13,.97-.26,1.94-.39,2.91-.16,1.18-.31,2.36-.47,3.54-.1,.78-.2,1.57-.3,2.36-.02,.19-.06,.37-.25,.54-.68-.04-1.39-.09-2.13-.14-.02,.13-.06,.25-.05,.35,.04,.34,.1,.68,.16,1.01,.06,.33,.1,.65,.15,1.08-.12,.03-.24,.02-.35,.03-.41,.04-.83,.07-1.24,.12-.07,0-.31-.18-.56-.29-.14,.07-.27,.13-.41,.19-.56,.25-1.16,.32-1.76,.37-.57,.03-1.22,.1-1.86-.03-.39-.05-.61-.17-.98-.31,0-.1,0-.65,.05-.79,.2-.56,.51-.78,1.1-.78,.17,0,.33,.02,.5,.05,.15,.02,.31,.04,.46,.1,.75,.28,1.43,.07,2.1-.3-.06-.02-.11-.04-.15-.06-.05-.03-.1-.06-.15-.1,.12-.28,.19-.34,.44-.32,.1,0,.2,.04,.3,.07,.24,.07,.36,.03,.44-.2,.05-.14,.07-.3,.1-.47-.46-.11-.91-.22-1.35-.34-.8-.21-1.58-.46-2.29-.89-.28-.17-.56-.36-.74-.66,.03-.07,.05-.14,.08-.21,1.05-2.47,2.09-4.94,3.15-7.41,.54-1.26,1.09-2.52,1.63-3.78C5.8,.25,5.99,.03,6.33,0c.36,0,.73,0,1.09,0,.08,0,.16,0,.24,0,.65,.07,1.27,.2,1.88,.45,.34,.14,.57,.38,.69,.72,.06,.17,.09,.34,.14,.51,.03,.1,.06,.2,.09,.3,.12-.27,.19-.54,.26-.81,.09-.31,.27-.54,.56-.67C12.33,.06,13.41-.08,14.53,.1c.26,.04,.47,.17,.61,.39,.09,.15,.17,.31,.24,.47,.15,.34,.29,.69,.44,1.03,1.24,2.85,2.49,5.7,3.73,8.55,.18,.42,.36,.84,.55,1.27-.11,.14-.19,.29-.32,.39-.24,.19-.5,.38-.78,.52-.71,.38-1.48,.6-2.25,.82-.34,.1-.67,.2-1,.29,0,.06-.01,.09-.01,.12,.02,.49,.15,.59,.62,.51,.13-.02,.27-.04,.4-.02,.2,.03,.25,.1,.25,.35-.07,.04-.15,.09-.27,.16,.3,.11,.55,.2,.81,.28,.45,.14,.9,.14,1.34-.06,.3-.13,.63-.15,.95-.12,.5,.05,.9,.36,1.02,.8,.03,.12,.02,.66,.08,.76-.23,.15-.63,.27-1.06,.32-.81,.09-1.27,.04-1.9,.01Zm-2.7-3.36c-1.01-4.37-2.02-8.69-3.02-13.02-.1,0-.16,0-.22,.02-.06,.01-.12,.04-.19,.06,.81,4.38,1.61,8.74,2.42,13.13,.34-.06,.64-.12,1.01-.18ZM9.1,.66c-.16-.05-.28-.09-.43-.14-.96,4.36-2.14,8.65-2.95,13.05,.32,.06,.6,.16,.91,.11,.82-4.35,1.64-8.67,2.47-13.02ZM3.08,12.91C4.55,8.7,6.01,4.53,7.48,.34c-.09-.02-.16-.03-.22-.04-.06,0-.12,0-.19,0-1.62,4.09-3.27,8.15-4.75,12.3,.06,.03,.1,.06,.15,.07,.18,.07,.37,.14,.6,.23ZM13.48,.4c1.46,4.17,2.87,8.33,4.4,12.49,.28-.12,.52-.22,.79-.34-1.61-4.08-3.2-8.12-4.79-12.15h-.4Zm-.81,.09c1.18,4.31,2.35,8.59,3.53,12.92,.27-.08,.53-.15,.8-.23-1.32-4.27-2.63-8.51-3.94-12.75-.14,.02-.25,.04-.39,.06Zm-4.77-.1c-.71,1.93-3.87,12.36-3.88,12.83,.23,.06,.47,.12,.71,.18C5.92,9.06,7.09,4.76,8.26,.44c-.14-.02-.24-.04-.36-.06Zm6.22,15.46c.45,.17,1.12,.15,1.39-.04,.03,.01,.06,.02,.08,.04,.76,.55,1.61,.81,2.55,.79,.58-.02,1.17-.02,1.75-.07,.25-.02,.5-.12,.75-.18,0-.09,0-.14,0-.2,0-.47-.28-.9-.9-.88-.38,.01-.74,.08-1.11,.17-.23,.06-.46,.11-.7,.04-.34-.1-.68-.16-1.01-.24-.12,.14-.23,.25-.36,.39-.13-.24,.15-.28,.13-.47-.07-.04-.16-.08-.25-.12-.11,.07-.2,.13-.29,.18-.02,.09-.04,.16-.06,.25-.22-.09-.14-.25-.15-.38,.07-.08,.14-.15,.2-.22-.11-.21-.26-.14-.39-.08-.3,.15-.61,.12-.92,.1-.18-.01-.37-.05-.55-.08-.16,.33-.18,.64-.15,.99ZM.27,16.36c.44,.17,.9,.25,1.37,.27,.65,.02,1.29-.02,1.93-.1,.59-.08,1.11-.27,1.59-.6,.09-.06,.2-.11,.29-.17,.08,.08,.14,.14,.22,.21,.37-.03,.74-.07,1.1-.1,.03-.37-.04-.68-.19-1-.12,0-.25,0-.37,.02-.37,.08-.72,.09-1.06-.09-.15-.08-.27-.06-.39,.09,.14,.1,.27,.19,.38,.27q0,.27-.18,.32c0-.1-.02-.2-.03-.32-.22-.07-.43-.05-.64-.01-.03,.2,.3,.31,.07,.55-.1-.16-.18-.31-.27-.46-.07,.02-.14,.04-.21,.06-.66,.23-1.32,.28-1.99,.07-.19-.06-.39-.1-.58-.11-.27-.01-.54,.02-.77,.2-.28,.23-.34,.53-.29,.88Zm7.76-2.48c.15-1.04,.29-2.03,.44-3.02,.16-1.07,.31-2.15,.47-3.22,.16-1.05,.32-2.1,.48-3.15,.14-.93,.29-1.85,.42-2.78,.02-.14,.03-.29,.01-.44-.02-.17-.1-.31-.29-.36-.75,4.3-1.49,8.59-2.13,12.93,.22,.01,.39,.02,.6,.03Zm5.47,0c-.71-4.36-1.41-8.67-2.11-13.02-.1,.06-.15,.08-.2,.12-.05,.04-.09,.08-.14,.13,.62,4.28,1.24,8.54,1.86,12.84,.21-.02,.38-.04,.59-.07ZM1.64,12.19C3.25,8.25,4.86,4.31,6.49,.32c-.15,.03-.26,.06-.4,.09-1.63,3.83-3.27,7.65-4.9,11.47,.09,.17,.22,.29,.44,.31ZM14.46,.45c1.62,3.94,3.21,7.83,4.91,11.73,.14-.12,.25-.21,.35-.31-.26-.62-.49-1.22-.75-1.81-.91-2.11-1.83-4.22-2.75-6.32-.42-.97-.85-1.94-1.27-2.92-.09-.2-.19-.36-.49-.37Zm-5.56,13.44c.08-.59,.16-1.15,.24-1.71,.16-1.19,.32-2.38,.47-3.57,.12-.91,.24-1.82,.36-2.73,.1-.81,.21-1.61,.29-2.42,.04-.39,0-.79-.12-1.24-.52,3.93-1.17,7.78-1.63,11.67h.39Zm1.95-11.71c-.15,.3-.2,.63-.16,.96,.15,1.23,.31,2.46,.47,3.69,.25,1.99,.51,3.97,.77,5.96,.05,.38,.11,.76,.17,1.14h.38c-.55-3.93-1.09-7.84-1.63-11.75Zm3.44,12.46c.48,.13,.91,.28,1.37,0-.05-.26-.1-.51-.15-.76-.45,.08-.85,.15-1.27,.23,.02,.19,.04,.35,.06,.54Zm-8.87-.78c-.06,.27-.11,.51-.16,.76,.48,.3,.9,.1,1.32-.02,.02-.19,.04-.36,.07-.55-.41-.06-.8-.12-1.23-.19Zm11.15,.87c-.07-.13-.1-.08-.14,.01,.04,0,.08,0,.14-.01Zm-12.01-.04s0-.03,0-.04h-.25s0,.05,0,.07c.08,0,.16-.02,.25-.03Z" fill="#141313"/>
          <path d="M15.29,13.6c-.37,.07-.67,.12-1.01,.18-.81-4.39-1.61-8.75-2.42-13.13,.07-.02,.13-.05,.19-.06,.06-.01,.12-.01,.22-.02,1,4.33,2,8.65,3.02,13.02Z" fill="#f1f0f0"/>
          <path d="M9.1,.66c-.82,4.35-1.64,8.67-2.47,13.02-.31,.05-.59-.05-.91-.11,.81-4.4,1.99-8.69,2.95-13.05,.14,.05,.27,.09,.43,.14Z" fill="#f1f0f0"/>
          <path d="M3.08,12.91c-.23-.09-.41-.16-.6-.23-.05-.02-.09-.04-.15-.07C3.81,8.46,5.46,4.4,7.08,.31c.07,0,.13,0,.19,0,.06,0,.12,.02,.22,.04-1.47,4.19-2.93,8.36-4.4,12.57Z" fill="#f1f0f0"/>
          <path d="M13.48,.4h.4c1.59,4.03,3.18,8.08,4.79,12.15-.26,.11-.51,.22-.79,.34-1.53-4.16-2.94-8.32-4.4-12.49Z" fill="#f1f0f0"/>
          <path d="M12.67,.48c.14-.02,.25-.04,.39-.06,1.31,4.24,2.62,8.47,3.94,12.75-.27,.08-.53,.15-.8,.23-1.18-4.33-2.35-8.61-3.53-12.92Z" fill="#f1f0f0"/>
          <path d="M7.91,.38c.12,.02,.22,.04,.36,.06-1.18,4.32-2.34,8.62-3.52,12.95-.24-.06-.48-.12-.71-.18,0-.46,3.17-10.9,3.88-12.83Z" fill="#f1f0f0"/>
          <path d="M14.13,15.84c-.02-.34,0-.66,.15-.99,.19,.03,.37,.06,.55,.08,.31,.02,.62,.05,.92-.1,.12-.06,.28-.13,.39,.08-.06,.07-.13,.14-.2,.22,.01,.13-.06,.29,.15,.38,.02-.08,.04-.16,.06-.25,.09-.05,.18-.12,.29-.18,.09,.04,.18,.09,.25,.12,.02,.19-.26,.23-.13,.47,.13-.14,.23-.26,.36-.39,.33,.08,.68,.14,1.01,.24,.24,.07,.47,.02,.7-.04,.36-.09,.73-.16,1.11-.17,.62-.02,.9,.41,.9,.88,0,.05,0,.1,0,.2-.25,.06-.5,.16-.75,.18-.58,.04-1.17,.05-1.75,.07-.94,.03-1.79-.24-2.55-.79-.02-.02-.06-.02-.08-.04-.27,.18-.94,.2-1.39,.04Z" fill="#e03035"/>
          <path d="M.27,16.36c-.05-.35,0-.66,.29-.88,.22-.18,.5-.21,.77-.2,.19,0,.39,.05,.58,.11,.67,.21,1.33,.16,1.99-.07,.07-.02,.14-.04,.21-.06,.09,.15,.17,.29,.27,.46,.23-.24-.1-.36-.07-.55,.21-.03,.41-.06,.64,.01,.01,.12,.02,.21,.03,.32q.17-.05,.18-.32c-.12-.08-.24-.17-.38-.27,.11-.15,.24-.17,.39-.09,.34,.18,.7,.17,1.06,.09,.12-.03,.25-.01,.37-.02,.15,.32,.22,.62,.19,1-.36,.03-.73,.07-1.1,.1-.08-.07-.14-.14-.22-.21-.1,.06-.2,.1-.29,.17-.48,.33-1,.53-1.59,.6-.64,.08-1.29,.13-1.93,.1-.47-.02-.92-.1-1.37-.27Z" fill="#e03035"/>
          <path d="M8.04,13.88c-.2-.01-.38-.02-.6-.03,.64-4.35,1.38-8.63,2.13-12.93,.19,.05,.27,.19,.29,.36,.01,.14,0,.29-.01,.44-.14,.93-.28,1.85-.42,2.78-.16,1.05-.32,2.1-.48,3.15-.16,1.07-.31,2.15-.47,3.22-.14,.99-.29,1.98-.44,3.02Z" fill="#f1f0f0"/>
          <path d="M13.51,13.88c-.21,.02-.38,.04-.59,.07-.62-4.3-1.24-8.56-1.86-12.84,.05-.05,.09-.09,.14-.13,.05-.04,.1-.06,.2-.12,.71,4.35,1.4,8.66,2.11,13.02Z" fill="#f1f0f0"/>
          <path d="M1.64,12.19c-.23-.01-.35-.13-.44-.31C2.83,8.06,4.46,4.24,6.09,.41c.14-.03,.25-.05,.4-.09-1.63,3.98-3.24,7.92-4.85,11.86Z" fill="#f1f0f0"/>
          <path d="M14.46,.45c.3,0,.4,.17,.49,.37,.42,.97,.85,1.94,1.27,2.92,.92,2.11,1.84,4.21,2.75,6.32,.26,.59,.49,1.19,.75,1.81-.11,.09-.21,.18-.35,.31-1.7-3.9-3.29-7.8-4.91-11.73Z" fill="#f1f0f0"/>
          <path d="M8.9,13.89h-.39c.45-3.89,1.11-7.74,1.63-11.67,.13,.45,.16,.85,.12,1.24-.08,.81-.19,1.62-.29,2.42-.12,.91-.24,1.82-.36,2.73-.16,1.19-.31,2.38-.47,3.57-.07,.56-.15,1.12-.24,1.71Z" fill="#f1f0f0"/>
          <path d="M10.85,2.18c.54,3.91,1.09,7.82,1.63,11.75h-.38c-.06-.38-.12-.76-.17-1.14-.26-1.99-.51-3.97-.77-5.96-.16-1.23-.32-2.46-.47-3.69-.04-.33,0-.66,.16-.96Z" fill="#f1f0f0"/>
          <path d="M14.29,14.64c-.02-.19-.04-.35-.06-.54,.42-.08,.83-.15,1.27-.23,.05,.25,.1,.5,.15,.76-.46,.29-.89,.13-1.37,0Z" fill="#f1f0f0"/>
          <path d="M5.42,13.87c.43,.07,.82,.13,1.23,.19-.02,.2-.04,.36-.07,.55-.42,.11-.85,.32-1.32,.02,.05-.25,.1-.49,.16-.76Z" fill="#f1f0f0"/>
        </g>
      </g>
    </g>
  </g>
</svg>