<?xml version="1.0" encoding="UTF-8"?>
<svg id="_Слой_2" data-name="Слой 2" xmlns="http://www.w3.org/2000/svg" viewBox="0 0 19.71 16">
  <g id="_Минимальные_размеры" data-name="Минимальные размеры">
    <g id="_Логотипы_копия_" data-name="Логотипы (копия)">
      <g id="Logo_Vertical_2_копия_2" data-name="Logo Vertical 2 копия 2">
        <g>
          <path d="M16.93,15.96c-.67-.05-1.32-.17-1.92-.48-.06,.08-.12,.16-.18,.24-.64,.02-1.26-.03-1.92-.13,.01-.19,0-.35,.04-.51,.07-.39,.16-.77,.24-1.15,.04-.21,.06-.42-.04-.63-.25,.03-.49,.08-.72,.09-.35,.02-.7,.05-1.05,.03-.24,0-.3-.09-.33-.33-.22-1.62-.44-3.25-.65-4.87-.17-1.28-.33-2.57-.5-3.9-.03,.13-.06,.22-.07,.3-.12,.91-.25,1.83-.37,2.74-.15,1.11-.29,2.22-.44,3.33-.1,.74-.19,1.48-.28,2.22-.02,.18-.05,.35-.24,.5-.64-.04-1.31-.08-2.01-.13-.02,.12-.06,.23-.05,.33,.04,.32,.09,.64,.15,.95,.06,.31,.09,.61,.14,1.01-.11,.03-.23,.02-.33,.03-.39,.04-.78,.06-1.17,.11-.07,0-.29-.17-.52-.28-.14,.06-.26,.12-.38,.18-.53,.23-1.09,.3-1.66,.35-.53,.03-1.15,.09-1.75-.02-.36-.05-.57-.16-.92-.29C0,15.55,0,15.04,.05,14.9c.19-.53,.48-.74,1.04-.73,.16,0,.31,.02,.47,.04,.15,.02,.29,.04,.43,.09,.71,.26,1.35,.07,1.98-.28-.06-.02-.1-.04-.14-.06-.05-.03-.09-.06-.14-.09,.11-.26,.18-.32,.41-.3,.1,0,.19,.04,.28,.07,.22,.07,.34,.03,.42-.19,.05-.13,.06-.28,.1-.44-.44-.11-.85-.21-1.27-.32-.75-.2-1.48-.44-2.15-.84-.27-.16-.53-.34-.7-.62,.03-.07,.05-.13,.08-.2,.99-2.32,1.97-4.65,2.96-6.97,.51-1.19,1.02-2.37,1.54-3.56C5.46,.24,5.63,.03,5.96,0c.34,0,.68,0,1.02,0,.08,0,.15,0,.23,0,.61,.06,1.2,.19,1.77,.42,.32,.13,.53,.36,.65,.68,.06,.16,.09,.32,.13,.48,.03,.1,.06,.19,.09,.29,.11-.26,.18-.51,.25-.76,.08-.29,.25-.51,.53-.63,.98-.42,2-.56,3.05-.39,.25,.04,.44,.16,.58,.37,.09,.14,.16,.29,.23,.44,.14,.32,.27,.65,.41,.97,1.17,2.68,2.34,5.36,3.51,8.05,.17,.39,.34,.79,.52,1.2-.1,.13-.18,.27-.3,.37-.23,.18-.47,.35-.73,.49-.67,.35-1.4,.56-2.12,.77-.32,.09-.63,.18-.94,.27,0,.06-.01,.09-.01,.12,.02,.46,.14,.55,.59,.48,.12-.02,.25-.04,.38-.02,.19,.02,.23,.1,.24,.33-.07,.04-.14,.08-.25,.15,.28,.1,.52,.19,.76,.26,.43,.13,.85,.13,1.26-.06,.28-.13,.59-.14,.9-.12,.47,.05,.85,.34,.96,.75,.03,.11,.02,.62,.08,.72-.21,.14-.59,.25-1,.3-.76,.08-1.19,.03-1.78,.01Zm-2.54-3.17c-.95-4.12-1.9-8.18-2.84-12.25-.09,0-.15,0-.21,.02-.06,.01-.11,.03-.17,.05,.76,4.12,1.51,8.22,2.27,12.35,.32-.06,.6-.11,.95-.17ZM8.56,.62c-.15-.05-.26-.09-.4-.13-.9,4.1-2.01,8.14-2.77,12.27,.3,.05,.56,.15,.85,.1,.77-4.09,1.55-8.16,2.32-12.25ZM2.89,12.15C4.28,8.19,5.66,4.26,7.04,.32c-.09-.02-.15-.03-.2-.03-.06,0-.11,0-.17,0-1.52,3.85-3.08,7.67-4.47,11.57,.06,.03,.1,.05,.14,.07,.17,.07,.35,.14,.56,.22ZM12.68,.37c1.38,3.92,2.7,7.84,4.14,11.75,.26-.11,.49-.21,.74-.32-1.51-3.84-3.01-7.64-4.51-11.43h-.37Zm-.76,.08c1.11,4.05,2.21,8.08,3.32,12.15,.26-.07,.5-.14,.75-.21-1.24-4.02-2.47-8-3.71-11.99-.14,.02-.24,.03-.37,.05Zm-4.48-.09c-.67,1.81-3.64,11.63-3.65,12.07,.22,.05,.44,.11,.67,.17C5.57,8.52,6.67,4.48,7.77,.42c-.13-.02-.23-.04-.34-.06Zm5.85,14.54c.43,.16,1.05,.14,1.31-.04,.02,.01,.06,.02,.08,.03,.71,.52,1.51,.77,2.4,.74,.55-.02,1.1-.02,1.65-.06,.24-.02,.47-.11,.7-.17,0-.09,0-.14,0-.18,0-.45-.26-.85-.85-.83-.36,.01-.7,.07-1.04,.16-.22,.06-.43,.1-.66,.03-.32-.09-.64-.15-.95-.22-.12,.13-.22,.24-.34,.37-.12-.22,.14-.26,.12-.44-.07-.03-.15-.07-.24-.12-.1,.06-.19,.12-.27,.17-.02,.08-.04,.15-.06,.23-.2-.08-.14-.23-.15-.36,.07-.07,.13-.14,.19-.21-.1-.2-.25-.13-.36-.07-.28,.14-.57,.11-.87,.1-.17-.01-.34-.05-.52-.07-.15,.31-.17,.61-.14,.93ZM.26,15.39c.42,.16,.85,.24,1.28,.25,.61,.02,1.21-.02,1.82-.1,.55-.07,1.04-.25,1.49-.57,.09-.06,.18-.1,.28-.16,.07,.07,.14,.13,.21,.2,.35-.03,.69-.06,1.04-.09,.03-.35-.04-.64-.18-.94-.12,0-.24,0-.35,.02-.34,.08-.68,.09-1-.08-.14-.08-.25-.05-.36,.09,.13,.09,.25,.17,.36,.25q0,.25-.17,.3c0-.09-.02-.19-.03-.3-.21-.07-.41-.04-.6-.01-.03,.19,.28,.29,.07,.52-.09-.15-.17-.29-.25-.43-.07,.02-.13,.04-.2,.06-.62,.22-1.24,.27-1.87,.07-.18-.06-.36-.09-.55-.1-.25-.01-.51,.02-.72,.19-.27,.21-.32,.5-.27,.83Zm7.3-2.33c.14-.98,.28-1.91,.41-2.84,.15-1.01,.29-2.02,.44-3.03,.15-.99,.3-1.98,.45-2.97,.13-.87,.27-1.74,.4-2.62,.02-.13,.03-.28,.01-.41-.02-.16-.09-.29-.27-.34-.71,4.05-1.4,8.08-2,12.17,.21,.01,.37,.02,.56,.03Zm5.15,0c-.67-4.11-1.32-8.16-1.99-12.25-.09,.05-.14,.08-.18,.11-.05,.03-.09,.08-.13,.12,.58,4.02,1.16,8.04,1.75,12.08,.2-.02,.36-.04,.56-.06ZM1.54,11.47C3.06,7.76,4.58,4.05,6.11,.31c-.14,.03-.24,.05-.38,.08C4.2,3.98,2.66,7.58,1.13,11.18c.09,.16,.2,.27,.42,.29ZM13.6,.43c1.52,3.7,3.02,7.37,4.62,11.04,.13-.11,.23-.2,.33-.29-.24-.59-.46-1.15-.7-1.71-.86-1.98-1.72-3.97-2.59-5.95-.4-.92-.8-1.83-1.2-2.74-.08-.19-.18-.34-.46-.35Zm-5.23,12.64c.08-.56,.15-1.08,.22-1.61,.15-1.12,.3-2.24,.44-3.36,.11-.86,.23-1.71,.33-2.57,.1-.76,.2-1.52,.27-2.28,.04-.37,0-.74-.11-1.16-.49,3.7-1.1,7.32-1.53,10.98h.37Zm1.84-11.02c-.14,.28-.19,.59-.15,.9,.14,1.16,.29,2.32,.44,3.47,.24,1.87,.48,3.74,.72,5.6,.05,.36,.11,.71,.16,1.07h.36c-.51-3.7-1.02-7.37-1.53-11.05Zm3.23,11.72c.45,.12,.86,.26,1.29,0-.05-.24-.1-.48-.14-.71-.42,.08-.8,.14-1.2,.21,.02,.18,.04,.33,.05,.51Zm-8.35-.73c-.05,.26-.1,.48-.15,.72,.45,.28,.85,.09,1.24-.02,.02-.18,.04-.34,.06-.52-.38-.06-.76-.12-1.16-.18Zm10.49,.82c-.06-.12-.1-.08-.13,.01,.04,0,.07,0,.13-.01Zm-11.3-.03s0-.03,0-.04h-.23s0,.04,0,.07c.08,0,.15-.02,.23-.03Z" fill="#141313"/>
          <path d="M14.39,12.79c-.35,.06-.63,.12-.95,.17-.76-4.13-1.51-8.23-2.27-12.35,.07-.02,.12-.04,.17-.05,.06-.01,.11-.01,.21-.02,.94,4.07,1.89,8.13,2.84,12.25Z" fill="#f1f0f0"/>
          <path d="M8.56,.62c-.77,4.09-1.55,8.16-2.32,12.25-.29,.05-.56-.05-.85-.1,.76-4.14,1.87-8.17,2.77-12.27,.14,.04,.25,.08,.4,.13Z" fill="#f1f0f0"/>
          <path d="M2.89,12.15c-.21-.08-.39-.15-.56-.22-.04-.02-.09-.04-.14-.07C3.58,7.96,5.13,4.14,6.66,.29c.06,0,.12,0,.17,0,.06,0,.12,.02,.2,.03-1.38,3.94-2.76,7.86-4.14,11.82Z" fill="#f1f0f0"/>
          <path d="M12.68,.37h.37c1.5,3.79,3,7.6,4.51,11.43-.25,.11-.48,.2-.74,.32-1.44-3.91-2.77-7.83-4.14-11.75Z" fill="#f1f0f0"/>
          <path d="M11.92,.45c.13-.02,.23-.03,.37-.05,1.23,3.99,2.46,7.97,3.71,11.99-.25,.07-.5,.14-.75,.21-1.11-4.07-2.21-8.1-3.32-12.15Z" fill="#f1f0f0"/>
          <path d="M7.44,.36c.11,.02,.2,.03,.34,.06-1.11,4.06-2.21,8.11-3.31,12.18-.22-.06-.45-.11-.67-.17,0-.44,2.98-10.26,3.65-12.07Z" fill="#f1f0f0"/>
          <path d="M13.29,14.9c-.02-.32,0-.62,.14-.93,.18,.03,.35,.06,.52,.07,.29,.02,.59,.05,.87-.1,.12-.06,.26-.12,.36,.07-.06,.06-.12,.13-.19,.21,0,.12-.06,.27,.15,.36,.02-.08,.04-.15,.06-.23,.08-.05,.17-.11,.27-.17,.08,.04,.17,.08,.24,.12,.02,.18-.25,.22-.12,.44,.12-.13,.22-.24,.34-.37,.31,.07,.64,.13,.95,.22,.23,.07,.44,.02,.66-.03,.34-.09,.68-.15,1.04-.16,.59-.02,.85,.39,.85,.83,0,.05,0,.1,0,.18-.24,.06-.47,.15-.7,.17-.55,.04-1.1,.05-1.65,.06-.88,.02-1.68-.22-2.4-.74-.02-.02-.05-.02-.08-.03-.26,.17-.88,.19-1.31,.04Z" fill="#e03035"/>
          <path d="M.26,15.39c-.05-.33,0-.62,.27-.83,.21-.17,.47-.2,.72-.19,.18,0,.37,.05,.55,.1,.63,.2,1.25,.15,1.87-.07,.06-.02,.13-.04,.2-.06,.08,.14,.16,.27,.25,.43,.21-.23-.09-.34-.07-.52,.19-.03,.39-.05,.6,.01,0,.11,.02,.2,.03,.3q.16-.05,.17-.3c-.11-.08-.23-.16-.36-.25,.11-.14,.22-.16,.36-.09,.32,.17,.65,.16,1,.08,.11-.03,.23-.01,.35-.02,.14,.3,.21,.59,.18,.94-.34,.03-.69,.06-1.04,.09-.07-.07-.13-.13-.21-.2-.09,.05-.19,.1-.28,.16-.45,.31-.94,.49-1.49,.57-.61,.08-1.21,.12-1.82,.1-.44-.02-.87-.1-1.28-.25Z" fill="#e03035"/>
          <path d="M7.56,13.06c-.19,0-.35-.02-.56-.03,.6-4.09,1.29-8.12,2-12.17,.18,.05,.26,.18,.27,.34,.01,.14,0,.28-.01,.41-.13,.87-.27,1.74-.4,2.62-.15,.99-.3,1.98-.45,2.97-.15,1.01-.29,2.02-.44,3.03-.14,.93-.27,1.86-.41,2.84Z" fill="#f1f0f0"/>
          <path d="M12.71,13.06c-.2,.02-.36,.04-.56,.06-.58-4.04-1.17-8.06-1.75-12.08,.05-.04,.09-.09,.13-.12,.04-.03,.09-.06,.18-.11,.66,4.09,1.32,8.14,1.99,12.25Z" fill="#f1f0f0"/>
          <path d="M1.54,11.47c-.21-.01-.33-.12-.42-.29C2.66,7.58,4.2,3.98,5.73,.39c.13-.03,.23-.05,.38-.08-1.53,3.75-3.05,7.45-4.57,11.16Z" fill="#f1f0f0"/>
          <path d="M13.6,.43c.28,0,.38,.16,.46,.35,.4,.92,.8,1.83,1.2,2.74,.86,1.98,1.73,3.97,2.59,5.95,.24,.56,.46,1.12,.7,1.71-.1,.09-.2,.17-.33,.29-1.6-3.67-3.1-7.33-4.62-11.04Z" fill="#f1f0f0"/>
          <path d="M8.37,13.07h-.37c.43-3.66,1.04-7.28,1.53-10.98,.12,.42,.15,.8,.11,1.16-.07,.76-.18,1.52-.27,2.28-.11,.86-.22,1.71-.33,2.57-.15,1.12-.3,2.24-.44,3.36-.07,.52-.14,1.05-.22,1.61Z" fill="#f1f0f0"/>
          <path d="M10.21,2.06c.51,3.68,1.02,7.36,1.53,11.05h-.36c-.05-.36-.12-.71-.16-1.07-.24-1.87-.48-3.74-.72-5.6-.15-1.16-.3-2.31-.44-3.47-.04-.31,0-.62,.15-.9Z" fill="#f1f0f0"/>
          <path d="M13.44,13.77c-.02-.18-.04-.33-.05-.51,.4-.07,.78-.14,1.2-.21,.05,.24,.09,.47,.14,.71-.43,.27-.84,.13-1.29,0Z" fill="#f1f0f0"/>
          <path d="M5.09,13.04c.4,.06,.78,.12,1.16,.18-.02,.19-.04,.34-.06,.52-.4,.11-.8,.3-1.24,.02,.05-.23,.09-.46,.15-.72Z" fill="#f1f0f0"/>
        </g>
      </g>
    </g>
  </g>
</svg>