<?xml version="1.0" encoding="UTF-8"?>
<svg id="_Слой_2" data-name="Слой 2" xmlns="http://www.w3.org/2000/svg" viewBox="0 0 373.29 303.08">
  <defs>
    <style>
      .cls-1 {
        fill: #f2f1f0;
      }

      .cls-1, .cls-2, .cls-3 {
        stroke: #221f20;
        stroke-miterlimit: 10;
        stroke-width: .47px;
      }

      .cls-2 {
        fill: #221f20;
      }

      .cls-3 {
        fill: #e7363d;
      }
    </style>
  </defs>
  <g id="_Слой_1-2" data-name="Слой 1">
    <g id="Logo_Vertical_2" data-name="Logo Vertical 2">
      <g>
        <path class="cls-1" d="M320.41,302.03c-12.6-1.02-24.92-3.15-36.24-9.09-1.2,1.61-2.28,3.05-3.35,4.48-12.1,.4-23.84-.6-36.23-2.55,.23-3.54,.14-6.67,.69-9.68,1.34-7.29,3.11-14.49,4.46-21.78,.73-3.93,1.06-7.97-.73-11.99-4.8,.65-9.18,1.48-13.6,1.77-6.63,.44-13.31,.85-19.94,.6-4.59-.18-5.65-1.71-6.26-6.28-4.12-30.71-8.25-61.41-12.29-92.13-3.19-24.26-6.27-48.54-9.52-73.78-.63,2.53-1.19,4.11-1.41,5.73-2.36,17.28-4.69,34.56-6.99,51.84-2.79,20.96-5.57,41.93-8.3,62.9-1.82,13.97-3.54,27.95-5.32,41.92-.43,3.33-.98,6.63-4.49,9.53-12.08-.78-24.78-1.6-37.93-2.45-.35,2.36-1.08,4.38-.85,6.27,.73,6.04,1.71,12.06,2.8,18.04,1.09,5.95,1.76,11.59,2.71,19.18-2.07,.56-4.29,.36-6.26,.57-7.37,.79-14.78,1.17-22.12,2.13-1.33,.11-5.43-3.19-9.9-5.21-2.56,1.2-4.89,2.35-7.26,3.39-10,4.39-20.65,5.72-31.4,6.58-10.05,.51-21.77,1.75-33.03-.45-6.86-.95-10.82-3.09-17.4-5.46,0-1.86-.04-11.52,.86-14,3.62-9.96,9.15-13.93,19.62-13.81,2.95,.03,5.92,.39,8.84,.82,2.74,.41,5.56,.79,8.14,1.74,13.38,4.91,25.45,1.25,37.45-5.39-1.07-.42-1.92-.67-2.67-1.08-.93-.51-1.79-1.15-2.64-1.71,2.1-5,3.35-5.98,7.75-5.67,1.81,.13,3.62,.71,5.38,1.23,4.18,1.25,6.36,.49,7.87-3.55,.95-2.53,1.18-5.34,1.8-8.31-8.25-2.04-16.16-3.9-24.01-5.97-14.18-3.74-28.08-8.25-40.74-15.85-5.07-3.04-9.94-6.45-13.15-11.7,.51-1.33,.94-2.55,1.44-3.74,18.64-43.96,37.25-87.94,55.96-131.87,9.58-22.48,19.35-44.87,29.03-67.31,2.26-5.24,5.55-9.21,11.73-9.69,6.46-.01,12.92-.02,19.38-.03,1.43,.02,2.85,.05,4.28,.07,11.48,1.2,22.66,3.5,33.39,7.96,6.11,2.54,10.11,6.76,12.27,12.81,1.06,2.96,1.69,6.06,2.54,9.09,.51,1.82,1.09,3.61,1.63,5.42,2.15-4.84,3.36-9.6,4.68-14.32,1.53-5.47,4.72-9.58,10.04-11.88,18.53-8.02,37.74-10.52,57.69-7.31,4.69,.75,8.37,3.09,10.88,7.02,1.68,2.63,3.02,5.51,4.28,8.38,2.67,6.1,5.12,12.3,7.78,18.41,22.12,50.73,44.26,101.45,66.4,152.18,3.25,7.44,6.48,14.9,9.84,22.63-1.94,2.44-3.43,5.18-5.67,6.94-4.36,3.41-8.92,6.71-13.8,9.28-12.67,6.7-26.42,10.6-40.11,14.58-6,1.74-11.99,3.48-17.83,5.17-.13,1.09-.26,1.64-.24,2.19,.37,8.7,2.62,10.48,11.06,9.06,2.35-.4,4.82-.69,7.16-.39,3.63,.46,4.43,1.84,4.46,6.25-1.29,.77-2.62,1.57-4.73,2.84,5.33,1.88,9.78,3.64,14.34,5.01,8.05,2.41,16.04,2.43,23.91-1.08,5.38-2.4,11.15-2.74,16.93-2.18,8.96,.87,16.05,6.46,18.08,14.22,.56,2.13,.36,11.74,1.43,13.55-4.06,2.71-11.24,4.82-18.84,5.69-14.42,1.55-22.58,.65-33.72,.22Zm-48.1-59.86c-18.05-77.84-35.87-154.67-53.72-231.68-1.74,.14-2.84,.13-3.9,.34-1.05,.21-2.06,.63-3.3,1.03,14.32,77.87,28.6,155.45,42.97,233.59,5.98-1.09,11.39-2.08,17.95-3.28ZM162.14,11.93c-2.79-.9-5-1.62-7.56-2.45-17.08,77.58-38.06,153.92-52.46,232.16,5.63,1,10.66,2.79,16.15,1.93,14.64-77.31,29.23-154.32,43.88-231.64ZM54.95,229.96C81.19,155.07,107.22,80.8,133.31,6.32c-1.68-.28-2.77-.54-3.86-.63-1.05-.09-2.1-.02-3.31-.02-28.83,72.78-58.19,145.09-84.49,218.81,1.08,.54,1.86,1,2.7,1.33,3.26,1.3,6.53,2.56,10.59,4.15ZM240.07,7.31c26.02,74.19,51.12,148.29,78.34,222.24,4.99-2.13,9.33-3.99,14.03-5.99-28.62-72.56-56.99-144.5-85.28-216.24h-7.08Zm-14.38,1.52c20.93,76.62,41.76,152.86,62.78,229.81,4.85-1.36,9.51-2.67,14.26-4.01-23.5-76.03-46.77-151.33-70.09-226.79-2.57,.37-4.52,.64-6.96,.99Zm-84.81-1.76c-12.6,34.27-68.79,219.98-68.95,228.24,4.14,1.03,8.38,2.1,12.63,3.16,20.95-77,41.76-153.49,62.67-230.34-2.51-.42-4.3-.72-6.36-1.06Zm110.71,275.07c8.05,2.95,19.87,2.58,24.71-.69,.47,.2,1.04,.32,1.48,.63,13.52,9.81,28.63,14.49,45.31,14.02,10.38-.29,20.77-.43,31.12-1.19,4.47-.33,8.84-2.05,13.31-3.15,0-1.66,0-2.58,0-3.49-.05-8.44-4.99-16.07-16.08-15.73-6.74,.21-13.22,1.39-19.67,3.04-4.14,1.06-8.15,1.88-12.51,.65-6-1.7-12.16-2.87-18.05-4.22-2.19,2.42-4.11,4.53-6.35,7-2.33-4.25,2.61-5.01,2.3-8.34-1.29-.63-2.86-1.41-4.46-2.2-1.87,1.2-3.57,2.28-5.08,3.25-.38,1.61-.69,2.92-1.04,4.4-3.84-1.57-2.58-4.44-2.76-6.77,1.29-1.4,2.47-2.68,3.57-3.88-1.96-3.71-4.69-2.51-6.87-1.38-5.28,2.73-10.84,2.13-16.36,1.81-3.27-.19-6.51-.87-9.85-1.35-2.81,5.81-3.12,11.46-2.7,17.58ZM5.1,291.27c7.85,2.98,16,4.49,24.3,4.8,11.49,.42,22.9-.35,34.36-1.83,10.43-1.35,19.68-4.8,28.21-10.69,1.64-1.13,3.48-1.98,5.23-2.96,1.41,1.35,2.57,2.46,3.93,3.76,6.58-.59,13.14-1.17,19.63-1.75,.57-6.61-.71-12.09-3.43-17.72-2.2,.1-4.47-.11-6.57,.37-6.5,1.48-12.83,1.67-18.89-1.6-2.66-1.43-4.82-.99-6.86,1.61,2.5,1.74,4.73,3.29,6.8,4.73q-.06,4.75-3.14,5.71c-.16-1.78-.33-3.56-.51-5.61-3.96-1.26-7.66-.84-11.32-.25-.49,3.51,5.29,5.52,1.24,9.86-1.71-2.93-3.17-5.44-4.74-8.12-1.31,.38-2.54,.69-3.74,1.11-11.67,4.08-23.41,5.04-35.4,1.25-3.32-1.05-6.85-1.77-10.32-1.94-4.82-.24-9.64,.36-13.64,3.58-5.04,4.05-6.05,9.44-5.13,15.7Zm138.13-44.08c2.68-18.48,5.24-36.09,7.8-53.71,2.78-19.09,5.52-38.18,8.35-57.26,2.77-18.71,5.61-37.4,8.46-56.1,2.51-16.49,5.1-32.97,7.56-49.46,.38-2.55,.48-5.2,.23-7.77-.29-3.06-1.73-5.53-5.17-6.39-13.34,76.52-26.51,152.82-37.83,230.13,3.91,.2,6.97,.36,10.6,.55Zm97.37-.04c-12.6-77.65-25.04-154.29-37.6-231.67-1.7,1.01-2.65,1.47-3.48,2.1-.86,.65-1.61,1.46-2.52,2.29,11,76.07,21.99,152.01,33.05,228.46,3.81-.43,6.84-.77,10.54-1.18ZM29.4,217.09C58.08,147.01,86.77,76.89,115.77,6.02c-2.72,.58-4.63,.99-7.12,1.52C79.6,75.59,50.54,143.66,21.52,211.64c1.68,3.11,3.83,5.19,7.89,5.45ZM257.52,8.29c28.74,70.03,57.08,139.31,87.32,208.73,2.51-2.17,4.37-3.78,6.3-5.44-4.57-11.11-8.76-21.78-13.31-32.29-16.25-37.54-32.6-75.03-48.94-112.53-7.54-17.31-15.14-34.59-22.66-51.9-1.54-3.54-3.41-6.49-8.71-6.56Zm-98.97,239.15c1.46-10.56,2.86-20.48,4.19-30.41,2.83-21.16,5.63-42.32,8.41-63.48,2.13-16.19,4.27-32.39,6.32-48.59,1.82-14.36,3.78-28.7,5.16-43.1,.67-6.95,.15-14.01-2.15-22.02-9.27,69.97-20.9,138.36-28.95,207.6h7.01ZM193.29,39.1c-2.69,5.34-3.57,11.17-2.85,17.1,2.68,21.91,5.5,43.8,8.31,65.69,4.53,35.33,9.07,70.66,13.67,105.98,.88,6.76,2.03,13.49,3.06,20.26h6.83c-9.7-69.9-19.36-139.46-29.01-209.02Zm61.14,221.63c8.48,2.3,16.21,5,24.37-.1-.92-4.59-1.81-9-2.71-13.52-7.96,1.42-15.15,2.7-22.68,4.05,.36,3.38,.67,6.26,1.03,9.58Zm-157.83-13.8c-1.01,4.89-1.89,9.16-2.8,13.54,8.46,5.34,16,1.7,23.53-.29,.43-3.46,.79-6.36,1.22-9.87-7.27-1.12-14.32-2.21-21.95-3.38Zm198.36,15.42c-1.17-2.32-1.85-1.51-2.51,.26,.7-.07,1.41-.15,2.51-.26Zm-213.67-.65c-.03-.25-.05-.51-.08-.76h-4.37c.03,.42,.06,.84,.09,1.27,1.45-.17,2.91-.34,4.36-.51Z"/>
        <path class="cls-2" d="M272.31,242.17c-6.57,1.2-11.97,2.19-17.95,3.28-14.37-78.14-28.64-155.72-42.97-233.59,1.25-.4,2.25-.82,3.3-1.03,1.06-.21,2.16-.2,3.9-.34,17.86,77.01,35.67,153.84,53.72,231.68Z"/>
        <path class="cls-2" d="M162.14,11.93c-14.65,77.32-29.23,154.33-43.88,231.64-5.5,.85-10.52-.93-16.15-1.93,14.4-78.23,35.38-154.58,52.46-232.16,2.56,.83,4.77,1.55,7.56,2.45Z"/>
        <path class="cls-2" d="M54.95,229.96c-4.06-1.59-7.34-2.85-10.59-4.15-.84-.33-1.62-.8-2.7-1.33C67.95,150.76,97.32,78.45,126.14,5.67c1.2,0,2.26-.07,3.31,.02,1.1,.1,2.18,.35,3.86,.63-26.1,74.47-52.12,148.75-78.36,223.64Z"/>
        <path class="cls-2" d="M240.07,7.31h7.08c28.29,71.74,56.66,143.68,85.28,216.24-4.69,2.01-9.04,3.86-14.03,5.99-27.21-73.95-52.32-148.05-78.34-222.24Z"/>
        <path class="cls-2" d="M225.69,8.82c2.44-.35,4.39-.62,6.96-.99,23.32,75.46,46.59,150.76,70.09,226.79-4.76,1.34-9.42,2.65-14.26,4.01-21.02-76.95-41.85-153.19-62.78-229.81Z"/>
        <path class="cls-2" d="M140.89,7.06c2.06,.34,3.85,.64,6.36,1.06-20.91,76.85-41.72,153.33-62.67,230.34-4.25-1.06-8.49-2.12-12.63-3.16,.16-8.26,56.35-193.97,68.95-228.24Z"/>
        <path class="cls-3" d="M251.6,282.13c-.42-6.13-.1-11.77,2.7-17.58,3.34,.47,6.58,1.15,9.85,1.35,5.53,.33,11.08,.93,16.36-1.81,2.19-1.13,4.91-2.33,6.87,1.38-1.1,1.19-2.28,2.48-3.57,3.88,.18,2.33-1.08,5.2,2.76,6.77,.35-1.48,.66-2.79,1.04-4.4,1.51-.97,3.21-2.05,5.08-3.25,1.6,.79,3.18,1.57,4.46,2.2,.31,3.34-4.64,4.09-2.3,8.34,2.24-2.47,4.16-4.59,6.35-7,5.89,1.35,12.04,2.52,18.05,4.22,4.36,1.24,8.36,.41,12.51-.65,6.45-1.65,12.93-2.83,19.67-3.04,11.09-.34,16.03,7.29,16.08,15.73,0,.91,0,1.82,0,3.49-4.46,1.1-8.83,2.82-13.31,3.15-10.35,.76-20.74,.9-31.12,1.19-16.68,.47-31.79-4.21-45.31-14.02-.43-.31-1.01-.43-1.48-.63-4.84,3.27-16.66,3.64-24.71,.69Z"/>
        <path class="cls-3" d="M5.1,291.27c-.91-6.26,.1-11.65,5.13-15.7,4-3.21,8.82-3.81,13.64-3.58,3.47,.17,7,.89,10.32,1.94,11.99,3.79,23.73,2.83,35.4-1.25,1.2-.42,2.43-.72,3.74-1.11,1.57,2.68,3.03,5.19,4.74,8.12,4.05-4.33-1.73-6.35-1.24-9.86,3.65-.59,7.36-1.01,11.32,.25,.19,2.05,.35,3.82,.51,5.61q3.08-.96,3.14-5.71c-2.06-1.44-4.3-2.99-6.8-4.73,2.04-2.6,4.2-3.04,6.86-1.61,6.06,3.27,12.38,3.08,18.89,1.6,2.11-.48,4.37-.27,6.57-.37,2.72,5.63,4,11.11,3.43,17.72-6.49,.58-13.05,1.17-19.63,1.75-1.35-1.29-2.51-2.4-3.93-3.76-1.75,.98-3.59,1.83-5.23,2.96-8.53,5.9-17.77,9.34-28.21,10.69-11.45,1.48-22.87,2.25-34.36,1.83-8.3-.31-16.45-1.82-24.3-4.8Z"/>
        <path class="cls-2" d="M143.23,247.19c-3.63-.19-6.69-.35-10.6-.55,11.32-77.32,24.49-153.61,37.83-230.13,3.44,.86,4.88,3.32,5.17,6.39,.24,2.56,.15,5.22-.23,7.77-2.45,16.5-5.05,32.97-7.56,49.46-2.84,18.7-5.69,37.39-8.46,56.1-2.83,19.08-5.58,38.17-8.35,57.26-2.56,17.61-5.12,35.23-7.8,53.71Z"/>
        <path class="cls-2" d="M240.61,247.15c-3.7,.41-6.73,.75-10.54,1.18-11.06-76.45-22.05-152.39-33.05-228.46,.91-.84,1.65-1.64,2.52-2.29,.83-.62,1.78-1.09,3.48-2.1,12.56,77.38,25,154.02,37.6,231.67Z"/>
        <path class="cls-2" d="M29.4,217.09c-4.06-.26-6.21-2.34-7.89-5.45C50.54,143.66,79.6,75.59,108.65,7.54c2.49-.53,4.4-.94,7.12-1.52C86.77,76.89,58.08,147.01,29.4,217.09Z"/>
        <path class="cls-2" d="M257.52,8.29c5.3,.07,7.17,3.02,8.71,6.56,7.52,17.32,15.12,34.6,22.66,51.9,16.33,37.5,32.69,74.99,48.94,112.53,4.55,10.51,8.74,21.18,13.31,32.29-1.93,1.66-3.79,3.27-6.3,5.44-30.24-69.42-58.58-138.7-87.32-208.73Z"/>
        <path class="cls-2" d="M158.55,247.44h-7.01c8.06-69.24,19.68-137.63,28.95-207.6,2.3,8,2.81,15.07,2.15,22.02-1.38,14.4-3.35,28.74-5.16,43.1-2.05,16.2-4.19,32.4-6.32,48.59-2.79,21.16-5.59,42.33-8.41,63.48-1.33,9.93-2.73,19.85-4.19,30.41Z"/>
        <path class="cls-2" d="M193.29,39.1c9.65,69.56,19.31,139.12,29.01,209.02h-6.83c-1.03-6.77-2.18-13.5-3.06-20.26-4.59-35.32-9.13-70.65-13.67-105.98-2.81-21.89-5.63-43.78-8.31-65.69-.72-5.93,.16-11.76,2.85-17.1Z"/>
      </g>
    </g>
  </g>
</svg>