<?xml version="1.0" encoding="UTF-8"?>
<svg id="_Слой_2" data-name="Слой 2" xmlns="http://www.w3.org/2000/svg" viewBox="0 0 469.9 401.88">
  <defs>
    <style>
      .cls-1, .cls-2 {
        fill: #141313;
      }

      .cls-3 {
        stroke-dasharray: 0 0 11.72 11.72;
      }

      .cls-3, .cls-4, .cls-5, .cls-6, .cls-7 {
        fill: none;
        stroke: #221e1f;
        stroke-miterlimit: 10;
      }

      .cls-2, .cls-8 {
        opacity: .2;
      }

      .cls-9, .cls-8 {
        fill: #e03035;
      }

      .cls-4 {
        stroke-dasharray: 0 0 11.78 11.78;
      }

      .cls-5 {
        stroke-dasharray: 0 0 11.6 11.6;
      }

      .cls-10 {
        fill: #f1f0f0;
      }

      .cls-6 {
        stroke-dasharray: 0 0 12.4 12.4;
      }

      .cls-11 {
        opacity: .6;
      }
    </style>
  </defs>
  <g id="_Слой_1_копия_" data-name="Слой 1 (копия)">
    <g id="Logo_Vertical_2_копия_" data-name="Logo Vertical 2 (копия)">
      <path class="cls-1" d="M367.54,352.1c-12.54-1.02-24.82-3.14-36.09-9.06-1.2,1.6-2.27,3.04-3.34,4.46-12.05,.4-23.74-.6-36.08-2.54,.23-3.52,.14-6.64,.69-9.64,1.34-7.26,3.1-14.43,4.44-21.69,.73-3.92,1.05-7.94-.73-11.94-4.78,.64-9.15,1.47-13.55,1.76-6.61,.44-13.25,.85-19.86,.6-4.57-.18-5.63-1.7-6.24-6.25-4.1-30.58-8.21-61.16-12.24-91.75-3.18-24.16-6.24-48.34-9.48-73.48-.63,2.52-1.18,4.09-1.41,5.71-2.35,17.2-4.67,34.41-6.96,51.63-2.78,20.88-5.54,41.76-8.26,62.64-1.81,13.91-3.52,27.83-5.3,41.75-.42,3.32-.98,6.6-4.47,9.5-12.03-.78-24.68-1.59-37.78-2.44-.35,2.35-1.08,4.36-.85,6.25,.73,6.01,1.7,12.01,2.79,17.97,1.08,5.93,1.75,11.55,2.7,19.1-2.06,.55-4.27,.35-6.24,.56-7.34,.78-14.72,1.16-22.03,2.12-1.32,.11-5.41-3.17-9.86-5.19-2.55,1.2-4.87,2.34-7.23,3.38-9.96,4.37-20.57,5.7-31.27,6.55-10.01,.5-21.69,1.74-32.9-.45-6.84-.95-10.77-3.08-17.33-5.44,0-1.85-.04-11.47,.85-13.94,3.61-9.92,9.11-13.87,19.54-13.76,2.94,.03,5.89,.39,8.8,.82,2.73,.4,5.54,.79,8.11,1.73,13.33,4.89,25.35,1.24,37.3-5.37-1.07-.42-1.91-.67-2.66-1.08-.93-.51-1.79-1.15-2.63-1.7,2.09-4.98,3.33-5.96,7.72-5.64,1.81,.13,3.6,.7,5.36,1.23,4.16,1.25,6.34,.48,7.84-3.54,.95-2.52,1.18-5.31,1.79-8.28-8.22-2.04-16.09-3.89-23.91-5.95-14.12-3.72-27.97-8.22-40.58-15.78-5.05-3.03-9.9-6.42-13.1-11.66,.51-1.32,.94-2.54,1.44-3.72,18.57-43.78,37.09-87.58,55.73-131.33,9.54-22.39,19.28-44.69,28.91-67.03,2.25-5.22,5.53-9.17,11.69-9.65,6.43-.01,12.87-.02,19.3-.03,1.42,.02,2.84,.05,4.26,.07,11.43,1.2,22.56,3.49,33.26,7.93,6.09,2.53,10.07,6.73,12.22,12.76,1.05,2.94,1.68,6.04,2.53,9.06,.51,1.81,1.08,3.6,1.63,5.4,2.14-4.82,3.34-9.56,4.67-14.27,1.53-5.44,4.7-9.54,10-11.83,18.45-7.98,37.59-10.48,57.46-7.28,4.67,.75,8.34,3.08,10.83,6.99,1.67,2.62,3.01,5.48,4.26,8.34,2.66,6.08,5.1,12.25,7.75,18.34,22.03,50.53,44.08,101.04,66.12,151.56,3.24,7.41,6.45,14.84,9.8,22.54-1.93,2.43-3.41,5.16-5.65,6.91-4.34,3.4-8.88,6.68-13.74,9.25-12.62,6.67-26.31,10.55-39.95,14.52-5.97,1.74-11.95,3.47-17.76,5.15-.13,1.09-.26,1.64-.24,2.18,.37,8.67,2.61,10.44,11.02,9.02,2.34-.4,4.8-.68,7.13-.39,3.61,.45,4.41,1.84,4.44,6.23-1.28,.77-2.61,1.56-4.71,2.82,5.31,1.87,9.74,3.63,14.28,4.99,8.02,2.4,15.97,2.42,23.81-1.08,5.36-2.39,11.11-2.72,16.86-2.17,8.92,.86,15.98,6.43,18,14.16,.55,2.12,.35,11.69,1.42,13.49-4.04,2.69-11.2,4.8-18.76,5.67-14.36,1.54-22.49,.65-33.59,.22Zm-47.91-59.62c-17.98-77.52-35.72-154.04-53.5-230.74-1.73,.14-2.83,.13-3.88,.34-1.05,.21-2.05,.63-3.29,1.02,14.27,77.55,28.48,154.82,42.79,232.64,5.96-1.09,11.34-2.07,17.88-3.27ZM209.91,63.18c-2.78-.9-4.98-1.61-7.53-2.44-17.01,77.26-37.91,153.29-52.25,231.21,5.61,1,10.61,2.78,16.09,1.92,14.58-76.99,29.11-153.69,43.7-230.69Zm-106.75,217.14c26.13-74.58,52.05-148.55,78.04-222.72-1.68-.28-2.75-.53-3.85-.63-1.04-.09-2.1-.02-3.3-.02-28.71,72.48-57.95,144.5-84.14,217.92,1.07,.53,1.85,.99,2.69,1.33,3.24,1.3,6.5,2.55,10.55,4.13ZM287.53,58.58c25.91,73.88,50.91,147.68,78.02,221.33,4.97-2.12,9.3-3.97,13.97-5.97-28.5-72.26-56.75-143.91-84.93-215.36h-7.05Zm-14.32,1.51c20.85,76.31,41.59,152.23,62.53,228.87,4.83-1.36,9.47-2.66,14.21-3.99-23.4-75.72-46.58-150.71-69.8-225.87-2.56,.36-4.5,.64-6.93,.99Zm-84.46-1.75c-12.55,34.13-68.5,219.09-68.67,227.31,4.12,1.03,8.35,2.09,12.58,3.15,20.87-76.69,41.59-152.87,62.42-229.4-2.5-.42-4.28-.72-6.33-1.06Zm110.29,274.45c8.04,2.87,19.81,2.4,24.6-.9,.47,.19,1.04,.3,1.48,.61,13.55,9.65,28.64,14.18,45.25,13.57,10.33-.38,20.68-.61,30.98-1.46,4.45-.37,8.79-2.12,13.23-3.25-.01-1.66-.02-2.56-.03-3.47-.12-8.41-5.11-15.96-16.15-15.52-6.71,.27-13.15,1.5-19.56,3.2-4.12,1.09-8.1,1.94-12.45,.75-5.99-1.64-12.13-2.75-18.01-4.04-2.16,2.43-4.06,4.55-6.27,7.03-2.36-4.21,2.56-5.01,2.22-8.33-1.29-.62-2.87-1.38-4.47-2.15-1.85,1.21-3.53,2.3-5.03,3.28-.37,1.6-.66,2.91-1,4.39-3.84-1.53-2.6-4.39-2.8-6.72,1.27-1.4,2.44-2.7,3.52-3.89-1.99-3.67-4.69-2.46-6.86-1.31-5.24,2.77-10.78,2.22-16.28,1.94-3.26-.16-6.49-.81-9.82-1.26-2.74,5.81-3.01,11.44-2.54,17.54Zm-245.52,8.6c7.82,2.96,15.94,4.47,24.2,4.78,11.44,.42,22.81-.35,34.22-1.82,10.39-1.34,19.6-4.78,28.09-10.65,1.64-1.13,3.47-1.98,5.21-2.95,1.41,1.35,2.56,2.45,3.91,3.74,6.55-.59,13.08-1.17,19.55-1.75,.57-6.59-.71-12.04-3.41-17.65-2.19,.1-4.45-.11-6.54,.37-6.48,1.48-12.77,1.66-18.81-1.59-2.64-1.43-4.8-.99-6.83,1.6,2.49,1.73,4.71,3.28,6.77,4.71q-.06,4.73-3.13,5.69c-.16-1.78-.32-3.54-.51-5.58-3.94-1.26-7.63-.84-11.27-.25-.49,3.49,5.27,5.5,1.24,9.82-1.7-2.92-3.16-5.41-4.72-8.09-1.3,.38-2.53,.69-3.72,1.1-11.63,4.06-23.32,5.02-35.26,1.25-3.31-1.05-6.82-1.76-10.28-1.93-4.8-.23-9.6,.36-13.59,3.56-5.02,4.03-6.02,9.4-5.11,15.64Zm137.57-43.9c2.67-18.41,5.22-35.95,7.77-53.49,2.77-19.01,5.5-38.03,8.32-57.03,2.76-18.63,5.59-37.25,8.42-55.87,2.5-16.42,5.08-32.83,7.53-49.26,.38-2.54,.48-5.18,.23-7.73-.29-3.05-1.72-5.51-5.15-6.36-13.29,76.21-26.4,152.19-37.67,229.2,3.89,.2,6.94,.36,10.55,.55Zm96.98-.04c-12.55-77.33-24.94-153.66-37.44-230.72-1.69,1.01-2.64,1.47-3.46,2.09-.86,.65-1.6,1.45-2.51,2.29,10.96,75.76,21.9,151.39,32.91,227.53,3.79-.43,6.81-.76,10.5-1.18Zm-210.34-29.94c28.56-69.79,57.14-139.63,86.02-210.21-2.71,.58-4.61,.98-7.09,1.51-28.94,67.78-57.88,135.57-86.78,203.27,1.67,3.1,3.81,5.17,7.85,5.42ZM304.91,59.56c28.62,69.74,56.85,138.74,86.96,207.88,2.5-2.16,4.36-3.76,6.27-5.42-4.55-11.07-8.72-21.69-13.25-32.16-16.18-37.39-32.47-74.73-48.74-112.07-7.51-17.24-15.08-34.45-22.57-51.69-1.53-3.53-3.4-6.46-8.68-6.53Zm-98.57,238.17c1.45-10.52,2.85-20.4,4.17-30.29,2.82-21.07,5.6-42.15,8.38-63.22,2.12-16.13,4.25-32.26,6.3-48.39,1.81-14.3,3.76-28.58,5.14-42.92,.67-6.92,.15-13.96-2.14-21.93-9.23,69.68-20.81,137.8-28.84,206.75h6.99Zm34.6-207.49c-2.68,5.32-3.56,11.13-2.84,17.03,2.66,21.82,5.48,43.62,8.28,65.42,4.51,35.18,9.03,70.37,13.61,105.54,.88,6.73,2.02,13.43,3.05,20.17h6.8c-9.66-69.61-19.28-138.89-28.89-208.17Zm60.89,220.72c8.45,2.29,16.15,4.98,24.27-.1-.92-4.57-1.8-8.96-2.7-13.47-7.92,1.41-15.09,2.69-22.59,4.03,.36,3.36,.67,6.24,1.02,9.54Zm-157.19-13.74c-1.01,4.87-1.89,9.12-2.79,13.48,8.43,5.32,15.93,1.69,23.43-.29,.43-3.45,.78-6.34,1.22-9.83-7.24-1.12-14.26-2.2-21.86-3.37Zm197.55,15.35c-1.17-2.31-1.85-1.5-2.5,.26,.7-.07,1.4-.15,2.5-.26Zm-212.8-.65c-.03-.25-.05-.5-.08-.76h-4.36c.03,.42,.06,.84,.09,1.26,1.45-.17,2.89-.34,4.34-.5Z"/>
      <path class="cls-10" d="M319.63,292.48c-6.54,1.2-11.92,2.18-17.88,3.27-14.31-77.82-28.53-155.09-42.79-232.64,1.24-.4,2.24-.82,3.29-1.02,1.05-.21,2.15-.2,3.88-.34,17.78,76.69,35.53,153.21,53.5,230.74Z"/>
      <path class="cls-10" d="M209.91,63.18c-14.59,77-29.11,153.7-43.7,230.69-5.47,.85-10.48-.92-16.09-1.92,14.34-77.92,35.24-153.94,52.25-231.21,2.55,.83,4.75,1.54,7.53,2.44Z"/>
      <path class="cls-10" d="M103.16,280.32c-4.05-1.58-7.31-2.83-10.55-4.13-.83-.33-1.61-.79-2.69-1.33,26.19-73.42,55.43-145.43,84.14-217.92,1.2,0,2.25-.07,3.3,.02,1.09,.1,2.17,.35,3.85,.63-25.99,74.17-51.91,148.14-78.04,222.72Z"/>
      <path class="cls-10" d="M287.53,58.58h7.05c28.18,71.45,56.43,143.1,84.93,215.36-4.67,2-9,3.85-13.97,5.97-27.1-73.64-52.1-147.45-78.02-221.33Z"/>
      <path class="cls-10" d="M273.2,60.09c2.43-.35,4.37-.62,6.93-.99,23.23,75.16,46.4,150.14,69.8,225.87-4.74,1.33-9.38,2.64-14.21,3.99-20.94-76.64-41.68-152.57-62.53-228.87Z"/>
      <path class="cls-10" d="M188.74,58.34c2.05,.34,3.83,.64,6.33,1.06-20.82,76.53-41.55,152.71-62.42,229.4-4.23-1.06-8.46-2.12-12.58-3.15,.16-8.22,56.11-193.18,68.67-227.31Z"/>
      <path class="cls-9" d="M299,332.28c-.42-6.1-.1-11.73,2.69-17.51,3.33,.47,6.55,1.15,9.81,1.34,5.5,.33,11.04,.92,16.3-1.8,2.18-1.13,4.89-2.32,6.85,1.37-1.09,1.19-2.27,2.47-3.56,3.86,.18,2.32-1.08,5.18,2.74,6.74,.35-1.47,.66-2.78,1.04-4.38,1.51-.96,3.2-2.04,5.06-3.24,1.59,.79,3.17,1.56,4.45,2.19,.31,3.32-4.62,4.08-2.29,8.31,2.23-2.46,4.15-4.57,6.33-6.98,5.87,1.35,11.99,2.51,17.97,4.2,4.34,1.23,8.33,.41,12.46-.64,6.42-1.64,12.88-2.82,19.59-3.02,11.05-.34,15.97,7.26,16.01,15.66,0,.91,0,1.81,0,3.47-4.45,1.09-8.8,2.81-13.25,3.13-10.3,.76-20.66,.9-30.99,1.19-16.61,.47-31.66-4.2-45.12-13.97-.43-.31-1-.43-1.47-.63-4.82,3.26-16.59,3.62-24.61,.69Z"/>
      <path class="cls-9" d="M53.51,341.38c-.91-6.24,.1-11.61,5.11-15.64,3.98-3.2,8.78-3.8,13.59-3.56,3.45,.17,6.97,.88,10.28,1.93,11.94,3.78,23.63,2.82,35.26-1.25,1.19-.42,2.42-.72,3.72-1.1,1.56,2.67,3.02,5.17,4.72,8.09,4.03-4.32-1.72-6.32-1.24-9.82,3.64-.59,7.33-1,11.27,.25,.19,2.04,.35,3.81,.51,5.58q3.07-.96,3.13-5.69c-2.06-1.43-4.28-2.98-6.77-4.71,2.03-2.59,4.18-3.03,6.83-1.6,6.04,3.26,12.33,3.07,18.81,1.59,2.1-.48,4.35-.27,6.54-.37,2.71,5.61,3.98,11.06,3.41,17.65-6.46,.58-13,1.16-19.55,1.75-1.35-1.29-2.5-2.4-3.91-3.74-1.74,.98-3.58,1.82-5.21,2.95-8.5,5.87-17.7,9.31-28.09,10.65-11.41,1.47-22.78,2.24-34.22,1.82-8.26-.3-16.38-1.81-24.2-4.78Z"/>
      <path class="cls-10" d="M191.08,297.48c-3.61-.19-6.66-.35-10.55-.55,11.28-77,24.39-152.99,37.67-229.2,3.43,.85,4.86,3.31,5.15,6.36,.24,2.55,.15,5.2-.23,7.73-2.44,16.43-5.03,32.84-7.53,49.26-2.83,18.62-5.66,37.24-8.42,55.87-2.82,19-5.55,38.02-8.32,57.03-2.55,17.54-5.1,35.08-7.77,53.49Z"/>
      <path class="cls-10" d="M288.06,297.44c-3.68,.41-6.7,.75-10.5,1.18-11.01-76.14-21.96-151.77-32.91-227.53,.9-.84,1.65-1.64,2.51-2.29,.82-.62,1.77-1.08,3.46-2.09,12.51,77.07,24.89,153.39,37.44,230.72Z"/>
      <path class="cls-10" d="M77.72,267.5c-4.04-.26-6.18-2.33-7.85-5.42,28.9-67.7,57.84-135.49,86.78-203.27,2.48-.53,4.38-.93,7.09-1.51-28.88,70.58-57.46,140.42-86.02,210.21Z"/>
      <path class="cls-10" d="M304.91,59.56c5.28,.07,7.15,3,8.68,6.53,7.49,17.24,15.06,34.46,22.57,51.69,16.27,37.35,32.56,74.69,48.74,112.07,4.53,10.47,8.7,21.09,13.25,32.16-1.92,1.66-3.77,3.25-6.27,5.42-30.11-69.14-58.34-138.14-86.96-207.88Z"/>
      <path class="cls-10" d="M206.34,297.73h-6.99c8.02-68.96,19.6-137.07,28.84-206.75,2.29,7.97,2.8,15.01,2.14,21.93-1.38,14.34-3.33,28.63-5.14,42.92-2.04,16.14-4.17,32.27-6.3,48.39-2.78,21.08-5.56,42.15-8.38,63.22-1.32,9.89-2.72,19.77-4.17,30.29Z"/>
      <path class="cls-10" d="M240.93,90.25c9.61,69.28,19.23,138.55,28.89,208.17h-6.8c-1.03-6.74-2.17-13.44-3.05-20.17-4.58-35.18-9.1-70.36-13.61-105.54-2.8-21.8-5.61-43.6-8.28-65.42-.72-5.9,.16-11.71,2.84-17.03Z"/>
      <path class="cls-10" d="M301.82,310.97c-.35-3.3-.66-6.18-1.02-9.54,7.5-1.34,14.67-2.62,22.59-4.03,.9,4.5,1.78,8.9,2.7,13.47-8.12,5.08-15.82,2.39-24.27,.1Z"/>
      <path class="cls-10" d="M144.64,297.23c7.6,1.17,14.62,2.25,21.86,3.37-.43,3.49-.79,6.38-1.22,9.83-7.5,1.98-15,5.61-23.43,.29,.9-4.36,1.78-8.61,2.79-13.48Z"/>
      <path class="cls-2" d="M287.91,11.62c-1.48-2.31-3.25-4.33-5.57-5.83-.13,.03-.26,.05-.4,.08,0,.03,0,.05-.01,.08-6.73,1.78-13.46,4.86-20.86,1.63-1.22-.22-2.4-.65-3.53-1.42-.42-.29-.79-.6-1.13-.92-.72-.43-1.42-.91-2.12-1.46-.12-.09-.23-.2-.33-.31-.04-.02-.08-.04-.12-.06-1.4,1.39-3.31,1.47-6.12,.63-1.75-.52-3.55-1.1-5.36-1.23-4.39-.32-5.63,.66-7.72,5.64,.84,.55,1.7,1.2,2.63,1.7,.75,.41,1.6,.65,2.66,1.08-11.95,6.61-23.97,10.26-37.3,5.37-2.57-.94-5.38-1.33-8.11-1.73-2.91-.43-5.87-.78-8.8-.82-10.43-.12-15.93,3.84-19.54,13.76-.9,2.46-.85,12.09-.85,13.94,6.55,2.36,10.49,4.49,17.33,5.44,11.21,2.19,22.89,.95,32.9,.45,10.7-.86,21.31-2.18,31.27-6.55,2.36-1.04,4.68-2.18,7.23-3.38,4.45,2.01,8.54,5.3,9.86,5.19,7.31-.96,14.7-1.34,22.03-2.12,1.97-.21,4.18,0,6.24-.56-.95-7.56-1.61-13.18-2.7-19.1-.58-3.15-1.09-6.31-1.58-9.48Zm-41.95-4.92c.03,.25,.05,.5,.08,.76-1.45,.17-2.89,.34-4.34,.5-.03-.42-.06-.84-.09-1.26h4.36Zm39.38,21.56c-6.46,.58-13,1.16-19.55,1.75-1.35-1.29-2.5-2.4-3.91-3.74-1.74,.98-3.58,1.82-5.21,2.95-8.5,5.87-17.7,9.31-28.09,10.65-11.41,1.47-22.78,2.24-34.22,1.82-8.26-.3-16.38-1.81-24.2-4.78-.91-6.24,.1-11.61,5.11-15.64,3.98-3.2,8.78-3.8,13.59-3.56,3.45,.17,6.97,.88,10.28,1.93,11.94,3.78,23.63,2.82,35.26-1.25,1.19-.42,2.42-.72,3.72-1.1,1.56,2.67,3.02,5.17,4.72,8.09,4.03-4.32-1.72-6.32-1.24-9.82,3.64-.59,7.33-1,11.27,.25,.19,2.04,.35,3.81,.51,5.58q3.07-.96,3.13-5.69c-2.06-1.43-4.28-2.98-6.77-4.71,2.03-2.59,4.18-3.03,6.83-1.6,6.04,3.26,12.33,3.07,18.81,1.59,2.1-.48,4.35-.27,6.54-.37,2.71,5.61,3.98,11.06,3.41,17.65Z"/>
      <path class="cls-8" d="M171.24,36.91c-.91-6.24,.1-11.61,5.11-15.64,3.98-3.2,8.78-3.8,13.59-3.56,3.45,.17,6.97,.88,10.28,1.93,11.94,3.78,23.63,2.82,35.26-1.25,1.19-.42,2.42-.72,3.72-1.1,1.56,2.67,3.02,5.17,4.72,8.09,4.03-4.32-1.72-6.32-1.24-9.82,3.64-.59,7.33-1,11.27,.25,.19,2.04,.35,3.81,.51,5.58q3.07-.96,3.13-5.69c-2.06-1.43-4.28-2.98-6.77-4.71,2.03-2.59,4.18-3.03,6.83-1.6,6.04,3.26,12.33,3.07,18.81,1.59,2.1-.48,4.35-.27,6.54-.37,2.71,5.61,3.98,11.06,3.41,17.65-6.46,.58-13,1.16-19.55,1.75-1.35-1.29-2.5-2.4-3.91-3.74-1.74,.98-3.58,1.82-5.21,2.95-8.5,5.87-17.7,9.31-28.09,10.65-11.41,1.47-22.78,2.24-34.22,1.82-8.26-.3-16.38-1.81-24.2-4.78Z"/>
      <path class="cls-2" d="M10.1,146.36c-2.31,1.48-4.33,3.25-5.83,5.57,.03,.13,.05,.26,.08,.4,.03,0,.05,0,.08,.01,1.78,6.73,4.86,13.46,1.63,20.86-.22,1.22-.65,2.4-1.42,3.53-.29,.42-.6,.79-.92,1.13-.43,.72-.91,1.42-1.46,2.12-.09,.12-.2,.23-.31,.33-.02,.04-.04,.08-.06,.12,1.39,1.4,1.47,3.31,.63,6.12-.52,1.75-1.1,3.55-1.23,5.36-.32,4.39,.66,5.63,5.64,7.72,.55-.84,1.2-1.7,1.7-2.63,.41-.75,.65-1.6,1.08-2.66,6.61,11.95,10.26,23.97,5.37,37.3-.94,2.57-1.33,5.38-1.73,8.11-.43,2.91-.78,5.87-.82,8.8-.12,10.43,3.84,15.93,13.76,19.54,2.46,.9,12.09,.85,13.94,.85,2.36-6.55,4.49-10.49,5.44-17.33,2.19-11.21,.95-22.89,.45-32.9-.86-10.7-2.18-21.31-6.55-31.27-1.04-2.36-2.18-4.68-3.38-7.23,2.01-4.45,5.3-8.54,5.19-9.86-.96-7.31-1.34-14.7-2.12-22.03-.21-1.97,0-4.18-.56-6.24-7.56,.95-13.18,1.61-19.1,2.7-3.15,.58-6.31,1.09-9.48,1.58Zm-4.92,41.95c.25-.03,.5-.05,.76-.08,.17,1.45,.34,2.89,.5,4.34-.42,.03-.84,.06-1.26,.09v-4.36Zm21.56-39.38c.58,6.46,1.16,13,1.75,19.55-1.29,1.35-2.4,2.5-3.74,3.91,.98,1.74,1.82,3.58,2.95,5.21,5.87,8.5,9.31,17.7,10.65,28.09,1.47,11.41,2.24,22.78,1.82,34.22-.3,8.26-1.81,16.38-4.78,24.2-6.24,.91-11.61-.1-15.64-5.11-3.2-3.98-3.8-8.78-3.56-13.59,.17-3.45,.88-6.97,1.93-10.28,3.78-11.94,2.82-23.63-1.25-35.26-.42-1.19-.72-2.42-1.1-3.72,2.67-1.56,5.17-3.02,8.09-4.72-4.32-4.03-6.32,1.72-9.82,1.24-.59-3.64-1-7.33,.25-11.27,2.04-.19,3.81-.35,5.58-.51q-.96-3.07-5.69-3.13c-1.43,2.06-2.98,4.28-4.71,6.77-2.59-2.03-3.03-4.18-1.6-6.83,3.26-6.04,3.07-12.33,1.59-18.81-.48-2.1-.27-4.35-.37-6.54,5.61-2.71,11.06-3.98,17.65-3.41Z"/>
      <path class="cls-2" d="M169.59,390.61c1.48,2.31,3.25,4.33,5.57,5.83,.13-.03,.26-.05,.4-.08,0-.03,0-.05,.01-.08,6.73-1.78,13.46-4.86,20.86-1.63,1.22,.22,2.4,.65,3.53,1.42,.42,.29,.79,.6,1.13,.92,.72,.43,1.42,.91,2.12,1.46,.12,.09,.23,.2,.33,.31,.04,.02,.08,.04,.12,.06,1.4-1.39,3.31-1.47,6.12-.63,1.75,.52,3.55,1.1,5.36,1.23,4.39,.32,5.63-.66,7.72-5.64-.84-.55-1.7-1.2-2.63-1.7-.75-.41-1.6-.65-2.66-1.08,11.95-6.61,23.97-10.26,37.3-5.37,2.57,.94,5.38,1.33,8.11,1.73,2.91,.43,5.87,.78,8.8,.82,10.43,.12,15.93-3.84,19.54-13.76,.9-2.46,.85-12.09,.85-13.94-6.55-2.36-10.49-4.49-17.33-5.44-11.21-2.19-22.89-.95-32.9-.45-10.7,.86-21.31,2.18-31.27,6.55-2.36,1.04-4.68,2.18-7.23,3.38-4.45-2.01-8.54-5.3-9.86-5.19-7.31,.96-14.7,1.34-22.03,2.12-1.97,.21-4.18,0-6.24,.56,.95,7.56,1.61,13.18,2.7,19.1,.58,3.15,1.09,6.31,1.58,9.48Zm41.95,4.92c-.03-.25-.05-.5-.08-.76,1.45-.17,2.89-.34,4.34-.5,.03,.42,.06,.84,.09,1.26h-4.36Zm-39.38-21.56c6.46-.58,13-1.16,19.55-1.75,1.35,1.29,2.5,2.4,3.91,3.74,1.74-.98,3.58-1.82,5.21-2.95,8.5-5.87,17.7-9.31,28.09-10.65,11.41-1.47,22.78-2.24,34.22-1.82,8.26,.3,16.38,1.81,24.2,4.78,.91,6.24-.1,11.61-5.11,15.64-3.98,3.2-8.78,3.8-13.59,3.56-3.45-.17-6.97-.88-10.28-1.93-11.94-3.78-23.63-2.82-35.26,1.25-1.19,.42-2.42,.72-3.72,1.1-1.56-2.67-3.02-5.17-4.72-8.09-4.03,4.32,1.72,6.32,1.24,9.82-3.64,.59-7.33,1-11.27-.25-.19-2.04-.35-3.81-.51-5.58q-3.07,.96-3.13,5.69c2.06,1.43,4.28,2.98,6.77,4.71-2.03,2.59-4.18,3.03-6.83,1.6-6.04-3.26-12.33-3.07-18.81-1.59-2.1,.48-4.35,.27-6.54,.37-2.71-5.61-3.98-11.06-3.41-17.65Z"/>
      <path class="cls-8" d="M286.26,365.32c.91,6.24-.1,11.61-5.11,15.64-3.98,3.2-8.78,3.8-13.59,3.56-3.45-.17-6.97-.88-10.28-1.93-11.94-3.78-23.63-2.82-35.26,1.25-1.19,.42-2.42,.72-3.72,1.1-1.56-2.67-3.02-5.17-4.72-8.09-4.03,4.32,1.72,6.32,1.24,9.82-3.64,.59-7.33,1-11.27-.25-.19-2.04-.35-3.81-.51-5.58q-3.07,.96-3.13,5.69c2.06,1.43,4.28,2.98,6.77,4.71-2.03,2.59-4.18,3.03-6.83,1.6-6.04-3.26-12.33-3.07-18.81-1.59-2.1,.48-4.35,.27-6.54,.37-2.71-5.61-3.98-11.06-3.41-17.65,6.46-.58,13-1.16,19.55-1.75,1.35,1.29,2.5,2.4,3.91,3.74,1.74-.98,3.58-1.82,5.21-2.95,8.5-5.87,17.7-9.31,28.09-10.65,11.41-1.47,22.78-2.24,34.22-1.82,8.26,.3,16.38,1.81,24.2,4.78Z"/>
      <path class="cls-2" d="M459.19,264.67c2.31-1.48,4.33-3.25,5.83-5.57-.03-.13-.05-.26-.08-.4-.03,0-.05,0-.08-.01-1.78-6.73-4.86-13.46-1.63-20.86,.22-1.22,.65-2.4,1.42-3.53,.29-.42,.6-.79,.92-1.13,.43-.72,.91-1.42,1.46-2.12,.09-.12,.2-.23,.31-.33,.02-.04,.04-.08,.06-.12-1.39-1.4-1.47-3.31-.63-6.12,.52-1.75,1.1-3.55,1.23-5.36,.32-4.39-.66-5.63-5.64-7.72-.55,.84-1.2,1.7-1.7,2.63-.41,.75-.65,1.6-1.08,2.66-6.61-11.95-10.26-23.97-5.37-37.3,.94-2.57,1.33-5.38,1.73-8.11,.43-2.91,.78-5.87,.82-8.8,.12-10.43-3.84-15.93-13.76-19.54-2.46-.9-12.09-.85-13.94-.85-2.36,6.55-4.49,10.49-5.44,17.33-2.19,11.21-.95,22.89-.45,32.9,.86,10.7,2.18,21.31,6.55,31.27,1.04,2.36,2.18,4.68,3.38,7.23-2.01,4.45-5.3,8.54-5.19,9.86,.96,7.31,1.34,14.7,2.12,22.03,.21,1.97,0,4.18,.56,6.24,7.56-.95,13.18-1.61,19.1-2.7,3.15-.58,6.31-1.09,9.48-1.58Zm4.92-41.95c-.25,.03-.5,.05-.76,.08-.17-1.45-.34-2.89-.5-4.34,.42-.03,.84-.06,1.26-.09v4.36Zm-21.56,39.38c-.58-6.46-1.16-13-1.75-19.55,1.29-1.35,2.4-2.5,3.74-3.91-.98-1.74-1.82-3.58-2.95-5.21-5.87-8.5-9.31-17.7-10.65-28.09-1.47-11.41-2.24-22.78-1.82-34.22,.3-8.26,1.81-16.38,4.78-24.2,6.24-.91,11.61,.1,15.64,5.11,3.2,3.98,3.8,8.78,3.56,13.59-.17,3.45-.88,6.97-1.93,10.28-3.78,11.94-2.82,23.63,1.25,35.26,.42,1.19,.72,2.42,1.1,3.72-2.67,1.56-5.17,3.02-8.09,4.72,4.32,4.03,6.32-1.72,9.82-1.24,.59,3.64,1,7.33-.25,11.27-2.04,.19-3.81,.35-5.58,.51q.96,3.07,5.69,3.13c1.43-2.06,2.98-4.28,4.71-6.77,2.59,2.03,3.03,4.18,1.6,6.83-3.26,6.04-3.07,12.33-1.59,18.81,.48,2.1,.27,4.35,.37,6.54-5.61,2.71-11.06,3.98-17.65,3.41Z"/>
      <path class="cls-8" d="M433.9,148.01c6.24-.91,11.61,.1,15.64,5.11,3.2,3.98,3.8,8.78,3.56,13.59-.17,3.45-.88,6.97-1.93,10.28-3.78,11.94-2.82,23.63,1.25,35.26,.42,1.19,.72,2.42,1.1,3.72-2.67,1.56-5.17,3.02-8.09,4.72,4.32,4.03,6.32-1.72,9.82-1.24,.59,3.64,1,7.33-.25,11.27-2.04,.19-3.81,.35-5.58,.51q.96,3.07,5.69,3.13c1.43-2.06,2.98-4.28,4.71-6.77,2.59,2.03,3.03,4.18,1.6,6.83-3.26,6.04-3.07,12.33-1.59,18.81,.48,2.1,.27,4.35,.37,6.54-5.61,2.71-11.06,3.98-17.65,3.41-.58-6.46-1.16-13-1.75-19.55,1.29-1.35,2.4-2.5,3.74-3.91-.98-1.74-1.82-3.58-2.95-5.21-5.87-8.5-9.31-17.7-10.65-28.09-1.47-11.41-2.24-22.78-1.82-34.22,.3-8.26,1.81-16.38,4.78-24.2Z"/>
      <path class="cls-10" d="M317.08,369.06c3.02-.79,5.03-3.53,6.95-6.04-2.84,2.08-5.71,4.19-8.7,6.38,.07,.11,.14,.21,.21,.32,.44-.28,.95-.51,1.53-.66Z"/>
      <path class="cls-10" d="M334.16,370.27c-1.36,1.43-2.96,1.76-4.41,1.39-.05,.06-.11,.12-.17,.18,.62,1.42,.67,3.09-.24,4.35-1.08,1.49-2.26,2.84-3.69,3.84,7.51-2.95,10.1-9.9,13.6-15.91-.02-.02-.03-.04-.05-.06-1.52,2.17-3.18,4.25-5.04,6.21Z"/>
      <path class="cls-10" d="M461.36,350.97c-3.02-.79-5.03-3.53-6.95-6.04,2.84,2.08,5.71,4.19,8.7,6.38-.07,.11-.14,.21-.21,.32-.44-.28-.95-.51-1.53-.66Z"/>
      <path class="cls-10" d="M444.28,352.18c1.36,1.43,2.96,1.76,4.41,1.39,.05,.06,.11,.12,.17,.18-.62,1.42-.67,3.09,.24,4.35,1.08,1.49,2.26,2.84,3.69,3.84-7.51-2.95-10.1-9.9-13.6-15.91,.02-.02,.03-.04,.05-.06,1.52,2.17,3.18,4.25,5.04,6.21Z"/>
    </g>
  </g>
  <g id="_Слой_14" data-name="Слой 14">
    <g class="cls-11">
      <polyline class="cls-7" points="420.54 346.18 420.54 352.18 414.54 352.18"/>
      <line class="cls-6" x1="402.13" y1="352.18" x2="61" y2="352.18"/>
      <polyline class="cls-7" points="54.8 352.18 48.8 352.18 48.8 346.18"/>
      <line class="cls-5" x1="48.8" y1="334.57" x2="48.8" y2="61.87"/>
      <polyline class="cls-7" points="48.8 56.07 48.8 50.07 54.8 50.07"/>
      <line class="cls-6" x1="67.2" y1="50.07" x2="408.33" y2="50.07"/>
      <polyline class="cls-7" points="414.54 50.07 420.54 50.07 420.54 56.07"/>
      <line class="cls-5" x1="420.54" y1="67.67" x2="420.54" y2="340.38"/>
    </g>
    <g class="cls-11">
      <polyline class="cls-7" points="469.4 395.38 469.4 401.38 463.4 401.38"/>
      <line class="cls-3" x1="451.69" y1="401.38" x2="12.36" y2="401.38"/>
      <polyline class="cls-7" points="6.5 401.38 .5 401.38 .5 395.38"/>
      <line class="cls-4" x1=".5" y1="383.6" x2=".5" y2="12.39"/>
      <polyline class="cls-7" points=".5 6.5 .5 .5 6.5 .5"/>
      <line class="cls-3" x1="18.22" y1=".5" x2="457.55" y2=".5"/>
      <polyline class="cls-7" points="463.4 .5 469.4 .5 469.4 6.5"/>
      <line class="cls-4" x1="469.4" y1="18.28" x2="469.4" y2="389.49"/>
    </g>
  </g>
</svg>