<?xml version="1.0" encoding="UTF-8"?>
<svg id="_Слой_2" data-name="Слой 2" xmlns="http://www.w3.org/2000/svg" viewBox="0 0 104.35 42.52">
  <g id="_Минимальные_размеры" data-name="Минимальные размеры">
    <g id="_Логотипы_копия_" data-name="Логотипы (копия)">
      <g id="Logo_Vertical_2_копия_2" data-name="Logo Vertical 2 копия 2">
        <g>
          <path d="M44.99,42.41c-1.77-.14-3.5-.44-5.09-1.28-.17,.23-.32,.43-.47,.63-1.7,.06-3.35-.08-5.09-.36,.03-.5,.02-.94,.1-1.36,.19-1.02,.44-2.04,.63-3.06,.1-.55,.15-1.12-.1-1.68-.67,.09-1.29,.21-1.91,.25-.93,.06-1.87,.12-2.8,.08-.65-.02-.79-.24-.88-.88-.58-4.31-1.16-8.63-1.73-12.94-.45-3.41-.88-6.82-1.34-10.37-.09,.36-.17,.58-.2,.81-.33,2.43-.66,4.86-.98,7.28-.39,2.95-.78,5.89-1.17,8.84-.26,1.96-.5,3.93-.75,5.89-.06,.47-.14,.93-.63,1.34-1.7-.11-3.48-.22-5.33-.34-.05,.33-.15,.61-.12,.88,.1,.85,.24,1.69,.39,2.54,.15,.84,.25,1.63,.38,2.7-.29,.08-.6,.05-.88,.08-1.04,.11-2.08,.16-3.11,.3-.19,.02-.76-.45-1.39-.73-.36,.17-.69,.33-1.02,.48-1.41,.62-2.9,.8-4.41,.92-1.41,.07-3.06,.25-4.64-.06-.96-.13-1.52-.43-2.44-.77,0-.26,0-1.62,.12-1.97,.51-1.4,1.29-1.96,2.76-1.94,.41,0,.83,.05,1.24,.12,.39,.06,.78,.11,1.14,.24,1.88,.69,3.58,.18,5.26-.76-.15-.06-.27-.09-.38-.15-.13-.07-.25-.16-.37-.24,.3-.7,.47-.84,1.09-.8,.25,.02,.51,.1,.76,.17,.59,.18,.89,.07,1.11-.5,.13-.36,.17-.75,.25-1.17-1.16-.29-2.27-.55-3.37-.84-1.99-.53-3.95-1.16-5.72-2.23-.71-.43-1.4-.91-1.85-1.64,.07-.19,.13-.36,.2-.53,2.62-6.18,5.23-12.36,7.86-18.53,1.35-3.16,2.72-6.3,4.08-9.46C14.5,.63,14.96,.07,15.83,0c.91,0,1.82,0,2.72,0,.2,0,.4,0,.6,.01,1.61,.17,3.18,.49,4.69,1.12,.86,.36,1.42,.95,1.72,1.8,.15,.42,.24,.85,.36,1.28,.07,.26,.15,.51,.23,.76,.3-.68,.47-1.35,.66-2.01,.22-.77,.66-1.35,1.41-1.67C30.83,.16,33.53-.19,36.33,.26c.66,.11,1.18,.43,1.53,.99,.24,.37,.42,.77,.6,1.18,.38,.86,.72,1.73,1.09,2.59,3.11,7.13,6.22,14.26,9.33,21.38,.46,1.05,.91,2.09,1.38,3.18-.27,.34-.48,.73-.8,.98-.61,.48-1.25,.94-1.94,1.3-1.78,.94-3.71,1.49-5.64,2.05-.84,.24-1.69,.49-2.51,.73-.02,.15-.04,.23-.03,.31,.05,1.22,.37,1.47,1.55,1.27,.33-.06,.68-.1,1.01-.06,.51,.06,.62,.26,.63,.88-.18,.11-.37,.22-.66,.4,.75,.26,1.37,.51,2.01,.7,1.13,.34,2.25,.34,3.36-.15,.76-.34,1.57-.38,2.38-.31,1.26,.12,2.26,.91,2.54,2,.08,.3,.05,1.65,.2,1.9-.57,.38-1.58,.68-2.65,.8-2.03,.22-3.17,.09-4.74,.03Zm-6.76-8.41c-2.54-10.94-5.04-21.73-7.55-32.55-.24,.02-.4,.02-.55,.05-.15,.03-.29,.09-.46,.14,2.01,10.94,4.02,21.84,6.04,32.82,.84-.15,1.6-.29,2.52-.46ZM22.75,1.64c-.39-.13-.7-.23-1.06-.34-2.4,10.9-5.35,21.63-7.37,32.62,.79,.14,1.5,.39,2.27,.27,2.06-10.86,4.11-21.68,6.17-32.55ZM7.69,32.28C11.37,21.76,15.03,11.32,18.7,.86c-.24-.04-.39-.08-.54-.09-.15-.01-.3,0-.46,0C13.64,10.99,9.51,21.15,5.82,31.51c.15,.08,.26,.14,.38,.19,.46,.18,.92,.36,1.49,.58ZM33.7,.99c3.66,10.42,7.18,20.84,11.01,31.23,.7-.3,1.31-.56,1.97-.84-4.02-10.2-8.01-20.3-11.98-30.38h-.99Zm-2.02,.21c2.94,10.77,5.87,21.48,8.82,32.29,.68-.19,1.34-.38,2-.56-3.3-10.68-6.57-21.26-9.85-31.87-.36,.05-.64,.09-.98,.14Zm-11.92-.25c-1.77,4.82-9.67,30.91-9.69,32.07,.58,.15,1.18,.29,1.77,.44C14.79,22.65,17.72,11.91,20.66,1.11c-.35-.06-.6-.1-.89-.15Zm15.56,38.65c1.13,.41,2.79,.36,3.47-.1,.07,.03,.15,.04,.21,.09,1.9,1.38,4.02,2.04,6.37,1.97,1.46-.04,2.92-.06,4.37-.17,.63-.05,1.24-.29,1.87-.44,0-.23,0-.36,0-.49,0-1.19-.7-2.26-2.26-2.21-.95,.03-1.86,.19-2.76,.43-.58,.15-1.15,.26-1.76,.09-.84-.24-1.71-.4-2.54-.59-.31,.34-.58,.64-.89,.98-.33-.6,.37-.7,.32-1.17-.18-.09-.4-.2-.63-.31-.26,.17-.5,.32-.71,.46-.05,.23-.1,.41-.15,.62-.54-.22-.36-.62-.39-.95,.18-.2,.35-.38,.5-.54-.28-.52-.66-.35-.97-.19-.74,.38-1.52,.3-2.3,.25-.46-.03-.92-.12-1.38-.19-.39,.82-.44,1.61-.38,2.47ZM.68,40.89c1.1,.42,2.25,.63,3.41,.67,1.61,.06,3.22-.05,4.83-.26,1.47-.19,2.76-.67,3.96-1.5,.23-.16,.49-.28,.74-.42,.2,.19,.36,.35,.55,.53,.92-.08,1.85-.17,2.76-.25,.08-.93-.1-1.7-.48-2.49-.31,.01-.63-.02-.92,.05-.91,.21-1.8,.23-2.65-.22-.37-.2-.68-.14-.96,.23,.35,.24,.67,.46,.96,.66q0,.67-.44,.8c-.02-.25-.05-.5-.07-.79-.56-.18-1.08-.12-1.59-.04-.07,.49,.74,.78,.17,1.38-.24-.41-.45-.76-.67-1.14-.18,.05-.36,.1-.53,.16-1.64,.57-3.29,.71-4.97,.18-.47-.15-.96-.25-1.45-.27-.68-.03-1.35,.05-1.92,.5-.71,.57-.85,1.33-.72,2.21Zm19.41-6.19c.38-2.6,.74-5.07,1.1-7.55,.39-2.68,.78-5.36,1.17-8.05,.39-2.63,.79-5.26,1.19-7.88,.35-2.32,.72-4.63,1.06-6.95,.05-.36,.07-.73,.03-1.09-.04-.43-.24-.78-.73-.9-1.87,10.75-3.72,21.47-5.32,32.34,.55,.03,.98,.05,1.49,.08Zm13.68,0c-1.77-10.91-3.52-21.68-5.28-32.55-.24,.14-.37,.21-.49,.29-.12,.09-.23,.2-.35,.32,1.55,10.69,3.09,21.36,4.64,32.1,.54-.06,.96-.11,1.48-.17ZM4.1,30.47C8.13,20.62,12.16,10.77,16.23,.81c-.38,.08-.65,.14-1,.21C11.15,10.59,7.07,20.15,2.99,29.7c.24,.44,.54,.73,1.11,.77ZM36.15,1.13c4.04,9.84,8.02,19.57,12.27,29.33,.35-.3,.61-.53,.89-.76-.64-1.56-1.23-3.06-1.87-4.54-2.28-5.27-4.58-10.54-6.88-15.81-1.06-2.43-2.13-4.86-3.18-7.29-.22-.5-.48-.91-1.22-.92Zm-13.91,33.6c.2-1.48,.4-2.88,.59-4.27,.4-2.97,.79-5.95,1.18-8.92,.3-2.28,.6-4.55,.89-6.83,.26-2.02,.53-4.03,.73-6.06,.09-.98,.02-1.97-.3-3.09-1.3,9.83-2.94,19.44-4.07,29.17h.99ZM27.13,5.46c-.38,.75-.5,1.57-.4,2.4,.38,3.08,.77,6.15,1.17,9.23,.64,4.96,1.27,9.93,1.92,14.89,.12,.95,.29,1.9,.43,2.85h.96c-1.36-9.82-2.72-19.6-4.08-29.37Zm8.59,31.14c1.19,.32,2.28,.7,3.42-.01-.13-.64-.25-1.26-.38-1.9-1.12,.2-2.13,.38-3.19,.57,.05,.47,.09,.88,.14,1.35Zm-22.18-1.94c-.14,.69-.27,1.29-.39,1.9,1.19,.75,2.25,.24,3.31-.04,.06-.49,.11-.89,.17-1.39-1.02-.16-2.01-.31-3.08-.48Zm27.87,2.17c-.16-.33-.26-.21-.35,.04,.1-.01,.2-.02,.35-.04Zm-30.02-.09s0-.07-.01-.11h-.61c0,.06,0,.12,.01,.18,.2-.02,.41-.05,.61-.07Z" fill="#141313"/>
          <path d="M38.23,33.99c-.92,.17-1.68,.31-2.52,.46-2.02-10.98-4.02-21.88-6.04-32.82,.17-.06,.32-.12,.46-.14,.15-.03,.3-.03,.55-.05,2.51,10.82,5.01,21.62,7.55,32.55Z" fill="#f1f0f0"/>
          <path d="M22.75,1.64c-2.06,10.86-4.11,21.68-6.17,32.55-.77,.12-1.48-.13-2.27-.27,2.02-10.99,4.97-21.72,7.37-32.62,.36,.12,.67,.22,1.06,.34Z" fill="#f1f0f0"/>
          <path d="M7.69,32.28c-.57-.22-1.03-.4-1.49-.58-.12-.05-.23-.11-.38-.19C9.51,21.15,13.64,10.99,17.69,.76c.17,0,.32-.01,.46,0,.15,.01,.31,.05,.54,.09-3.67,10.46-7.32,20.9-11.01,31.42Z" fill="#f1f0f0"/>
          <path d="M33.7,.99h.99c3.98,10.08,7.96,20.19,11.98,30.38-.66,.28-1.27,.54-1.97,.84-3.82-10.39-7.35-20.8-11.01-31.23Z" fill="#f1f0f0"/>
          <path d="M31.68,1.21c.34-.05,.62-.09,.98-.14,3.28,10.6,6.55,21.18,9.85,31.87-.67,.19-1.32,.37-2,.56-2.95-10.81-5.88-21.52-8.82-32.29Z" fill="#f1f0f0"/>
          <path d="M19.76,.96c.29,.05,.54,.09,.89,.15-2.94,10.8-5.86,21.54-8.81,32.36-.6-.15-1.19-.3-1.77-.44,.02-1.16,7.92-27.25,9.69-32.07Z" fill="#f1f0f0"/>
          <path d="M35.32,39.61c-.06-.86-.01-1.65,.38-2.47,.47,.07,.92,.16,1.38,.19,.78,.05,1.56,.13,2.3-.25,.31-.16,.69-.33,.97,.19-.15,.17-.32,.35-.5,.54,.03,.33-.15,.73,.39,.95,.05-.21,.09-.39,.15-.62,.21-.14,.45-.29,.71-.46,.22,.11,.45,.22,.63,.31,.04,.47-.65,.57-.32,1.17,.31-.35,.58-.64,.89-.98,.83,.19,1.69,.35,2.54,.59,.61,.17,1.18,.06,1.76-.09,.91-.23,1.82-.4,2.76-.43,1.56-.05,2.25,1.02,2.26,2.21,0,.13,0,.26,0,.49-.63,.15-1.24,.4-1.87,.44-1.45,.11-2.91,.13-4.37,.17-2.34,.07-4.47-.59-6.37-1.97-.06-.04-.14-.06-.21-.09-.68,.46-2.34,.51-3.47,.1Z" fill="#e03035"/>
          <path d="M.68,40.89c-.13-.88,.01-1.64,.72-2.21,.56-.45,1.24-.54,1.92-.5,.49,.02,.98,.12,1.45,.27,1.68,.53,3.33,.4,4.97-.18,.17-.06,.34-.1,.53-.16,.22,.38,.43,.73,.67,1.14,.57-.61-.24-.89-.17-1.38,.51-.08,1.03-.14,1.59,.04,.03,.29,.05,.54,.07,.79q.43-.13,.44-.8c-.29-.2-.6-.42-.96-.66,.29-.37,.59-.43,.96-.23,.85,.46,1.74,.43,2.65,.22,.3-.07,.61-.04,.92-.05,.38,.79,.56,1.56,.48,2.49-.91,.08-1.83,.16-2.76,.25-.19-.18-.35-.34-.55-.53-.25,.14-.5,.26-.74,.42-1.2,.83-2.5,1.31-3.96,1.5-1.61,.21-3.21,.32-4.83,.26-1.17-.04-2.31-.26-3.41-.67Z" fill="#e03035"/>
          <path d="M20.09,34.7c-.51-.03-.94-.05-1.49-.08,1.59-10.86,3.44-21.58,5.32-32.34,.48,.12,.69,.47,.73,.9,.03,.36,.02,.73-.03,1.09-.34,2.32-.71,4.63-1.06,6.95-.4,2.63-.8,5.25-1.19,7.88-.4,2.68-.78,5.36-1.17,8.05-.36,2.47-.72,4.95-1.1,7.55Z" fill="#f1f0f0"/>
          <path d="M33.77,34.69c-.52,.06-.95,.11-1.48,.17-1.55-10.74-3.1-21.41-4.64-32.1,.13-.12,.23-.23,.35-.32,.12-.09,.25-.15,.49-.29,1.76,10.87,3.51,21.64,5.28,32.55Z" fill="#f1f0f0"/>
          <path d="M4.1,30.47c-.57-.04-.87-.33-1.11-.77C7.07,20.15,11.15,10.59,15.23,1.03c.35-.07,.62-.13,1-.21C12.16,10.77,8.13,20.62,4.1,30.47Z" fill="#f1f0f0"/>
          <path d="M36.15,1.13c.74,.01,1.01,.42,1.22,.92,1.06,2.43,2.13,4.86,3.18,7.29,2.3,5.27,4.59,10.54,6.88,15.81,.64,1.48,1.23,2.98,1.87,4.54-.27,.23-.53,.46-.89,.76-4.25-9.75-8.23-19.49-12.27-29.33Z" fill="#f1f0f0"/>
          <path d="M22.24,34.74h-.99c1.13-9.73,2.77-19.34,4.07-29.17,.32,1.12,.4,2.12,.3,3.09-.19,2.02-.47,4.04-.73,6.06-.29,2.28-.59,4.55-.89,6.83-.39,2.97-.79,5.95-1.18,8.92-.19,1.4-.38,2.79-.59,4.27Z" fill="#f1f0f0"/>
          <path d="M27.13,5.46c1.36,9.77,2.71,19.55,4.08,29.37h-.96c-.14-.95-.31-1.9-.43-2.85-.65-4.96-1.28-9.93-1.92-14.89-.39-3.08-.79-6.15-1.17-9.23-.1-.83,.02-1.65,.4-2.4Z" fill="#f1f0f0"/>
          <path d="M35.72,36.6c-.05-.47-.09-.87-.14-1.35,1.06-.19,2.07-.37,3.19-.57,.13,.64,.25,1.26,.38,1.9-1.15,.72-2.23,.34-3.42,.01Z" fill="#f1f0f0"/>
          <path d="M13.54,34.66c1.07,.17,2.06,.32,3.08,.48-.06,.49-.11,.9-.17,1.39-1.06,.28-2.12,.79-3.31,.04,.13-.61,.25-1.22,.39-1.9Z" fill="#f1f0f0"/>
        </g>
        <line x1="59.75" y1="0" x2="59.75" y2="42.52" fill="none" opacity=".3" stroke="#010101" stroke-miterlimit="10" stroke-width=".41"/>
        <g opacity=".6">
          <path d="M68.08,16.68v9h-1.58v-8.52l.86,.77-3.77,.66v-1.26l3.3-.65h1.19Z" fill="#1d1d1b"/>
          <path d="M70.65,16.68h6.58v1.28h-6.06l.66-.42-.5,3.79h-.47c.18-.27,.43-.53,.75-.78s.7-.45,1.15-.61c.45-.16,.96-.23,1.53-.23,.78,0,1.45,.13,1.99,.4,.54,.27,.96,.63,1.24,1.09,.28,.46,.43,.97,.43,1.55s-.17,1.13-.5,1.6c-.34,.46-.81,.83-1.42,1.1-.61,.27-1.34,.4-2.18,.4s-1.57-.12-2.18-.37c-.62-.25-1.1-.59-1.46-1.01-.36-.43-.57-.91-.65-1.43h1.6c.11,.47,.4,.84,.86,1.12,.46,.27,1.08,.41,1.84,.41,.51,0,.95-.07,1.33-.22,.37-.15,.66-.36,.87-.62,.21-.27,.31-.59,.31-.95s-.09-.67-.26-.94c-.17-.27-.43-.48-.78-.62-.35-.15-.79-.22-1.33-.22-.44,0-.83,.05-1.18,.16s-.65,.24-.9,.4c-.25,.16-.46,.33-.63,.5h-1.32l.7-5.34Z" fill="#1d1d1b"/>
          <path d="M82.45,25.68v-6.79h2.32l2.86,6.05h-.61l2.83-6.05h2.32v6.79h-1.46v-6.28h.41l-3.04,6.28h-1.52l-3.04-6.25h.41s0,6.25,0,6.25h-1.46Z" fill="#1d1d1b"/>
          <path d="M93.81,25.68v-6.79h2.32l2.86,6.05h-.61l2.83-6.05h2.32v6.79h-1.46v-6.28h.41l-3.04,6.28h-1.52l-3.04-6.25h.41s0,6.25,0,6.25h-1.46Z" fill="#1d1d1b"/>
        </g>
      </g>
    </g>
  </g>
</svg>