<?xml version="1.0" encoding="UTF-8"?>
<svg id="_Слой_2" data-name="Слой 2" xmlns="http://www.w3.org/2000/svg" viewBox="0 0 371.21 301.37">
  <defs>
    <style>
      .cls-1 {
        fill: #141313;
      }

      .cls-2 {
        fill: #e03035;
      }

      .cls-3 {
        fill: #f1f0f0;
      }
    </style>
  </defs>
  <g id="_Слой_1-2" data-name="Слой 1">
    <g id="Logo_Vertical_2" data-name="Logo Vertical 2">
      <g>
        <path class="cls-1" d="M318.87,300.56c-12.54-1.02-24.82-3.14-36.09-9.06-1.2,1.6-2.27,3.04-3.34,4.46-12.05,.4-23.74-.6-36.08-2.54,.23-3.52,.14-6.64,.69-9.64,1.34-7.26,3.1-14.43,4.44-21.69,.73-3.92,1.05-7.94-.73-11.94-4.78,.64-9.15,1.47-13.55,1.76-6.61,.44-13.25,.85-19.86,.6-4.57-.18-5.63-1.7-6.24-6.25-4.1-30.58-8.21-61.16-12.24-91.75-3.18-24.16-6.24-48.34-9.48-73.48-.63,2.52-1.18,4.09-1.41,5.71-2.35,17.2-4.67,34.41-6.96,51.63-2.78,20.88-5.54,41.76-8.26,62.64-1.81,13.91-3.52,27.83-5.3,41.75-.42,3.32-.98,6.6-4.47,9.5-12.03-.78-24.68-1.59-37.78-2.44-.35,2.35-1.08,4.36-.85,6.25,.73,6.01,1.7,12.01,2.79,17.97,1.08,5.93,1.75,11.55,2.7,19.1-2.06,.55-4.27,.35-6.24,.56-7.34,.78-14.72,1.16-22.03,2.12-1.32,.11-5.41-3.17-9.86-5.19-2.55,1.2-4.87,2.34-7.23,3.38-9.96,4.37-20.57,5.7-31.27,6.55-10.01,.5-21.69,1.74-32.9-.45-6.84-.95-10.77-3.08-17.33-5.44,0-1.85-.04-11.47,.85-13.94,3.61-9.92,9.11-13.87,19.54-13.76,2.94,.03,5.89,.39,8.8,.82,2.73,.4,5.54,.79,8.11,1.73,13.33,4.89,25.35,1.24,37.3-5.37-1.07-.42-1.91-.67-2.66-1.08-.93-.51-1.79-1.15-2.63-1.7,2.09-4.98,3.33-5.96,7.72-5.64,1.81,.13,3.6,.7,5.36,1.23,4.16,1.25,6.34,.48,7.84-3.54,.95-2.52,1.18-5.31,1.79-8.28-8.22-2.04-16.09-3.89-23.91-5.95-14.12-3.72-27.97-8.22-40.58-15.78-5.05-3.03-9.9-6.42-13.1-11.66,.51-1.32,.94-2.54,1.44-3.72,18.57-43.78,37.09-87.58,55.73-131.33,9.54-22.39,19.28-44.69,28.91-67.03C102.78,4.46,106.05,.51,112.21,.03c6.43-.01,12.87-.02,19.3-.03,1.42,.02,2.84,.05,4.26,.07,11.43,1.2,22.56,3.49,33.26,7.93,6.09,2.53,10.07,6.73,12.22,12.76,1.05,2.94,1.68,6.04,2.53,9.06,.51,1.81,1.08,3.6,1.63,5.4,2.14-4.82,3.34-9.56,4.67-14.27,1.53-5.44,4.7-9.54,10-11.83,18.45-7.98,37.59-10.48,57.46-7.28,4.67,.75,8.34,3.08,10.83,6.99,1.67,2.62,3.01,5.48,4.26,8.34,2.66,6.08,5.1,12.25,7.75,18.34,22.03,50.53,44.08,101.04,66.12,151.56,3.24,7.41,6.45,14.84,9.8,22.54-1.93,2.43-3.41,5.16-5.65,6.91-4.34,3.4-8.88,6.68-13.74,9.25-12.62,6.67-26.31,10.55-39.95,14.52-5.97,1.74-11.95,3.47-17.76,5.15-.13,1.09-.26,1.64-.24,2.18,.37,8.67,2.61,10.44,11.02,9.02,2.34-.4,4.8-.68,7.13-.39,3.61,.45,4.41,1.84,4.44,6.23-1.28,.77-2.61,1.56-4.71,2.82,5.31,1.87,9.74,3.63,14.28,4.99,8.02,2.4,15.97,2.42,23.81-1.08,5.36-2.39,11.11-2.72,16.86-2.17,8.92,.86,15.98,6.43,18,14.16,.55,2.12,.35,11.69,1.42,13.49-4.04,2.69-11.2,4.8-18.76,5.67-14.36,1.54-22.49,.65-33.59,.22Zm-47.91-59.62c-17.98-77.52-35.72-154.04-53.5-230.74-1.73,.14-2.83,.13-3.88,.34-1.05,.21-2.05,.63-3.29,1.02,14.27,77.55,28.48,154.82,42.79,232.64,5.96-1.09,11.34-2.07,17.88-3.27ZM161.24,11.65c-2.78-.9-4.98-1.61-7.53-2.44-17.01,77.26-37.91,153.29-52.25,231.21,5.61,1,10.61,2.78,16.09,1.92,14.58-76.99,29.11-153.69,43.7-230.69ZM54.49,228.79C80.62,154.2,106.54,80.23,132.53,6.06c-1.68-.28-2.75-.53-3.85-.63-1.04-.09-2.1-.02-3.3-.02-28.71,72.48-57.95,144.5-84.14,217.92,1.07,.53,1.85,.99,2.69,1.33,3.24,1.3,6.5,2.55,10.55,4.13ZM238.86,7.04c25.91,73.88,50.91,147.68,78.02,221.33,4.97-2.12,9.3-3.97,13.97-5.97-28.5-72.26-56.75-143.91-84.93-215.36h-7.05Zm-14.32,1.51c20.85,76.31,41.59,152.23,62.53,228.87,4.83-1.36,9.47-2.66,14.21-3.99-23.4-75.72-46.58-150.71-69.8-225.87-2.56,.36-4.5,.64-6.93,.99Zm-84.46-1.75c-12.55,34.13-68.5,219.09-68.67,227.31,4.12,1.03,8.35,2.09,12.58,3.15C104.85,160.56,125.58,84.39,146.4,7.86c-2.5-.42-4.28-.72-6.33-1.06Zm110.26,273.94c8.01,2.94,19.79,2.57,24.61-.69,.47,.19,1.04,.31,1.47,.63,13.46,9.77,28.51,14.43,45.12,13.97,10.34-.29,20.69-.43,30.99-1.19,4.45-.33,8.81-2.04,13.25-3.13,0-1.66,0-2.56,0-3.47-.05-8.41-4.97-16-16.01-15.66-6.71,.21-13.16,1.38-19.59,3.02-4.13,1.05-8.12,1.87-12.46,.64-5.98-1.69-12.11-2.86-17.97-4.2-2.18,2.41-4.1,4.52-6.33,6.98-2.33-4.23,2.6-4.99,2.29-8.31-1.28-.63-2.85-1.41-4.45-2.19-1.86,1.19-3.55,2.27-5.06,3.24-.38,1.6-.69,2.91-1.04,4.38-3.82-1.56-2.57-4.42-2.74-6.74,1.28-1.39,2.46-2.67,3.56-3.86-1.96-3.69-4.67-2.5-6.85-1.37-5.26,2.72-10.79,2.12-16.3,1.8-3.26-.19-6.49-.87-9.81-1.34-2.8,5.79-3.11,11.41-2.69,17.51ZM4.84,289.85c7.82,2.96,15.94,4.47,24.2,4.78,11.44,.42,22.81-.35,34.22-1.82,10.39-1.34,19.6-4.78,28.09-10.65,1.64-1.13,3.47-1.98,5.21-2.95,1.41,1.35,2.56,2.45,3.91,3.74,6.55-.59,13.08-1.17,19.55-1.75,.57-6.59-.71-12.04-3.41-17.65-2.19,.1-4.45-.11-6.54,.37-6.48,1.48-12.77,1.66-18.81-1.59-2.64-1.43-4.8-.99-6.83,1.6,2.49,1.73,4.71,3.28,6.77,4.71q-.06,4.73-3.13,5.69c-.16-1.78-.32-3.54-.51-5.58-3.94-1.26-7.63-.84-11.27-.25-.49,3.49,5.27,5.5,1.24,9.82-1.7-2.92-3.16-5.41-4.72-8.09-1.3,.38-2.53,.69-3.72,1.1-11.63,4.06-23.32,5.02-35.26,1.25-3.31-1.05-6.82-1.76-10.28-1.93-4.8-.23-9.6,.36-13.59,3.56-5.02,4.03-6.02,9.4-5.11,15.64Zm137.57-43.9c2.67-18.41,5.22-35.95,7.77-53.49,2.77-19.01,5.5-38.03,8.32-57.03,2.76-18.63,5.59-37.25,8.42-55.87,2.5-16.42,5.08-32.83,7.53-49.26,.38-2.54,.48-5.18,.23-7.73-.29-3.05-1.72-5.51-5.15-6.36-13.29,76.21-26.4,152.19-37.67,229.2,3.89,.2,6.94,.36,10.55,.55Zm96.98-.04c-12.55-77.33-24.94-153.66-37.44-230.72-1.69,1.01-2.64,1.47-3.46,2.09-.86,.65-1.6,1.45-2.51,2.29,10.96,75.76,21.9,151.39,32.91,227.53,3.79-.43,6.81-.76,10.5-1.18ZM29.05,215.96C57.61,146.17,86.18,76.34,115.06,5.76c-2.71,.58-4.61,.98-7.09,1.51C79.04,75.05,50.1,142.84,21.19,210.54c1.67,3.1,3.81,5.17,7.85,5.42ZM256.24,8.02c28.62,69.74,56.85,138.74,86.96,207.88,2.5-2.16,4.36-3.76,6.27-5.42-4.55-11.07-8.72-21.69-13.25-32.16-16.18-37.39-32.47-74.73-48.74-112.07-7.51-17.24-15.08-34.45-22.57-51.69-1.53-3.53-3.4-6.46-8.68-6.53Zm-98.57,238.17c1.45-10.52,2.85-20.4,4.17-30.29,2.82-21.07,5.6-42.15,8.38-63.22,2.12-16.13,4.25-32.26,6.3-48.39,1.81-14.3,3.76-28.58,5.14-42.92,.67-6.92,.15-13.96-2.14-21.93-9.23,69.68-20.81,137.8-28.84,206.75h6.99ZM192.27,38.71c-2.68,5.32-3.56,11.13-2.84,17.03,2.66,21.82,5.48,43.62,8.28,65.42,4.51,35.18,9.03,70.37,13.61,105.54,.88,6.73,2.02,13.43,3.05,20.17h6.8c-9.66-69.61-19.28-138.89-28.89-208.17Zm60.89,220.72c8.45,2.29,16.15,4.98,24.27-.1-.92-4.57-1.8-8.96-2.7-13.47-7.92,1.41-15.09,2.69-22.59,4.03,.36,3.36,.67,6.24,1.02,9.54Zm-157.19-13.74c-1.01,4.87-1.89,9.12-2.79,13.48,8.43,5.32,15.93,1.69,23.43-.29,.43-3.45,.78-6.34,1.22-9.83-7.24-1.12-14.26-2.2-21.86-3.37Zm197.55,15.35c-1.17-2.31-1.85-1.5-2.5,.26,.7-.07,1.4-.15,2.5-.26Zm-212.8-.65c-.03-.25-.05-.5-.08-.76h-4.36c.03,.42,.06,.84,.09,1.26,1.45-.17,2.89-.34,4.34-.5Z"/>
        <path class="cls-3" d="M270.96,240.95c-6.54,1.2-11.92,2.18-17.88,3.27-14.31-77.82-28.53-155.09-42.79-232.64,1.24-.4,2.24-.82,3.29-1.02,1.05-.21,2.15-.2,3.88-.34,17.78,76.69,35.53,153.21,53.5,230.74Z"/>
        <path class="cls-3" d="M161.24,11.65c-14.59,77-29.11,153.7-43.7,230.69-5.47,.85-10.48-.92-16.09-1.92,14.34-77.92,35.24-153.94,52.25-231.21,2.55,.83,4.75,1.54,7.53,2.44Z"/>
        <path class="cls-3" d="M54.49,228.79c-4.05-1.58-7.31-2.83-10.55-4.13-.83-.33-1.61-.79-2.69-1.33C67.44,149.91,96.68,77.9,125.39,5.41c1.2,0,2.25-.07,3.3,.02,1.09,.1,2.17,.35,3.85,.63-25.99,74.17-51.91,148.14-78.04,222.72Z"/>
        <path class="cls-3" d="M238.86,7.04h7.05c28.18,71.45,56.43,143.1,84.93,215.36-4.67,2-9,3.85-13.97,5.97-27.1-73.64-52.1-147.45-78.02-221.33Z"/>
        <path class="cls-3" d="M224.53,8.55c2.43-.35,4.37-.62,6.93-.99,23.23,75.16,46.4,150.14,69.8,225.87-4.74,1.33-9.38,2.64-14.21,3.99-20.94-76.64-41.68-152.57-62.53-228.87Z"/>
        <path class="cls-3" d="M140.07,6.8c2.05,.34,3.83,.64,6.33,1.06-20.82,76.53-41.55,152.71-62.42,229.4-4.23-1.06-8.46-2.12-12.58-3.15,.16-8.22,56.11-193.18,68.67-227.31Z"/>
        <path class="cls-2" d="M250.34,280.74c-.42-6.1-.1-11.73,2.69-17.51,3.33,.47,6.55,1.15,9.81,1.34,5.5,.33,11.04,.92,16.3-1.8,2.18-1.13,4.89-2.32,6.85,1.37-1.09,1.19-2.27,2.47-3.56,3.86,.18,2.32-1.08,5.18,2.74,6.74,.35-1.47,.66-2.78,1.04-4.38,1.51-.96,3.2-2.04,5.06-3.24,1.59,.79,3.17,1.56,4.45,2.19,.31,3.32-4.62,4.08-2.29,8.31,2.23-2.46,4.15-4.57,6.33-6.98,5.87,1.35,11.99,2.51,17.97,4.2,4.34,1.23,8.33,.41,12.46-.64,6.42-1.64,12.88-2.82,19.59-3.02,11.05-.34,15.97,7.26,16.01,15.66,0,.91,0,1.81,0,3.47-4.45,1.09-8.8,2.81-13.25,3.13-10.3,.76-20.66,.9-30.99,1.19-16.61,.47-31.66-4.2-45.12-13.97-.43-.31-1-.43-1.47-.63-4.82,3.26-16.59,3.62-24.61,.69Z"/>
        <path class="cls-2" d="M4.84,289.85c-.91-6.24,.1-11.61,5.11-15.64,3.98-3.2,8.78-3.8,13.59-3.56,3.45,.17,6.97,.88,10.28,1.93,11.94,3.78,23.63,2.82,35.26-1.25,1.19-.42,2.42-.72,3.72-1.1,1.56,2.67,3.02,5.17,4.72,8.09,4.03-4.32-1.72-6.32-1.24-9.82,3.64-.59,7.33-1,11.27,.25,.19,2.04,.35,3.81,.51,5.58q3.07-.96,3.13-5.69c-2.06-1.43-4.28-2.98-6.77-4.71,2.03-2.59,4.18-3.03,6.83-1.6,6.04,3.26,12.33,3.07,18.81,1.59,2.1-.48,4.35-.27,6.54-.37,2.71,5.61,3.98,11.06,3.41,17.65-6.46,.58-13,1.16-19.55,1.75-1.35-1.29-2.5-2.4-3.91-3.74-1.74,.98-3.58,1.82-5.21,2.95-8.5,5.87-17.7,9.31-28.09,10.65-11.41,1.47-22.78,2.24-34.22,1.82-8.26-.3-16.38-1.81-24.2-4.78Z"/>
        <path class="cls-3" d="M142.41,245.95c-3.61-.19-6.66-.35-10.55-.55,11.28-77,24.39-152.99,37.67-229.2,3.43,.85,4.86,3.31,5.15,6.36,.24,2.55,.15,5.2-.23,7.73-2.44,16.43-5.03,32.84-7.53,49.26-2.83,18.62-5.66,37.24-8.42,55.87-2.82,19-5.55,38.02-8.32,57.03-2.55,17.54-5.1,35.08-7.77,53.49Z"/>
        <path class="cls-3" d="M239.39,245.9c-3.68,.41-6.7,.75-10.5,1.18-11.01-76.14-21.96-151.77-32.91-227.53,.9-.84,1.65-1.64,2.51-2.29,.82-.62,1.77-1.08,3.46-2.09,12.51,77.07,24.89,153.39,37.44,230.72Z"/>
        <path class="cls-3" d="M29.05,215.96c-4.04-.26-6.18-2.33-7.85-5.42C50.1,142.84,79.04,75.05,107.97,7.27c2.48-.53,4.38-.93,7.09-1.51C86.18,76.34,57.61,146.17,29.05,215.96Z"/>
        <path class="cls-3" d="M256.24,8.02c5.28,.07,7.15,3,8.68,6.53,7.49,17.24,15.06,34.46,22.57,51.69,16.27,37.35,32.56,74.69,48.74,112.07,4.53,10.47,8.7,21.09,13.25,32.16-1.92,1.66-3.77,3.25-6.27,5.42-30.11-69.14-58.34-138.14-86.96-207.88Z"/>
        <path class="cls-3" d="M157.67,246.2h-6.99c8.02-68.96,19.6-137.07,28.84-206.75,2.29,7.97,2.8,15.01,2.14,21.93-1.38,14.34-3.33,28.63-5.14,42.92-2.04,16.14-4.17,32.27-6.3,48.39-2.78,21.08-5.56,42.15-8.38,63.22-1.32,9.89-2.72,19.77-4.17,30.29Z"/>
        <path class="cls-3" d="M192.27,38.71c9.61,69.28,19.23,138.55,28.89,208.17h-6.8c-1.03-6.74-2.17-13.44-3.05-20.17-4.58-35.18-9.1-70.36-13.61-105.54-2.8-21.8-5.61-43.6-8.28-65.42-.72-5.9,.16-11.71,2.84-17.03Z"/>
        <path class="cls-3" d="M253.16,259.43c-.35-3.3-.66-6.18-1.02-9.54,7.5-1.34,14.67-2.62,22.59-4.03,.9,4.5,1.78,8.9,2.7,13.47-8.12,5.08-15.82,2.39-24.27,.1Z"/>
        <path class="cls-3" d="M95.97,245.69c7.6,1.17,14.62,2.25,21.86,3.37-.43,3.49-.79,6.38-1.22,9.83-7.5,1.98-15,5.61-23.43,.29,.9-4.36,1.78-8.61,2.79-13.48Z"/>
      </g>
    </g>
  </g>
</svg>