<?xml version="1.0" encoding="UTF-8"?>
<svg xmlns="http://www.w3.org/2000/svg" viewBox="0 0 506.95 606.81">
  <g id="_Слой_3" data-name="Слой 3">
    <rect x="-149.6" y="-843.95" width="816.29" height="2479.64" fill="#f2f1f0"/>
  </g>
  <g id="_Структуоа" data-name="Структуоа">
    <g id="_Слой_17" data-name="Слой 17">
      <g>
        <path d="M393.21,358.15c-12.54-1.02-24.82-3.14-36.09-9.06-1.2,1.6-2.27,3.04-3.34,4.46-12.05,.4-23.74-.6-36.08-2.54,.23-3.52,.14-6.64,.69-9.64,1.34-7.26,3.1-14.43,4.44-21.69,.73-3.92,1.05-7.94-.73-11.94-4.78,.64-9.15,1.47-13.55,1.76-6.61,.44-13.25,.85-19.86,.6-4.57-.18-5.63-1.7-6.24-6.25-4.1-30.58-8.21-61.16-12.24-91.75-3.18-24.16-6.24-48.34-9.48-73.48-.63,2.52-1.18,4.09-1.41,5.71-2.35,17.2-4.67,34.41-6.96,51.63-2.78,20.88-5.54,41.76-8.26,62.64-1.81,13.91-3.52,27.83-5.3,41.75-.42,3.32-.98,6.6-4.47,9.5-12.03-.78-24.68-1.59-37.78-2.44-.35,2.35-1.08,4.36-.85,6.25,.73,6.01,1.7,12.01,2.79,17.97,1.08,5.93,1.75,11.55,2.7,19.1-2.06,.55-4.27,.35-6.24,.56-7.34,.78-14.72,1.16-22.03,2.12-1.32,.11-5.41-3.17-9.86-5.19-2.55,1.2-4.87,2.34-7.23,3.38-9.96,4.37-20.57,5.7-31.27,6.55-10.01,.5-21.69,1.74-32.9-.45-6.84-.95-10.77-3.08-17.33-5.44,0-1.85-.04-11.47,.85-13.94,3.61-9.92,9.11-13.87,19.54-13.76,2.94,.03,5.89,.39,8.8,.82,2.73,.4,5.54,.79,8.11,1.73,13.33,4.89,25.35,1.24,37.3-5.37-1.07-.42-1.91-.67-2.66-1.08-.93-.51-1.79-1.15-2.63-1.7,2.09-4.98,3.33-5.96,7.72-5.64,1.81,.13,3.6,.7,5.36,1.23,4.16,1.25,6.34,.48,7.84-3.54,.95-2.52,1.18-5.31,1.79-8.28-8.22-2.04-16.09-3.89-23.91-5.95-14.12-3.72-27.97-8.22-40.58-15.78-5.05-3.03-9.9-6.42-13.1-11.66,.51-1.32,.94-2.54,1.44-3.72,18.57-43.78,37.09-87.58,55.73-131.33,9.54-22.39,19.28-44.69,28.91-67.03,2.25-5.22,5.53-9.17,11.69-9.65,6.43-.01,12.87-.02,19.3-.03,1.42,.02,2.84,.05,4.26,.07,11.43,1.2,22.56,3.49,33.26,7.93,6.09,2.53,10.07,6.73,12.22,12.76,1.05,2.94,1.68,6.04,2.53,9.06,.51,1.81,1.08,3.6,1.63,5.4,2.14-4.82,3.34-9.56,4.67-14.27,1.53-5.44,4.7-9.54,10-11.83,18.45-7.98,37.59-10.48,57.46-7.28,4.67,.75,8.34,3.08,10.83,6.99,1.67,2.62,3.01,5.48,4.26,8.34,2.66,6.08,5.1,12.25,7.75,18.34,22.03,50.53,44.08,101.04,66.12,151.56,3.24,7.41,6.45,14.84,9.8,22.54-1.93,2.43-3.41,5.16-5.65,6.91-4.34,3.4-8.88,6.68-13.74,9.25-12.62,6.67-26.31,10.55-39.95,14.52-5.97,1.74-11.95,3.47-17.76,5.15-.13,1.09-.26,1.64-.24,2.18,.37,8.67,2.61,10.44,11.02,9.02,2.34-.4,4.8-.68,7.13-.39,3.61,.45,4.41,1.84,4.44,6.23-1.28,.77-2.61,1.56-4.71,2.82,5.31,1.87,9.74,3.63,14.28,4.99,8.02,2.4,15.97,2.42,23.81-1.08,5.36-2.39,11.11-2.72,16.86-2.17,8.92,.86,15.98,6.43,18,14.16,.55,2.12,.35,11.69,1.42,13.49-4.04,2.69-11.2,4.8-18.76,5.67-14.36,1.54-22.49,.65-33.59,.22Zm-47.91-59.62c-17.98-77.52-35.72-154.04-53.5-230.74-1.73,.14-2.83,.13-3.88,.34-1.05,.21-2.05,.63-3.29,1.02,14.27,77.55,28.48,154.82,42.79,232.64,5.96-1.09,11.34-2.07,17.88-3.27ZM235.59,69.24c-2.78-.9-4.98-1.61-7.53-2.44-17.01,77.26-37.91,153.29-52.25,231.21,5.61,1,10.61,2.78,16.09,1.92,14.58-76.99,29.11-153.69,43.7-230.69Zm-106.75,217.14c26.13-74.58,52.05-148.55,78.04-222.72-1.68-.28-2.75-.53-3.85-.63-1.04-.09-2.1-.02-3.3-.02-28.71,72.48-57.95,144.5-84.14,217.92,1.07,.53,1.85,.99,2.69,1.33,3.24,1.3,6.5,2.55,10.55,4.13ZM313.2,64.63c25.91,73.88,50.91,147.68,78.02,221.33,4.97-2.12,9.3-3.97,13.97-5.97-28.5-72.26-56.75-143.91-84.93-215.36h-7.05Zm-14.32,1.51c20.85,76.31,41.59,152.23,62.53,228.87,4.83-1.36,9.47-2.66,14.21-3.99-23.4-75.72-46.58-150.71-69.8-225.87-2.56,.36-4.5,.64-6.93,.99Zm-84.46-1.75c-12.55,34.13-68.5,219.09-68.67,227.31,4.12,1.03,8.35,2.09,12.58,3.15,20.87-76.69,41.59-152.87,62.42-229.4-2.5-.42-4.28-.72-6.33-1.06Zm110.26,273.94c8.01,2.94,19.79,2.57,24.61-.69,.47,.19,1.04,.31,1.47,.63,13.46,9.77,28.51,14.43,45.12,13.97,10.34-.29,20.69-.43,30.99-1.19,4.45-.33,8.81-2.04,13.25-3.13,0-1.66,0-2.56,0-3.47-.05-8.41-4.97-16-16.01-15.66-6.71,.21-13.16,1.38-19.59,3.02-4.13,1.05-8.12,1.87-12.46,.64-5.98-1.69-12.11-2.86-17.97-4.2-2.18,2.41-4.1,4.52-6.33,6.98-2.33-4.23,2.6-4.99,2.29-8.31-1.28-.63-2.85-1.41-4.45-2.19-1.86,1.19-3.55,2.27-5.06,3.24-.38,1.6-.69,2.91-1.04,4.38-3.82-1.56-2.57-4.42-2.74-6.74,1.28-1.39,2.46-2.67,3.56-3.86-1.96-3.69-4.67-2.5-6.85-1.37-5.26,2.72-10.79,2.12-16.3,1.8-3.26-.19-6.49-.87-9.81-1.34-2.8,5.79-3.11,11.41-2.69,17.51Zm-245.49,9.1c7.82,2.96,15.94,4.47,24.2,4.78,11.44,.42,22.81-.35,34.22-1.82,10.39-1.34,19.6-4.78,28.09-10.65,1.64-1.13,3.47-1.98,5.21-2.95,1.41,1.35,2.56,2.45,3.91,3.74,6.55-.59,13.08-1.17,19.55-1.75,.57-6.59-.71-12.04-3.41-17.65-2.19,.1-4.45-.11-6.54,.37-6.48,1.48-12.77,1.66-18.81-1.59-2.64-1.43-4.8-.99-6.83,1.6,2.49,1.73,4.71,3.28,6.77,4.71q-.06,4.73-3.13,5.69c-.16-1.78-.32-3.54-.51-5.58-3.94-1.26-7.63-.84-11.27-.25-.49,3.49,5.27,5.5,1.24,9.82-1.7-2.92-3.16-5.41-4.72-8.09-1.3,.38-2.53,.69-3.72,1.1-11.63,4.06-23.32,5.02-35.26,1.25-3.31-1.05-6.82-1.76-10.28-1.93-4.8-.23-9.6,.36-13.59,3.56-5.02,4.03-6.02,9.4-5.11,15.64Zm137.57-43.9c2.67-18.41,5.22-35.95,7.77-53.49,2.77-19.01,5.5-38.03,8.32-57.03,2.76-18.63,5.59-37.25,8.42-55.87,2.5-16.42,5.08-32.83,7.53-49.26,.38-2.54,.48-5.18,.23-7.73-.29-3.05-1.72-5.51-5.15-6.36-13.29,76.21-26.4,152.19-37.67,229.2,3.89,.2,6.94,.36,10.55,.55Zm96.98-.04c-12.55-77.33-24.94-153.66-37.44-230.72-1.69,1.01-2.64,1.47-3.46,2.09-.86,.65-1.6,1.45-2.51,2.29,10.96,75.76,21.9,151.39,32.91,227.53,3.79-.43,6.81-.76,10.5-1.18Zm-210.34-29.94c28.56-69.79,57.14-139.63,86.02-210.21-2.71,.58-4.61,.98-7.09,1.51-28.94,67.78-57.88,135.57-86.78,203.27,1.67,3.1,3.81,5.17,7.85,5.42ZM330.58,65.62c28.62,69.74,56.85,138.74,86.96,207.88,2.5-2.16,4.36-3.76,6.27-5.42-4.55-11.07-8.72-21.69-13.25-32.16-16.18-37.39-32.47-74.73-48.74-112.07-7.51-17.24-15.08-34.45-22.57-51.69-1.53-3.53-3.4-6.46-8.68-6.53Zm-98.57,238.17c1.45-10.52,2.85-20.4,4.17-30.29,2.82-21.07,5.6-42.15,8.38-63.22,2.12-16.13,4.25-32.26,6.3-48.39,1.81-14.3,3.76-28.58,5.14-42.92,.67-6.92,.15-13.96-2.14-21.93-9.23,69.68-20.81,137.8-28.84,206.75h6.99Zm34.6-207.49c-2.68,5.32-3.56,11.13-2.84,17.03,2.66,21.82,5.48,43.62,8.28,65.42,4.51,35.18,9.03,70.37,13.61,105.54,.88,6.73,2.02,13.43,3.05,20.17h6.8c-9.66-69.61-19.28-138.89-28.89-208.17Zm60.89,220.72c8.45,2.29,16.15,4.98,24.27-.1-.92-4.57-1.8-8.96-2.7-13.47-7.92,1.41-15.09,2.69-22.59,4.03,.36,3.36,.67,6.24,1.02,9.54Zm-157.19-13.74c-1.01,4.87-1.89,9.12-2.79,13.48,8.43,5.32,15.93,1.69,23.43-.29,.43-3.45,.78-6.34,1.22-9.83-7.24-1.12-14.26-2.2-21.86-3.37Zm197.55,15.35c-1.17-2.31-1.85-1.5-2.5,.26,.7-.07,1.4-.15,2.5-.26Zm-212.8-.65c-.03-.25-.05-.5-.08-.76h-4.36c.03,.42,.06,.84,.09,1.26,1.45-.17,2.89-.34,4.34-.5Z" fill="#141313"/>
        <path d="M345.31,298.54c-6.54,1.2-11.92,2.18-17.88,3.27-14.31-77.82-28.53-155.09-42.79-232.64,1.24-.4,2.24-.82,3.29-1.02,1.05-.21,2.15-.2,3.88-.34,17.78,76.69,35.53,153.21,53.5,230.74Z" fill="#f1f0f0"/>
        <path d="M235.59,69.24c-14.59,77-29.11,153.7-43.7,230.69-5.47,.85-10.48-.92-16.09-1.92,14.34-77.92,35.24-153.94,52.25-231.21,2.55,.83,4.75,1.54,7.53,2.44Z" fill="#f1f0f0"/>
        <path d="M128.83,286.38c-4.05-1.58-7.31-2.83-10.55-4.13-.83-.33-1.61-.79-2.69-1.33,26.19-73.42,55.43-145.43,84.14-217.92,1.2,0,2.25-.07,3.3,.02,1.09,.1,2.17,.35,3.85,.63-25.99,74.17-51.91,148.14-78.04,222.72Z" fill="#f1f0f0"/>
        <path d="M313.2,64.63h7.05c28.18,71.45,56.43,143.1,84.93,215.36-4.67,2-9,3.85-13.97,5.97-27.1-73.64-52.1-147.45-78.02-221.33Z" fill="#f1f0f0"/>
        <path d="M298.88,66.14c2.43-.35,4.37-.62,6.93-.99,23.23,75.16,46.4,150.14,69.8,225.87-4.74,1.33-9.38,2.64-14.21,3.99-20.94-76.64-41.68-152.57-62.53-228.87Z" fill="#f1f0f0"/>
        <path d="M214.42,64.39c2.05,.34,3.83,.64,6.33,1.06-20.82,76.53-41.55,152.71-62.42,229.4-4.23-1.06-8.46-2.12-12.58-3.15,.16-8.22,56.11-193.18,68.67-227.31Z" fill="#f1f0f0"/>
        <path d="M324.68,338.33c-.42-6.1-.1-11.73,2.69-17.51,3.33,.47,6.55,1.15,9.81,1.34,5.5,.33,11.04,.92,16.3-1.8,2.18-1.13,4.89-2.32,6.85,1.37-1.09,1.19-2.27,2.47-3.56,3.86,.18,2.32-1.08,5.18,2.74,6.74,.35-1.47,.66-2.78,1.04-4.38,1.51-.96,3.2-2.04,5.06-3.24,1.59,.79,3.17,1.56,4.45,2.19,.31,3.32-4.62,4.08-2.29,8.31,2.23-2.46,4.15-4.57,6.33-6.98,5.87,1.35,11.99,2.51,17.97,4.2,4.34,1.23,8.33,.41,12.46-.64,6.42-1.64,12.88-2.82,19.59-3.02,11.05-.34,15.97,7.26,16.01,15.66,0,.91,0,1.81,0,3.47-4.45,1.09-8.8,2.81-13.25,3.13-10.3,.76-20.66,.9-30.99,1.19-16.61,.47-31.66-4.2-45.12-13.97-.43-.31-1-.43-1.47-.63-4.82,3.26-16.59,3.62-24.61,.69Z" fill="#e03035"/>
        <path d="M79.19,347.44c-.91-6.24,.1-11.61,5.11-15.64,3.98-3.2,8.78-3.8,13.59-3.56,3.45,.17,6.97,.88,10.28,1.93,11.94,3.78,23.63,2.82,35.26-1.25,1.19-.42,2.42-.72,3.72-1.1,1.56,2.67,3.02,5.17,4.72,8.09,4.03-4.32-1.72-6.32-1.24-9.82,3.64-.59,7.33-1,11.27,.25,.19,2.04,.35,3.81,.51,5.58q3.07-.96,3.13-5.69c-2.06-1.43-4.28-2.98-6.77-4.71,2.03-2.59,4.18-3.03,6.83-1.6,6.04,3.26,12.33,3.07,18.81,1.59,2.1-.48,4.35-.27,6.54-.37,2.71,5.61,3.98,11.06,3.41,17.65-6.46,.58-13,1.16-19.55,1.75-1.35-1.29-2.5-2.4-3.91-3.74-1.74,.98-3.58,1.82-5.21,2.95-8.5,5.87-17.7,9.31-28.09,10.65-11.41,1.47-22.78,2.24-34.22,1.82-8.26-.3-16.38-1.81-24.2-4.78Z" fill="#e03035"/>
        <path d="M216.75,303.54c-3.61-.19-6.66-.35-10.55-.55,11.28-77,24.39-152.99,37.67-229.2,3.43,.85,4.86,3.31,5.15,6.36,.24,2.55,.15,5.2-.23,7.73-2.44,16.43-5.03,32.84-7.53,49.26-2.83,18.62-5.66,37.24-8.42,55.87-2.82,19-5.55,38.02-8.32,57.03-2.55,17.54-5.1,35.08-7.77,53.49Z" fill="#f1f0f0"/>
        <path d="M313.73,303.5c-3.68,.41-6.7,.75-10.5,1.18-11.01-76.14-21.96-151.77-32.91-227.53,.9-.84,1.65-1.64,2.51-2.29,.82-.62,1.77-1.08,3.46-2.09,12.51,77.07,24.89,153.39,37.44,230.72Z" fill="#f1f0f0"/>
        <path d="M103.39,273.56c-4.04-.26-6.18-2.33-7.85-5.42,28.9-67.7,57.84-135.49,86.78-203.27,2.48-.53,4.38-.93,7.09-1.51-28.88,70.58-57.46,140.42-86.02,210.21Z" fill="#f1f0f0"/>
        <path d="M330.58,65.62c5.28,.07,7.15,3,8.68,6.53,7.49,17.24,15.06,34.46,22.57,51.69,16.27,37.35,32.56,74.69,48.74,112.07,4.53,10.47,8.7,21.09,13.25,32.16-1.92,1.66-3.77,3.25-6.27,5.42-30.11-69.14-58.34-138.14-86.96-207.88Z" fill="#f1f0f0"/>
        <path d="M232.01,303.79h-6.99c8.02-68.96,19.6-137.07,28.84-206.75,2.29,7.97,2.8,15.01,2.14,21.93-1.38,14.34-3.33,28.63-5.14,42.92-2.04,16.14-4.17,32.27-6.3,48.39-2.78,21.08-5.56,42.15-8.38,63.22-1.32,9.89-2.72,19.77-4.17,30.29Z" fill="#f1f0f0"/>
        <path d="M266.61,96.3c9.61,69.28,19.23,138.55,28.89,208.17h-6.8c-1.03-6.74-2.17-13.44-3.05-20.17-4.58-35.18-9.1-70.36-13.61-105.54-2.8-21.8-5.61-43.6-8.28-65.42-.72-5.9,.16-11.71,2.84-17.03Z" fill="#f1f0f0"/>
        <path d="M327.5,317.02c-.35-3.3-.66-6.18-1.02-9.54,7.5-1.34,14.67-2.62,22.59-4.03,.9,4.5,1.78,8.9,2.7,13.47-8.12,5.08-15.82,2.39-24.27,.1Z" fill="#f1f0f0"/>
        <path d="M170.31,303.28c7.6,1.17,14.62,2.25,21.86,3.37-.43,3.49-.79,6.38-1.22,9.83-7.5,1.98-15,5.61-23.43,.29,.9-4.36,1.78-8.61,2.79-13.48Z" fill="#f1f0f0"/>
      </g>
      <g>
        <path d="M156.46,494.83c-17.93,4.37,7.88-60.65,7.68-71.22-12.82,19.84-22.64,51.5-44.73,62.54-21.93-.35-1.07-43.6-1.2-55.3-12.55,19.68-22.91,46.62-36.11,65.25-10.99-3.47-3.89-17.64,.88-23.41,9.08-17.58,21.54-39.49,31.27-55.43,2.26-4.39,4.94-13.08,10.57-10.13,16.64,8.63-5.84,49.59-2.96,64.18,15.69-16.53,24.35-39.37,38-59.65,3.62-6.91,8.42-11.8,14.72-5.03,7.55,6.52-4.99,35.54-6.54,46.05-2.91,9.14-3.5,15.79-5.41,24.91-.65,6.37,.63,15.32-6.17,17.24Z" fill="#010101"/>
        <path d="M224.53,500.5c-3.84-1.54-6.46-4.41-5.54-8.56,9.68-19.96,18.35-46.46,26.93-68.33-16.6,18.67-32.4,40.4-50.14,57.7-4.1,3.7-9.07,8.93-14.41,10.63-5.55-.97-8.05-2.95-6.86-7.87,7.61-26.42,14.03-52.79,26.74-77.33,1.8-2.95,.27-5.6,2.64-7.3,5.99-2.89,11.22,4.23,8.68,9.82-6.97,17.2-18.17,47.27-24.92,64.3,6.54-6.71,28.42-27.55,33.47-34.86,8.76-11.48,23.07-24.43,32.59-35.23,3.94-2.31,8.06-1.3,9.38,3.34-5.99,23.35-18.98,46.94-25.67,70.72-2.45,4.38-6.94,26.4-12.9,22.96Z" fill="#010101"/>
        <path d="M256.37,494.71c-4.87-2.2-4.16-6.93-3.02-11.33,7.6-22.52,15.18-47.31,25.67-69.21,1.17-1.4,2.13-5.94,3.78-7.43,6.17-3.73,9.36-1.06,9.69,5.1-3.56,10.16-10.86,22.03-13.72,32.4-3.26,7.86-7.23,17.27-9.56,25.98-2.37,4.2-6.28,31.39-12.84,24.47Zm15.35-48.32c8.51-3.49,54.04-50.98,57.19-35.17,1.74,3.86,1.14,5.42-2.83,7.49-11.29,6.08-20.91,15.62-30.33,21.77-5.6,5.69-13.83,9.49-19.5,15.35l-4.53-9.44Zm29.19,48.07c-15.41-5.66-24.19-24.61-26.93-39.89,0,0,.13-7.8,.13-7.8l9.19-.63c1.54,14.33,7.95,31.37,21.27,37.12,9.06,2.13,5.22,16.43-3.65,11.2Z" fill="#010101"/>
        <path d="M328.97,493.2c-19.88-10.9-5.08-49.94,4.15-66.06,6.14-11.01,17.38-20.26,27.43-22.4,50.82-10.84,4.58,106.42-31.59,88.46Zm25.89-42.66c9.5-.03,25.16-34.98,10.05-34.32-7.36,3.14-22.07,32.06-10.05,34.32Z" fill="#e03035"/>
        <path d="M396.8,497.1c-39.14-13.6,6.73-105.5,39.64-95.2,15.73,6.28,2.03,41.03-6.73,37.06-2.25-.6-6.81-3.89-5.22-5.66,2.12-2.77,5.06-8.25,6.29-11.58,9.07-33.48-39.92,23.79-36.74,47.88-2.42,29.7,21.58,9.02,35.11,3.33,16.38,5.85-25.12,27.69-32.34,24.16Z" fill="#010101"/>
      </g>
      <g>
        <path d="M76.14,520.65h22.31v3.83h-22.31v-3.83Zm8.74,1.69h4.83v19.56h-4.83v-19.56Z" fill="#010101"/>
        <path d="M112.1,542.43c-9.11,.71-16.02-9.08-11.14-16.99,6.41-10.02,23.39-4.94,22.07,7.57h-19.82v-3.72h17.4l-2.42,1.39c.27-7.01-9.74-9.16-12.98-3.44-5.01,10.99,10.33,14.32,17.22,8.43v3.53c-2.7,2.11-6.81,3.25-10.34,3.23Z" fill="#010101"/>
        <path d="M148.13,531.28c-1.26,13.95-22.59,15.04-22.24,0-.4-15.04,21.05-13.96,22.24,0Zm-17.33,0c0,10.27,13.7,8.51,15.62,0-1.92-8.51-15.62-10.26-15.62,0Zm15.84,10.63l-.82-7.89,.97-2.74-.97-2.7,.82-7.92h4.98l-1.12,10.63,1.12,10.63h-4.98Z" fill="#010101"/>
        <path d="M154.19,520.65h22.31v3.83h-22.31v-3.83Zm8.74,1.69h4.83v19.56h-4.83v-19.56Z" fill="#010101"/>
        <path d="M179.55,520.65h4.83c-.18,7.77,0,19.56,0,27.45h-4.83v-27.45Zm2.97,10.63c1.24-13.95,22.61-15.04,22.24,0,.34,15.05-20.95,13.93-22.24,0Zm17.33,0c-.02-10.27-13.66-8.5-15.62,0,1.96,8.5,15.6,10.27,15.62,0Z" fill="#010101"/>
        <path d="M218.64,541.9v-21.25h4.83v17.12l-1.45-.53,13.42-16.6h5.5l-17.85,21.25h-4.46Zm17.33,0l-6.54-10.51,3.38-3.08,8.81,13.59h-5.65Z" fill="#010101"/>
        <path d="M247.72,520.65h20.71v21.25h-4.83v-19.75l2.23,2.25h-15.69l2.08-1.73c1.07,8.13,1.47,23.8-10.34,18.7v-3.64c9.26,3.18,5.95-11.46,5.84-17.08Z" fill="#010101"/>
        <path d="M285.2,542.43c-16.84,.8-16.85-23.11,0-22.3,16.85-.8,16.84,23.1,0,22.3Zm0-3.83c10.39,.81,10.39-15.45,0-14.64-10.38-.79-10.38,15.43,0,14.64Z" fill="#010101"/>
        <path d="M308.33,541.23l-9.67-20.58h5.32l9.15,20.58h-4.8Zm-2.42,7.4c-2.33,0-4.29-.59-6.17-1.77v-3.72c3.2,2.16,8.5,2.95,10.26-1.39,0,0,9.48-21.1,9.48-21.1h5.13c-3.92,5.27-9.77,29.08-18.7,27.97Z" fill="#010101"/>
        <path d="M327.44,520.65h4.8v21.25h-4.8v-21.25Zm2.71,8.6h17.18v3.75h-17.18v-3.75Zm15.17-8.6h4.8v21.25h-4.8v-21.25Z" fill="#010101"/>
        <path d="M376.38,531.28c-1.26,13.95-22.59,15.04-22.24,0-.4-15.04,21.05-13.96,22.24,0Zm-17.33,0c0,10.27,13.7,8.51,15.62,0-1.92-8.51-15.62-10.26-15.62,0Zm15.84,10.63l-.82-7.89,.97-2.74-.97-2.7,.82-7.92h4.98l-1.12,10.63,1.12,10.63h-4.98Z" fill="#010101"/>
        <path d="M411.78,538.15v9.12h-4.2v-5.37h-21.05v5.37h-4.2v-9.12c8.2,.09,21.26,.07,29.45,0Zm-24.77-17.5h20.86v19.82h-4.83v-18.32l2.23,2.25h-15.73l2.08-1.65c.31,5.88,1.59,16.6-5.28,17.72l-1.97-1.69c3.51-2.04,3.33-12.86,2.64-18.13Z" fill="#010101"/>
        <path d="M415.28,541.9v-21.25h4.83v19.9l-1.71-2.25c3.34-.6,13.41,2.13,13.2-3.72,.26-5.87-9.72-3.18-13.05-3.76v-3.49c3.1,.22,11.26-.66,13.94,.92,5.32,2.24,5.32,10.52,0,12.75-2.75,1.65-14.02,.63-17.22,.9Zm23.65-21.25h4.83v21.25h-4.83v-21.25Z" fill="#010101"/>
      </g>
      <polyline points="446.11 56.39 74.17 55.67 73.81 359.23 445.02 359.95 445.39 397.22 73.08 399.75 73.81 502.87 443.94 501.78 443.94 519.15 73.81 520.96 74.53 549.54 444.3 549.18" fill="none" stroke="rgba(34, 30, 31, .6)" stroke-dasharray="0 12.07" stroke-miterlimit="10"/>
      <g opacity=".8">
        <path d="M462.04,506.02v9h-1.58v-8.52l.86,.77-3.77,.66v-1.26l3.3-.65h1.19Z" fill="#1d1d1b"/>
        <path d="M463.03,515.02l3.28-3.88v.77s-3.08-3.68-3.08-3.68h1.79l2.33,2.76h-.66l2.34-2.76h1.73l-3.13,3.71-.06-.9,3.38,3.98h-1.79l-2.54-2.98h.68l-2.52,2.98h-1.74Z" fill="#1d1d1b"/>
      </g>
      <g opacity=".8">
        <path d="M43.44,526.64v9h-1.58v-8.52l.86,.77-3.77,.66v-1.26l3.3-.65h1.19Z" fill="#1d1d1b"/>
        <path d="M46.05,535.74c-.18,0-.35-.04-.5-.13s-.27-.21-.35-.35c-.09-.15-.13-.31-.13-.5s.04-.35,.13-.5c.09-.15,.21-.27,.35-.35s.31-.13,.5-.13,.35,.04,.5,.13,.27,.21,.35,.35c.09,.15,.13,.31,.13,.5s-.04,.35-.13,.5c-.09,.15-.21,.27-.35,.35s-.31,.13-.5,.13Z" fill="#1d1d1b"/>
        <path d="M49.11,526.64h6.58v1.28h-6.06l.66-.42-.5,3.79h-.47c.18-.27,.43-.53,.75-.78s.7-.45,1.15-.61c.45-.16,.96-.23,1.53-.23,.78,0,1.45,.13,1.99,.4,.54,.27,.96,.63,1.24,1.09,.28,.46,.43,.97,.43,1.55s-.17,1.13-.5,1.6c-.34,.46-.81,.83-1.42,1.1-.61,.27-1.34,.4-2.18,.4s-1.57-.12-2.18-.37c-.62-.25-1.1-.59-1.46-1.01s-.57-.91-.65-1.43h1.6c.11,.47,.4,.84,.86,1.12,.46,.27,1.08,.41,1.84,.41,.51,0,.95-.07,1.33-.22,.37-.15,.66-.36,.87-.62,.21-.27,.31-.59,.31-.95s-.09-.67-.26-.94c-.17-.27-.43-.48-.78-.62-.35-.15-.79-.22-1.33-.22-.44,0-.83,.05-1.18,.16-.35,.1-.65,.24-.9,.4s-.46,.33-.63,.5h-1.32l.7-5.34Z" fill="#1d1d1b"/>
        <path d="M56.82,535.64l3.28-3.88v.77s-3.08-3.68-3.08-3.68h1.79l2.33,2.76h-.66l2.34-2.76h1.73l-3.13,3.71-.06-.9,3.38,3.98h-1.79l-2.54-2.98h.68l-2.52,2.98h-1.74Z" fill="#1d1d1b"/>
      </g>
      <g opacity=".8">
        <path d="M454.13,375.9c.05-.66,.26-1.24,.64-1.73s.89-.87,1.52-1.13c.63-.27,1.35-.4,2.16-.4s1.44,.12,2.02,.36c.58,.24,1.03,.58,1.36,1.01,.32,.43,.49,.93,.49,1.5,0,.44-.11,.85-.32,1.22-.21,.38-.56,.76-1.04,1.15-.48,.39-1.14,.83-1.96,1.31l-2.99,1.76-.2-.47h6.79v1.32h-8.38v-1.15l3.83-2.33c.67-.41,1.2-.76,1.59-1.06s.67-.58,.83-.85c.17-.26,.25-.54,.25-.84,0-.31-.08-.59-.25-.84-.17-.25-.42-.44-.76-.59-.34-.14-.77-.22-1.3-.22-.6,0-1.09,.09-1.48,.26-.38,.18-.67,.41-.86,.71-.19,.3-.3,.63-.34,.99h-1.6Z" fill="#1d1d1b"/>
        <path d="M463.03,381.8l3.28-3.88v.77s-3.08-3.68-3.08-3.68h1.79l2.33,2.76h-.66l2.34-2.76h1.73l-3.13,3.71-.06-.9,3.38,3.98h-1.79l-2.54-2.98h.68l-2.52,2.98h-1.74Z" fill="#1d1d1b"/>
      </g>
      <g opacity=".8">
        <path d="M40.06,444.34h6.58v1.28h-6.06l.66-.42-.5,3.79h-.47c.18-.27,.43-.53,.75-.78s.7-.45,1.15-.61c.45-.16,.96-.23,1.53-.23,.78,0,1.45,.13,1.99,.4,.54,.27,.96,.63,1.24,1.09,.28,.46,.43,.97,.43,1.55s-.17,1.13-.5,1.6c-.34,.46-.81,.83-1.42,1.1-.61,.27-1.34,.4-2.18,.4s-1.57-.12-2.18-.37c-.62-.25-1.1-.59-1.46-1.01s-.57-.91-.65-1.43h1.6c.11,.47,.4,.84,.86,1.12,.46,.27,1.08,.41,1.84,.41,.51,0,.95-.07,1.33-.22,.37-.15,.66-.36,.87-.62,.21-.27,.31-.59,.31-.95s-.09-.67-.26-.94c-.17-.27-.43-.48-.78-.62-.35-.15-.79-.22-1.33-.22-.44,0-.83,.05-1.18,.16-.35,.1-.65,.24-.9,.4s-.46,.33-.63,.5h-1.32l.7-5.34Z" fill="#1d1d1b"/>
        <path d="M49.4,453.44c-.18,0-.35-.04-.5-.13s-.27-.21-.35-.35c-.09-.15-.13-.31-.13-.5s.04-.35,.13-.5c.09-.15,.21-.27,.35-.35s.31-.13,.5-.13,.35,.04,.5,.13,.27,.21,.35,.35c.09,.15,.13,.31,.13,.5s-.04,.35-.13,.5c-.09,.15-.21,.27-.35,.35s-.31,.13-.5,.13Z" fill="#1d1d1b"/>
        <path d="M52.46,444.34h6.58v1.28h-6.06l.66-.42-.5,3.79h-.47c.18-.27,.43-.53,.75-.78s.7-.45,1.15-.61c.45-.16,.96-.23,1.53-.23,.78,0,1.45,.13,1.99,.4,.54,.27,.96,.63,1.24,1.09,.28,.46,.43,.97,.43,1.55s-.17,1.13-.5,1.6c-.34,.46-.81,.83-1.42,1.1-.61,.27-1.34,.4-2.18,.4s-1.57-.12-2.18-.37c-.62-.25-1.1-.59-1.46-1.01s-.57-.91-.65-1.43h1.6c.11,.47,.4,.84,.86,1.12,.46,.27,1.08,.41,1.84,.41,.51,0,.95-.07,1.33-.22,.37-.15,.66-.36,.87-.62,.21-.27,.31-.59,.31-.95s-.09-.67-.26-.94c-.17-.27-.43-.48-.78-.62-.35-.15-.79-.22-1.33-.22-.44,0-.83,.05-1.18,.16-.35,.1-.65,.24-.9,.4s-.46,.33-.63,.5h-1.32l.7-5.34Z" fill="#1d1d1b"/>
        <path d="M60.17,453.34l3.28-3.88v.77s-3.08-3.68-3.08-3.68h1.79l2.33,2.76h-.66l2.34-2.76h1.73l-3.13,3.71-.06-.9,3.38,3.98h-1.79l-2.54-2.98h.68l-2.52,2.98h-1.74Z" fill="#1d1d1b"/>
      </g>
      <g opacity=".8">
        <path d="M43.44,205.16v9h-1.58v-8.52l.86,.77-3.77,.66v-1.26l3.3-.65h1.19Z" fill="#1d1d1b"/>
        <path d="M49.71,204.99c.71,0,1.34,.11,1.9,.32,.55,.22,1,.51,1.36,.88s.57,.8,.66,1.28h-1.56c-.13-.33-.37-.61-.72-.83-.35-.23-.88-.34-1.6-.34s-1.31,.13-1.76,.4c-.46,.27-.79,.65-1,1.14-.21,.49-.32,1.08-.32,1.77s.12,1.32,.36,1.84c.24,.51,.6,.9,1.07,1.17,.47,.27,1.06,.4,1.75,.4,.53,0,.97-.07,1.33-.22,.36-.15,.62-.35,.8-.62,.18-.26,.27-.56,.27-.89s-.08-.59-.24-.83-.41-.44-.74-.58c-.33-.14-.76-.22-1.28-.22-.7,0-1.34,.17-1.93,.5-.59,.34-1.08,.77-1.48,1.31l-.67-.49c.26-.49,.61-.93,1.03-1.33,.42-.4,.91-.71,1.48-.95,.56-.24,1.19-.35,1.89-.35s1.33,.12,1.87,.35c.53,.24,.94,.57,1.24,1,.29,.43,.44,.94,.44,1.54s-.16,1.14-.49,1.61c-.33,.46-.79,.83-1.39,1.09-.6,.26-1.3,.39-2.12,.39-1.03,0-1.9-.2-2.6-.59-.7-.4-1.23-.95-1.59-1.65s-.53-1.51-.53-2.42,.18-1.72,.53-2.42c.35-.7,.87-1.25,1.55-1.65,.68-.4,1.52-.59,2.51-.59Z" fill="#1d1d1b"/>
        <path d="M54.33,214.16l3.28-3.88v.77s-3.08-3.68-3.08-3.68h1.79l2.33,2.76h-.66l2.34-2.76h1.73l-3.13,3.71-.06-.9,3.38,3.98h-1.79l-2.54-2.98h.68l-2.52,2.98h-1.74Z" fill="#1d1d1b"/>
      </g>
    </g>
  </g>
</svg>