<?xml version="1.0" encoding="UTF-8"?>
<svg id="_Слой_2" data-name="Слой 2" xmlns="http://www.w3.org/2000/svg" xmlns:xlink="http://www.w3.org/1999/xlink" viewBox="0 0 175.83 142.75">
  <defs>
    <style>
      .cls-1 {
        fill: #221f20;
      }

      .cls-2 {
        fill: #e7363d;
      }

      .cls-3 {
        fill: none;
      }

      .cls-4 {
        fill: #f2f1f0;
      }
    </style>
    <symbol id="Logo_Sign_2" data-name="Logo Sign 2" viewBox="0 0 175.83 142.75">
      <g>
        <path class="cls-4" d="M151.03,142.36c-5.94-.48-11.76-1.49-17.1-4.29-.57,.76-1.08,1.44-1.58,2.11-5.71,.19-11.25-.28-17.09-1.2,.11-1.67,.07-3.14,.33-4.56,.63-3.44,1.47-6.84,2.1-10.27,.34-1.86,.5-3.76-.35-5.66-2.27,.3-4.33,.7-6.42,.84-3.13,.21-6.28,.4-9.41,.28-2.17-.08-2.67-.8-2.95-2.96-1.94-14.48-3.89-28.97-5.8-43.46-1.51-11.44-2.96-22.9-4.49-34.8-.3,1.19-.56,1.94-.67,2.7-1.11,8.15-2.21,16.3-3.3,24.45-1.32,9.89-2.63,19.78-3.91,29.67-.86,6.59-1.67,13.18-2.51,19.77-.2,1.57-.46,3.13-2.12,4.5-5.7-.37-11.69-.75-17.89-1.16-.17,1.11-.51,2.06-.4,2.96,.35,2.85,.81,5.69,1.32,8.51,.51,2.81,.83,5.47,1.28,9.05-.98,.26-2.02,.17-2.95,.27-3.48,.37-6.97,.55-10.44,1-.63,.05-2.56-1.5-4.67-2.46-1.21,.57-2.31,1.11-3.43,1.6-4.72,2.07-9.74,2.7-14.81,3.1-4.74,.24-10.27,.82-15.58-.21-3.24-.45-5.1-1.46-8.21-2.58,0-.88-.02-5.44,.4-6.6,1.71-4.7,4.31-6.57,9.26-6.52,1.39,.02,2.79,.18,4.17,.39,1.29,.19,2.62,.37,3.84,.82,6.31,2.32,12,.59,17.67-2.54-.51-.2-.9-.32-1.26-.51-.44-.24-.85-.54-1.25-.81,.99-2.36,1.58-2.82,3.66-2.67,.86,.06,1.71,.33,2.54,.58,1.97,.59,3,.23,3.71-1.68,.45-1.2,.56-2.52,.85-3.92-3.89-.96-7.62-1.84-11.33-2.82-6.69-1.76-13.25-3.89-19.22-7.48-2.39-1.43-4.69-3.04-6.2-5.52,.24-.63,.44-1.2,.68-1.76,8.79-20.74,17.57-41.48,26.4-62.2,4.52-10.6,9.13-21.17,13.69-31.75C48.68,2.11,50.23,.24,53.15,.01c3.05,0,6.09,0,9.14-.01,.67,.01,1.35,.02,2.02,.03,5.41,.57,10.69,1.65,15.75,3.76,2.88,1.2,4.77,3.19,5.79,6.04,.5,1.39,.79,2.86,1.2,4.29,.24,.86,.51,1.7,.77,2.56,1.01-2.28,1.58-4.53,2.21-6.76,.72-2.58,2.23-4.52,4.74-5.61C103.5,.53,112.57-.65,121.98,.87c2.21,.36,3.95,1.46,5.13,3.31,.79,1.24,1.43,2.6,2.02,3.95,1.26,2.88,2.41,5.8,3.67,8.69,10.43,23.93,20.88,47.86,31.32,71.79,1.53,3.51,3.06,7.03,4.64,10.68-.92,1.15-1.62,2.44-2.68,3.27-2.06,1.61-4.21,3.16-6.51,4.38-5.98,3.16-12.46,5-18.92,6.88-2.83,.82-5.66,1.64-8.41,2.44-.06,.52-.12,.78-.11,1.03,.17,4.11,1.24,4.95,5.22,4.27,1.11-.19,2.27-.32,3.38-.19,1.71,.21,2.09,.87,2.1,2.95-.61,.36-1.24,.74-2.23,1.34,2.52,.89,4.61,1.72,6.76,2.36,3.8,1.14,7.57,1.15,11.28-.51,2.54-1.13,5.26-1.29,7.99-1.03,4.23,.41,7.57,3.05,8.53,6.71,.26,1,.17,5.54,.67,6.39-1.91,1.28-5.3,2.27-8.89,2.68-6.8,.73-10.65,.31-15.91,.1Zm-22.69-28.24c-8.51-36.72-16.92-72.96-25.34-109.29-.82,.07-1.34,.06-1.84,.16-.5,.1-.97,.3-1.56,.49,6.76,36.73,13.49,73.33,20.27,110.19,2.82-.52,5.37-.98,8.47-1.55ZM76.37,5.52c-1.32-.43-2.36-.76-3.57-1.16-8.06,36.6-17.95,72.61-24.75,109.51,2.66,.47,5.03,1.31,7.62,.91,6.91-36.47,13.79-72.8,20.7-109.27ZM25.81,108.37C38.19,73.04,50.47,38,62.78,2.87c-.79-.13-1.3-.25-1.82-.3-.49-.04-.99,0-1.56,0-13.6,34.33-27.45,68.44-39.85,103.22,.51,.25,.88,.47,1.27,.63,1.54,.61,3.08,1.21,5,1.96ZM113.14,3.34c12.27,35,24.12,69.95,36.95,104.83,2.35-1.01,4.4-1.88,6.62-2.83-13.5-34.23-26.88-68.16-40.23-102.01h-3.34Zm-6.78,.72c9.87,36.14,19.7,72.11,29.62,108.41,2.29-.64,4.48-1.26,6.73-1.89-11.08-35.87-22.06-71.38-33.06-106.98-1.21,.17-2.13,.3-3.28,.47Zm-40.01-.83c-5.95,16.17-32.45,103.77-32.53,107.67,1.95,.49,3.95,.99,5.96,1.49C49.66,76.05,59.48,39.97,69.35,3.72c-1.18-.2-2.03-.34-3-.5Zm52.23,129.75c3.8,1.39,9.38,1.22,11.66-.32,.22,.09,.49,.15,.7,.3,6.38,4.63,13.5,6.84,21.37,6.61,4.9-.14,9.8-.2,14.68-.56,2.11-.15,4.17-.97,6.28-1.48,0-.79,0-1.21,0-1.64-.02-3.98-2.35-7.58-7.58-7.42-3.18,.1-6.24,.65-9.28,1.43-1.96,.5-3.84,.89-5.9,.3-2.83-.8-5.73-1.35-8.51-1.99-1.03,1.14-1.94,2.14-3,3.3-1.1-2,1.23-2.36,1.09-3.93-.61-.3-1.35-.67-2.11-1.04-.88,.56-1.68,1.08-2.4,1.53-.18,.76-.33,1.38-.49,2.07-1.81-.74-1.22-2.09-1.3-3.19,.61-.66,1.17-1.27,1.68-1.83-.93-1.75-2.21-1.18-3.24-.65-2.49,1.29-5.11,1.01-7.72,.85-1.54-.09-3.07-.41-4.65-.64-1.32,2.74-1.47,5.4-1.28,8.29ZM2.29,137.29c3.7,1.4,7.55,2.12,11.46,2.26,5.42,.2,10.8-.16,16.21-.86,4.92-.64,9.28-2.26,13.31-5.04,.77-.54,1.64-.94,2.47-1.4,.67,.64,1.21,1.16,1.85,1.77,3.1-.28,6.2-.55,9.26-.83,.27-3.12-.33-5.7-1.62-8.36-1.04,.05-2.11-.05-3.1,.17-3.07,.7-6.05,.79-8.91-.76-1.25-.68-2.27-.47-3.23,.76,1.18,.82,2.23,1.55,3.21,2.23q-.03,2.24-1.48,2.69c-.08-.84-.15-1.68-.24-2.64-1.87-.6-3.62-.4-5.34-.12-.23,1.66,2.5,2.61,.59,4.65-.81-1.38-1.5-2.56-2.24-3.83-.62,.18-1.2,.33-1.76,.52-5.51,1.92-11.05,2.38-16.7,.59-1.57-.5-3.23-.83-4.87-.91-2.27-.11-4.55,.17-6.43,1.69-2.38,1.91-2.85,4.45-2.42,7.41Zm65.16-20.79c1.27-8.72,2.47-17.03,3.68-25.34,1.31-9,2.61-18.01,3.94-27.01,1.31-8.82,2.65-17.64,3.99-26.46,1.18-7.78,2.41-15.55,3.56-23.33,.18-1.2,.23-2.46,.11-3.66-.14-1.44-.82-2.61-2.44-3.01-6.29,36.1-12.5,72.09-17.84,108.56,1.84,.1,3.29,.17,5,.26Zm45.93-.02c-5.94-36.63-11.81-72.78-17.74-109.28-.8,.48-1.25,.7-1.64,.99-.41,.31-.76,.69-1.19,1.08,5.19,35.88,10.37,71.71,15.59,107.77,1.8-.2,3.23-.36,4.97-.56ZM13.76,102.29C27.29,69.24,40.82,36.16,54.5,2.73c-1.28,.27-2.18,.47-3.36,.72C37.44,35.55,23.73,67.66,10.04,99.72c.79,1.47,1.81,2.45,3.72,2.57ZM121.37,3.8c13.56,33.03,26.93,65.71,41.19,98.46,1.19-1.02,2.06-1.78,2.97-2.57-2.15-5.24-4.13-10.27-6.28-15.23-7.66-17.71-15.38-35.39-23.08-53.08-3.56-8.16-7.14-16.32-10.69-24.48-.73-1.67-1.61-3.06-4.11-3.1Zm-46.69,112.81c.69-4.98,1.35-9.66,1.97-14.34,1.33-9.98,2.65-19.96,3.97-29.95,1.01-7.64,2.01-15.28,2.98-22.92,.86-6.77,1.78-13.54,2.44-20.33,.32-3.28,.07-6.61-1.01-10.39-4.37,33.01-9.86,65.27-13.66,97.93h3.31ZM91.07,18.33c-1.27,2.52-1.69,5.27-1.34,8.07,1.26,10.33,2.6,20.66,3.92,30.99,2.14,16.67,4.28,33.33,6.45,49.99,.41,3.19,.96,6.36,1.44,9.56h3.22c-4.58-32.97-9.13-65.79-13.68-98.6Zm28.84,104.55c4,1.08,7.65,2.36,11.5-.05-.43-2.16-.85-4.25-1.28-6.38-3.75,.67-7.15,1.28-10.7,1.91,.17,1.59,.32,2.95,.48,4.52Zm-74.45-6.51c-.48,2.31-.89,4.32-1.32,6.39,3.99,2.52,7.55,.8,11.1-.14,.2-1.63,.37-3,.58-4.65-3.43-.53-6.76-1.04-10.35-1.59Zm94.75,7.27c-1.11-1.09-1.75-.71-2.37,.12,.66-.04,1.33-.07,2.37-.12Zm-101.98-.31c-.01-.12-.02-.24-.04-.36h-2.06c.01,.2,.03,.4,.04,.6,.69-.08,1.37-.16,2.06-.24Z"/>
        <path class="cls-1" d="M128.34,114.13c-3.1,.57-5.65,1.03-8.47,1.55-6.78-36.86-13.51-73.46-20.27-110.19,.59-.19,1.06-.39,1.56-.49,.5-.1,1.02-.09,1.84-.16,8.42,36.33,16.83,72.57,25.34,109.29Z"/>
        <path class="cls-1" d="M76.37,5.52c-6.91,36.47-13.79,72.8-20.7,109.27-2.59,.4-4.96-.44-7.62-.91,6.79-36.91,16.69-72.92,24.75-109.51,1.21,.39,2.25,.73,3.57,1.16Z"/>
        <path class="cls-1" d="M25.81,108.37c-1.92-.75-3.46-1.34-5-1.96-.39-.16-.76-.38-1.27-.63C31.94,71.01,45.8,36.9,59.39,2.56c.57,0,1.07-.03,1.56,0,.52,.05,1.03,.16,1.82,.3-12.31,35.13-24.59,70.17-36.97,105.49Z"/>
        <path class="cls-1" d="M113.14,3.34h3.34c13.35,33.84,26.73,67.78,40.23,102.01-2.21,.95-4.26,1.82-6.62,2.83-12.84-34.88-24.68-69.84-36.95-104.83Z"/>
        <path class="cls-1" d="M106.35,4.05c1.15-.16,2.07-.29,3.28-.47,11,35.6,21.98,71.12,33.06,106.98-2.24,.63-4.44,1.25-6.73,1.89-9.92-36.3-19.74-72.26-29.62-108.41Z"/>
        <path class="cls-1" d="M66.35,3.22c.97,.16,1.82,.3,3,.5-9.86,36.25-19.68,72.33-29.56,108.66-2.01-.5-4.01-1-5.96-1.49,.08-3.9,26.58-91.5,32.53-107.67Z"/>
        <path class="cls-2" d="M118.57,132.98c-.2-2.89-.05-5.55,1.28-8.29,1.58,.22,3.1,.54,4.65,.64,2.61,.15,5.23,.44,7.72-.85,1.03-.53,2.32-1.1,3.24,.65-.52,.56-1.08,1.17-1.68,1.83,.09,1.1-.51,2.45,1.3,3.19,.17-.7,.31-1.32,.49-2.07,.71-.46,1.51-.97,2.4-1.53,.75,.37,1.5,.74,2.11,1.04,.15,1.57-2.19,1.93-1.09,3.93,1.06-1.17,1.96-2.16,3-3.3,2.78,.64,5.68,1.19,8.51,1.99,2.06,.58,3.95,.19,5.9-.3,3.04-.78,6.1-1.33,9.28-1.43,5.23-.16,7.56,3.44,7.58,7.42,0,.43,0,.86,0,1.64-2.11,.52-4.17,1.33-6.28,1.48-4.88,.36-9.78,.43-14.68,.56-7.87,.22-15-1.99-21.37-6.61-.2-.15-.47-.2-.7-.3-2.28,1.54-7.86,1.72-11.66,.32Z"/>
        <path class="cls-2" d="M2.29,137.29c-.43-2.95,.05-5.5,2.42-7.41,1.89-1.52,4.16-1.8,6.43-1.69,1.64,.08,3.3,.42,4.87,.91,5.66,1.79,11.19,1.33,16.7-.59,.56-.2,1.15-.34,1.76-.52,.74,1.27,1.43,2.45,2.24,3.83,1.91-2.04-.82-2.99-.59-4.65,1.72-.28,3.47-.48,5.34,.12,.09,.97,.17,1.8,.24,2.64q1.45-.45,1.48-2.69c-.97-.68-2.03-1.41-3.21-2.23,.96-1.23,1.98-1.44,3.23-.76,2.86,1.54,5.84,1.45,8.91,.76,.99-.23,2.06-.13,3.1-.17,1.28,2.66,1.88,5.24,1.62,8.36-3.06,.27-6.16,.55-9.26,.83-.64-.61-1.19-1.13-1.85-1.77-.83,.46-1.69,.86-2.47,1.4-4.02,2.78-8.38,4.41-13.31,5.04-5.4,.7-10.79,1.06-16.21,.86-3.91-.14-7.76-.86-11.46-2.26Z"/>
        <path class="cls-1" d="M67.45,116.5c-1.71-.09-3.16-.16-5-.26,5.34-36.47,11.55-72.46,17.84-108.56,1.62,.4,2.3,1.57,2.44,3.01,.12,1.21,.07,2.46-.11,3.66-1.16,7.78-2.38,15.55-3.56,23.33-1.34,8.82-2.68,17.64-3.99,26.46-1.33,9-2.63,18.01-3.94,27.01-1.21,8.31-2.41,16.62-3.68,25.34Z"/>
        <path class="cls-1" d="M113.39,116.47c-1.75,.2-3.17,.36-4.97,.56-5.22-36.06-10.4-71.88-15.59-107.77,.43-.4,.78-.78,1.19-1.08,.39-.29,.84-.51,1.64-.99,5.92,36.5,11.79,72.66,17.74,109.28Z"/>
        <path class="cls-1" d="M13.76,102.29c-1.91-.12-2.93-1.1-3.72-2.57C23.73,67.66,37.44,35.55,51.14,3.44c1.17-.25,2.07-.44,3.36-.72C40.82,36.16,27.29,69.24,13.76,102.29Z"/>
        <path class="cls-1" d="M121.37,3.8c2.5,.04,3.38,1.42,4.11,3.1,3.55,8.17,7.13,16.32,10.69,24.48,7.71,17.69,15.42,35.38,23.08,53.08,2.15,4.96,4.12,9.99,6.28,15.23-.91,.78-1.79,1.54-2.97,2.57-14.26-32.75-27.64-65.43-41.19-98.46Z"/>
        <path class="cls-1" d="M74.68,116.61h-3.31c3.8-32.66,9.29-64.93,13.66-97.93,1.08,3.78,1.33,7.11,1.01,10.39-.65,6.79-1.58,13.56-2.44,20.33-.97,7.64-1.98,15.28-2.98,22.92-1.31,9.98-2.64,19.97-3.97,29.95-.63,4.68-1.29,9.36-1.97,14.34Z"/>
        <path class="cls-1" d="M91.07,18.33c4.55,32.81,9.11,65.63,13.68,98.6h-3.22c-.49-3.19-1.03-6.37-1.44-9.56-2.17-16.66-4.31-33.33-6.45-49.99-1.32-10.33-2.66-20.65-3.92-30.99-.34-2.8,.08-5.55,1.34-8.07Z"/>
        <path class="cls-3" d="M119.91,122.88c-.17-1.56-.31-2.92-.48-4.52,3.55-.63,6.95-1.24,10.7-1.91,.43,2.13,.85,4.21,1.28,6.38-3.85,2.4-7.5,1.13-11.5,.05Z"/>
        <path class="cls-3" d="M45.46,116.37c3.6,.55,6.92,1.07,10.35,1.59-.2,1.65-.37,3.02-.58,4.65-3.55,.94-7.11,2.66-11.1,.14,.43-2.06,.84-4.08,1.32-6.39Z"/>
      </g>
    </symbol>
  </defs>
  <g id="_Слой_1-2" data-name="Слой 1">
    <use width="175.83" height="142.75" xlink:href="#Logo_Sign_2"/>
  </g>
</svg>