<?xml version="1.0" encoding="UTF-8"?>
<svg id="_Слой_2" data-name="Слой 2" xmlns="http://www.w3.org/2000/svg" viewBox="0 0 150.23 79.14">
  <g id="_Слой_6" data-name="Слой 6">
    <path d="M5.03,7.41s.83,6.62,.4,8.91C3.7,25.57,.64,35.39,.42,41.25s.52,7.56,.52,7.56c0,0-1.34,4.21-.56,8.07,.32,1.56-.94,4.79-.08,6.4,1.36,2.53,2.91,2.04,4.48,2.53,2.79,.86,33.77,6.34,34.25,6.01s2.29-.25,3.14-1.68,2.32-6.98,2.73-7.34,.53,.36,3.79,1.81,15.37,8.08,25.35,10.25c9.99,2.17,17.58,6.52,49.42,2.9,31.84-3.62,26.41-12.31,26.41-12.31l-2.77-3.98s2.52-4.45,.9-11.69-7.09-15.08-12.11-17.38-13.35-6.75-29.23-2.77c-9.24,3.98-15.15,6.77-15.15,6.77,0,0-9.8-4.68-15.93-4.7-5.65-4-9.01-8.78-9.01-8.78,0,0,6.85-2.56,5.28-7.09s-8.09-6.49-11.97-1.54-3.18,3.98-3.18,3.98c0,0,3.03-12.03-.49-15.65s-10.07-3.62-17.95,.9C25.17,1.98,16.02,1.3,12.87,1.82c-4.14,.69-8.56,1.44-7.84,5.59Z" fill="#bab6b3"/>
  </g>
  <g id="_Слой_4" data-name="Слой 4">
    <path d="M56.8,30.53c.78-2.29,2.27-4.3,4.23-5.68,.41,.11,.82,.21,1.23,.32,0,3.12-3.25,4.87-4.57,7.47-.45,.68-.68,1.65,.07,2.18,1.99,.74,4.23-4.59,5.8-5.84,.7-.86,2.1-1.48,2.44-.34,.8,2.74-2.15,4.4-2.63,6.89-.36,3.01-3.56-1.28-4.01,1.45-.17,1.09,.01,2.29,1.46,2.52,5.02,1.09,4.93-10.94,8.5-9.75,1.98,.66,2.77,2.54,5.8,3.5,2.52-.36,18.07,1.99,11.8,7.33-.89,1.48-4.51,3.31-3.05,5.15,.64,.46,1.05-.09,1.46-.56,14.62-18.09,51.75-23.25,60.42,2.58,1.85,6.63,.07,14.31-7.74,17.19-30.93,10.77-64.59,3.56-93.28-10.39C16.1,43.67-8,60.96,5.54,24.59c1.28-4.36,2.1-8.74,1.89-13.27-.11-2.3,.28-3.02,2.83-2.07,10.15,3.5,28.57,7.63,37.3-.22,2.65-2.37,5.96,5.32,7.14,7.21,.79,1.64,.3,2.65-1.7,2.76-3.37,.18-6.4,1.38-9.23,3.19-2.5,1.59-3.21,3.9-2.3,6.48,1.96,5.36,8.51,2.71,12.26,.92,.4,1.3,.24,2.47-.46,3.51-2.04,3.34,3.9,4.28,3.55-2.55Zm63.66,6.6c-1.86,.34-5.7-1.09-5.92,1.66,.08,1.91,1.74,1.28,2.78,1.18,8.52-.82,15.79,.66,19.07,9.91,.21,.58,.56,1.1,1.31,.93,1.91-.96,.68-3.91-.13-5.34-3.95-6.37-10.01-8.44-17.11-8.34Z" fill="#df2f34"/>
    <path d="M84.51,76.27c-8.81-1.49-17.44-4-25.61-7.61-3.98-1.81-7.74-4.11-11.66-6.07-3.12-1.56-3.61-1.29-4.62,2-2.02,6.55-2,6.47-8.72,5.22-9.5-1.77-19.01-3.5-28.55-5.03-2.58-.41-3.8-1.34-4.03-4.02,.24-3.84-1.76-9.15,1.58-11.94,17.09,4.07,35.45,2.63,51.36,11.25,21.95,12,71.37,18.43,91.43,1.39,19.28,17.74-53.38,17.84-61.17,14.82Z" fill="#262622"/>
    <path d="M19.32,3.27c6.16,.74,23.13-.43,24.63,5.73-.03,1.76-2.15,1.67-3.56,1.89C30.48,14.72-12.62,4.23,19.32,3.27Z" fill="#2f2d29"/>
    <path d="M55.49,13.55c-8.33-13.74-8.64-1.37-12.63-8.44-1.31-3.39,8.53-3.94,10.58-2.65,3.93,1.84,1.35,7.18,2.05,11.09Z" fill="#b51f25"/>
    <path d="M54.99,22.22c.1,.18,.21,.36,.31,.53-9.15,14.24-17.76-.62-.31-.53Z" fill="#b51f25"/>
    <path d="M61.04,24.85c-.17,.1-.34,.2-.51,.3,.17-.1,.34-.2,.51-.3Z" fill="#c4a7a4"/>
    <path d="M120.46,37.13c7.09-.09,13.15,1.97,17.11,8.34,.83,1.44,2.03,4.38,.13,5.34-.75,.17-1.1-.35-1.31-.93-3.27-9.25-10.55-10.73-19.07-9.91-1.04,.1-2.7,.73-2.78-1.18,.22-2.76,4.08-1.32,5.92-1.66Z" fill="#f0efef"/>
    <path d="M59.64,19.5c.04-.22,.08-.44,.12-.66,13.63-11.98,10.25,6.44-.12,.66Z" fill="#fff"/>
  </g>
</svg>