<?xml version="1.0" encoding="UTF-8"?>
<svg id="_Слой_2" data-name="Слой 2" xmlns="http://www.w3.org/2000/svg" viewBox="0 0 104.75 85.04">
  <g id="_Слой_2-2" data-name="Слой 2">
    <path d="M89.98,84.81c-3.54-.29-7-.88-10.18-2.56-.34,.45-.64,.86-.94,1.26-3.4,.11-6.7-.17-10.18-.72,.07-.99,.04-1.87,.2-2.72,.38-2.05,.87-4.07,1.25-6.12,.2-1.11,.3-2.24-.21-3.37-1.35,.18-2.58,.42-3.82,.5-1.86,.12-3.74,.24-5.6,.17-1.29-.05-1.59-.48-1.76-1.76-1.16-8.63-2.32-17.26-3.45-25.89-.9-6.82-1.76-13.64-2.68-20.73-.18,.71-.33,1.15-.4,1.61-.66,4.85-1.32,9.71-1.97,14.57-.78,5.89-1.56,11.78-2.33,17.68-.51,3.92-.99,7.85-1.49,11.78-.12,.94-.28,1.86-1.26,2.68-3.39-.22-6.96-.45-10.66-.69-.1,.66-.3,1.23-.24,1.76,.21,1.7,.48,3.39,.79,5.07,.31,1.67,.49,3.26,.76,5.39-.58,.16-1.2,.1-1.76,.16-2.07,.22-4.15,.33-6.22,.6-.37,.03-1.53-.9-2.78-1.46-.72,.34-1.37,.66-2.04,.95-2.81,1.23-5.8,1.61-8.82,1.85-2.83,.14-6.12,.49-9.28-.13-1.93-.27-3.04-.87-4.89-1.54,0-.52-.01-3.24,.24-3.93,1.02-2.8,2.57-3.91,5.51-3.88,.83,0,1.66,.11,2.48,.23,.77,.11,1.56,.22,2.29,.49,3.76,1.38,7.15,.35,10.52-1.51-.3-.12-.54-.19-.75-.3-.26-.14-.5-.32-.74-.48,.59-1.41,.94-1.68,2.18-1.59,.51,.04,1.02,.2,1.51,.35,1.18,.35,1.79,.14,2.21-1,.27-.71,.33-1.5,.51-2.34-2.32-.57-4.54-1.1-6.75-1.68-3.98-1.05-7.89-2.32-11.45-4.45-1.42-.85-2.79-1.81-3.7-3.29,.14-.37,.26-.72,.41-1.05,5.24-12.35,10.47-24.71,15.73-37.06,2.69-6.32,5.44-12.61,8.16-18.91C29,1.26,29.93,.14,31.66,0c1.82,0,3.63,0,5.45,0,.4,0,.8,.01,1.2,.02,3.23,.34,6.37,.98,9.38,2.24,1.72,.71,2.84,1.9,3.45,3.6,.3,.83,.47,1.7,.71,2.56,.14,.51,.31,1.02,.46,1.52,.6-1.36,.94-2.7,1.32-4.03,.43-1.54,1.33-2.69,2.82-3.34C61.66,.32,67.06-.39,72.67,.52c1.32,.21,2.35,.87,3.06,1.97,.47,.74,.85,1.55,1.2,2.35,.75,1.72,1.44,3.46,2.19,5.17,6.22,14.26,12.44,28.51,18.66,42.77,.91,2.09,1.82,4.19,2.77,6.36-.55,.69-.96,1.46-1.59,1.95-1.22,.96-2.51,1.88-3.88,2.61-3.56,1.88-7.42,2.98-11.27,4.1-1.69,.49-3.37,.98-5.01,1.45-.04,.31-.07,.46-.07,.61,.1,2.45,.74,2.95,3.11,2.54,.66-.11,1.35-.19,2.01-.11,1.02,.13,1.25,.52,1.25,1.76-.36,.22-.74,.44-1.33,.8,1.5,.53,2.75,1.02,4.03,1.41,2.26,.68,4.51,.68,6.72-.3,1.51-.67,3.13-.77,4.76-.61,2.52,.24,4.51,1.81,5.08,4,.16,.6,.1,3.3,.4,3.81-1.14,.76-3.16,1.35-5.29,1.6-4.05,.44-6.35,.18-9.48,.06Zm-13.52-16.82c-5.07-21.87-10.08-43.47-15.1-65.11-.49,.04-.8,.04-1.1,.1-.29,.06-.58,.18-.93,.29,4.03,21.88,8.04,43.69,12.08,65.64,1.68-.31,3.2-.58,5.05-.92ZM45.5,3.29c-.78-.25-1.41-.46-2.13-.69-4.8,21.8-10.7,43.25-14.74,65.24,1.58,.28,2.99,.78,4.54,.54,4.12-21.73,8.21-43.37,12.33-65.09ZM15.38,64.56C22.75,43.51,30.06,22.64,37.4,1.71c-.47-.08-.78-.15-1.09-.18-.29-.03-.59,0-.93,0C27.28,21.98,19.03,42.3,11.64,63.02c.3,.15,.52,.28,.76,.37,.92,.37,1.84,.72,2.98,1.17ZM67.4,1.99c7.31,20.85,14.37,41.67,22.01,62.45,1.4-.6,2.62-1.12,3.94-1.68-8.04-20.39-16.01-40.61-23.97-60.77h-1.99Zm-4.04,.43c5.88,21.53,11.74,42.96,17.64,64.58,1.36-.38,2.67-.75,4.01-1.13-6.6-21.37-13.14-42.53-19.7-63.73-.72,.1-1.27,.18-1.96,.28Zm-23.83-.49c-3.54,9.63-19.33,61.82-19.38,64.14,1.16,.29,2.36,.59,3.55,.89C29.59,45.31,35.44,23.81,41.31,2.22c-.7-.12-1.21-.2-1.79-.3Zm31.11,77.3c2.26,.83,5.58,.73,6.94-.19,.13,.05,.29,.09,.41,.18,3.8,2.76,8.05,4.07,12.73,3.94,2.92-.08,5.84-.12,8.75-.34,1.26-.09,2.49-.58,3.74-.88,0-.47,0-.72,0-.98-.01-2.37-1.4-4.52-4.52-4.42-1.89,.06-3.71,.39-5.53,.85-1.16,.3-2.29,.53-3.52,.18-1.69-.48-3.42-.81-5.07-1.19-.62,.68-1.16,1.27-1.79,1.97-.66-1.19,.73-1.41,.65-2.34-.36-.18-.81-.4-1.25-.62-.53,.34-1,.64-1.43,.91-.11,.45-.19,.82-.29,1.24-1.08-.44-.72-1.25-.77-1.9,.36-.39,.69-.75,1-1.09-.55-1.04-1.32-.7-1.93-.39-1.48,.77-3.05,.6-4.6,.51-.92-.05-1.83-.25-2.77-.38-.79,1.63-.88,3.22-.76,4.94ZM1.37,81.79c2.21,.84,4.5,1.26,6.83,1.35,3.23,.12,6.44-.1,9.65-.51,2.93-.38,5.53-1.35,7.93-3,.46-.32,.98-.56,1.47-.83,.4,.38,.72,.69,1.1,1.06,1.85-.17,3.69-.33,5.52-.49,.16-1.86-.2-3.4-.96-4.98-.62,.03-1.25-.03-1.85,.1-1.83,.42-3.6,.47-5.31-.45-.75-.4-1.35-.28-1.93,.45,.7,.49,1.33,.93,1.91,1.33q-.02,1.34-.88,1.61c-.05-.5-.09-1-.14-1.58-1.11-.35-2.15-.24-3.18-.07-.14,.99,1.49,1.55,.35,2.77-.48-.82-.89-1.53-1.33-2.28-.37,.11-.71,.19-1.05,.31-3.28,1.15-6.58,1.42-9.95,.35-.93-.29-1.93-.5-2.9-.54-1.36-.07-2.71,.1-3.83,1.01-1.42,1.14-1.7,2.65-1.44,4.41Zm38.82-12.39c.75-5.19,1.47-10.14,2.19-15.09,.78-5.36,1.55-10.73,2.35-16.09,.78-5.26,1.58-10.51,2.38-15.76,.71-4.63,1.43-9.26,2.12-13.9,.11-.72,.13-1.46,.07-2.18-.08-.86-.49-1.55-1.45-1.79-3.75,21.5-7.45,42.94-10.63,64.67,1.1,.06,1.96,.1,2.98,.16Zm27.36-.01c-3.54-21.82-7.04-43.36-10.57-65.1-.48,.28-.74,.41-.98,.59-.24,.18-.45,.41-.71,.64,3.09,21.38,6.18,42.72,9.29,64.2,1.07-.12,1.92-.22,2.96-.33ZM8.2,60.94C16.25,41.25,24.32,21.54,32.47,1.62c-.77,.16-1.3,.28-2,.43C22.3,21.18,14.14,40.3,5.98,59.41c.47,.87,1.08,1.46,2.22,1.53ZM72.3,2.26c8.08,19.68,16.04,39.15,24.54,58.66,.71-.61,1.23-1.06,1.77-1.53-1.28-3.12-2.46-6.12-3.74-9.07-4.57-10.55-9.16-21.09-13.75-31.62-2.12-4.86-4.25-9.72-6.37-14.59-.43-1-.96-1.82-2.45-1.84Zm-27.81,67.21c.41-2.97,.8-5.76,1.18-8.55,.79-5.95,1.58-11.89,2.36-17.84,.6-4.55,1.2-9.1,1.78-13.66,.51-4.03,1.06-8.07,1.45-12.11,.19-1.95,.04-3.94-.6-6.19-2.6,19.66-5.87,38.88-8.14,58.34h1.97ZM54.25,10.92c-.75,1.5-1,3.14-.8,4.81,.75,6.16,1.55,12.31,2.34,18.46,1.27,9.93,2.55,19.86,3.84,29.78,.25,1.9,.57,3.79,.86,5.69h1.92c-2.73-19.64-5.44-39.19-8.15-58.74Zm17.18,62.28c2.38,.65,4.56,1.4,6.85-.03-.26-1.29-.51-2.53-.76-3.8-2.24,.4-4.26,.76-6.37,1.14,.1,.95,.19,1.76,.29,2.69Zm-44.35-3.88c-.28,1.37-.53,2.57-.79,3.8,2.38,1.5,4.5,.48,6.61-.08,.12-.97,.22-1.79,.34-2.77-2.04-.31-4.02-.62-6.17-.95Zm55.74,4.33c-.33-.65-.52-.42-.71,.07,.2-.02,.4-.04,.71-.07Zm-60.05-.18c0-.07-.01-.14-.02-.21h-1.23c0,.12,.02,.24,.03,.36,.41-.05,.82-.09,1.23-.14Z" fill="#131213"/>
    <path d="M76.46,67.99c-1.85,.34-3.36,.62-5.05,.92-4.04-21.96-8.05-43.76-12.08-65.64,.35-.11,.63-.23,.93-.29,.3-.06,.61-.06,1.1-.1,5.02,21.64,10.02,43.23,15.1,65.11Z" fill="#f0efef"/>
    <path d="M45.5,3.29c-4.12,21.73-8.22,43.37-12.33,65.09-1.54,.24-2.96-.26-4.54-.54,4.05-21.99,9.94-43.44,14.74-65.24,.72,.23,1.34,.43,2.13,.69Z" fill="#f0efef"/>
    <path d="M15.38,64.56c-1.14-.45-2.06-.8-2.98-1.17-.23-.09-.46-.22-.76-.37C19.03,42.3,27.28,21.98,35.38,1.53c.34,0,.64-.02,.93,0,.31,.03,.61,.1,1.09,.18-7.33,20.93-14.65,41.8-22.02,62.85Z" fill="#f0efef"/>
    <path d="M67.4,1.99h1.99c7.95,20.16,15.92,40.38,23.97,60.77-1.32,.56-2.54,1.09-3.94,1.68-7.65-20.78-14.7-41.61-22.01-62.45Z" fill="#f0efef"/>
    <path d="M63.36,2.41c.69-.1,1.23-.18,1.96-.28,6.55,21.21,13.09,42.37,19.7,63.73-1.34,.38-2.65,.74-4.01,1.13-5.91-21.63-11.76-43.05-17.64-64.58Z" fill="#f0efef"/>
    <path d="M39.53,1.92c.58,.1,1.08,.18,1.79,.3-5.88,21.6-11.72,43.09-17.61,64.73-1.19-.3-2.39-.6-3.55-.89,.05-2.32,15.83-54.51,19.38-64.14Z" fill="#f0efef"/>
    <path d="M70.64,79.22c-.12-1.72-.03-3.31,.76-4.94,.94,.13,1.85,.32,2.77,.38,1.55,.09,3.11,.26,4.6-.51,.61-.32,1.38-.65,1.93,.39-.31,.34-.64,.7-1,1.09,.05,.66-.3,1.46,.77,1.9,.1-.42,.19-.78,.29-1.24,.43-.27,.9-.58,1.43-.91,.45,.22,.89,.44,1.25,.62,.09,.94-1.3,1.15-.65,2.34,.63-.69,1.17-1.29,1.79-1.97,1.66,.38,3.38,.71,5.07,1.19,1.22,.35,2.35,.12,3.52-.18,1.81-.46,3.63-.79,5.53-.85,3.12-.1,4.5,2.05,4.52,4.42,0,.26,0,.51,0,.98-1.25,.31-2.48,.79-3.74,.88-2.91,.21-5.83,.25-8.75,.34-4.69,.13-8.93-1.18-12.73-3.94-.12-.09-.28-.12-.41-.18-1.36,.92-4.68,1.02-6.94,.19Z" fill="#df2f34"/>
    <path d="M1.37,81.79c-.26-1.76,.03-3.28,1.44-4.41,1.12-.9,2.48-1.07,3.83-1.01,.97,.05,1.97,.25,2.9,.54,3.37,1.07,6.67,.79,9.95-.35,.34-.12,.68-.2,1.05-.31,.44,.75,.85,1.46,1.33,2.28,1.14-1.22-.49-1.78-.35-2.77,1.03-.17,2.07-.28,3.18,.07,.05,.58,.1,1.07,.14,1.58q.87-.27,.88-1.61c-.58-.4-1.21-.84-1.91-1.33,.57-.73,1.18-.85,1.93-.45,1.7,.92,3.48,.87,5.31,.45,.59-.13,1.23-.07,1.85-.1,.76,1.58,1.12,3.12,.96,4.98-1.82,.16-3.67,.33-5.52,.49-.38-.36-.71-.68-1.1-1.06-.49,.28-1.01,.51-1.47,.83-2.4,1.66-4.99,2.63-7.93,3-3.22,.42-6.43,.63-9.65,.51-2.33-.09-4.62-.51-6.83-1.35Z" fill="#df2f34"/>
    <path d="M40.18,69.4c-1.02-.05-1.88-.1-2.98-.16,3.18-21.73,6.88-43.17,10.63-64.67,.97,.24,1.37,.93,1.45,1.79,.07,.72,.04,1.47-.07,2.18-.69,4.64-1.42,9.27-2.12,13.9-.8,5.25-1.6,10.51-2.38,15.76-.79,5.36-1.57,10.73-2.35,16.09-.72,4.95-1.44,9.9-2.19,15.09Z" fill="#f0efef"/>
    <path d="M67.55,69.39c-1.04,.12-1.89,.21-2.96,.33-3.11-21.48-6.2-42.82-9.29-64.2,.25-.24,.46-.46,.71-.64,.23-.18,.5-.31,.98-.59,3.53,21.75,7.02,43.28,10.57,65.1Z" fill="#f0efef"/>
    <path d="M8.2,60.94c-1.14-.07-1.74-.66-2.22-1.53C14.14,40.3,22.3,21.18,30.47,2.05c.7-.15,1.24-.26,2-.43C24.32,21.54,16.25,41.25,8.2,60.94Z" fill="#f0efef"/>
    <path d="M72.3,2.26c1.49,.02,2.02,.85,2.45,1.84,2.11,4.87,4.25,9.72,6.37,14.59,4.59,10.54,9.19,21.07,13.75,31.62,1.28,2.95,2.46,5.95,3.74,9.07-.54,.47-1.06,.92-1.77,1.53-8.5-19.51-16.46-38.98-24.54-58.66Z" fill="#f0efef"/>
    <path d="M44.49,69.47h-1.97c2.26-19.46,5.53-38.68,8.14-58.34,.65,2.25,.79,4.23,.6,6.19-.39,4.05-.94,8.08-1.45,12.11-.58,4.55-1.18,9.1-1.78,13.66-.78,5.95-1.57,11.89-2.36,17.84-.37,2.79-.77,5.58-1.18,8.55Z" fill="#f0efef"/>
    <path d="M54.25,10.92c2.71,19.55,5.43,39.1,8.15,58.74h-1.92c-.29-1.9-.61-3.79-.86-5.69-1.29-9.93-2.57-19.85-3.84-29.78-.79-6.15-1.58-12.3-2.34-18.46-.2-1.67,.05-3.3,.8-4.81Z" fill="#f0efef"/>
    <path d="M71.43,73.2c-.1-.93-.19-1.74-.29-2.69,2.12-.38,4.14-.74,6.37-1.14,.25,1.27,.5,2.51,.76,3.8-2.29,1.43-4.47,.67-6.85,.03Z" fill="#f0efef"/>
    <path d="M27.08,69.33c2.14,.33,4.12,.64,6.17,.95-.12,.98-.22,1.8-.34,2.77-2.12,.56-4.23,1.58-6.61,.08,.25-1.23,.5-2.43,.79-3.8Z" fill="#f0efef"/>
  </g>
</svg>