<?xml version="1.0" encoding="UTF-8"?>
<svg id="_Слой_2" data-name="Слой 2" xmlns="http://www.w3.org/2000/svg" viewBox="0 0 85.04 85.04">
  <g id="_Слой_3" data-name="Слой 3">
    <circle cx="42.52" cy="42.52" r="42.52" fill="#df2f34"/>
    <path d="M53.95,11.19c4.54,1.41,9.08,3.09,12.1,7.38,1.02,1.46,.12,2.61-.65,3.48-.87,.98-1.6-.36-2.15-.83-3.14-2.7-6.67-4.73-10.5-6.24-1.24-.49-1.83-1.25-1.45-2.51,.35-1.17,1.44-1.21,2.65-1.29Z" fill="#f0efef"/>
    <path d="M72.8,38.24c-1.42-.11-2.38-.83-2.45-2.36-.06-1.53,.84-2.4,2.31-2.54,1.48-.15,2.61,.52,2.67,2.08,.06,1.57-.86,2.56-2.53,2.83Z" fill="#f0efef"/>
  </g>
</svg>