<?xml version="1.0" encoding="UTF-8"?>
<svg id="_Слой_2" data-name="Слой 2" xmlns="http://www.w3.org/2000/svg" viewBox="0 0 141.73 57.78">
  <g id="_Слой_2-2" data-name="Слой 2">
    <g>
      <path d="M30.97,37.03c-6.91,1.68,3.04-23.38,2.96-27.46-4.94,7.65-8.73,19.86-17.25,24.11-8.46-.13-.41-16.81-.46-21.32-4.84,7.59-8.83,17.97-13.92,25.15-4.24-1.34-1.5-6.8,.34-9.02,3.5-6.78,8.3-15.23,12.06-21.37,.87-1.69,1.9-5.04,4.08-3.91,6.42,3.33-2.25,19.12-1.14,24.74,6.05-6.37,9.39-15.18,14.65-23,1.4-2.66,3.24-4.55,5.68-1.94,2.91,2.51-1.92,13.7-2.52,17.76-1.12,3.52-1.35,6.09-2.09,9.61-.25,2.45,.24,5.91-2.38,6.65Z"/>
      <path d="M57.21,39.21c-1.48-.6-2.49-1.7-2.13-3.3,3.73-7.7,7.07-17.91,10.38-26.34-6.4,7.2-12.49,15.57-19.33,22.24-1.58,1.43-3.5,3.44-5.55,4.1-2.14-.37-3.1-1.14-2.64-3.03,2.93-10.18,5.41-20.35,10.31-29.81,.7-1.14,.11-2.16,1.02-2.81,2.31-1.11,4.32,1.63,3.35,3.78-2.69,6.63-7.01,18.23-9.61,24.79,2.52-2.59,10.96-10.62,12.91-13.44,3.38-4.43,8.89-9.42,12.56-13.58,1.52-.89,3.11-.5,3.61,1.29-2.31,9-7.32,18.1-9.9,27.26-.94,1.69-2.68,10.18-4.97,8.85Z"/>
      <path d="M69.48,36.98c-1.88-.85-1.6-2.67-1.16-4.37,2.93-8.68,5.85-18.24,9.9-26.68,.45-.54,.82-2.29,1.46-2.86,2.38-1.44,3.61-.41,3.74,1.97-1.37,3.92-4.19,8.49-5.29,12.49-1.26,3.03-2.79,6.66-3.69,10.02-.91,1.62-2.42,12.1-4.95,9.44Zm5.92-18.63c3.28-1.35,20.83-19.66,22.05-13.56,.67,1.49,.44,2.09-1.09,2.89-4.35,2.34-8.06,6.02-11.69,8.39-2.16,2.19-5.33,3.66-7.52,5.92l-1.75-3.64Zm11.26,18.53c-5.94-2.18-9.32-9.49-10.38-15.38,0,0,.05-3.01,.05-3.01l3.54-.24c.59,5.52,3.07,12.1,8.2,14.31,3.49,.82,2.01,6.33-1.41,4.32Z"/>
      <path d="M97.48,36.4c-7.67-4.2-1.96-19.26,1.6-25.47,2.37-4.24,6.7-7.81,10.58-8.64,19.59-4.18,1.76,41.03-12.18,34.11Zm9.98-16.45c3.66-.01,9.7-13.49,3.87-13.23-2.84,1.21-8.51,12.36-3.87,13.23Z" fill="#df2f34"/>
      <path d="M123.63,37.9c-15.09-5.24,2.6-40.67,15.28-36.7,6.06,2.42,.78,15.82-2.59,14.29-.87-.23-2.62-1.5-2.01-2.18,.82-1.07,1.95-3.18,2.43-4.46,3.5-12.91-15.39,9.17-14.17,18.46-.93,11.45,8.32,3.48,13.53,1.28,6.31,2.26-9.68,10.68-12.47,9.32Z"/>
    </g>
    <g>
      <path d="M0,46.98H8.6v1.48H0v-1.48Zm3.37,.65h1.86v7.54h-1.86v-7.54Z"/>
      <path d="M13.86,55.38c-3.51,.27-6.18-3.5-4.29-6.55,2.47-3.86,9.02-1.9,8.51,2.92h-7.64v-1.43h6.71l-.93,.54c.1-2.7-3.75-3.53-5-1.32-1.93,4.24,3.98,5.52,6.64,3.25v1.36c-1.04,.82-2.63,1.25-3.99,1.25Z"/>
      <path d="M27.76,51.08c-.49,5.38-8.71,5.8-8.57,0-.15-5.8,8.12-5.38,8.57,0Zm-6.68,0c0,3.96,5.28,3.28,6.02,0-.74-3.28-6.02-3.96-6.02,0Zm6.11,4.1l-.32-3.04,.37-1.06-.37-1.04,.32-3.05h1.92l-.43,4.1,.43,4.1h-1.92Z"/>
      <path d="M30.09,46.98h8.6v1.48h-8.6v-1.48Zm3.37,.65h1.86v7.54h-1.86v-7.54Z"/>
      <path d="M39.87,46.98h1.86c-.07,2.99,0,7.54,0,10.58h-1.86v-10.58Zm1.15,4.1c.48-5.38,8.72-5.8,8.57,0,.13,5.8-8.08,5.37-8.57,0Zm6.68,0c0-3.96-5.27-3.28-6.02,0,.76,3.28,6.01,3.96,6.02,0Z"/>
      <path d="M54.94,55.18v-8.19h1.86v6.6l-.56-.2,5.18-6.4h2.12l-6.88,8.19h-1.72Zm6.68,0l-2.52-4.05,1.3-1.19,3.4,5.24h-2.18Z"/>
      <path d="M66.15,46.98h7.99v8.19h-1.86v-7.61l.86,.87h-6.05l.8-.67c.41,3.13,.57,9.18-3.99,7.21v-1.4c3.57,1.23,2.29-4.42,2.25-6.59Z"/>
      <path d="M80.6,55.38c-6.49,.31-6.5-8.91,0-8.6,6.49-.31,6.49,8.91,0,8.6Zm0-1.48c4,.31,4-5.96,0-5.65-4-.3-4,5.95,0,5.65Z"/>
      <path d="M89.52,54.92l-3.73-7.93h2.05l3.53,7.93h-1.85Zm-.93,2.85c-.9,0-1.65-.23-2.38-.68v-1.43c1.23,.83,3.28,1.14,3.96-.54,0,0,3.66-8.14,3.66-8.14h1.98c-1.51,2.03-3.77,11.21-7.21,10.78Z"/>
      <path d="M96.89,46.98h1.85v8.19h-1.85v-8.19Zm1.05,3.31h6.62v1.45h-6.62v-1.45Zm5.85-3.31h1.85v8.19h-1.85v-8.19Z"/>
      <path d="M115.75,51.08c-.49,5.38-8.71,5.8-8.57,0-.15-5.8,8.12-5.38,8.57,0Zm-6.68,0c0,3.96,5.28,3.28,6.02,0-.74-3.28-6.02-3.96-6.02,0Zm6.11,4.1l-.32-3.04,.37-1.06-.37-1.04,.32-3.05h1.92l-.43,4.1,.43,4.1h-1.92Z"/>
      <path d="M129.4,53.73v3.52h-1.62v-2.07h-8.11v2.07h-1.62v-3.52c3.16,.04,8.2,.03,11.35,0Zm-9.55-6.75h8.04v7.64h-1.86v-7.06l.86,.87h-6.06l.8-.64c.12,2.27,.61,6.4-2.04,6.83l-.76-.65c1.35-.79,1.28-4.96,1.02-6.99Z"/>
      <path d="M130.75,55.18v-8.19h1.86v7.67l-.66-.87c1.29-.23,5.17,.82,5.09-1.43,.1-2.26-3.75-1.22-5.03-1.45v-1.35c1.2,.09,4.34-.25,5.38,.35,2.05,.86,2.05,4.06,0,4.91-1.06,.64-5.41,.24-6.64,.35Zm9.12-8.19h1.86v8.19h-1.86v-8.19Z"/>
    </g>
  </g>
</svg>