<?xml version="1.0" encoding="UTF-8"?>
<svg id="_Слой_2" data-name="Слой 2" xmlns="http://www.w3.org/2000/svg" viewBox="0 0 141.73 39.38">
  <g id="_Слой_2-2" data-name="Слой 2">
    <g>
      <path d="M30.94,37.06c-6.92,1.68,3.04-23.4,2.96-27.48-4.95,7.66-8.73,19.87-17.26,24.13-8.46-.13-.41-16.82-.46-21.34-4.84,7.59-8.84,17.99-13.93,25.17-4.24-1.34-1.5-6.81,.34-9.03,3.5-6.78,8.31-15.24,12.06-21.39,.87-1.69,1.91-5.05,4.08-3.91,6.42,3.33-2.25,19.13-1.14,24.76,6.05-6.38,9.39-15.19,14.66-23.01,1.4-2.67,3.25-4.55,5.68-1.94,2.91,2.51-1.93,13.71-2.52,17.77-1.12,3.53-1.35,6.09-2.09,9.61-.25,2.46,.24,5.91-2.38,6.65Z"/>
      <path d="M57.2,39.24c-1.48-.6-2.49-1.7-2.14-3.3,3.73-7.7,7.08-17.92,10.39-26.36-6.4,7.21-12.5,15.59-19.35,22.26-1.58,1.43-3.5,3.44-5.56,4.1-2.14-.37-3.11-1.14-2.65-3.03,2.94-10.19,5.41-20.37,10.32-29.83,.7-1.14,.11-2.16,1.02-2.82,2.31-1.12,4.33,1.63,3.35,3.79-2.69,6.63-7.01,18.24-9.61,24.81,2.52-2.59,10.96-10.63,12.91-13.45,3.38-4.43,8.9-9.43,12.57-13.59,1.52-.89,3.11-.5,3.62,1.29-2.31,9.01-7.32,18.11-9.9,27.28-.94,1.69-2.68,10.19-4.98,8.86Z"/>
      <path d="M69.48,37.01c-1.88-.85-1.6-2.68-1.17-4.37,2.93-8.69,5.86-18.25,9.9-26.7,.45-.54,.82-2.29,1.46-2.86,2.38-1.44,3.61-.41,3.74,1.97-1.37,3.92-4.19,8.5-5.29,12.5-1.26,3.03-2.79,6.66-3.69,10.03-.92,1.62-2.42,12.11-4.95,9.44Zm5.92-18.64c3.28-1.35,20.85-19.67,22.06-13.57,.67,1.49,.44,2.09-1.09,2.89-4.36,2.34-8.07,6.03-11.7,8.4-2.16,2.19-5.34,3.66-7.53,5.92l-1.75-3.64Zm11.26,18.55c-5.94-2.18-9.33-9.5-10.39-15.39,0,0,.05-3.01,.05-3.01l3.54-.24c.59,5.53,3.07,12.11,8.2,14.32,3.5,.82,2.01,6.34-1.41,4.32Z"/>
      <path d="M97.5,36.43c-7.67-4.2-1.96-19.27,1.6-25.49,2.37-4.25,6.71-7.81,10.58-8.64,19.61-4.18,1.77,41.06-12.19,34.13Zm9.99-16.46c3.67-.01,9.71-13.5,3.88-13.24-2.84,1.21-8.51,12.37-3.88,13.24Z" fill="#df2f34"/>
      <path d="M123.66,37.93c-15.1-5.25,2.6-40.7,15.29-36.73,6.07,2.42,.78,15.83-2.6,14.3-.87-.23-2.63-1.5-2.02-2.19,.82-1.07,1.95-3.18,2.43-4.47,3.5-12.92-15.4,9.18-14.18,18.47-.93,11.46,8.33,3.48,13.54,1.29,6.32,2.26-9.69,10.68-12.48,9.32Z"/>
    </g>
  </g>
</svg>