<?xml version="1.0" encoding="UTF-8"?>
<svg id="_Слой_2" data-name="Слой 2" xmlns="http://www.w3.org/2000/svg" viewBox="0 0 183.14 251.5">
  <g id="_Слой_1-2" data-name="Слой 1">
    <g>
      <path d="M156.74,181.35c-6.17-.5-12.2-1.54-17.74-4.45-.59,.79-1.12,1.49-1.64,2.19-5.92,.2-11.67-.29-17.74-1.25,.11-1.73,.07-3.26,.34-4.74,.66-3.57,1.52-7.09,2.18-10.66,.36-1.93,.52-3.9-.36-5.87-2.35,.32-4.5,.72-6.66,.87-3.25,.21-6.52,.42-9.76,.29-2.25-.09-2.77-.84-3.07-3.07-2.02-15.03-4.04-30.06-6.02-45.1-1.56-11.88-3.07-23.76-4.66-36.12-.31,1.24-.58,2.01-.69,2.81-1.16,8.46-2.3,16.92-3.42,25.38-1.37,10.26-2.72,20.53-4.06,30.79-.89,6.84-1.73,13.68-2.6,20.52-.21,1.63-.48,3.25-2.2,4.67-5.91-.38-12.13-.78-18.57-1.2-.17,1.16-.53,2.14-.42,3.07,.36,2.96,.84,5.9,1.37,8.83,.53,2.91,.86,5.68,1.33,9.39-1.01,.27-2.1,.17-3.07,.28-3.61,.38-7.24,.57-10.83,1.04-.65,.05-2.66-1.56-4.85-2.55-1.26,.59-2.39,1.15-3.56,1.66-4.9,2.15-10.11,2.8-15.37,3.22-4.92,.25-10.66,.85-16.17-.22-3.36-.47-5.3-1.51-8.52-2.67,0-.91-.02-5.64,.42-6.85,1.77-4.87,4.48-6.82,9.61-6.76,1.44,.02,2.9,.19,4.33,.4,1.34,.2,2.72,.39,3.99,.85,6.55,2.4,12.46,.61,18.33-2.64-.52-.21-.94-.33-1.31-.53-.46-.25-.88-.57-1.29-.84,1.03-2.45,1.64-2.93,3.79-2.77,.89,.06,1.77,.35,2.63,.6,2.05,.61,3.11,.24,3.85-1.74,.46-1.24,.58-2.61,.88-4.07-4.04-1-7.91-1.91-11.75-2.92-6.94-1.83-13.75-4.04-19.95-7.76-2.48-1.49-4.87-3.16-6.44-5.73,.25-.65,.46-1.25,.71-1.83,9.13-21.52,18.23-43.05,27.4-64.55,4.69-11,9.48-21.97,14.21-32.95,1.11-2.57,2.72-4.51,5.74-4.74,3.16,0,6.32-.01,9.49-.02,.7,.01,1.4,.02,2.09,.04,5.62,.59,11.09,1.71,16.35,3.9,2.99,1.24,4.95,3.31,6.01,6.27,.52,1.45,.82,2.97,1.24,4.45,.25,.89,.53,1.77,.8,2.65,1.05-2.37,1.64-4.7,2.29-7.01,.75-2.68,2.31-4.69,4.92-5.82,9.07-3.92,18.48-5.15,28.24-3.58,2.29,.37,4.1,1.51,5.32,3.44,.82,1.29,1.48,2.7,2.09,4.1,1.31,2.99,2.51,6.02,3.81,9.01,10.83,24.84,21.67,49.67,32.5,74.5,1.59,3.64,3.17,7.29,4.82,11.08-.95,1.19-1.68,2.54-2.78,3.4-2.13,1.67-4.37,3.28-6.75,4.55-6.2,3.28-12.93,5.19-19.64,7.14-2.94,.85-5.87,1.7-8.73,2.53-.06,.54-.13,.81-.12,1.07,.18,4.26,1.28,5.13,5.42,4.43,1.15-.19,2.36-.34,3.5-.19,1.78,.22,2.17,.9,2.18,3.06-.63,.38-1.28,.77-2.31,1.39,2.61,.92,4.79,1.78,7.02,2.45,3.94,1.18,7.85,1.19,11.7-.53,2.63-1.18,5.46-1.34,8.29-1.07,4.39,.42,7.86,3.16,8.85,6.96,.27,1.04,.17,5.75,.7,6.63-1.99,1.32-5.5,2.36-9.22,2.78-7.06,.76-11.06,.32-16.51,.11Zm-23.55-29.3c-8.84-38.11-17.56-75.72-26.3-113.42-.85,.07-1.39,.07-1.91,.17-.51,.1-1.01,.31-1.62,.5,7.01,38.12,14,76.1,21.04,114.36,2.93-.54,5.57-1.02,8.79-1.61ZM79.26,39.33c-1.37-.44-2.45-.79-3.7-1.2-8.36,37.98-18.63,75.35-25.68,113.65,2.76,.49,5.22,1.36,7.91,.95,7.17-37.85,14.31-75.55,21.48-113.4ZM26.78,146.07c12.85-36.66,25.59-73.02,38.36-109.48-.82-.14-1.35-.26-1.89-.31-.51-.04-1.03,0-1.62,0-14.11,35.63-28.49,71.03-41.36,107.12,.53,.26,.91,.49,1.32,.65,1.59,.64,3.2,1.25,5.19,2.03ZM117.41,37.07c12.74,36.32,25.03,72.59,38.35,108.79,2.44-1.04,4.57-1.95,6.87-2.93-14.01-35.52-27.9-70.74-41.75-105.86h-3.47Zm-7.04,.74c10.25,37.51,20.44,74.83,30.74,112.5,2.37-.67,4.65-1.31,6.98-1.96-11.5-37.22-22.89-74.08-34.31-111.02-1.26,.18-2.21,.31-3.41,.48Zm-41.52-.86c-6.17,16.78-33.67,107.69-33.75,111.73,2.03,.51,4.1,1.03,6.18,1.55,10.26-37.7,20.45-75.14,30.68-112.76-1.23-.21-2.1-.35-3.11-.52Zm54.2,134.66c3.94,1.44,9.73,1.26,12.1-.34,.23,.1,.51,.15,.72,.31,6.62,4.8,14.01,7.09,22.18,6.86,5.08-.14,10.17-.21,15.23-.58,2.19-.16,4.33-1,6.51-1.54,0-.81,0-1.26,0-1.71-.02-4.13-2.44-7.87-7.87-7.7-3.3,.1-6.47,.68-9.63,1.49-2.03,.52-3.99,.92-6.12,.32-2.94-.83-5.95-1.4-8.83-2.07-1.07,1.18-2.01,2.22-3.11,3.43-1.14-2.08,1.28-2.45,1.13-4.08-.63-.31-1.4-.69-2.19-1.08-.92,.59-1.75,1.12-2.49,1.59-.19,.79-.34,1.43-.51,2.15-1.88-.77-1.26-2.17-1.35-3.31,.63-.68,1.21-1.31,1.75-1.9-.96-1.81-2.29-1.23-3.37-.67-2.59,1.34-5.31,1.04-8.01,.88-1.6-.09-3.19-.43-4.82-.66-1.37,2.84-1.53,5.61-1.32,8.61ZM2.38,176.08c3.84,1.46,7.83,2.2,11.9,2.35,5.62,.21,11.21-.17,16.82-.89,5.11-.66,9.63-2.35,13.81-5.23,.8-.56,1.7-.97,2.56-1.45,.69,.66,1.26,1.21,1.92,1.84,3.22-.29,6.43-.58,9.61-.86,.28-3.24-.35-5.92-1.68-8.67-1.08,.05-2.19-.05-3.22,.18-3.18,.73-6.28,.82-9.25-.78-1.3-.7-2.36-.49-3.36,.79,1.22,.85,2.32,1.61,3.33,2.32q-.03,2.33-1.54,2.8c-.08-.87-.16-1.74-.25-2.74-1.94-.62-3.75-.41-5.54-.12-.24,1.72,2.59,2.7,.61,4.83-.84-1.43-1.55-2.66-2.32-3.98-.64,.19-1.25,.34-1.83,.54-5.71,2-11.46,2.47-17.33,.61-1.63-.51-3.35-.87-5.05-.95-2.36-.12-4.72,.18-6.68,1.75-2.47,1.98-2.96,4.62-2.51,7.69Zm67.62-21.58c1.31-9.05,2.56-17.67,3.82-26.29,1.36-9.34,2.7-18.69,4.09-28.03,1.36-9.16,2.75-18.31,4.14-27.46,1.23-8.07,2.5-16.14,3.7-24.22,.19-1.25,.23-2.55,.11-3.8-.14-1.5-.85-2.71-2.53-3.13-6.53,37.46-12.98,74.81-18.52,112.66,1.91,.1,3.41,.18,5.19,.27Zm47.67-.02c-6.17-38.01-12.26-75.53-18.41-113.41-.83,.5-1.3,.72-1.7,1.03-.42,.32-.79,.71-1.23,1.12,5.39,37.24,10.77,74.42,16.18,111.84,1.87-.21,3.35-.38,5.16-.58Zm-103.39-14.72c14.04-34.31,28.09-68.63,42.28-103.33-1.33,.28-2.27,.48-3.49,.74-14.22,33.32-28.45,66.64-42.66,99.92,.82,1.52,1.87,2.54,3.86,2.67ZM125.95,37.55c14.07,34.28,27.94,68.2,42.75,102.18,1.23-1.06,2.14-1.85,3.08-2.66-2.24-5.44-4.29-10.66-6.51-15.81-7.95-18.38-15.96-36.73-23.96-55.09-3.69-8.47-7.41-16.93-11.09-25.41-.75-1.74-1.67-3.18-4.27-3.21Zm-48.45,117.08c.71-5.17,1.4-10.03,2.05-14.89,1.38-10.36,2.75-20.72,4.12-31.08,1.04-7.93,2.09-15.86,3.1-23.79,.89-7.03,1.85-14.05,2.53-21.1,.33-3.4,.07-6.86-1.05-10.78-4.54,34.25-10.23,67.74-14.17,101.63h3.43Zm17.01-101.99c-1.31,2.61-1.75,5.47-1.4,8.37,1.31,10.72,2.69,21.44,4.07,32.16,2.22,17.29,4.44,34.59,6.69,51.88,.43,3.31,.99,6.6,1.5,9.92h3.34c-4.75-34.22-9.48-68.27-14.2-102.32Zm29.93,108.5c4.15,1.13,7.94,2.45,11.93-.05-.45-2.25-.88-4.41-1.33-6.62-3.9,.69-7.42,1.32-11.1,1.98,.18,1.65,.33,3.07,.5,4.69Zm-77.27-6.75c-.49,2.39-.93,4.48-1.37,6.63,4.14,2.61,7.83,.83,11.52-.14,.21-1.69,.39-3.11,.6-4.83-3.56-.55-7.01-1.08-10.75-1.66Zm97.11,7.55c-.57-1.13-.91-.74-1.23,.13,.34-.04,.69-.07,1.23-.13Zm-104.6-.32c-.01-.12-.03-.25-.04-.37h-2.14c.02,.21,.03,.41,.05,.62,.71-.08,1.42-.17,2.13-.25Z" fill="#141313"/>
      <path d="M133.19,152.05c-3.21,.59-5.86,1.07-8.79,1.61-7.04-38.25-14.02-76.23-21.04-114.36,.61-.2,1.1-.4,1.62-.5,.52-.1,1.06-.1,1.91-.17,8.74,37.7,17.46,75.31,26.3,113.42Z" fill="#f1f0f0"/>
      <path d="M79.26,39.33c-7.17,37.85-14.31,75.55-21.48,113.4-2.69,.42-5.15-.45-7.91-.95,7.05-38.3,17.32-75.67,25.68-113.65,1.25,.41,2.34,.76,3.7,1.2Z" fill="#f1f0f0"/>
      <path d="M26.78,146.07c-1.99-.78-3.59-1.39-5.19-2.03-.41-.16-.79-.39-1.32-.65,12.87-36.09,27.25-71.49,41.36-107.12,.59,0,1.11-.04,1.62,0,.54,.05,1.07,.17,1.89,.31-12.78,36.46-25.52,72.82-38.36,109.48Z" fill="#f1f0f0"/>
      <path d="M117.41,37.07h3.47c13.85,35.12,27.74,70.34,41.75,105.86-2.3,.98-4.43,1.89-6.87,2.93-13.32-36.2-25.61-72.48-38.35-108.79Z" fill="#f1f0f0"/>
      <path d="M110.37,37.81c1.19-.17,2.15-.31,3.41-.48,11.42,36.94,22.81,73.8,34.31,111.02-2.33,.65-4.61,1.3-6.98,1.96-10.29-37.67-20.49-74.99-30.74-112.5Z" fill="#f1f0f0"/>
      <path d="M68.85,36.95c1.01,.17,1.88,.31,3.11,.52-10.24,37.62-20.42,75.06-30.68,112.76-2.08-.52-4.16-1.04-6.18-1.55,.08-4.04,27.58-94.96,33.75-111.73Z" fill="#f1f0f0"/>
      <path d="M123.05,171.61c-.21-3-.05-5.76,1.32-8.61,1.63,.23,3.22,.57,4.82,.66,2.71,.16,5.42,.45,8.01-.88,1.07-.55,2.4-1.14,3.37,.67-.54,.58-1.12,1.21-1.75,1.9,.09,1.14-.53,2.55,1.35,3.31,.17-.72,.32-1.37,.51-2.15,.74-.47,1.57-1,2.49-1.59,.78,.39,1.56,.77,2.19,1.08,.15,1.63-2.27,2-1.13,4.08,1.1-1.21,2.04-2.25,3.11-3.43,2.88,.66,5.9,1.23,8.83,2.07,2.13,.6,4.09,.2,6.12-.32,3.16-.81,6.33-1.38,9.63-1.49,5.43-.17,7.85,3.57,7.87,7.7,0,.45,0,.89,0,1.71-2.19,.54-4.32,1.38-6.51,1.54-5.07,.37-10.15,.44-15.23,.58-8.17,.23-15.56-2.06-22.18-6.86-.21-.15-.49-.21-.72-.31-2.37,1.6-8.16,1.78-12.1,.34Z" fill="#e03035"/>
      <path d="M2.38,176.08c-.45-3.07,.05-5.71,2.51-7.69,1.96-1.57,4.32-1.87,6.68-1.75,1.7,.08,3.43,.43,5.05,.95,5.87,1.86,11.62,1.38,17.33-.61,.59-.2,1.19-.35,1.83-.54,.77,1.31,1.48,2.54,2.32,3.98,1.98-2.12-.85-3.11-.61-4.83,1.79-.29,3.6-.49,5.54,.12,.09,1,.17,1.87,.25,2.74q1.51-.47,1.54-2.8c-1.01-.7-2.1-1.46-3.33-2.32,1-1.27,2.06-1.49,3.36-.79,2.97,1.6,6.06,1.51,9.25,.78,1.03-.23,2.14-.13,3.22-.18,1.33,2.76,1.96,5.44,1.68,8.67-3.18,.28-6.39,.57-9.61,.86-.66-.63-1.23-1.18-1.92-1.84-.86,.48-1.76,.9-2.56,1.45-4.18,2.89-8.7,4.57-13.81,5.23-5.61,.72-11.2,1.1-16.82,.89-4.06-.15-8.05-.89-11.9-2.35Z" fill="#e03035"/>
      <path d="M70,154.51c-1.78-.09-3.27-.17-5.19-.27,5.54-37.85,11.99-75.2,18.52-112.66,1.68,.42,2.39,1.63,2.53,3.13,.12,1.25,.07,2.55-.11,3.8-1.2,8.08-2.47,16.14-3.7,24.22-1.39,9.15-2.78,18.3-4.14,27.46-1.38,9.34-2.73,18.69-4.09,28.03-1.25,8.62-2.5,17.25-3.82,26.29Z" fill="#f1f0f0"/>
      <path d="M117.67,154.48c-1.81,.2-3.29,.37-5.16,.58-5.41-37.42-10.79-74.6-16.18-111.84,.44-.41,.81-.8,1.23-1.12,.41-.31,.87-.53,1.7-1.03,6.15,37.88,12.24,75.4,18.41,113.41Z" fill="#f1f0f0"/>
      <path d="M14.28,139.77c-1.99-.13-3.04-1.14-3.86-2.67,14.21-33.28,28.43-66.6,42.66-99.92,1.22-.26,2.15-.46,3.49-.74-14.2,34.69-28.24,69.02-42.28,103.33Z" fill="#f1f0f0"/>
      <path d="M125.95,37.55c2.6,.04,3.51,1.48,4.27,3.21,3.68,8.48,7.4,16.94,11.09,25.41,8,18.36,16,36.71,23.96,55.09,2.23,5.15,4.28,10.37,6.51,15.81-.94,.81-1.85,1.6-3.08,2.66-14.8-33.99-28.68-67.9-42.75-102.18Z" fill="#f1f0f0"/>
      <path d="M77.5,154.63h-3.43c3.94-33.9,9.64-67.38,14.17-101.63,1.12,3.92,1.38,7.38,1.05,10.78-.68,7.05-1.64,14.07-2.53,21.1-1,7.93-2.05,15.86-3.1,23.79-1.36,10.36-2.73,20.72-4.12,31.08-.65,4.86-1.34,9.72-2.05,14.89Z" fill="#f1f0f0"/>
      <path d="M94.51,52.64c4.73,34.05,9.45,68.11,14.2,102.32h-3.34c-.5-3.31-1.07-6.61-1.5-9.92-2.25-17.29-4.47-34.59-6.69-51.88-1.37-10.72-2.76-21.43-4.07-32.16-.35-2.9,.08-5.76,1.4-8.37Z" fill="#f1f0f0"/>
      <path d="M124.44,161.13c-.17-1.62-.33-3.04-.5-4.69,3.69-.66,7.21-1.29,11.1-1.98,.44,2.21,.88,4.37,1.33,6.62-3.99,2.5-7.78,1.18-11.93,.05Z" fill="#f1f0f0"/>
      <path d="M47.17,154.38c3.74,.58,7.18,1.11,10.75,1.66-.21,1.71-.39,3.14-.6,4.83-3.68,.97-7.37,2.76-11.52,.14,.44-2.14,.88-4.23,1.37-6.63Z" fill="#f1f0f0"/>
    </g>
    <g>
      <path d="M40.36,248.54c-8.82,2.15,3.87-29.81,3.77-35.01-6.3,9.75-11.13,25.32-21.99,30.74-10.78-.17-.53-21.43-.59-27.19-6.17,9.67-11.26,22.91-17.75,32.07-5.4-1.7-1.91-8.67,.43-11.51,4.46-8.64,10.59-19.41,15.37-27.25,1.11-2.16,2.43-6.43,5.2-4.98,8.18,4.24-2.87,24.37-1.45,31.55,7.71-8.12,11.97-19.35,18.68-29.32,1.78-3.4,4.14-5.8,7.24-2.47,3.71,3.2-2.45,17.47-3.22,22.64-1.43,4.49-1.72,7.76-2.66,12.25-.32,3.13,.31,7.53-3.03,8.47Z" fill="#010101"/>
      <path d="M73.83,251.32c-1.89-.76-3.17-2.17-2.72-4.21,4.76-9.81,9.02-22.84,13.24-33.59-8.16,9.18-15.92,19.86-24.65,28.36-2.02,1.82-4.46,4.39-7.08,5.23-2.73-.48-3.96-1.45-3.37-3.87,3.74-12.99,6.89-25.95,13.14-38.01,.89-1.45,.14-2.75,1.3-3.59,2.94-1.42,5.51,2.08,4.27,4.83-3.43,8.45-8.93,23.24-12.25,31.61,3.22-3.3,13.97-13.54,16.45-17.13,4.31-5.64,11.34-12.01,16.02-17.32,1.94-1.13,3.96-.64,4.61,1.64-2.94,11.48-9.33,23.07-12.62,34.76-1.2,2.15-3.41,12.98-6.34,11.29Z" fill="#010101"/>
      <path d="M89.47,248.47c-2.4-1.08-2.04-3.41-1.48-5.57,3.73-11.07,7.46-23.25,12.62-34.02,.57-.69,1.04-2.92,1.86-3.65,3.03-1.83,4.6-.52,4.76,2.51-1.75,5-5.34,10.83-6.74,15.93-1.6,3.86-3.55,8.49-4.7,12.77-1.17,2.06-3.09,15.43-6.31,12.03Zm7.55-23.75c4.18-1.72,26.56-25.06,28.11-17.29,.86,1.9,.56,2.66-1.39,3.68-5.55,2.99-10.28,7.68-14.91,10.7-2.75,2.79-6.8,4.66-9.59,7.55l-2.23-4.64Zm14.35,23.63c-7.57-2.78-11.89-12.1-13.24-19.61,0,0,.06-3.83,.06-3.83l4.52-.31c.76,7.04,3.91,15.42,10.45,18.25,4.45,1.05,2.56,8.07-1.79,5.5Z" fill="#010101"/>
      <path d="M125.16,247.73c-9.77-5.36-2.5-24.55,2.04-32.47,3.02-5.41,8.54-9.96,13.49-11.01,24.98-5.33,2.25,52.31-15.53,43.48Zm12.73-20.97c4.67-.01,12.37-17.19,4.94-16.87-3.62,1.54-10.85,15.76-4.94,16.87Z" fill="#e03035"/>
      <path d="M158.5,249.65c-19.24-6.69,3.31-51.86,19.48-46.79,7.73,3.09,1,20.17-3.31,18.22-1.11-.3-3.35-1.91-2.57-2.78,1.04-1.36,2.49-4.05,3.09-5.69,4.46-16.46-19.62,11.7-18.06,23.54-1.19,14.6,10.61,4.43,17.26,1.64,8.05,2.88-12.35,13.61-15.9,11.88Z" fill="#010101"/>
    </g>
    <g>
      <path d="M2.43,.27H13.4v1.88H2.43V.27Zm4.3,.83h2.38V10.71h-2.38V1.1Z" fill="#010101"/>
      <path d="M20.11,10.97c-4.48,.35-7.87-4.47-5.47-8.35,3.15-4.93,11.5-2.43,10.85,3.72H15.74v-1.83h8.55l-1.19,.68c.13-3.45-4.79-4.5-6.38-1.69-2.46,5.4,5.08,7.04,8.46,4.14v1.73c-1.33,1.04-3.35,1.6-5.08,1.59Z" fill="#010101"/>
      <path d="M37.82,5.49c-.62,6.86-11.1,7.39-10.93,0-.19-7.39,10.35-6.86,10.93,0Zm-8.52,0c0,5.05,6.74,4.18,7.68,0-.94-4.19-7.68-5.04-7.68,0Zm7.79,5.22l-.4-3.88,.48-1.35-.48-1.33,.4-3.89h2.45l-.55,5.22,.55,5.22h-2.45Z" fill="#010101"/>
      <path d="M40.8,.27h10.97v1.88h-10.97V.27Zm4.3,.83h2.38V10.71h-2.38V1.1Z" fill="#010101"/>
      <path d="M53.26,.27h2.38c-.09,3.82,0,9.61,0,13.49h-2.38V.27Zm1.46,5.22c.61-6.86,11.12-7.39,10.93,0,.17,7.4-10.3,6.85-10.93,0Zm8.52,0c0-5.05-6.71-4.18-7.68,0,.97,4.18,7.67,5.05,7.68,0Z" fill="#010101"/>
      <path d="M72.48,10.71V.27h2.38V8.68l-.71-.26L80.74,.27h2.71l-8.77,10.45h-2.19Zm8.52,0l-3.22-5.17,1.66-1.51,4.33,6.68h-2.78Z" fill="#010101"/>
      <path d="M86.77,.27h10.18V10.71h-2.38V1.01l1.1,1.11h-7.71l1.02-.85c.53,4,.72,11.7-5.08,9.19v-1.79c4.55,1.56,2.92-5.63,2.87-8.4Z" fill="#010101"/>
      <path d="M105.2,10.97c-8.28,.39-8.28-11.36,0-10.96,8.28-.39,8.28,11.36,0,10.96Zm0-1.88c5.1,.4,5.1-7.59,0-7.2-5.1-.39-5.1,7.59,0,7.2Z" fill="#010101"/>
      <path d="M116.57,10.38L111.81,.27h2.61l4.5,10.11h-2.36Zm-1.19,3.64c-1.15,0-2.11-.29-3.03-.87v-1.83c1.57,1.06,4.18,1.45,5.04-.68,0,0,4.66-10.37,4.66-10.37h2.52c-1.93,2.59-4.8,14.29-9.19,13.75Z" fill="#010101"/>
      <path d="M125.96,.27h2.36V10.71h-2.36V.27Zm1.33,4.23h8.44v1.85h-8.44v-1.85Zm7.46-4.23h2.36V10.71h-2.36V.27Z" fill="#010101"/>
      <path d="M150.02,5.49c-.62,6.86-11.1,7.39-10.93,0-.19-7.39,10.35-6.86,10.93,0Zm-8.52,0c0,5.05,6.74,4.18,7.68,0-.94-4.19-7.68-5.04-7.68,0Zm7.79,5.22l-.4-3.88,.48-1.35-.48-1.33,.4-3.89h2.45l-.55,5.22,.55,5.22h-2.45Z" fill="#010101"/>
      <path d="M167.42,8.87v4.48h-2.07v-2.64h-10.35v2.64h-2.07v-4.48c4.03,.04,10.45,.04,14.48,0ZM155.24,.27h10.25V10.01h-2.38V1.01l1.1,1.11h-7.73l1.02-.81c.15,2.89,.78,8.16-2.6,8.71l-.97-.83c1.72-1,1.64-6.32,1.3-8.91Z" fill="#010101"/>
      <path d="M169.14,10.71V.27h2.38V10.05l-.84-1.11c1.64-.3,6.59,1.05,6.49-1.83,.13-2.88-4.78-1.56-6.42-1.85v-1.72c1.52,.11,5.54-.32,6.85,.45,2.61,1.1,2.61,5.17,0,6.27-1.35,.81-6.89,.31-8.46,.44ZM180.76,.27h2.38V10.71h-2.38V.27Z" fill="#010101"/>
    </g>
  </g>
</svg>