<?xml version="1.0" encoding="UTF-8"?>
<svg id="_Слой_2" data-name="Слой 2" xmlns="http://www.w3.org/2000/svg" viewBox="0 0 254.82 175.94">
  <g id="_Слой_1-2" data-name="Слой 1">
    <g>
      <path d="M218.89,107.68c-8.61-.36-17.04-1.12-24.78-3.25-.82,.57-1.56,1.09-2.29,1.6-8.27,.14-16.3-.21-24.77-.91,.16-1.26,.1-2.38,.47-3.45,.92-2.6,2.12-5.17,3.05-7.77,.5-1.4,.72-2.84-.5-4.28-3.28,.23-6.28,.53-9.3,.63-4.54,.16-9.1,.3-13.63,.21-3.14-.06-3.86-.61-4.28-2.24-2.82-10.96-5.64-21.91-8.4-32.87-2.18-8.66-4.29-17.32-6.51-26.33-.43,.9-.81,1.47-.97,2.05-1.62,6.16-3.21,12.33-4.78,18.5-1.91,7.48-3.81,14.96-5.67,22.44-1.24,4.98-2.42,9.97-3.64,14.96-.29,1.19-.67,2.37-3.07,3.4-8.26-.28-16.94-.57-25.93-.87-.24,.84-.74,1.56-.58,2.24,.5,2.15,1.17,4.3,1.92,6.44,.74,2.12,1.2,4.14,1.85,6.84-1.41,.2-2.93,.13-4.28,.2-5.04,.28-10.11,.42-15.13,.76-.91,.04-3.71-1.14-6.77-1.86-1.75,.43-3.34,.84-4.97,1.21-6.84,1.57-14.12,2.04-21.47,2.35-6.87,.18-14.89,.62-22.58-.16-4.69-.34-7.4-1.1-11.89-1.95,0-.66-.03-4.11,.59-4.99,2.48-3.55,6.25-4.97,13.41-4.93,2.02,.01,4.04,.14,6.04,.29,1.88,.14,3.8,.28,5.57,.62,9.15,1.75,17.4,.44,25.6-1.92-.73-.15-1.31-.24-1.83-.39-.64-.18-1.23-.41-1.8-.61,1.44-1.78,2.29-2.14,5.3-2.02,1.24,.05,2.47,.25,3.68,.44,2.86,.45,4.35,.17,5.38-1.27,.65-.9,.81-1.9,1.23-2.97-5.64-.73-11.05-1.39-16.42-2.13-9.69-1.33-19.2-2.94-27.85-5.66-3.47-1.09-6.8-2.3-8.99-4.18,.35-.47,.64-.91,.99-1.33,12.75-15.69,25.46-31.38,38.26-47.05,6.55-8.02,13.23-16.01,19.85-24.02,1.55-1.87,3.79-3.29,8.02-3.46,4.42,0,8.83,0,13.25-.01,.97,0,1.95,.02,2.92,.03,7.85,.43,15.49,1.25,22.83,2.84,4.18,.91,6.91,2.41,8.39,4.57,.72,1.05,1.15,2.16,1.74,3.24,.35,.65,.74,1.29,1.12,1.93,1.47-1.73,2.3-3.42,3.2-5.11,1.05-1.95,3.23-3.42,6.87-4.24,12.67-2.86,25.8-3.76,39.44-2.61,3.2,.27,5.72,1.1,7.44,2.51,1.15,.94,2.07,1.96,2.93,2.99,1.83,2.18,3.5,4.39,5.32,6.57,15.12,18.1,30.26,36.2,45.39,54.3,2.22,2.66,4.43,5.32,6.73,8.08-1.33,.87-2.34,1.85-3.88,2.48-2.98,1.22-6.1,2.39-9.43,3.31-8.66,2.39-18.06,3.78-27.42,5.2-4.1,.62-8.2,1.24-12.19,1.85-.09,.39-.18,.59-.16,.78,.25,3.11,1.79,3.74,7.56,3.23,1.61-.14,3.3-.24,4.89-.14,2.48,.16,3.03,.66,3.05,2.23-.88,.28-1.79,.56-3.23,1.01,3.65,.67,6.68,1.3,9.8,1.79,5.51,.86,10.96,.87,16.34-.39,3.68-.86,7.62-.98,11.58-.78,6.13,.31,10.97,2.3,12.36,5.07,.38,.76,.24,4.19,.97,4.83-2.78,.97-7.69,1.72-12.88,2.03-9.86,.55-15.44,.23-23.06,.08Zm-32.89-21.36c-12.34-27.77-24.52-55.19-36.73-82.67-1.19,.05-1.94,.05-2.66,.12-.72,.07-1.41,.22-2.26,.37,9.79,27.79,19.55,55.47,29.38,83.35,4.09-.39,7.78-.74,12.27-1.17ZM110.69,4.17c-1.91-.32-3.42-.58-5.17-.87-11.68,27.68-26.02,54.92-35.87,82.84,3.85,.36,7.29,.99,11.04,.69,10.01-27.59,19.98-55.06,30-82.65ZM37.41,81.97C55.35,55.25,73.14,28.75,90.98,2.17c-1.15-.1-1.89-.19-2.64-.23-.71-.03-1.44,0-2.26,0-19.71,25.97-39.78,51.77-57.76,78.07,.74,.19,1.27,.36,1.84,.48,2.23,.46,4.46,.91,7.24,1.48ZM163.97,2.52c17.79,26.47,34.95,52.91,53.56,79.3,3.41-.76,6.38-1.42,9.59-2.14-19.56-25.89-38.96-51.56-58.3-77.16h-4.84Zm-9.83,.54c14.31,27.34,28.55,54.54,42.92,82,3.31-.49,6.5-.95,9.75-1.43-16.06-27.13-31.97-54-47.92-80.92-1.76,.13-3.09,.23-4.76,.35Zm-57.98-.63c-8.62,12.23-47.03,78.49-47.14,81.44,2.83,.37,5.73,.75,8.64,1.13,14.32-27.48,28.55-54.77,42.85-82.19-1.71-.15-2.94-.26-4.35-.38Zm75.69,98.15c5.5,1.05,13.59,.92,16.89-.25,.32,.07,.71,.11,1.01,.22,9.24,3.5,19.57,5.17,30.98,5,7.09-.1,14.2-.15,21.27-.43,3.06-.12,6.05-.73,9.1-1.12,0-.59,0-.92,0-1.24-.03-3.01-3.41-5.73-10.99-5.61-4.61,.07-9.04,.49-13.45,1.08-2.83,.38-5.57,.67-8.55,.23-4.1-.61-8.31-1.02-12.34-1.51-1.5,.86-2.81,1.62-4.34,2.5-1.6-1.52,1.79-1.79,1.57-2.98-.88-.23-1.96-.5-3.05-.79-1.28,.43-2.44,.81-3.47,1.16-.26,.57-.47,1.04-.71,1.57-2.63-.56-1.76-1.58-1.88-2.41,.88-.5,1.69-.96,2.44-1.38-1.34-1.32-3.2-.89-4.7-.49-3.61,.97-7.41,.76-11.19,.64-2.24-.07-4.45-.31-6.73-.48-1.92,2.07-2.14,4.09-1.85,6.27ZM3.32,103.85c5.37,1.06,10.94,1.6,16.61,1.71,7.85,.15,15.66-.12,23.49-.65,7.13-.48,13.45-1.71,19.28-3.81,1.12-.4,2.38-.71,3.58-1.06,.97,.48,1.76,.88,2.68,1.34,4.5-.21,8.98-.42,13.42-.63,.39-2.36-.48-4.31-2.34-6.32-1.51,.04-3.05-.04-4.49,.13-4.45,.53-8.77,.6-12.91-.57-1.82-.51-3.29-.35-4.69,.57,1.71,.62,3.24,1.18,4.65,1.69q-.04,1.7-2.15,2.04c-.11-.64-.22-1.27-.35-2-2.71-.45-5.24-.3-7.74-.09-.34,1.25,3.62,1.97,.85,3.52-1.17-1.05-2.17-1.94-3.24-2.9-.89,.14-1.74,.25-2.56,.4-7.98,1.46-16.01,1.8-24.2,.45-2.27-.37-4.68-.63-7.05-.69-3.3-.08-6.59,.13-9.33,1.28-3.44,1.45-4.13,3.37-3.51,5.6Zm94.44-15.73c1.83-6.59,3.58-12.88,5.33-19.16,1.9-6.81,3.78-13.62,5.71-20.43,1.9-6.67,3.84-13.35,5.78-20.02,1.72-5.88,3.49-11.76,5.17-17.65,.26-.91,.33-1.86,.16-2.77-.2-1.09-1.18-1.97-3.53-2.28-9.12,27.3-18.12,54.53-25.86,82.12,2.67,.07,4.76,.13,7.24,.2Zm66.57-.02c-8.61-27.71-17.12-55.05-25.7-82.66-1.16,.36-1.81,.53-2.38,.75-.59,.23-1.1,.52-1.72,.82,7.52,27.14,15.03,54.24,22.59,81.52,2.6-.15,4.68-.27,7.21-.42ZM19.94,77.38C39.54,52.37,59.16,27.35,78.99,2.06c-1.86,.21-3.17,.35-4.87,.54C54.26,26.89,34.39,51.18,14.55,75.43c1.15,1.11,2.62,1.85,5.39,1.94ZM175.9,2.87c19.65,24.99,39.02,49.71,59.7,74.48,1.72-.77,2.99-1.35,4.31-1.94-3.12-3.96-5.99-7.77-9.1-11.52-11.11-13.39-22.29-26.77-33.46-40.15-5.15-6.18-10.35-12.34-15.49-18.52-1.05-1.26-2.33-2.31-5.96-2.34ZM108.23,88.21c1-3.77,1.95-7.31,2.86-10.85,1.93-7.55,3.85-15.1,5.75-22.65,1.46-5.78,2.92-11.56,4.32-17.34,1.24-5.12,2.58-10.24,3.53-15.38,.46-2.48,.1-5-1.47-7.86-6.34,24.97-14.29,49.37-19.8,74.08h4.79ZM131.98,13.87c-1.84,1.9-2.44,3.99-1.95,6.1,1.83,7.82,3.76,15.63,5.68,23.44,3.1,12.61,6.2,25.21,9.34,37.81,.6,2.41,1.39,4.81,2.09,7.23h4.67c-6.63-24.94-13.23-49.76-19.83-74.58Zm41.8,79.08c5.8,.82,11.09,1.78,16.66-.04-.63-1.64-1.23-3.21-1.85-4.82-5.44,.51-10.36,.96-15.51,1.44,.25,1.2,.46,2.23,.7,3.42Zm-107.9-4.92c-.69,1.74-1.29,3.27-1.91,4.83,5.79,1.91,10.94,.61,16.08-.1,.29-1.23,.54-2.27,.84-3.52-4.97-.4-9.79-.79-15.01-1.21Zm135.61,5.5c-.8-.83-1.27-.54-1.72,.09,.48-.03,.96-.05,1.72-.09Zm-146.08-.23c-.02-.09-.04-.18-.05-.27h-2.99c.02,.15,.04,.3,.06,.45,.99-.06,1.99-.12,2.98-.18Z" fill="#141313"/>
      <path d="M186.01,86.33c-4.49,.43-8.18,.78-12.27,1.17-9.83-27.88-19.58-55.56-29.38-83.35,.85-.14,1.54-.29,2.26-.37,.72-.07,1.48-.07,2.66-.12,12.21,27.48,24.39,54.89,36.73,82.67Z" fill="#f1f0f0"/>
      <path d="M110.69,4.17c-10.01,27.59-19.99,55.07-30,82.65-3.76,.31-7.19-.33-11.04-.69,9.85-27.92,24.19-55.15,35.87-82.84,1.75,.3,3.26,.55,5.17,.87Z" fill="#f1f0f0"/>
      <path d="M37.41,81.97c-2.78-.57-5.02-1.02-7.24-1.48-.57-.12-1.11-.28-1.84-.48C46.3,53.71,66.37,27.91,86.08,1.94c.82,0,1.55-.03,2.26,0,.75,.03,1.49,.12,2.64,.23-17.84,26.57-35.63,53.08-53.57,79.8Z" fill="#f1f0f0"/>
      <path d="M163.97,2.52h4.84c19.34,25.6,38.74,51.27,58.3,77.16-3.21,.72-6.18,1.38-9.59,2.14-18.61-26.39-35.77-52.83-53.56-79.3Z" fill="#f1f0f0"/>
      <path d="M154.13,3.06c1.67-.12,3-.22,4.76-.35,15.94,26.93,31.85,53.79,47.92,80.92-3.25,.48-6.44,.94-9.75,1.43-14.37-27.46-28.61-54.66-42.92-82Z" fill="#f1f0f0"/>
      <path d="M96.16,2.44c1.41,.12,2.63,.23,4.35,.38-14.29,27.42-28.52,54.71-42.85,82.19-2.91-.38-5.81-.76-8.64-1.13,.11-2.95,38.52-69.21,47.14-81.44Z" fill="#f1f0f0"/>
      <path d="M171.85,100.58c-.29-2.19-.07-4.2,1.85-6.27,2.28,.17,4.5,.41,6.73,.48,3.78,.12,7.58,.33,11.19-.64,1.5-.4,3.36-.83,4.7,.49-.75,.43-1.56,.89-2.44,1.38,.12,.83-.74,1.86,1.88,2.41,.24-.53,.45-1,.71-1.57,1.04-.35,2.19-.73,3.47-1.16,1.09,.28,2.17,.56,3.05,.79,.21,1.19-3.17,1.46-1.57,2.98,1.53-.88,2.85-1.64,4.34-2.5,4.03,.48,8.23,.9,12.34,1.51,2.98,.44,5.72,.15,8.55-.23,4.41-.59,8.84-1.01,13.45-1.08,7.58-.12,10.96,2.6,10.99,5.61,0,.32,0,.65,0,1.24-3.05,.39-6.04,1.01-9.1,1.12-7.07,.27-14.18,.32-21.27,.43-11.4,.17-21.73-1.5-30.98-5-.3-.11-.69-.15-1.01-.22-3.31,1.17-11.39,1.3-16.89,.25Z" fill="#e03035"/>
      <path d="M3.32,103.85c-.62-2.24,.07-4.16,3.51-5.6,2.73-1.15,6.03-1.36,9.33-1.28,2.37,.06,4.78,.32,7.05,.69,8.2,1.35,16.22,1.01,24.2-.45,.82-.15,1.66-.26,2.56-.4,1.07,.96,2.07,1.85,3.24,2.9,2.77-1.55-1.18-2.26-.85-3.52,2.5-.21,5.03-.36,7.74,.09,.13,.73,.24,1.36,.35,2q2.11-.34,2.15-2.04c-1.41-.51-2.94-1.07-4.65-1.69,1.4-.93,2.87-1.09,4.69-.57,4.14,1.17,8.47,1.1,12.91,.57,1.44-.17,2.99-.09,4.49-.13,1.86,2.01,2.73,3.96,2.34,6.32-4.44,.21-8.92,.42-13.42,.63-.92-.46-1.72-.86-2.68-1.34-1.2,.35-2.45,.65-3.58,1.06-5.83,2.1-12.15,3.33-19.28,3.81-7.83,.53-15.64,.8-23.49,.65-5.67-.11-11.25-.65-16.61-1.71Z" fill="#e03035"/>
      <path d="M97.76,88.12c-2.48-.07-4.57-.12-7.24-.2,7.74-27.59,16.74-54.81,25.86-82.12,2.35,.31,3.33,1.19,3.53,2.28,.17,.91,.1,1.86-.16,2.77-1.68,5.89-3.45,11.77-5.17,17.65-1.94,6.67-3.89,13.34-5.78,20.02-1.93,6.81-3.81,13.62-5.71,20.43-1.75,6.28-3.5,12.57-5.33,19.16Z" fill="#f1f0f0"/>
      <path d="M164.33,88.1c-2.53,.15-4.6,.27-7.21,.42-7.56-27.28-15.07-54.37-22.59-81.52,.62-.3,1.13-.59,1.72-.82,.57-.22,1.21-.39,2.38-.75,8.59,27.61,17.09,54.96,25.7,82.66Z" fill="#f1f0f0"/>
      <path d="M19.94,77.38c-2.77-.09-4.24-.83-5.39-1.94C34.39,51.18,54.26,26.89,74.12,2.6c1.7-.19,3.01-.33,4.87-.54C59.16,27.35,39.54,52.37,19.94,77.38Z" fill="#f1f0f0"/>
      <path d="M175.9,2.87c3.62,.03,4.91,1.08,5.96,2.34,5.14,6.18,10.34,12.34,15.49,18.52,11.17,13.38,22.35,26.76,33.46,40.15,3.11,3.75,5.97,7.56,9.1,11.52-1.32,.59-2.59,1.17-4.31,1.94-20.67-24.77-40.05-49.49-59.7-74.48Z" fill="#f1f0f0"/>
      <path d="M108.23,88.21h-4.79c5.51-24.71,13.46-49.11,19.8-74.08,1.57,2.86,1.92,5.38,1.47,7.86-.95,5.14-2.29,10.26-3.53,15.38-1.4,5.78-2.87,11.56-4.32,17.34-1.9,7.55-3.82,15.1-5.75,22.65-.91,3.54-1.87,7.08-2.86,10.85Z" fill="#f1f0f0"/>
      <path d="M131.98,13.87c6.6,24.82,13.2,49.64,19.83,74.58h-4.67c-.7-2.42-1.49-4.82-2.09-7.23-3.14-12.6-6.24-25.21-9.34-37.81-1.92-7.81-3.85-15.62-5.68-23.44-.49-2.11,.11-4.2,1.95-6.1Z" fill="#f1f0f0"/>
      <path d="M173.78,92.95c-.24-1.18-.45-2.21-.7-3.42,5.15-.48,10.07-.94,15.51-1.44,.62,1.61,1.23,3.19,1.85,4.82-5.57,1.82-10.86,.86-16.66,.04Z" fill="#f1f0f0"/>
      <path d="M65.88,88.03c5.22,.42,10.03,.81,15.01,1.21-.3,1.25-.54,2.29-.84,3.52-5.15,.71-10.3,2.01-16.08,.1,.62-1.56,1.22-3.09,1.91-4.83Z" fill="#f1f0f0"/>
    </g>
    <g>
      <path d="M56.37,156.65c-12.31,1.56,5.41-21.73,5.27-25.52-8.8,7.11-15.54,18.45-30.71,22.41-15.06-.13-.74-15.62-.82-19.81-8.61,7.05-15.73,16.7-24.79,23.38-7.54-1.24-2.67-6.32,.61-8.39,6.23-6.3,14.78-14.15,21.46-19.86,1.55-1.57,3.39-4.69,7.26-3.63,11.42,3.09-4.01,17.77-2.03,22.99,10.77-5.92,16.71-14.1,26.09-21.37,2.49-2.48,5.78-4.23,10.11-1.8,5.18,2.33-3.43,12.73-4.49,16.5-2,3.28-2.4,5.66-3.72,8.93-.45,2.28,.43,5.49-4.23,6.18Z" fill="#010101"/>
      <path d="M103.1,158.68c-2.63-.55-4.43-1.58-3.8-3.07,6.64-7.15,12.6-16.65,18.49-24.48-11.39,6.69-22.24,14.47-34.42,20.67-2.82,1.32-6.23,3.2-9.89,3.81-3.81-.35-5.53-1.06-4.71-2.82,5.23-9.46,9.63-18.91,18.36-27.7,1.24-1.06,.19-2.01,1.81-2.62,4.11-1.04,7.7,1.52,5.96,3.52-4.79,6.16-12.47,16.94-17.1,23.04,4.49-2.4,19.51-9.87,22.98-12.49,6.01-4.11,15.84-8.75,22.37-12.62,2.71-.83,5.54-.47,6.44,1.2-4.11,8.36-13.03,16.82-17.62,25.34-1.68,1.57-4.77,9.46-8.86,8.23Z" fill="#010101"/>
      <path d="M124.95,156.61c-3.35-.79-2.85-2.48-2.07-4.06,5.21-8.07,10.42-16.95,17.62-24.8,.8-.5,1.46-2.13,2.59-2.66,4.24-1.34,6.43-.38,6.65,1.83-2.44,3.64-7.45,7.89-9.42,11.61-2.24,2.82-4.96,6.19-6.56,9.31-1.63,1.5-4.31,11.25-8.81,8.77Zm10.54-17.31c5.84-1.25,37.1-18.27,39.26-12.6,1.2,1.38,.78,1.94-1.94,2.68-7.75,2.18-14.35,5.6-20.82,7.8-3.84,2.04-9.49,3.4-13.39,5.5l-3.11-3.38Zm20.04,17.22c-10.58-2.03-16.6-8.82-18.49-14.29,0,0,.09-2.8,.09-2.8l6.31-.23c1.05,5.13,5.46,11.24,14.6,13.3,6.22,.76,3.58,5.89-2.5,4.01Z" fill="#010101"/>
      <path d="M174.79,156.07c-13.65-3.9-3.49-17.89,2.85-23.67,4.21-3.94,11.93-7.26,18.83-8.03,34.89-3.88,3.14,38.13-21.68,31.69Zm17.77-15.28c6.52,0,17.27-12.53,6.9-12.3-5.05,1.12-15.15,11.49-6.9,12.3Z" fill="#e03035"/>
      <path d="M221.35,157.47c-26.87-4.87,4.62-37.8,27.21-34.11,10.8,2.25,1.39,14.7-4.62,13.28-1.55-.22-4.67-1.39-3.59-2.03,1.46-.99,3.48-2.95,4.32-4.15,6.23-11.99-27.4,8.52-25.22,17.15-1.66,10.64,14.82,3.23,24.1,1.19,11.24,2.1-17.24,9.92-22.2,8.66Z" fill="#010101"/>
    </g>
    <g>
      <path d="M1.23,165.9h15.32v1.37H1.23v-1.37Zm6,.61h3.32v7.01h-3.32v-7.01Z" fill="#010101"/>
      <path d="M25.92,173.71c-6.25,.26-11-3.25-7.65-6.09,4.4-3.59,16.06-1.77,15.15,2.71h-13.61v-1.33h11.95l-1.66,.5c.19-2.51-6.68-3.28-8.91-1.23-3.44,3.94,7.09,5.13,11.82,3.02v1.26c-1.86,.76-4.67,1.16-7.1,1.16Z" fill="#010101"/>
      <path d="M50.65,169.71c-.87,5-15.51,5.39-15.27,0-.27-5.39,14.45-5,15.27,0Zm-11.9,0c0,3.68,9.41,3.05,10.72,0-1.32-3.05-10.72-3.68-10.72,0Zm10.87,3.81l-.56-2.83,.66-.98-.66-.97,.56-2.84h3.42l-.77,3.81,.77,3.81h-3.42Z" fill="#010101"/>
      <path d="M54.81,165.9h15.32v1.37h-15.32v-1.37Zm6,.61h3.32v7.01h-3.32v-7.01Z" fill="#010101"/>
      <path d="M72.22,165.9h3.32c-.12,2.78,0,7.01,0,9.83h-3.32v-9.83Zm2.04,3.81c.85-5,15.52-5.39,15.27,0,.24,5.39-14.38,4.99-15.27,0Zm11.9,0c-.01-3.68-9.38-3.04-10.72,0,1.35,3.05,10.71,3.68,10.72,0Z" fill="#010101"/>
      <path d="M99.05,173.52v-7.61h3.32v6.13l-1-.19,9.22-5.95h3.78l-12.25,7.61h-3.06Zm11.9,0l-4.49-3.77,2.32-1.1,6.05,4.87h-3.88Z" fill="#010101"/>
      <path d="M119.01,165.9h14.22v7.61h-3.32v-7.08l1.53,.81h-10.77l1.43-.62c.74,2.91,1.01,8.53-7.1,6.7v-1.3c6.35,1.14,4.08-4.11,4.01-6.12Z" fill="#010101"/>
      <path d="M144.75,173.71c-11.56,.29-11.56-8.28,0-7.99,11.56-.29,11.56,8.28,0,7.99Zm0-1.37c7.13,.29,7.13-5.54,0-5.25-7.13-.28-7.13,5.53,0,5.25Z" fill="#010101"/>
      <path d="M160.62,173.28l-6.64-7.37h3.65l6.28,7.37h-3.29Zm-1.66,2.65c-1.6,0-2.95-.21-4.24-.63v-1.33c2.19,.77,5.84,1.06,7.05-.5,0,0,6.51-7.56,6.51-7.56h3.52c-2.69,1.89-6.7,10.42-12.84,10.02Z" fill="#010101"/>
      <path d="M173.74,165.9h3.29v7.61h-3.29v-7.61Zm1.86,3.08h11.79v1.35h-11.79v-1.35Zm10.42-3.08h3.29v7.61h-3.29v-7.61Z" fill="#010101"/>
      <path d="M207.34,169.71c-.87,5-15.51,5.39-15.27,0-.27-5.39,14.45-5,15.27,0Zm-11.9,0c0,3.68,9.41,3.05,10.72,0-1.32-3.05-10.72-3.68-10.72,0Zm10.87,3.81l-.56-2.83,.66-.98-.66-.97,.56-2.84h3.42l-.77,3.81,.77,3.81h-3.42Z" fill="#010101"/>
      <path d="M231.64,172.17v3.27h-2.88v-1.92h-14.45v1.92h-2.88v-3.27c5.63,.03,14.59,.03,20.22,0Zm-17-6.27h14.32v7.1h-3.32v-6.56l1.53,.81h-10.8l1.43-.59c.21,2.11,1.09,5.95-3.62,6.35l-1.35-.61c2.41-.73,2.29-4.61,1.81-6.5Z" fill="#010101"/>
      <path d="M234.04,173.52v-7.61h3.32v7.13l-1.17-.81c2.29-.22,9.21,.76,9.06-1.33,.18-2.1-6.67-1.14-8.96-1.35v-1.25c2.13,.08,7.73-.24,9.57,.33,3.65,.8,3.65,3.77,0,4.57-1.89,.59-9.63,.23-11.82,.32Zm16.24-7.61h3.32v7.61h-3.32v-7.61Z" fill="#010101"/>
    </g>
  </g>
</svg>