<?xml version="1.0" encoding="UTF-8"?>
<svg id="_Слой_2" data-name="Слой 2" xmlns="http://www.w3.org/2000/svg" viewBox="0 0 183.39 262.39">
  <g id="_Слой_1-2" data-name="Слой 1">
    <g>
      <path d="M16.94,159.07c.51-6.26,1.56-12.38,4.52-18-.8-.6-1.52-1.13-2.23-1.66-.2-6.01,.3-11.84,1.27-18,1.76,.12,3.31,.07,4.81,.35,3.62,.67,7.2,1.54,10.82,2.21,1.95,.36,3.96,.52,5.96-.36-.32-2.39-.73-4.56-.88-6.76-.22-3.3-.42-6.61-.3-9.91,.09-2.28,.85-2.81,3.12-3.11,15.25-2.05,30.51-4.1,45.77-6.1,12.05-1.59,24.11-3.11,36.66-4.73-1.26-.32-2.04-.59-2.85-.7-8.58-1.17-17.17-2.33-25.75-3.47-10.42-1.39-20.83-2.77-31.25-4.12-6.94-.9-13.88-1.76-20.82-2.64-1.66-.21-3.29-.49-4.74-2.23,.39-6,.79-12.31,1.22-18.84-1.17-.17-2.17-.54-3.12-.42-3,.36-5.99,.85-8.96,1.39-2.96,.54-5.76,.87-9.53,1.34-.28-1.03-.18-2.13-.28-3.11-.39-3.66-.58-7.34-1.06-10.99-.05-.66,1.58-2.7,2.59-4.92-.6-1.27-1.17-2.43-1.69-3.61-2.18-4.97-2.84-10.26-3.27-15.6-.25-4.99-.87-10.82,.22-16.41C17.63,5.23,18.7,3.27,19.88,0c.92,0,5.72-.02,6.95,.43,4.95,1.8,6.92,4.54,6.86,9.75-.02,1.47-.19,2.94-.41,4.39-.2,1.36-.39,2.76-.86,4.04-2.44,6.65-.62,12.64,2.68,18.61,.21-.53,.33-.95,.54-1.33,.25-.46,.57-.89,.85-1.31,2.49,1.04,2.97,1.66,2.81,3.85-.07,.9-.35,1.8-.61,2.67-.62,2.08-.24,3.16,1.76,3.91,1.26,.47,2.65,.59,4.13,.9,1.02-4.1,1.94-8.03,2.97-11.93,1.86-7.04,4.1-13.95,7.87-20.24,1.51-2.52,3.2-4.94,5.82-6.53,.66,.25,1.27,.47,1.86,.72,21.84,9.26,43.69,18.5,65.51,27.8,11.17,4.76,22.29,9.62,33.44,14.42,2.6,1.12,4.58,2.76,4.81,5.83,0,3.21,.01,6.42,.02,9.63-.01,.71-.02,1.42-.04,2.13-.6,5.7-1.74,11.26-3.96,16.59-1.26,3.04-3.36,5.02-6.36,6.1-1.47,.52-3.01,.84-4.52,1.26-.9,.25-1.79,.54-2.69,.81,2.4,1.07,4.77,1.67,7.12,2.33,2.72,.76,4.76,2.34,5.9,4.99,3.98,9.2,5.23,18.75,3.63,28.66-.38,2.33-1.54,4.16-3.49,5.4-1.31,.83-2.74,1.5-4.16,2.13-3.03,1.33-6.11,2.54-9.15,3.87-25.2,10.99-50.4,21.99-75.6,32.99-3.7,1.61-7.4,3.22-11.24,4.89-1.21-.97-2.57-1.7-3.45-2.82-1.7-2.16-3.33-4.43-4.61-6.85-3.33-6.29-5.26-13.12-7.24-19.93-.87-2.98-1.73-5.96-2.57-8.86-.54-.06-.82-.13-1.09-.12-4.32,.18-5.21,1.3-4.5,5.5,.2,1.17,.34,2.39,.19,3.56-.23,1.8-.92,2.2-3.11,2.21-.38-.64-.78-1.3-1.41-2.35-.93,2.65-1.81,4.86-2.49,7.12-1.2,4-1.21,7.97,.54,11.88,1.19,2.67,1.36,5.54,1.08,8.41-.43,4.45-3.21,7.97-7.06,8.98-1.06,.28-5.83,.18-6.73,.71-1.34-2.02-2.39-5.58-2.83-9.36-.77-7.16-.32-11.22-.11-16.75Zm29.74-23.9c38.67-8.97,76.84-17.82,115.1-26.69-.07-.86-.07-1.41-.17-1.94-.1-.52-.31-1.02-.51-1.64-38.69,7.12-77.23,14.21-116.05,21.35,.54,2.97,1.03,5.66,1.63,8.92Zm114.38-54.73c.45-1.39,.8-2.48,1.22-3.76-38.54-8.49-76.47-18.91-115.34-26.06-.5,2.8-1.38,5.29-.96,8.02,38.41,7.28,76.67,14.52,115.08,21.8ZM52.75,27.18c37.21,13.04,74.11,25.97,111.1,38.93,.14-.84,.27-1.37,.31-1.92,.05-.52,0-1.05,0-1.64-36.16-14.32-72.08-28.91-108.71-41.97-.27,.53-.5,.92-.66,1.34-.65,1.62-1.27,3.24-2.06,5.26Zm110.62,91.97c-36.86,12.93-73.67,25.4-110.41,38.92,1.06,2.48,1.98,4.64,2.98,6.97,36.05-14.22,71.79-28.31,107.43-42.37v-3.52Zm-.75-7.14c-38.07,10.4-75.94,20.75-114.17,31.19,.68,2.41,1.33,4.72,1.99,7.09,37.77-11.67,75.18-23.23,112.67-34.82-.18-1.28-.32-2.25-.49-3.46Zm.87-42.13c-17.03-6.26-109.29-34.17-113.39-34.25-.51,2.06-1.04,4.16-1.57,6.28,38.26,10.41,76.26,20.75,114.43,31.14,.21-1.25,.36-2.14,.53-3.16ZM26.83,124.88c-1.46,4-1.28,9.87,.34,12.28-.1,.23-.16,.52-.31,.73-4.87,6.72-7.2,14.22-6.97,22.51,.14,5.16,.22,10.32,.59,15.46,.16,2.22,1.02,4.39,1.56,6.61,.83,0,1.28,0,1.73,0,4.19-.02,7.98-2.48,7.81-7.99-.1-3.35-.69-6.57-1.51-9.77-.53-2.06-.93-4.05-.32-6.21,.85-2.98,1.43-6.04,2.1-8.97-1.2-1.09-2.25-2.04-3.48-3.16,2.11-1.16,2.49,1.3,4.14,1.14,.31-.64,.7-1.42,1.09-2.22-.59-.93-1.13-1.77-1.61-2.52-.8-.19-1.45-.34-2.19-.52,.78-1.91,2.2-1.28,3.36-1.37,.69,.64,1.33,1.23,1.93,1.77,1.84-.98,1.25-2.33,.68-3.42-1.36-2.62-1.06-5.38-.9-8.13,.1-1.62,.43-3.24,.67-4.89-2.89-1.39-5.69-1.55-8.74-1.34ZM22.29,2.42c-1.48,3.9-2.23,7.95-2.38,12.07-.21,5.71,.17,11.38,.91,17.07,.67,5.18,2.38,9.78,5.31,14.01,.56,.82,.99,1.73,1.47,2.6-.67,.7-1.22,1.28-1.87,1.95,.29,3.27,.58,6.53,.87,9.75,3.29,.28,6.01-.35,8.8-1.7-.05-1.09,.05-2.22-.18-3.26-.74-3.23-.83-6.37,.8-9.38,.71-1.32,.49-2.39-.8-3.41-.86,1.24-1.64,2.35-2.35,3.38q-2.36-.03-2.84-1.56c.89-.08,1.77-.16,2.78-.26,.63-1.97,.42-3.81,.13-5.62-1.74-.24-2.74,2.63-4.9,.62,1.46-.85,2.7-1.58,4.03-2.36-.19-.65-.34-1.26-.55-1.86-2.03-5.8-2.51-11.63-.62-17.59,.52-1.65,.88-3.4,.96-5.13,.12-2.4-.18-4.79-1.78-6.78-2.01-2.5-4.69-3-7.8-2.55Zm21.9,68.63c9.18,1.33,17.93,2.6,26.68,3.87,9.48,1.38,18.97,2.74,28.45,4.15,9.29,1.38,18.58,2.79,27.87,4.2,8.19,1.25,16.38,2.54,24.57,3.75,1.27,.19,2.59,.24,3.86,.12,1.52-.14,2.75-.86,3.17-2.57-38.02-6.63-75.92-13.17-114.33-18.79-.1,1.94-.18,3.46-.27,5.26Zm.02,48.38c38.58-6.26,76.65-12.44,115.1-18.68-.5-.84-.73-1.32-1.04-1.73-.32-.43-.72-.8-1.14-1.25-37.79,5.47-75.52,10.93-113.5,16.42,.21,1.89,.38,3.4,.59,5.24ZM59.14,14.49c34.81,14.25,69.65,28.5,104.86,42.91-.29-1.35-.49-2.3-.75-3.54-33.81-14.43-67.63-28.87-101.4-43.29-1.54,.84-2.58,1.9-2.71,3.92Zm103.73,113.33c-34.79,14.28-69.21,28.36-103.7,43.38,1.08,1.25,1.88,2.17,2.7,3.13,5.52-2.27,10.82-4.35,16.04-6.61,18.65-8.07,37.28-16.2,55.91-24.31,8.6-3.75,17.18-7.52,25.79-11.26,1.76-.76,3.22-1.7,3.26-4.33ZM44.06,78.65c5.25,.72,10.18,1.42,15.11,2.08,10.51,1.4,21.02,2.8,31.54,4.18,8.05,1.06,16.09,2.12,24.14,3.14,7.13,.9,14.26,1.88,21.41,2.57,3.45,.33,6.96,.07,10.94-1.07-34.76-4.61-68.74-10.38-103.14-14.38v3.48Zm103.5,17.26c-2.65-1.33-5.55-1.78-8.49-1.42-10.88,1.33-21.76,2.73-32.63,4.13-17.55,2.25-35.1,4.51-52.65,6.79-3.36,.44-6.7,1.01-10.06,1.52v3.39c34.73-4.82,69.28-9.62,103.84-14.41Zm-110.11,30.37c-1.14,4.21-2.48,8.06,.05,12.11,2.28-.46,4.47-.9,6.72-1.35-.71-3.95-1.34-7.53-2.01-11.27-1.68,.18-3.11,.33-4.76,.51Zm6.85-78.41c-2.43-.5-4.55-.94-6.73-1.39-2.65,4.2-.84,7.95,.14,11.69,1.72,.21,3.16,.39,4.9,.61,.56-3.61,1.1-7.11,1.68-10.91Zm-7.66,98.55c1.15-.58,.75-.92-.13-1.25,.04,.35,.07,.7,.13,1.25Zm.32-106.15c.13-.01,.25-.03,.38-.04v-2.17c-.21,.02-.42,.03-.63,.05,.08,.72,.17,1.44,.25,2.17Z" fill="#141313"/>
      <path d="M46.68,135.17c-.6-3.26-1.09-5.95-1.63-8.92,38.82-7.14,77.36-14.23,116.05-21.35,.2,.62,.41,1.12,.51,1.64,.1,.53,.1,1.07,.17,1.94-38.26,8.87-76.43,17.72-115.1,26.69Z" fill="#f1f0f0"/>
      <path d="M161.06,80.44c-38.41-7.28-76.67-14.52-115.08-21.8-.42-2.73,.46-5.23,.96-8.02,38.87,7.16,76.79,17.58,115.34,26.06-.41,1.27-.77,2.37-1.22,3.76Z" fill="#f1f0f0"/>
      <path d="M52.75,27.18c.79-2.02,1.41-3.65,2.06-5.26,.17-.42,.4-.81,.66-1.34,36.63,13.06,72.55,27.65,108.71,41.97,0,.6,.04,1.12,0,1.64-.05,.54-.17,1.08-.31,1.92-37-12.96-73.9-25.89-111.1-38.93Z" fill="#f1f0f0"/>
      <path d="M163.36,119.15v3.52c-35.64,14.06-71.38,28.15-107.43,42.37-1-2.33-1.92-4.49-2.98-6.97,36.74-13.52,73.55-25.99,110.41-38.92Z" fill="#f1f0f0"/>
      <path d="M162.61,112.01c.17,1.21,.31,2.18,.49,3.46-37.49,11.59-74.9,23.15-112.67,34.82-.66-2.36-1.32-4.68-1.99-7.09,38.23-10.44,76.11-20.79,114.17-31.19Z" fill="#f1f0f0"/>
      <path d="M163.48,69.88c-.17,1.02-.32,1.91-.53,3.16-38.18-10.39-76.18-20.73-114.43-31.14,.53-2.11,1.06-4.22,1.57-6.28,4.1,.08,96.36,27.99,113.39,34.25Z" fill="#f1f0f0"/>
      <path d="M26.83,124.88c3.04-.21,5.85-.05,8.74,1.34-.24,1.66-.57,3.27-.67,4.89-.16,2.75-.46,5.51,.9,8.13,.56,1.09,1.16,2.44-.68,3.42-.59-.55-1.23-1.13-1.93-1.77-1.16,.09-2.58-.54-3.36,1.37,.74,.17,1.39,.33,2.19,.52,.48,.75,1.02,1.59,1.61,2.52-.39,.79-.78,1.58-1.09,2.22-1.66,.15-2.03-2.3-4.14-1.14,1.23,1.11,2.28,2.07,3.48,3.16-.67,2.93-1.25,5.98-2.1,8.97-.61,2.16-.21,4.16,.32,6.21,.82,3.2,1.4,6.42,1.51,9.77,.17,5.51-3.62,7.96-7.81,7.99-.45,0-.9,0-1.73,0-.55-2.22-1.4-4.39-1.56-6.61-.38-5.14-.45-10.3-.59-15.46-.23-8.29,2.09-15.79,6.97-22.51,.16-.21,.22-.5,.31-.73-1.63-2.4-1.81-8.28-.34-12.28Z" fill="#e03035"/>
      <path d="M22.29,2.42c3.11-.45,5.79,.05,7.8,2.55,1.6,1.99,1.89,4.38,1.78,6.78-.08,1.72-.44,3.48-.96,5.13-1.88,5.96-1.4,11.79,.62,17.59,.21,.59,.36,1.21,.55,1.86-1.33,.78-2.58,1.51-4.03,2.36,2.15,2.01,3.15-.86,4.9-.62,.29,1.81,.5,3.66-.13,5.62-1.02,.09-1.9,.17-2.78,.26q.48,1.53,2.84,1.56c.71-1.03,1.49-2.14,2.35-3.38,1.29,1.01,1.51,2.09,.8,3.41-1.63,3.01-1.53,6.15-.8,9.38,.24,1.05,.13,2.17,.18,3.26-2.8,1.35-5.52,1.99-8.8,1.7-.29-3.22-.58-6.48-.87-9.75,.64-.67,1.19-1.25,1.87-1.95-.49-.87-.91-1.78-1.47-2.6-2.93-4.24-4.64-8.83-5.31-14.01-.73-5.69-1.12-11.36-.91-17.07,.15-4.12,.9-8.17,2.38-12.07Z" fill="#e03035"/>
      <path d="M44.18,71.04c.09-1.8,.17-3.32,.27-5.26,38.41,5.62,76.32,12.16,114.33,18.79-.43,1.71-1.65,2.42-3.17,2.57-1.27,.12-2.59,.07-3.86-.12-8.2-1.22-16.38-2.51-24.57-3.75-9.29-1.41-18.58-2.82-27.87-4.2-9.48-1.41-18.97-2.77-28.45-4.15-8.75-1.27-17.5-2.54-26.68-3.87Z" fill="#f1f0f0"/>
      <path d="M44.21,119.42c-.21-1.84-.37-3.34-.59-5.24,37.98-5.49,75.71-10.95,113.5-16.42,.42,.45,.82,.82,1.14,1.25,.31,.41,.54,.88,1.04,1.73-38.44,6.24-76.52,12.42-115.1,18.68Z" fill="#f1f0f0"/>
      <path d="M59.14,14.49c.13-2.02,1.16-3.08,2.71-3.92,33.77,14.42,67.59,28.85,101.4,43.29,.26,1.24,.47,2.19,.75,3.54-35.21-14.41-70.05-28.66-104.86-42.91Z" fill="#f1f0f0"/>
      <path d="M162.87,127.82c-.04,2.63-1.5,3.56-3.26,4.33-8.6,3.74-17.19,7.51-25.79,11.26-18.63,8.11-37.26,16.24-55.91,24.31-5.22,2.26-10.52,4.34-16.04,6.61-.83-.96-1.62-1.88-2.7-3.13,34.49-15.02,68.91-29.1,103.7-43.38Z" fill="#f1f0f0"/>
      <path d="M44.06,78.65v-3.48c34.4,4,68.38,9.78,103.14,14.38-3.98,1.14-7.49,1.4-10.94,1.07-7.15-.69-14.28-1.66-21.41-2.57-8.05-1.02-16.1-2.08-24.14-3.14-10.51-1.38-21.03-2.78-31.54-4.18-4.93-.66-9.86-1.36-15.11-2.08Z" fill="#f1f0f0"/>
      <path d="M147.56,95.91c-34.56,4.8-69.12,9.59-103.84,14.41v-3.39c3.36-.51,6.7-1.08,10.06-1.52,17.55-2.28,35.1-4.54,52.65-6.79,10.88-1.4,21.75-2.8,32.63-4.13,2.94-.36,5.84,.08,8.49,1.42Z" fill="#f1f0f0"/>
      <path d="M37.46,126.29c1.65-.18,3.08-.33,4.76-.51,.67,3.74,1.31,7.32,2.01,11.27-2.25,.45-4.44,.89-6.72,1.35-2.53-4.05-1.19-7.89-.05-12.11Z" fill="#f1f0f0"/>
      <path d="M44.31,47.87c-.58,3.79-1.12,7.29-1.68,10.91-1.74-.22-3.18-.39-4.9-.61-.99-3.74-2.8-7.48-.14-11.69,2.17,.45,4.3,.89,6.73,1.39Z" fill="#f1f0f0"/>
    </g>
    <g>
      <path d="M40.07,235.54c-8.95,2.18,3.93-30.26,3.83-35.53-6.4,9.9-11.29,25.69-22.31,31.2-10.94-.17-.53-21.75-.6-27.59-6.26,9.82-11.43,23.25-18.02,32.55-5.48-1.73-1.94-8.8,.44-11.68,4.53-8.77,10.74-19.7,15.6-27.65,1.13-2.19,2.46-6.53,5.27-5.05,8.3,4.3-2.91,24.74-1.48,32.01,7.83-8.25,12.15-19.64,18.96-29.75,1.81-3.45,4.2-5.89,7.34-2.51,3.77,3.25-2.49,17.73-3.26,22.97-1.45,4.56-1.74,7.88-2.7,12.43-.33,3.18,.32,7.64-3.08,8.6Z" fill="#010101"/>
      <path d="M74.03,238.36c-1.91-.77-3.22-2.2-2.76-4.27,4.83-9.96,9.15-23.18,13.43-34.09-8.28,9.32-16.16,20.15-25.01,28.78-2.05,1.84-4.53,4.45-7.19,5.3-2.77-.48-4.02-1.47-3.42-3.92,3.8-13.18,7-26.33,13.34-38.57,.9-1.47,.14-2.79,1.32-3.64,2.99-1.44,5.6,2.11,4.33,4.9-3.48,8.58-9.06,23.58-12.43,32.08,3.26-3.35,14.18-13.74,16.7-17.39,4.37-5.73,11.51-12.19,16.26-17.58,1.97-1.15,4.02-.65,4.68,1.66-2.99,11.65-9.47,23.42-12.8,35.28-1.22,2.18-3.46,13.17-6.44,11.46Z" fill="#010101"/>
      <path d="M89.91,235.48c-2.43-1.1-2.07-3.46-1.51-5.65,3.79-11.23,7.57-23.6,12.81-34.52,.58-.7,1.06-2.96,1.88-3.7,3.08-1.86,4.67-.53,4.83,2.54-1.78,5.07-5.42,10.99-6.84,16.16-1.63,3.92-3.6,8.61-4.77,12.96-1.18,2.09-3.13,15.66-6.4,12.21Zm7.66-24.1c4.24-1.74,26.96-25.43,28.53-17.55,.87,1.92,.57,2.7-1.41,3.74-5.63,3.03-10.43,7.79-15.13,10.86-2.79,2.84-6.9,4.73-9.73,7.66l-2.26-4.71Zm14.56,23.98c-7.69-2.82-12.06-12.28-13.43-19.9,0,0,.06-3.89,.06-3.89l4.58-.31c.77,7.15,3.97,15.65,10.61,18.52,4.52,1.06,2.6,8.19-1.82,5.59Z" fill="#010101"/>
      <path d="M126.13,234.72c-9.92-5.44-2.54-24.91,2.07-32.95,3.06-5.49,8.67-10.1,13.69-11.17,25.35-5.41,2.28,53.09-15.76,44.13Zm12.92-21.28c4.74-.01,12.55-17.45,5.01-17.12-3.67,1.57-11.01,15.99-5.01,17.12Z" fill="#e03035"/>
      <path d="M159.96,236.67c-19.52-6.79,3.36-52.63,19.77-47.49,7.85,3.13,1.01,20.47-3.36,18.49-1.12-.3-3.4-1.94-2.61-2.83,1.06-1.38,2.53-4.11,3.14-5.77,4.53-16.7-19.91,11.87-18.33,23.88-1.21,14.81,10.77,4.5,17.51,1.66,8.17,2.92-12.53,13.81-16.13,12.05Z" fill="#010101"/>
    </g>
    <g>
      <path d="M0,248.42H11.13v1.91H0v-1.91Zm4.36,.84h2.41v9.76h-2.41v-9.76Z" fill="#010101"/>
      <path d="M17.94,259.28c-4.54,.36-7.99-4.53-5.56-8.48,3.2-5,11.67-2.46,11.01,3.77H13.5v-1.85h8.68l-1.21,.69c.14-3.5-4.86-4.57-6.47-1.71-2.5,5.48,5.15,7.15,8.59,4.2v1.76c-1.35,1.05-3.4,1.62-5.16,1.61Z" fill="#010101"/>
      <path d="M35.91,253.72c-.63,6.96-11.27,7.5-11.09,0-.2-7.5,10.5-6.96,11.09,0Zm-8.64,0c0,5.12,6.84,4.24,7.79,0-.96-4.25-7.79-5.12-7.79,0Zm7.9,5.3l-.41-3.93,.48-1.37-.48-1.35,.41-3.95h2.49l-.56,5.3,.56,5.3h-2.49Z" fill="#010101"/>
      <path d="M38.94,248.42h11.13v1.91h-11.13v-1.91Zm4.36,.84h2.41v9.76h-2.41v-9.76Z" fill="#010101"/>
      <path d="M51.59,248.42h2.41c-.09,3.87,0,9.76,0,13.69h-2.41v-13.69Zm1.48,5.3c.62-6.96,11.28-7.5,11.09,0,.17,7.51-10.45,6.95-11.09,0Zm8.64,0c0-5.12-6.81-4.24-7.79,0,.98,4.24,7.78,5.12,7.79,0Z" fill="#010101"/>
      <path d="M71.08,259.02v-10.6h2.41v8.54l-.72-.26,6.7-8.28h2.75l-8.9,10.6h-2.23Zm8.64,0l-3.26-5.24,1.69-1.54,4.4,6.78h-2.82Z" fill="#010101"/>
      <path d="M85.59,248.42h10.33v10.6h-2.41v-9.85l1.11,1.12h-7.83l1.04-.86c.53,4.06,.73,11.87-5.16,9.33v-1.82c4.62,1.59,2.97-5.72,2.91-8.52Z" fill="#010101"/>
      <path d="M104.29,259.28c-8.4,.4-8.4-11.53,0-11.13,8.4-.4,8.4,11.52,0,11.13Zm0-1.91c5.18,.4,5.18-7.71,0-7.3-5.18-.39-5.18,7.7,0,7.3Z" fill="#010101"/>
      <path d="M115.83,258.68l-4.82-10.26h2.65l4.56,10.26h-2.39Zm-1.21,3.69c-1.16,0-2.14-.29-3.08-.88v-1.85c1.59,1.08,4.24,1.47,5.12-.69,0,0,4.73-10.53,4.73-10.53h2.56c-1.95,2.63-4.87,14.5-9.33,13.95Z" fill="#010101"/>
      <path d="M125.36,248.42h2.39v10.6h-2.39v-10.6Zm1.35,4.29h8.57v1.87h-8.57v-1.87Zm7.57-4.29h2.39v10.6h-2.39v-10.6Z" fill="#010101"/>
      <path d="M149.77,253.72c-.63,6.96-11.27,7.5-11.09,0-.2-7.5,10.5-6.96,11.09,0Zm-8.64,0c0,5.12,6.84,4.24,7.79,0-.96-4.25-7.79-5.12-7.79,0Zm7.9,5.3l-.41-3.93,.48-1.37-.48-1.35,.41-3.95h2.49l-.56,5.3,.56,5.3h-2.49Z" fill="#010101"/>
      <path d="M167.43,257.15v4.55h-2.1v-2.68h-10.5v2.68h-2.1v-4.55c4.09,.05,10.6,.04,14.69,0Zm-12.35-8.73h10.41v9.89h-2.41v-9.14l1.11,1.12h-7.85l1.04-.82c.15,2.93,.79,8.28-2.63,8.84l-.98-.84c1.75-1.02,1.66-6.41,1.32-9.05Z" fill="#010101"/>
      <path d="M169.18,259.02v-10.6h2.41v9.93l-.85-1.12c1.67-.3,6.69,1.06,6.59-1.85,.13-2.93-4.85-1.58-6.51-1.87v-1.74c1.55,.11,5.62-.33,6.96,.46,2.65,1.12,2.65,5.25,0,6.36-1.37,.82-6.99,.32-8.59,.45Zm11.8-10.6h2.41v10.6h-2.41v-10.6Z" fill="#010101"/>
    </g>
  </g>
</svg>