<?xml version="1.0" encoding="UTF-8"?>
<svg id="_Слой_2" data-name="Слой 2" xmlns="http://www.w3.org/2000/svg" viewBox="0 0 185.18 244.97">
  <g id="_Слой_1-2" data-name="Слой 1">
    <g>
      <path d="M159.07,149.93c-6.26-.51-12.38-1.56-18-4.52-.6,.8-1.13,1.52-1.66,2.23-6.01,.2-11.84-.3-18-1.27,.12-1.76,.07-3.31,.35-4.81,.67-3.62,1.54-7.2,2.21-10.82,.36-1.95,.52-3.96-.36-5.96-2.39,.32-4.56,.73-6.76,.88-3.3,.22-6.61,.42-9.91,.3-2.28-.09-2.81-.85-3.11-3.12-2.05-15.25-4.1-30.51-6.1-45.77-1.59-12.05-3.11-24.11-4.73-36.66-.32,1.26-.59,2.04-.7,2.85-1.17,8.58-2.33,17.17-3.47,25.75-1.39,10.42-2.77,20.83-4.12,31.25-.9,6.94-1.76,13.88-2.64,20.82-.21,1.66-.49,3.29-2.23,4.74-6-.39-12.31-.79-18.84-1.22-.17,1.17-.54,2.17-.42,3.12,.36,3,.85,5.99,1.39,8.96,.54,2.96,.87,5.76,1.34,9.53-1.03,.28-2.13,.18-3.11,.28-3.66,.39-7.34,.58-10.99,1.06-.66,.05-2.7-1.58-4.92-2.59-1.27,.6-2.43,1.17-3.61,1.69-4.97,2.18-10.26,2.84-15.6,3.27-4.99,.25-10.82,.87-16.41-.22-3.41-.47-5.37-1.54-8.64-2.71,0-.92-.02-5.72,.43-6.95,1.8-4.95,4.54-6.92,9.75-6.86,1.47,.02,2.94,.19,4.39,.41,1.36,.2,2.76,.39,4.04,.86,6.65,2.44,12.64,.62,18.61-2.68-.53-.21-.95-.33-1.33-.54-.46-.25-.89-.57-1.31-.85,1.04-2.49,1.66-2.97,3.85-2.81,.9,.07,1.8,.35,2.67,.61,2.08,.62,3.16,.24,3.91-1.76,.47-1.26,.59-2.65,.9-4.13-4.1-1.02-8.03-1.94-11.93-2.97-7.04-1.86-13.95-4.1-20.24-7.87-2.52-1.51-4.94-3.2-6.53-5.82,.25-.66,.47-1.27,.72-1.86,9.26-21.84,18.5-43.69,27.8-65.51,4.76-11.17,9.62-22.29,14.42-33.44C51.27,2.22,52.9,.25,55.98,.02c3.21,0,6.42-.01,9.63-.02,.71,.01,1.42,.02,2.13,.04,5.7,.6,11.26,1.74,16.59,3.96,3.04,1.26,5.02,3.36,6.1,6.36,.52,1.47,.84,3.01,1.26,4.52,.25,.9,.54,1.79,.81,2.69,1.07-2.4,1.67-4.77,2.33-7.12,.76-2.72,2.34-4.76,4.99-5.9,9.2-3.98,18.75-5.23,28.66-3.63,2.33,.38,4.16,1.54,5.4,3.49,.83,1.31,1.5,2.74,2.13,4.16,1.33,3.03,2.54,6.11,3.87,9.15,10.99,25.2,21.99,50.4,32.99,75.6,1.61,3.7,3.22,7.4,4.89,11.24-.97,1.21-1.7,2.57-2.82,3.45-2.16,1.7-4.43,3.33-6.85,4.61-6.29,3.33-13.12,5.26-19.93,7.24-2.98,.87-5.96,1.73-8.86,2.57-.06,.54-.13,.82-.12,1.09,.18,4.32,1.3,5.21,5.5,4.5,1.17-.2,2.39-.34,3.56-.19,1.8,.23,2.2,.92,2.21,3.11-.64,.38-1.3,.78-2.35,1.41,2.65,.93,4.86,1.81,7.12,2.49,4,1.2,7.97,1.21,11.88-.54,2.67-1.19,5.54-1.36,8.41-1.08,4.45,.43,7.97,3.21,8.98,7.06,.28,1.06,.18,5.83,.71,6.73-2.02,1.34-5.58,2.39-9.36,2.83-7.16,.77-11.22,.32-16.75,.11Zm-23.9-29.74c-8.97-38.67-17.82-76.84-26.69-115.1-.86,.07-1.41,.07-1.94,.17-.52,.1-1.02,.31-1.64,.51,7.12,38.69,14.21,77.23,21.35,116.05,2.97-.54,5.66-1.03,8.92-1.63ZM80.44,5.81c-1.39-.45-2.48-.8-3.76-1.22-8.49,38.54-18.91,76.47-26.06,115.34,2.8,.5,5.29,1.38,8.02,.96,7.28-38.41,14.52-76.67,21.8-115.08ZM27.18,114.13C40.22,76.92,53.15,40.02,66.11,3.02c-.84-.14-1.37-.27-1.92-.31-.52-.05-1.05,0-1.64,0-14.32,36.16-28.91,72.08-41.97,108.71,.53,.27,.92,.5,1.34,.66,1.62,.65,3.24,1.27,5.26,2.06ZM119.15,3.51c12.93,36.86,25.4,73.67,38.92,110.41,2.48-1.06,4.64-1.98,6.97-2.98-14.22-36.05-28.31-71.79-42.37-107.43h-3.52Zm-7.14,.75c10.4,38.07,20.75,75.94,31.19,114.17,2.41-.68,4.72-1.33,7.09-1.99-11.67-37.77-23.23-75.18-34.82-112.67-1.28,.18-2.25,.32-3.46,.49Zm-42.13-.87c-6.26,17.03-34.17,109.29-34.25,113.39,2.06,.51,4.16,1.04,6.28,1.57C52.31,80.1,62.65,42.1,73.03,3.92c-1.25-.21-2.14-.36-3.16-.53Zm55,136.65c4,1.46,9.87,1.28,12.28-.34,.23,.1,.52,.16,.73,.31,6.72,4.87,14.22,7.2,22.51,6.97,5.16-.14,10.32-.22,15.46-.59,2.22-.16,4.39-1.02,6.61-1.56,0-.83,0-1.28,0-1.73-.02-4.19-2.48-7.98-7.99-7.81-3.35,.1-6.57,.69-9.77,1.51-2.06,.53-4.05,.93-6.21,.32-2.98-.85-6.04-1.43-8.97-2.1-1.09,1.2-2.04,2.25-3.16,3.48-1.16-2.11,1.3-2.49,1.14-4.14-.64-.31-1.42-.7-2.22-1.09-.93,.59-1.77,1.13-2.52,1.61-.19,.8-.34,1.45-.52,2.19-1.91-.78-1.28-2.2-1.37-3.36,.64-.69,1.23-1.33,1.77-1.93-.98-1.84-2.33-1.25-3.42-.68-2.62,1.36-5.38,1.06-8.13,.9-1.62-.1-3.24-.43-4.89-.67-1.39,2.89-1.55,5.69-1.34,8.74ZM2.42,144.59c3.9,1.48,7.95,2.23,12.07,2.38,5.71,.21,11.38-.17,17.07-.91,5.18-.67,9.78-2.38,14.01-5.31,.82-.56,1.73-.99,2.6-1.47,.7,.67,1.28,1.22,1.95,1.87,3.27-.29,6.53-.58,9.75-.87,.28-3.29-.35-6.01-1.7-8.8-1.09,.05-2.22-.05-3.26,.18-3.23,.74-6.37,.83-9.38-.8-1.32-.71-2.39-.49-3.41,.8,1.24,.86,2.35,1.64,3.38,2.35q-.03,2.36-1.56,2.84c-.08-.89-.16-1.77-.26-2.78-1.97-.63-3.81-.42-5.62-.13-.24,1.74,2.63,2.74,.62,4.9-.85-1.46-1.58-2.7-2.36-4.03-.65,.19-1.26,.34-1.86,.55-5.8,2.03-11.63,2.51-17.59,.62-1.65-.52-3.4-.88-5.13-.96-2.4-.12-4.79,.18-6.78,1.78-2.5,2.01-3,4.69-2.55,7.8Zm68.63-21.9c1.33-9.18,2.6-17.93,3.87-26.68,1.38-9.48,2.74-18.97,4.15-28.45,1.38-9.29,2.79-18.58,4.2-27.87,1.25-8.19,2.54-16.38,3.75-24.57,.19-1.27,.24-2.59,.12-3.86-.14-1.52-.86-2.75-2.57-3.17-6.63,38.02-13.17,75.92-18.79,114.33,1.94,.1,3.46,.18,5.26,.27Zm48.38-.02c-6.26-38.58-12.44-76.65-18.68-115.1-.84,.5-1.32,.73-1.73,1.04-.43,.32-.8,.72-1.25,1.14,5.47,37.79,10.93,75.52,16.42,113.5,1.89-.21,3.4-.38,5.24-.59ZM14.49,107.73C28.74,72.92,42.99,38.08,57.4,2.87c-1.35,.29-2.3,.49-3.54,.75C39.43,37.44,24.99,71.25,10.57,105.03c.84,1.54,1.9,2.58,3.92,2.71ZM127.82,4c14.28,34.79,28.36,69.21,43.38,103.7,1.25-1.08,2.17-1.88,3.13-2.7-2.27-5.52-4.35-10.82-6.61-16.04-8.07-18.65-16.2-37.28-24.31-55.91-3.75-8.6-7.52-17.18-11.26-25.79-.76-1.76-1.7-3.22-4.33-3.26Zm-49.17,118.81c.72-5.25,1.42-10.18,2.08-15.11,1.4-10.51,2.8-21.02,4.18-31.54,1.06-8.05,2.12-16.09,3.14-24.14,.9-7.13,1.88-14.26,2.57-21.41,.33-3.45,.07-6.96-1.07-10.94-4.61,34.76-10.38,68.74-14.38,103.14h3.48ZM95.91,19.31c-1.33,2.65-1.78,5.55-1.42,8.49,1.33,10.88,2.73,21.76,4.13,32.63,2.25,17.55,4.51,35.1,6.79,52.65,.44,3.36,1.01,6.7,1.52,10.06h3.39c-4.82-34.73-9.62-69.28-14.41-103.84Zm30.37,110.11c4.21,1.14,8.06,2.48,12.11-.05-.46-2.28-.9-4.47-1.35-6.72-3.95,.71-7.53,1.34-11.27,2.01,.18,1.68,.33,3.11,.51,4.76Zm-78.41-6.85c-.5,2.43-.94,4.55-1.39,6.73,4.2,2.65,7.95,.84,11.69-.14,.21-1.72,.39-3.16,.61-4.9-3.61-.56-7.11-1.1-10.91-1.68Zm98.55,7.66c-.58-1.15-.92-.75-1.25,.13,.35-.04,.7-.07,1.25-.13Zm-106.15-.33c-.01-.13-.03-.25-.04-.38h-2.17c.02,.21,.03,.42,.05,.63,.72-.08,1.44-.17,2.17-.25Z" fill="#706f6f"/>
      <path d="M135.17,120.19c-3.26,.6-5.95,1.09-8.92,1.63-7.14-38.82-14.23-77.36-21.35-116.05,.62-.2,1.12-.41,1.64-.51,.53-.1,1.07-.1,1.94-.17,8.87,38.26,17.72,76.43,26.69,115.1Z" fill="#f1f0f0"/>
      <path d="M80.44,5.81c-7.28,38.41-14.52,76.67-21.8,115.08-2.73,.42-5.23-.46-8.02-.96,7.16-38.87,17.58-76.79,26.06-115.34,1.27,.41,2.37,.77,3.76,1.22Z" fill="#f1f0f0"/>
      <path d="M27.18,114.13c-2.02-.79-3.65-1.41-5.26-2.06-.42-.17-.81-.4-1.34-.66C33.64,74.78,48.23,38.86,62.55,2.7c.6,0,1.12-.04,1.64,0,.54,.05,1.08,.17,1.92,.31-12.96,37-25.89,73.9-38.93,111.1Z" fill="#f1f0f0"/>
      <path d="M119.15,3.51h3.52c14.06,35.64,28.15,71.38,42.37,107.43-2.33,1-4.49,1.92-6.97,2.98-13.52-36.74-25.99-73.55-38.92-110.41Z" fill="#f1f0f0"/>
      <path d="M112.01,4.27c1.21-.17,2.18-.31,3.46-.49,11.59,37.49,23.15,74.9,34.82,112.67-2.36,.66-4.68,1.32-7.09,1.99-10.44-38.23-20.79-76.11-31.19-114.17Z" fill="#f1f0f0"/>
      <path d="M69.88,3.39c1.02,.17,1.91,.32,3.16,.53-10.39,38.18-20.73,76.18-31.14,114.43-2.11-.53-4.22-1.06-6.28-1.57,.08-4.1,27.99-96.36,34.25-113.39Z" fill="#f1f0f0"/>
      <path d="M124.88,140.05c-.21-3.04-.05-5.85,1.34-8.74,1.66,.24,3.27,.57,4.89,.67,2.75,.16,5.51,.46,8.13-.9,1.09-.56,2.44-1.16,3.42,.68-.55,.59-1.13,1.23-1.77,1.93,.09,1.16-.54,2.58,1.37,3.36,.17-.74,.33-1.39,.52-2.19,.75-.48,1.59-1.02,2.52-1.61,.79,.39,1.58,.78,2.22,1.09,.15,1.66-2.3,2.03-1.14,4.14,1.11-1.23,2.07-2.28,3.16-3.48,2.93,.67,5.98,1.25,8.97,2.1,2.16,.61,4.16,.21,6.21-.32,3.2-.82,6.42-1.4,9.77-1.51,5.51-.17,7.96,3.62,7.99,7.81,0,.45,0,.9,0,1.73-2.22,.55-4.39,1.4-6.61,1.56-5.14,.38-10.3,.45-15.46,.59-8.29,.23-15.79-2.09-22.51-6.97-.21-.16-.5-.22-.73-.31-2.4,1.63-8.28,1.81-12.28,.34Z" fill="#0b5428"/>
      <path d="M2.42,144.59c-.45-3.11,.05-5.79,2.55-7.8,1.99-1.6,4.38-1.89,6.78-1.78,1.72,.08,3.48,.44,5.13,.96,5.96,1.88,11.79,1.4,17.59-.62,.59-.21,1.21-.36,1.86-.55,.78,1.33,1.51,2.58,2.36,4.03,2.01-2.15-.86-3.15-.62-4.9,1.81-.29,3.66-.5,5.62,.13,.09,1.02,.17,1.9,.26,2.78q1.53-.48,1.56-2.84c-1.03-.71-2.14-1.49-3.38-2.35,1.01-1.29,2.09-1.51,3.41-.8,3.01,1.63,6.15,1.53,9.38,.8,1.05-.24,2.17-.13,3.26-.18,1.35,2.8,1.99,5.52,1.7,8.8-3.22,.29-6.48,.58-9.75,.87-.67-.64-1.25-1.19-1.95-1.87-.87,.49-1.78,.91-2.6,1.47-4.24,2.93-8.83,4.64-14.01,5.31-5.69,.73-11.36,1.12-17.07,.91-4.12-.15-8.17-.9-12.07-2.38Z" fill="#0b5428"/>
      <path d="M71.04,122.69c-1.8-.09-3.32-.17-5.26-.27,5.62-38.41,12.16-76.32,18.79-114.33,1.71,.43,2.42,1.65,2.57,3.17,.12,1.27,.07,2.59-.12,3.86-1.22,8.2-2.51,16.38-3.75,24.57-1.41,9.29-2.82,18.58-4.2,27.87-1.41,9.48-2.77,18.97-4.15,28.45-1.27,8.75-2.54,17.5-3.87,26.68Z" fill="#f1f0f0"/>
      <path d="M119.42,122.67c-1.84,.21-3.34,.37-5.24,.59-5.49-37.98-10.95-75.71-16.42-113.5,.45-.42,.82-.82,1.25-1.14,.41-.31,.88-.54,1.73-1.04,6.24,38.44,12.42,76.52,18.68,115.1Z" fill="#f1f0f0"/>
      <path d="M14.49,107.73c-2.02-.13-3.08-1.16-3.92-2.71C24.99,71.25,39.43,37.44,53.86,3.63c1.24-.26,2.19-.47,3.54-.75C42.99,38.08,28.74,72.92,14.49,107.73Z" fill="#f1f0f0"/>
      <path d="M127.82,4c2.63,.04,3.56,1.5,4.33,3.26,3.74,8.6,7.51,17.19,11.26,25.79,8.11,18.63,16.24,37.26,24.31,55.91,2.26,5.22,4.34,10.52,6.61,16.04-.96,.83-1.88,1.62-3.13,2.7-15.02-34.49-29.1-68.91-43.38-103.7Z" fill="#f1f0f0"/>
      <path d="M78.65,122.81h-3.48c4-34.4,9.78-68.38,14.38-103.14,1.14,3.98,1.4,7.49,1.07,10.94-.69,7.15-1.66,14.28-2.57,21.41-1.02,8.05-2.08,16.1-3.14,24.14-1.38,10.51-2.78,21.03-4.18,31.54-.66,4.93-1.36,9.86-2.08,15.11Z" fill="#f1f0f0"/>
      <path d="M95.91,19.31c4.8,34.56,9.59,69.12,14.41,103.84h-3.39c-.51-3.36-1.08-6.7-1.52-10.06-2.28-17.55-4.54-35.1-6.79-52.65-1.4-10.88-2.8-21.75-4.13-32.63-.36-2.94,.08-5.84,1.42-8.49Z" fill="#f1f0f0"/>
      <path d="M126.29,129.42c-.18-1.65-.33-3.08-.51-4.76,3.74-.67,7.32-1.31,11.27-2.01,.45,2.25,.89,4.44,1.35,6.72-4.05,2.53-7.89,1.19-12.11,.05Z" fill="#f1f0f0"/>
      <path d="M47.87,122.56c3.79,.58,7.29,1.12,10.91,1.68-.22,1.74-.39,3.18-.61,4.9-3.74,.99-7.48,2.8-11.69,.14,.45-2.17,.89-4.3,1.39-6.73Z" fill="#f1f0f0"/>
    </g>
    <g>
      <path d="M40.96,218.11c-8.95,2.18,3.93-30.26,3.83-35.53-6.4,9.9-11.29,25.69-22.31,31.2-10.94-.17-.53-21.75-.6-27.59-6.26,9.82-11.43,23.25-18.02,32.55-5.48-1.73-1.94-8.8,.44-11.68,4.53-8.77,10.74-19.7,15.6-27.65,1.13-2.19,2.46-6.53,5.27-5.05,8.3,4.3-2.91,24.74-1.48,32.01,7.83-8.25,12.15-19.64,18.96-29.75,1.81-3.45,4.2-5.89,7.34-2.51,3.77,3.25-2.49,17.73-3.26,22.97-1.45,4.56-1.74,7.88-2.7,12.43-.33,3.18,.32,7.64-3.08,8.6Z" fill="#706f6f"/>
      <path d="M74.92,220.94c-1.91-.77-3.22-2.2-2.76-4.27,4.83-9.96,9.15-23.18,13.43-34.09-8.28,9.32-16.16,20.15-25.01,28.78-2.05,1.84-4.53,4.45-7.19,5.3-2.77-.48-4.02-1.47-3.42-3.92,3.8-13.18,7-26.33,13.34-38.57,.9-1.47,.14-2.79,1.32-3.64,2.99-1.44,5.6,2.11,4.33,4.9-3.48,8.58-9.06,23.58-12.43,32.08,3.26-3.35,14.18-13.74,16.7-17.39,4.37-5.73,11.51-12.19,16.26-17.58,1.97-1.15,4.02-.65,4.68,1.66-2.99,11.65-9.47,23.42-12.8,35.28-1.22,2.18-3.46,13.17-6.44,11.46Z" fill="#706f6f"/>
      <path d="M90.8,218.05c-2.43-1.1-2.07-3.46-1.51-5.65,3.79-11.23,7.57-23.6,12.81-34.52,.58-.7,1.06-2.96,1.88-3.7,3.08-1.86,4.67-.53,4.83,2.54-1.78,5.07-5.42,10.99-6.84,16.16-1.63,3.92-3.6,8.61-4.77,12.96-1.18,2.09-3.13,15.66-6.4,12.21Zm7.66-24.1c4.24-1.74,26.96-25.43,28.53-17.55,.87,1.92,.57,2.7-1.41,3.74-5.63,3.03-10.43,7.79-15.13,10.86-2.79,2.84-6.9,4.73-9.73,7.66l-2.26-4.71Zm14.56,23.98c-7.69-2.82-12.06-12.28-13.43-19.9,0,0,.06-3.89,.06-3.89l4.58-.31c.77,7.15,3.97,15.65,10.61,18.52,4.52,1.06,2.6,8.19-1.82,5.59Z" fill="#706f6f"/>
      <path d="M127.02,217.3c-9.92-5.44-2.54-24.91,2.07-32.95,3.06-5.49,8.67-10.1,13.69-11.17,25.35-5.41,2.28,53.09-15.76,44.13Zm12.92-21.28c4.74-.01,12.55-17.45,5.01-17.12-3.67,1.57-11.01,15.99-5.01,17.12Z" fill="#0b5428"/>
      <path d="M160.85,219.24c-19.52-6.79,3.36-52.63,19.77-47.49,7.85,3.13,1.01,20.47-3.36,18.49-1.12-.3-3.4-1.94-2.61-2.83,1.06-1.38,2.53-4.11,3.14-5.77,4.53-16.7-19.91,11.87-18.33,23.88-1.21,14.81,10.77,4.5,17.51,1.66,8.17,2.92-12.53,13.81-16.13,12.05Z" fill="#706f6f"/>
    </g>
    <g>
      <path d="M.9,230.99H12.03v1.91H.9v-1.91Zm4.36,.84h2.41v9.76h-2.41v-9.76Z" fill="#706f6f"/>
      <path d="M18.83,241.86c-4.54,.36-7.99-4.53-5.56-8.48,3.2-5,11.67-2.46,11.01,3.77H14.4v-1.85h8.68l-1.21,.69c.14-3.5-4.86-4.57-6.47-1.71-2.5,5.48,5.15,7.15,8.59,4.2v1.76c-1.35,1.05-3.4,1.62-5.16,1.61Z" fill="#706f6f"/>
      <path d="M36.81,236.3c-.63,6.96-11.27,7.5-11.09,0-.2-7.5,10.5-6.96,11.09,0Zm-8.64,0c0,5.12,6.84,4.24,7.79,0-.96-4.25-7.79-5.12-7.79,0Zm7.9,5.3l-.41-3.93,.48-1.37-.48-1.35,.41-3.95h2.49l-.56,5.3,.56,5.3h-2.49Z" fill="#706f6f"/>
      <path d="M39.83,230.99h11.13v1.91h-11.13v-1.91Zm4.36,.84h2.41v9.76h-2.41v-9.76Z" fill="#706f6f"/>
      <path d="M52.48,230.99h2.41c-.09,3.87,0,9.76,0,13.69h-2.41v-13.69Zm1.48,5.3c.62-6.96,11.28-7.5,11.09,0,.17,7.51-10.45,6.95-11.09,0Zm8.64,0c0-5.12-6.81-4.24-7.79,0,.98,4.24,7.78,5.12,7.79,0Z" fill="#706f6f"/>
      <path d="M71.98,241.6v-10.6h2.41v8.54l-.72-.26,6.7-8.28h2.75l-8.9,10.6h-2.23Zm8.64,0l-3.26-5.24,1.69-1.54,4.4,6.78h-2.82Z" fill="#706f6f"/>
      <path d="M86.49,230.99h10.33v10.6h-2.41v-9.85l1.11,1.12h-7.83l1.04-.86c.53,4.06,.73,11.87-5.16,9.33v-1.82c4.62,1.59,2.97-5.72,2.91-8.52Z" fill="#706f6f"/>
      <path d="M105.19,241.86c-8.4,.4-8.4-11.53,0-11.13,8.4-.4,8.4,11.52,0,11.13Zm0-1.91c5.18,.4,5.18-7.71,0-7.3-5.18-.39-5.18,7.7,0,7.3Z" fill="#706f6f"/>
      <path d="M116.72,241.26l-4.82-10.26h2.65l4.56,10.26h-2.39Zm-1.21,3.69c-1.16,0-2.14-.29-3.08-.88v-1.85c1.59,1.08,4.24,1.47,5.12-.69,0,0,4.73-10.53,4.73-10.53h2.56c-1.95,2.63-4.87,14.5-9.33,13.95Z" fill="#706f6f"/>
      <path d="M126.26,230.99h2.39v10.6h-2.39v-10.6Zm1.35,4.29h8.57v1.87h-8.57v-1.87Zm7.57-4.29h2.39v10.6h-2.39v-10.6Z" fill="#706f6f"/>
      <path d="M150.67,236.3c-.63,6.96-11.27,7.5-11.09,0-.2-7.5,10.5-6.96,11.09,0Zm-8.64,0c0,5.12,6.84,4.24,7.79,0-.96-4.25-7.79-5.12-7.79,0Zm7.9,5.3l-.41-3.93,.48-1.37-.48-1.35,.41-3.95h2.49l-.56,5.3,.56,5.3h-2.49Z" fill="#706f6f"/>
      <path d="M168.33,239.72v4.55h-2.1v-2.68h-10.5v2.68h-2.1v-4.55c4.09,.05,10.6,.04,14.69,0Zm-12.35-8.73h10.41v9.89h-2.41v-9.14l1.11,1.12h-7.85l1.04-.82c.15,2.93,.79,8.28-2.63,8.84l-.98-.84c1.75-1.02,1.66-6.41,1.32-9.05Z" fill="#706f6f"/>
      <path d="M170.07,241.6v-10.6h2.41v9.93l-.85-1.12c1.67-.3,6.69,1.06,6.59-1.85,.13-2.93-4.85-1.58-6.51-1.87v-1.74c1.55,.11,5.62-.33,6.96,.46,2.65,1.12,2.65,5.25,0,6.36-1.37,.82-6.99,.32-8.59,.45Zm11.8-10.6h2.41v10.6h-2.41v-10.6Z" fill="#706f6f"/>
    </g>
  </g>
</svg>