<?xml version="1.0" encoding="UTF-8"?>
<svg xmlns="http://www.w3.org/2000/svg" viewBox="0 0 1517.93 677.29">
  <g id="_фон" data-name="фон">
    <rect x="753.79" y="-219.4" width="826.1" height="2482.01" fill="#221e1f"/>
    <rect x="-64.17" y="-217.03" width="816.29" height="2479.64" fill="#f2f1f0"/>
  </g>
  <g id="_Минимальные_размеры" data-name="Минимальные размеры">
    <g id="_Логотипы_копия_" data-name="Логотипы (копия)">
      <g id="Logo_vertical_копия_2" data-name="Logo vertical копия 2">
        <g>
          <g>
            <path d="M306.42,332.1c-2.66-.22-5.26-.66-7.64-1.92-.25,.34-.48,.64-.71,.94-2.55,.09-5.03-.13-7.64-.54,.05-.75,.03-1.41,.15-2.04,.28-1.54,.66-3.06,.94-4.59,.15-.83,.22-1.68-.15-2.53-1.01,.14-1.94,.31-2.87,.37-1.4,.09-2.81,.18-4.21,.13-.97-.04-1.19-.36-1.32-1.32-.87-6.48-1.74-12.95-2.59-19.43-.67-5.12-1.32-10.24-2.01-15.56-.13,.53-.25,.87-.3,1.21-.5,3.64-.99,7.29-1.48,10.93-.59,4.42-1.17,8.84-1.75,13.27-.38,2.95-.75,5.89-1.12,8.84-.09,.7-.21,1.4-.95,2.01-2.55-.16-5.23-.34-8-.52-.07,.5-.23,.92-.18,1.32,.15,1.27,.36,2.54,.59,3.81,.23,1.26,.37,2.45,.57,4.05-.44,.12-.9,.07-1.32,.12-1.55,.17-3.12,.25-4.67,.45-.28,.02-1.15-.67-2.09-1.1-.54,.25-1.03,.5-1.53,.72-2.11,.93-4.36,1.21-6.62,1.39-2.12,.11-4.59,.37-6.97-.09-1.45-.2-2.28-.65-3.67-1.15,0-.39,0-2.43,.18-2.95,.76-2.1,1.93-2.94,4.14-2.91,.62,0,1.25,.08,1.86,.17,.58,.09,1.17,.17,1.72,.37,2.82,1.04,5.37,.26,7.9-1.14-.23-.09-.4-.14-.56-.23-.2-.11-.38-.24-.56-.36,.44-1.06,.71-1.26,1.64-1.2,.38,.03,.76,.15,1.13,.26,.88,.26,1.34,.1,1.66-.75,.2-.53,.25-1.13,.38-1.75-1.74-.43-3.41-.82-5.06-1.26-2.99-.79-5.92-1.74-8.59-3.34-1.07-.64-2.1-1.36-2.77-2.47,.11-.28,.2-.54,.3-.79,3.93-9.27,7.86-18.55,11.8-27.81,2.02-4.74,4.08-9.46,6.12-14.2,.48-1.11,1.17-1.94,2.47-2.04,1.36,0,2.72,0,4.09,0,.3,0,.6,.01,.9,.02,2.42,.25,4.78,.74,7.04,1.68,1.29,.54,2.13,1.42,2.59,2.7,.22,.62,.36,1.28,.54,1.92,.11,.38,.23,.76,.34,1.14,.45-1.02,.71-2.02,.99-3.02,.32-1.15,1-2.02,2.12-2.51,3.91-1.69,7.96-2.22,12.17-1.54,.99,.16,1.77,.65,2.29,1.48,.35,.56,.64,1.16,.9,1.77,.56,1.29,1.08,2.6,1.64,3.88,4.66,10.7,9.34,21.4,14,32.1,.69,1.57,1.37,3.14,2.08,4.77-.41,.51-.72,1.09-1.2,1.46-.92,.72-1.88,1.41-2.91,1.96-2.67,1.41-5.57,2.24-8.46,3.07-1.26,.37-2.53,.73-3.76,1.09-.03,.23-.06,.35-.05,.46,.08,1.84,.55,2.21,2.33,1.91,.5-.08,1.02-.14,1.51-.08,.77,.1,.93,.39,.94,1.32-.27,.16-.55,.33-1,.6,1.12,.4,2.06,.77,3.02,1.06,1.7,.51,3.38,.51,5.04-.23,1.13-.51,2.35-.58,3.57-.46,1.89,.18,3.39,1.36,3.81,3,.12,.45,.08,2.48,.3,2.86-.86,.57-2.37,1.02-3.97,1.2-3.04,.33-4.76,.14-7.11,.05Zm-10.15-12.63c-3.81-16.42-7.56-32.62-11.33-48.87-.37,.03-.6,.03-.82,.07-.22,.04-.43,.13-.7,.22,3.02,16.42,6.03,32.79,9.06,49.27,1.26-.23,2.4-.44,3.79-.69Zm-23.24-48.56c-.59-.19-1.05-.34-1.6-.52-3.6,16.36-8.03,32.46-11.07,48.97,1.19,.21,2.25,.59,3.41,.41,3.09-16.31,6.17-32.55,9.25-48.86Zm-22.61,45.99c5.53-15.8,11.02-31.46,16.53-47.17-.36-.06-.58-.11-.81-.13-.22-.02-.44,0-.7,0-6.08,15.35-12.27,30.6-17.82,46.15,.23,.11,.39,.21,.57,.28,.69,.27,1.38,.54,2.23,.87Zm39.05-46.96c5.49,15.65,10.78,31.28,16.52,46.87,1.05-.45,1.97-.84,2.96-1.26-6.04-15.3-12.02-30.48-17.99-45.61h-1.49Zm-3.03,.32c4.42,16.16,8.81,32.24,13.24,48.47,1.02-.29,2.01-.56,3.01-.85-4.96-16.04-9.86-31.92-14.78-47.83-.54,.08-.95,.14-1.47,.21Zm-17.89-.37c-2.66,7.23-14.51,46.4-14.54,48.14,.87,.22,1.77,.44,2.66,.67,4.42-16.24,8.81-32.37,13.22-48.58-.53-.09-.91-.15-1.34-.22Zm23.35,58.02c1.7,.62,4.19,.54,5.21-.15,.1,.04,.22,.07,.31,.13,2.85,2.07,6.04,3.06,9.56,2.96,2.19-.06,4.38-.09,6.56-.25,.94-.07,1.87-.43,2.81-.66,0-.35,0-.54,0-.74-.01-1.78-1.05-3.39-3.39-3.32-1.42,.04-2.79,.29-4.15,.64-.87,.22-1.72,.4-2.64,.14-1.27-.36-2.56-.61-3.81-.89-.46,.51-.87,.96-1.34,1.48-.49-.9,.55-1.06,.49-1.76-.27-.13-.6-.3-.94-.46-.39,.25-.75,.48-1.07,.69-.08,.34-.15,.62-.22,.93-.81-.33-.54-.94-.58-1.43,.27-.29,.52-.57,.75-.82-.41-.78-.99-.53-1.45-.29-1.11,.58-2.29,.45-3.45,.38-.69-.04-1.37-.18-2.08-.28-.59,1.23-.66,2.42-.57,3.71Zm-51.99,1.93c1.66,.63,3.38,.95,5.13,1.01,2.42,.09,4.83-.07,7.25-.39,2.2-.28,4.15-1.01,5.95-2.26,.35-.24,.73-.42,1.1-.63,.3,.28,.54,.52,.83,.79,1.39-.12,2.77-.25,4.14-.37,.12-1.39-.15-2.55-.72-3.74-.46,.02-.94-.02-1.39,.08-1.37,.31-2.71,.35-3.98-.34-.56-.3-1.02-.21-1.45,.34,.53,.37,1,.69,1.43,1q-.01,1-.66,1.2c-.03-.38-.07-.75-.11-1.18-.83-.27-1.62-.18-2.39-.05-.1,.74,1.12,1.16,.26,2.08-.36-.62-.67-1.15-1-1.71-.28,.08-.54,.15-.79,.23-2.46,.86-4.94,1.06-7.47,.26-.7-.22-1.44-.37-2.18-.41-1.02-.05-2.03,.08-2.88,.75-1.06,.85-1.28,1.99-1.08,3.31Zm29.13-9.3c.57-3.9,1.1-7.61,1.65-11.33,.59-4.03,1.17-8.05,1.76-12.08,.58-3.95,1.18-7.89,1.78-11.83,.53-3.48,1.08-6.95,1.59-10.43,.08-.54,.1-1.1,.05-1.64-.06-.65-.36-1.17-1.09-1.35-2.81,16.14-5.59,32.23-7.98,48.54,.82,.04,1.47,.08,2.23,.12Zm20.54,0c-2.66-16.38-5.28-32.54-7.93-48.86-.36,.21-.56,.31-.73,.44-.18,.14-.34,.31-.53,.48,2.32,16.04,4.64,32.06,6.97,48.19,.8-.09,1.44-.16,2.22-.25Zm-44.55-6.34c6.05-14.78,12.1-29.57,18.22-44.52-.57,.12-.98,.21-1.5,.32-6.13,14.35-12.26,28.71-18.38,43.05,.35,.66,.81,1.09,1.66,1.15Zm48.11-44.04c6.06,14.77,12.04,29.38,18.42,44.02,.53-.46,.92-.8,1.33-1.15-.96-2.34-1.85-4.59-2.81-6.81-3.43-7.92-6.88-15.83-10.32-23.74-1.59-3.65-3.19-7.3-4.78-10.95-.32-.75-.72-1.37-1.84-1.38Zm-20.88,50.44c.31-2.23,.6-4.32,.88-6.41,.6-4.46,1.19-8.93,1.77-13.39,.45-3.42,.9-6.83,1.33-10.25,.38-3.03,.8-6.05,1.09-9.09,.14-1.47,.03-2.96-.45-4.64-1.96,14.76-4.41,29.18-6.11,43.79h1.48Zm7.33-43.94c-.57,1.13-.75,2.36-.6,3.61,.56,4.62,1.16,9.24,1.75,13.85,.96,7.45,1.91,14.9,2.88,22.35,.19,1.43,.43,2.84,.65,4.27h1.44c-2.05-14.74-4.08-29.41-6.12-44.09Zm12.9,46.75c1.79,.49,3.42,1.05,5.14-.02-.19-.97-.38-1.9-.57-2.85-1.68,.3-3.2,.57-4.78,.85,.08,.71,.14,1.32,.22,2.02Zm-33.29-2.91c-.21,1.03-.4,1.93-.59,2.86,1.78,1.13,3.37,.36,4.96-.06,.09-.73,.17-1.34,.26-2.08-1.53-.24-3.02-.47-4.63-.71Zm41.84,3.25c-.25-.49-.39-.32-.53,.06,.15-.02,.3-.03,.53-.06Zm-45.07-.14c0-.05-.01-.11-.02-.16h-.92c0,.09,.01,.18,.02,.27,.31-.04,.61-.07,.92-.11Z" fill="#141313"/>
            <path d="M296.28,319.48c-1.39,.25-2.52,.46-3.79,.69-3.03-16.48-6.04-32.85-9.06-49.27,.26-.08,.48-.17,.7-.22,.22-.04,.46-.04,.82-.07,3.77,16.24,7.52,32.45,11.33,48.87Z" fill="#f1f0f0"/>
            <path d="M273.04,270.92c-3.09,16.31-6.17,32.55-9.25,48.86-1.16,.18-2.22-.2-3.41-.41,3.04-16.5,7.46-32.6,11.07-48.97,.54,.18,1.01,.33,1.6,.52Z" fill="#f1f0f0"/>
            <path d="M250.43,316.9c-.86-.33-1.55-.6-2.23-.87-.18-.07-.34-.17-.57-.28,5.55-15.55,11.74-30.8,17.82-46.15,.25,0,.48-.02,.7,0,.23,.02,.46,.07,.81,.13-5.5,15.71-10.99,31.37-16.53,47.17Z" fill="#f1f0f0"/>
            <path d="M289.48,269.94h1.49c5.97,15.13,11.95,30.31,17.99,45.61-.99,.42-1.91,.81-2.96,1.26-5.74-15.6-11.03-31.23-16.52-46.87Z" fill="#f1f0f0"/>
            <path d="M286.44,270.26c.51-.07,.93-.13,1.47-.21,4.92,15.92,9.83,31.8,14.78,47.83-1,.28-1.99,.56-3.01,.85-4.43-16.23-8.83-32.31-13.24-48.47Z" fill="#f1f0f0"/>
            <path d="M268.56,269.89c.43,.07,.81,.14,1.34,.22-4.41,16.21-8.8,32.34-13.22,48.58-.9-.22-1.79-.45-2.66-.67,.03-1.74,11.88-40.91,14.54-48.14Z" fill="#f1f0f0"/>
            <path d="M291.91,327.91c-.09-1.29-.02-2.48,.57-3.71,.7,.1,1.39,.24,2.08,.28,1.17,.07,2.34,.2,3.45-.38,.46-.24,1.04-.49,1.45,.29-.23,.25-.48,.52-.75,.82,.04,.49-.23,1.1,.58,1.43,.07-.31,.14-.59,.22-.93,.32-.2,.68-.43,1.07-.69,.34,.17,.67,.33,.94,.46,.07,.7-.98,.86-.49,1.76,.47-.52,.88-.97,1.34-1.48,1.24,.28,2.54,.53,3.81,.89,.92,.26,1.76,.09,2.64-.14,1.36-.35,2.73-.6,4.15-.64,2.34-.07,3.38,1.54,3.39,3.32,0,.19,0,.38,0,.74-.94,.23-1.86,.59-2.81,.66-2.18,.16-4.37,.19-6.56,.25-3.52,.1-6.71-.89-9.56-2.96-.09-.07-.21-.09-.31-.13-1.02,.69-3.51,.77-5.21,.15Z" fill="#e03035"/>
            <path d="M239.92,329.83c-.19-1.32,.02-2.46,1.08-3.31,.84-.68,1.86-.8,2.88-.75,.73,.04,1.48,.19,2.18,.41,2.53,.8,5.01,.6,7.47-.26,.25-.09,.51-.15,.79-.23,.33,.57,.64,1.09,1,1.71,.85-.91-.37-1.34-.26-2.08,.77-.12,1.55-.21,2.39,.05,.04,.43,.07,.81,.11,1.18q.65-.2,.66-1.2c-.44-.3-.91-.63-1.43-1,.43-.55,.89-.64,1.45-.34,1.28,.69,2.61,.65,3.98,.34,.44-.1,.92-.06,1.39-.08,.57,1.19,.84,2.34,.72,3.74-1.37,.12-2.75,.25-4.14,.37-.29-.27-.53-.51-.83-.79-.37,.21-.76,.39-1.1,.63-1.8,1.24-3.75,1.97-5.95,2.26-2.42,.31-4.82,.47-7.25,.39-1.75-.06-3.47-.38-5.13-1.01Z" fill="#e03035"/>
            <path d="M269.05,320.54c-.77-.04-1.41-.07-2.23-.12,2.39-16.31,5.16-32.4,7.98-48.54,.73,.18,1.03,.7,1.09,1.35,.05,.54,.03,1.1-.05,1.64-.52,3.48-1.06,6.95-1.59,10.43-.6,3.94-1.2,7.89-1.78,11.83-.6,4.02-1.18,8.05-1.76,12.08-.54,3.71-1.08,7.43-1.65,11.33Z" fill="#f1f0f0"/>
            <path d="M289.59,320.53c-.78,.09-1.42,.16-2.22,.25-2.33-16.12-4.65-32.14-6.97-48.19,.19-.18,.35-.35,.53-.48,.17-.13,.37-.23,.73-.44,2.65,16.32,5.27,32.49,7.93,48.86Z" fill="#f1f0f0"/>
            <path d="M245.04,314.19c-.86-.05-1.31-.49-1.66-1.15,6.12-14.34,12.25-28.69,18.38-43.05,.53-.11,.93-.2,1.5-.32-6.12,14.95-12.17,29.74-18.22,44.52Z" fill="#f1f0f0"/>
            <path d="M293.16,270.15c1.12,.02,1.51,.64,1.84,1.38,1.59,3.65,3.19,7.3,4.78,10.95,3.45,7.91,6.9,15.82,10.32,23.74,.96,2.22,1.84,4.47,2.81,6.81-.41,.35-.8,.69-1.33,1.15-6.38-14.64-12.36-29.26-18.42-44.02Z" fill="#f1f0f0"/>
            <path d="M272.28,320.59h-1.48c1.7-14.6,4.15-29.03,6.11-43.79,.48,1.69,.59,3.18,.45,4.64-.29,3.04-.71,6.06-1.09,9.09-.43,3.42-.88,6.83-1.33,10.25-.59,4.46-1.18,8.93-1.77,13.39-.28,2.09-.58,4.19-.88,6.41Z" fill="#f1f0f0"/>
            <path d="M279.61,276.65c2.04,14.67,4.07,29.34,6.12,44.09h-1.44c-.22-1.43-.46-2.85-.65-4.27-.97-7.45-1.93-14.9-2.88-22.35-.59-4.62-1.19-9.23-1.75-13.85-.15-1.25,.03-2.48,.6-3.61Z" fill="#f1f0f0"/>
            <path d="M292.51,323.39c-.08-.7-.14-1.31-.22-2.02,1.59-.28,3.11-.55,4.78-.85,.19,.95,.38,1.88,.57,2.85-1.72,1.08-3.35,.51-5.14,.02Z" fill="#f1f0f0"/>
            <path d="M259.22,320.48c1.61,.25,3.1,.48,4.63,.71-.09,.74-.17,1.35-.26,2.08-1.59,.42-3.18,1.19-4.96,.06,.19-.92,.38-1.82,.59-2.86Z" fill="#f1f0f0"/>
          </g>
          <g>
            <path d="M255.87,361.05c-3.8,.92,1.67-12.85,1.63-15.08-2.72,4.2-4.79,10.91-9.47,13.25-4.65-.07-.23-9.23-.25-11.71-2.66,4.17-4.85,9.87-7.65,13.82-2.33-.73-.82-3.74,.19-4.96,1.92-3.72,4.56-8.36,6.62-11.74,.48-.93,1.05-2.77,2.24-2.15,3.52,1.83-1.24,10.5-.63,13.59,3.32-3.5,5.16-8.34,8.05-12.63,.77-1.46,1.78-2.5,3.12-1.07,1.6,1.38-1.06,7.53-1.39,9.75-.62,1.94-.74,3.34-1.15,5.28-.14,1.35,.13,3.24-1.31,3.65Z" fill="#010101"/>
            <path d="M270.29,362.25c-.81-.33-1.37-.93-1.17-1.81,2.05-4.23,3.89-9.84,5.7-14.47-3.51,3.95-6.86,8.56-10.62,12.22-.87,.78-1.92,1.89-3.05,2.25-1.17-.21-1.7-.62-1.45-1.67,1.61-5.59,2.97-11.18,5.66-16.38,.38-.62,.06-1.19,.56-1.55,1.27-.61,2.38,.9,1.84,2.08-1.48,3.64-3.85,10.01-5.28,13.62,1.39-1.42,6.02-5.83,7.09-7.38,1.86-2.43,4.89-5.17,6.9-7.46,.84-.49,1.71-.28,1.99,.71-1.27,4.94-4.02,9.94-5.44,14.98-.52,.93-1.47,5.59-2.73,4.86Z" fill="#010101"/>
            <path d="M277.03,361.02c-1.03-.47-.88-1.47-.64-2.4,1.61-4.77,3.22-10.02,5.44-14.66,.25-.3,.45-1.26,.8-1.57,1.31-.79,1.98-.23,2.05,1.08-.75,2.15-2.3,4.66-2.91,6.86-.69,1.66-1.53,3.66-2.03,5.5-.5,.89-1.33,6.65-2.72,5.18Zm3.25-10.23c1.8-.74,11.44-10.8,12.11-7.45,.37,.82,.24,1.15-.6,1.59-2.39,1.29-4.43,3.31-6.42,4.61-1.19,1.2-2.93,2.01-4.13,3.25l-.96-2Zm6.18,10.18c-3.26-1.2-5.12-5.21-5.7-8.45,0,0,.03-1.65,.03-1.65l1.95-.13c.33,3.03,1.68,6.64,4.5,7.86,1.92,.45,1.1,3.48-.77,2.37Z" fill="#010101"/>
            <path d="M292.41,360.7c-4.21-2.31-1.08-10.58,.88-13.99,1.3-2.33,3.68-4.29,5.81-4.74,10.76-2.3,.97,22.54-6.69,18.73Zm5.48-9.04c2.01,0,5.33-7.41,2.13-7.27-1.56,.66-4.67,6.79-2.13,7.27Z" fill="#e03035"/>
            <path d="M306.77,361.53c-8.29-2.88,1.43-22.34,8.39-20.16,3.33,1.33,.43,8.69-1.43,7.85-.48-.13-1.44-.82-1.11-1.2,.45-.59,1.07-1.75,1.33-2.45,1.92-7.09-8.45,5.04-7.78,10.14-.51,6.29,4.57,1.91,7.44,.71,3.47,1.24-5.32,5.86-6.85,5.12Z" fill="#010101"/>
          </g>
          <g>
            <path d="M238.89,366.52h4.73v.81h-4.73v-.81Zm1.85,.36h1.02v4.14h-1.02v-4.14Z" fill="#010101"/>
            <path d="M246.51,371.13c-1.93,.15-3.39-1.92-2.36-3.6,1.36-2.12,4.95-1.05,4.67,1.6h-4.2v-.79h3.69l-.51,.29c.06-1.49-2.06-1.94-2.75-.73-1.06,2.33,2.19,3.03,3.65,1.79v.75c-.57,.45-1.44,.69-2.19,.68Z" fill="#010101"/>
            <path d="M254.14,368.77c-.27,2.95-4.78,3.19-4.71,0-.08-3.18,4.46-2.96,4.71,0Zm-3.67,0c0,2.17,2.9,1.8,3.31,0-.41-1.8-3.31-2.17-3.31,0Zm3.35,2.25l-.17-1.67,.2-.58-.2-.57,.17-1.68h1.06l-.24,2.25,.24,2.25h-1.06Z" fill="#010101"/>
            <path d="M255.42,366.52h4.73v.81h-4.73v-.81Zm1.85,.36h1.02v4.14h-1.02v-4.14Z" fill="#010101"/>
            <path d="M260.79,366.52h1.02c-.04,1.65,0,4.14,0,5.81h-1.02v-5.81Zm.63,2.25c.26-2.96,4.79-3.19,4.71,0,.07,3.19-4.44,2.95-4.71,0Zm3.67,0c0-2.18-2.89-1.8-3.31,0,.42,1.8,3.3,2.17,3.31,0Z" fill="#010101"/>
            <path d="M269.07,371.02v-4.5h1.02v3.63l-.31-.11,2.84-3.51h1.17l-3.78,4.5h-.95Zm3.67,0l-1.39-2.23,.72-.65,1.87,2.88h-1.2Z" fill="#010101"/>
            <path d="M275.23,366.52h4.39v4.5h-1.02v-4.18l.47,.48h-3.32l.44-.37c.23,1.72,.31,5.04-2.19,3.96v-.77c1.96,.67,1.26-2.43,1.24-3.62Z" fill="#010101"/>
            <path d="M283.17,371.13c-3.57,.17-3.57-4.89,0-4.72,3.57-.17,3.57,4.89,0,4.72Zm0-.81c2.2,.17,2.2-3.27,0-3.1-2.2-.17-2.2,3.27,0,3.1Z" fill="#010101"/>
            <path d="M288.07,370.88l-2.05-4.36h1.13l1.94,4.36h-1.02Zm-.51,1.57c-.49,0-.91-.12-1.31-.37v-.79c.68,.46,1.8,.62,2.17-.29l2.01-4.47h1.09c-.83,1.12-2.07,6.16-3.96,5.92Z" fill="#010101"/>
            <path d="M292.11,366.52h1.02v4.5h-1.02v-4.5Zm.57,1.82h3.64v.8h-3.64v-.8Zm3.21-1.82h1.02v4.5h-1.02v-4.5Z" fill="#010101"/>
            <path d="M302.48,368.77c-.27,2.95-4.78,3.19-4.71,0-.08-3.18,4.46-2.96,4.71,0Zm-3.67,0c0,2.17,2.9,1.8,3.31,0-.41-1.8-3.31-2.17-3.31,0Zm3.35,2.25l-.17-1.67,.2-.58-.2-.57,.17-1.68h1.06l-.24,2.25,.24,2.25h-1.06Z" fill="#010101"/>
            <path d="M309.98,370.22v1.93h-.89v-1.14h-4.46v1.14h-.89v-1.93c1.74,.02,4.5,.02,6.24,0Zm-5.25-3.71h4.42v4.2h-1.02v-3.88l.47,.48h-3.33l.44-.35c.07,1.24,.34,3.52-1.12,3.75l-.42-.36c.74-.43,.71-2.72,.56-3.84Z" fill="#010101"/>
            <path d="M310.72,371.02v-4.5h1.02v4.21l-.36-.48c.71-.13,2.84,.45,2.8-.79,.05-1.24-2.06-.67-2.76-.8v-.74c.66,.05,2.39-.14,2.95,.19,1.13,.47,1.13,2.23,0,2.7-.58,.35-2.97,.13-3.65,.19Zm5.01-4.5h1.02v4.5h-1.02v-4.5Z" fill="#010101"/>
          </g>
        </g>
      </g>
    </g>
  </g>
  <g id="_Логотипы" data-name="Логотипы">
    <g id="Logo_Vertical_2" data-name="Logo Vertical 2">
      <g>
        <path d="M476.34,496.9c-12.54-1.02-24.82-3.14-36.09-9.06-1.2,1.6-2.27,3.04-3.34,4.46-12.05,.4-23.74-.6-36.08-2.54,.23-3.52,.14-6.64,.69-9.64,1.34-7.26,3.1-14.43,4.44-21.69,.73-3.92,1.05-7.94-.73-11.94-4.78,.64-9.15,1.47-13.55,1.76-6.61,.44-13.25,.85-19.86,.6-4.57-.18-5.63-1.7-6.24-6.25-4.1-30.58-8.21-61.16-12.24-91.75-3.18-24.16-6.24-48.34-9.48-73.48-.63,2.52-1.18,4.09-1.41,5.71-2.35,17.2-4.67,34.41-6.96,51.63-2.78,20.88-5.54,41.76-8.26,62.64-1.81,13.91-3.52,27.83-5.3,41.75-.42,3.32-.98,6.6-4.47,9.5-12.03-.78-24.68-1.59-37.78-2.44-.35,2.35-1.08,4.36-.85,6.25,.73,6.01,1.7,12.01,2.79,17.97,1.08,5.93,1.75,11.55,2.7,19.1-2.06,.55-4.27,.35-6.24,.56-7.34,.78-14.72,1.16-22.03,2.12-1.32,.11-5.41-3.17-9.86-5.19-2.55,1.2-4.87,2.34-7.23,3.38-9.96,4.37-20.57,5.7-31.27,6.55-10.01,.5-21.69,1.74-32.9-.45-6.84-.95-10.77-3.08-17.33-5.44,0-1.85-.04-11.47,.85-13.94,3.61-9.92,9.11-13.87,19.54-13.76,2.94,.03,5.89,.39,8.8,.82,2.73,.4,5.54,.79,8.11,1.73,13.33,4.89,25.35,1.24,37.3-5.37-1.07-.42-1.91-.67-2.66-1.08-.93-.51-1.79-1.15-2.63-1.7,2.09-4.98,3.33-5.96,7.72-5.64,1.81,.13,3.6,.7,5.36,1.23,4.16,1.25,6.34,.48,7.84-3.54,.95-2.52,1.18-5.31,1.79-8.28-8.22-2.04-16.09-3.89-23.91-5.95-14.12-3.72-27.97-8.22-40.58-15.78-5.05-3.03-9.9-6.42-13.1-11.66,.51-1.32,.94-2.54,1.44-3.72,18.57-43.78,37.09-87.58,55.73-131.33,9.54-22.39,19.28-44.69,28.91-67.03,2.25-5.22,5.53-9.17,11.69-9.65,6.43-.01,12.87-.02,19.3-.03,1.42,.02,2.84,.05,4.26,.07,11.43,1.2,22.56,3.49,33.26,7.93,6.09,2.53,10.07,6.73,12.22,12.76,1.05,2.94,1.68,6.04,2.53,9.06,.51,1.81,1.08,3.6,1.63,5.4,2.14-4.82,3.34-9.56,4.67-14.27,1.53-5.44,4.7-9.54,10-11.83,18.45-7.98,37.59-10.48,57.46-7.28,4.67,.75,8.34,3.08,10.83,6.99,1.67,2.62,3.01,5.48,4.26,8.34,2.66,6.08,5.1,12.25,7.75,18.34,22.03,50.53,44.08,101.04,66.12,151.56,3.24,7.41,6.45,14.84,9.8,22.54-1.93,2.43-3.41,5.16-5.65,6.91-4.34,3.4-8.88,6.68-13.74,9.25-12.62,6.67-26.31,10.55-39.95,14.52-5.97,1.74-11.95,3.47-17.76,5.15-.13,1.09-.26,1.64-.24,2.18,.37,8.67,2.61,10.44,11.02,9.02,2.34-.4,4.8-.68,7.13-.39,3.61,.45,4.41,1.84,4.44,6.23-1.28,.77-2.61,1.56-4.71,2.82,5.31,1.87,9.74,3.63,14.28,4.99,8.02,2.4,15.97,2.42,23.81-1.08,5.36-2.39,11.11-2.72,16.86-2.17,8.92,.86,15.98,6.43,18,14.16,.55,2.12,.35,11.69,1.42,13.49-4.04,2.69-11.2,4.8-18.76,5.67-14.36,1.54-22.49,.65-33.59,.22Zm-47.91-59.62c-17.98-77.52-35.72-154.04-53.5-230.74-1.73,.14-2.83,.13-3.88,.34-1.05,.21-2.05,.63-3.29,1.02,14.27,77.55,28.48,154.82,42.79,232.64,5.96-1.09,11.34-2.07,17.88-3.27Zm-109.72-229.3c-2.78-.9-4.98-1.61-7.53-2.44-17.01,77.26-37.91,153.29-52.25,231.21,5.61,1,10.61,2.78,16.09,1.92,14.58-76.99,29.11-153.69,43.7-230.69Zm-106.75,217.14c26.13-74.58,52.05-148.55,78.04-222.72-1.68-.28-2.75-.53-3.85-.63-1.04-.09-2.1-.02-3.3-.02-28.71,72.48-57.95,144.5-84.14,217.92,1.07,.53,1.85,.99,2.69,1.33,3.24,1.3,6.5,2.55,10.55,4.13Zm184.37-221.75c25.91,73.88,50.91,147.68,78.02,221.33,4.97-2.12,9.3-3.97,13.97-5.97-28.5-72.26-56.75-143.91-84.93-215.36h-7.05Zm-14.32,1.51c20.85,76.31,41.59,152.23,62.53,228.87,4.83-1.36,9.47-2.66,14.21-3.99-23.4-75.72-46.58-150.71-69.8-225.87-2.56,.36-4.5,.64-6.93,.99Zm-84.46-1.75c-12.55,34.13-68.5,219.09-68.67,227.31,4.12,1.03,8.35,2.09,12.58,3.15,20.87-76.69,41.59-152.87,62.42-229.4-2.5-.42-4.28-.72-6.33-1.06Zm110.26,273.94c8.01,2.94,19.79,2.57,24.61-.69,.47,.19,1.04,.31,1.47,.63,13.46,9.77,28.51,14.43,45.12,13.97,10.34-.29,20.69-.43,30.99-1.19,4.45-.33,8.81-2.04,13.25-3.13,0-1.66,0-2.56,0-3.47-.05-8.41-4.97-16-16.01-15.66-6.71,.21-13.16,1.38-19.59,3.02-4.13,1.05-8.12,1.87-12.46,.64-5.98-1.69-12.11-2.86-17.97-4.2-2.18,2.41-4.1,4.52-6.33,6.98-2.33-4.23,2.6-4.99,2.29-8.31-1.28-.63-2.85-1.41-4.45-2.19-1.86,1.19-3.55,2.27-5.06,3.24-.38,1.6-.69,2.91-1.04,4.38-3.82-1.56-2.57-4.42-2.74-6.74,1.28-1.39,2.46-2.67,3.56-3.86-1.96-3.69-4.67-2.5-6.85-1.37-5.26,2.72-10.79,2.12-16.3,1.8-3.26-.19-6.49-.87-9.81-1.34-2.8,5.79-3.11,11.41-2.69,17.51Zm-245.49,9.1c7.82,2.96,15.94,4.47,24.2,4.78,11.44,.42,22.81-.35,34.22-1.82,10.39-1.34,19.6-4.78,28.09-10.65,1.64-1.13,3.47-1.98,5.21-2.95,1.41,1.35,2.56,2.45,3.91,3.74,6.55-.59,13.08-1.17,19.55-1.75,.57-6.59-.71-12.04-3.41-17.65-2.19,.1-4.45-.11-6.54,.37-6.48,1.48-12.77,1.66-18.81-1.59-2.64-1.43-4.8-.99-6.83,1.6,2.49,1.73,4.71,3.28,6.77,4.71q-.06,4.73-3.13,5.69c-.16-1.78-.32-3.54-.51-5.58-3.94-1.26-7.63-.84-11.27-.25-.49,3.49,5.27,5.5,1.24,9.82-1.7-2.92-3.16-5.41-4.72-8.09-1.3,.38-2.53,.69-3.72,1.1-11.63,4.06-23.32,5.02-35.26,1.25-3.31-1.05-6.82-1.76-10.28-1.93-4.8-.23-9.6,.36-13.59,3.56-5.02,4.03-6.02,9.4-5.11,15.64Zm137.57-43.9c2.67-18.41,5.22-35.95,7.77-53.49,2.77-19.01,5.5-38.03,8.32-57.03,2.76-18.63,5.59-37.25,8.42-55.87,2.5-16.42,5.08-32.83,7.53-49.26,.38-2.54,.48-5.18,.23-7.73-.29-3.05-1.72-5.51-5.15-6.36-13.29,76.21-26.4,152.19-37.67,229.2,3.89,.2,6.94,.36,10.55,.55Zm96.98-.04c-12.55-77.33-24.94-153.66-37.44-230.72-1.69,1.01-2.64,1.47-3.46,2.09-.86,.65-1.6,1.45-2.51,2.29,10.96,75.76,21.9,151.39,32.91,227.53,3.79-.43,6.81-.76,10.5-1.18Zm-210.34-29.94c28.56-69.79,57.14-139.63,86.02-210.21-2.71,.58-4.61,.98-7.09,1.51-28.94,67.78-57.88,135.57-86.78,203.27,1.67,3.1,3.81,5.17,7.85,5.42Zm227.19-207.94c28.62,69.74,56.85,138.74,86.96,207.88,2.5-2.16,4.36-3.76,6.27-5.42-4.55-11.07-8.72-21.69-13.25-32.16-16.18-37.39-32.47-74.73-48.74-112.07-7.51-17.24-15.08-34.45-22.57-51.69-1.53-3.53-3.4-6.46-8.68-6.53Zm-98.57,238.17c1.45-10.52,2.85-20.4,4.17-30.29,2.82-21.07,5.6-42.15,8.38-63.22,2.12-16.13,4.25-32.26,6.3-48.39,1.81-14.3,3.76-28.58,5.14-42.92,.67-6.92,.15-13.96-2.14-21.93-9.23,69.68-20.81,137.8-28.84,206.75h6.99Zm34.6-207.49c-2.68,5.32-3.56,11.13-2.84,17.03,2.66,21.82,5.48,43.62,8.28,65.42,4.51,35.18,9.03,70.37,13.61,105.54,.88,6.73,2.02,13.43,3.05,20.17h6.8c-9.66-69.61-19.28-138.89-28.89-208.17Zm60.89,220.72c8.45,2.29,16.15,4.98,24.27-.1-.92-4.57-1.8-8.96-2.7-13.47-7.92,1.41-15.09,2.69-22.59,4.03,.36,3.36,.67,6.24,1.02,9.54Zm-157.19-13.74c-1.01,4.87-1.89,9.12-2.79,13.48,8.43,5.32,15.93,1.69,23.43-.29,.43-3.45,.78-6.34,1.22-9.83-7.24-1.12-14.26-2.2-21.86-3.37Zm197.55,15.35c-1.17-2.31-1.85-1.5-2.5,.26,.7-.07,1.4-.15,2.5-.26Zm-212.8-.65c-.03-.25-.05-.5-.08-.76h-4.36c.03,.42,.06,.84,.09,1.26,1.45-.17,2.89-.34,4.34-.5Z" fill="#141313"/>
        <path d="M428.44,437.29c-6.54,1.2-11.92,2.18-17.88,3.27-14.31-77.82-28.53-155.09-42.79-232.64,1.24-.4,2.24-.82,3.29-1.02,1.05-.21,2.15-.2,3.88-.34,17.78,76.69,35.53,153.21,53.5,230.74Z" fill="#f1f0f0"/>
        <path d="M318.72,207.99c-14.59,77-29.11,153.7-43.7,230.69-5.47,.85-10.48-.92-16.09-1.92,14.34-77.92,35.24-153.94,52.25-231.21,2.55,.83,4.75,1.54,7.53,2.44Z" fill="#f1f0f0"/>
        <path d="M211.97,425.13c-4.05-1.58-7.31-2.83-10.55-4.13-.83-.33-1.61-.79-2.69-1.33,26.19-73.42,55.43-145.43,84.14-217.92,1.2,0,2.25-.07,3.3,.02,1.09,.1,2.17,.35,3.85,.63-25.99,74.17-51.91,148.14-78.04,222.72Z" fill="#f1f0f0"/>
        <path d="M396.33,203.38h7.05c28.18,71.45,56.43,143.1,84.93,215.36-4.67,2-9,3.85-13.97,5.97-27.1-73.64-52.1-147.45-78.02-221.33Z" fill="#f1f0f0"/>
        <path d="M382.01,204.89c2.43-.35,4.37-.62,6.93-.99,23.23,75.16,46.4,150.14,69.8,225.87-4.74,1.33-9.38,2.64-14.21,3.99-20.94-76.64-41.68-152.57-62.53-228.87Z" fill="#f1f0f0"/>
        <path d="M297.55,203.14c2.05,.34,3.83,.64,6.33,1.06-20.82,76.53-41.55,152.71-62.42,229.4-4.23-1.06-8.46-2.12-12.58-3.15,.16-8.22,56.11-193.18,68.67-227.31Z" fill="#f1f0f0"/>
        <path d="M407.81,477.08c-.42-6.1-.1-11.73,2.69-17.51,3.33,.47,6.55,1.15,9.81,1.34,5.5,.33,11.04,.92,16.3-1.8,2.18-1.13,4.89-2.32,6.85,1.37-1.09,1.19-2.27,2.47-3.56,3.86,.18,2.32-1.08,5.18,2.74,6.74,.35-1.47,.66-2.78,1.04-4.38,1.51-.96,3.2-2.04,5.06-3.24,1.59,.79,3.17,1.56,4.45,2.19,.31,3.32-4.62,4.08-2.29,8.31,2.23-2.46,4.15-4.57,6.33-6.98,5.87,1.35,11.99,2.51,17.97,4.2,4.34,1.23,8.33,.41,12.46-.64,6.42-1.64,12.88-2.82,19.59-3.02,11.05-.34,15.97,7.26,16.01,15.66,0,.91,0,1.81,0,3.47-4.45,1.09-8.8,2.81-13.25,3.13-10.3,.76-20.66,.9-30.99,1.19-16.61,.47-31.66-4.2-45.12-13.97-.43-.31-1-.43-1.47-.63-4.82,3.26-16.59,3.62-24.61,.69Z" fill="#e03035"/>
        <path d="M162.32,486.19c-.91-6.24,.1-11.61,5.11-15.64,3.98-3.2,8.78-3.8,13.59-3.56,3.45,.17,6.97,.88,10.28,1.93,11.94,3.78,23.63,2.82,35.26-1.25,1.19-.42,2.42-.72,3.72-1.1,1.56,2.67,3.02,5.17,4.72,8.09,4.03-4.32-1.72-6.32-1.24-9.82,3.64-.59,7.33-1,11.27,.25,.19,2.04,.35,3.81,.51,5.58q3.07-.96,3.13-5.69c-2.06-1.43-4.28-2.98-6.77-4.71,2.03-2.59,4.18-3.03,6.83-1.6,6.04,3.26,12.33,3.07,18.81,1.59,2.1-.48,4.35-.27,6.54-.37,2.71,5.61,3.98,11.06,3.41,17.65-6.46,.58-13,1.16-19.55,1.75-1.35-1.29-2.5-2.4-3.91-3.74-1.74,.98-3.58,1.82-5.21,2.95-8.5,5.87-17.7,9.31-28.09,10.65-11.41,1.47-22.78,2.24-34.22,1.82-8.26-.3-16.38-1.81-24.2-4.78Z" fill="#e03035"/>
        <path d="M299.89,442.29c-3.61-.19-6.66-.35-10.55-.55,11.28-77,24.39-152.99,37.67-229.2,3.43,.85,4.86,3.31,5.15,6.36,.24,2.55,.15,5.2-.23,7.73-2.44,16.43-5.03,32.84-7.53,49.26-2.83,18.62-5.66,37.24-8.42,55.87-2.82,19-5.55,38.02-8.32,57.03-2.55,17.54-5.1,35.08-7.77,53.49Z" fill="#f1f0f0"/>
        <path d="M396.86,442.25c-3.68,.41-6.7,.75-10.5,1.18-11.01-76.14-21.96-151.77-32.91-227.53,.9-.84,1.65-1.64,2.51-2.29,.82-.62,1.77-1.08,3.46-2.09,12.51,77.07,24.89,153.39,37.44,230.72Z" fill="#f1f0f0"/>
        <path d="M186.52,412.31c-4.04-.26-6.18-2.33-7.85-5.42,28.9-67.7,57.84-135.49,86.78-203.27,2.48-.53,4.38-.93,7.09-1.51-28.88,70.58-57.46,140.42-86.02,210.21Z" fill="#f1f0f0"/>
        <path d="M413.71,204.37c5.28,.07,7.15,3,8.68,6.53,7.49,17.24,15.06,34.46,22.57,51.69,16.27,37.35,32.56,74.69,48.74,112.07,4.53,10.47,8.7,21.09,13.25,32.16-1.92,1.66-3.77,3.25-6.27,5.42-30.11-69.14-58.34-138.14-86.96-207.88Z" fill="#f1f0f0"/>
        <path d="M315.14,442.54h-6.99c8.02-68.96,19.6-137.07,28.84-206.75,2.29,7.97,2.8,15.01,2.14,21.93-1.38,14.34-3.33,28.63-5.14,42.92-2.04,16.14-4.17,32.27-6.3,48.39-2.78,21.08-5.56,42.15-8.38,63.22-1.32,9.89-2.72,19.77-4.17,30.29Z" fill="#f1f0f0"/>
        <path d="M349.74,235.05c9.61,69.28,19.23,138.55,28.89,208.17h-6.8c-1.03-6.74-2.17-13.44-3.05-20.17-4.58-35.18-9.1-70.36-13.61-105.54-2.8-21.8-5.61-43.6-8.28-65.42-.72-5.9,.16-11.71,2.84-17.03Z" fill="#f1f0f0"/>
        <path d="M410.63,455.77c-.35-3.3-.66-6.18-1.02-9.54,7.5-1.34,14.67-2.62,22.59-4.03,.9,4.5,1.78,8.9,2.7,13.47-8.12,5.08-15.82,2.39-24.27,.1Z" fill="#f1f0f0"/>
        <path d="M253.44,442.03c7.6,1.17,14.62,2.25,21.86,3.37-.43,3.49-.79,6.38-1.22,9.83-7.5,1.98-15,5.61-23.43,.29,.9-4.36,1.78-8.61,2.79-13.48Z" fill="#f1f0f0"/>
      </g>
      <g>
        <path d="M1302.72,497.52c-12.6-1.02-24.92-3.15-36.24-9.09-1.2,1.61-2.28,3.05-3.35,4.48-12.1,.4-23.84-.6-36.23-2.55,.23-3.54,.14-6.67,.69-9.68,1.34-7.29,3.11-14.49,4.46-21.78,.73-3.93,1.06-7.97-.73-11.99-4.8,.65-9.18,1.48-13.6,1.77-6.63,.44-13.31,.85-19.94,.6-4.59-.18-5.65-1.71-6.26-6.28-4.12-30.71-8.25-61.41-12.29-92.13-3.19-24.26-6.27-48.54-9.52-73.78-.63,2.53-1.19,4.11-1.41,5.73-2.36,17.28-4.69,34.56-6.99,51.84-2.79,20.96-5.57,41.93-8.3,62.9-1.82,13.97-3.54,27.95-5.32,41.92-.43,3.33-.98,6.63-4.49,9.53-12.08-.78-24.78-1.6-37.93-2.45-.35,2.36-1.08,4.38-.85,6.27,.73,6.04,1.71,12.06,2.8,18.04,1.09,5.95,1.76,11.59,2.71,19.18-2.07,.56-4.29,.36-6.26,.57-7.37,.79-14.78,1.17-22.12,2.13-1.33,.11-5.43-3.19-9.9-5.21-2.56,1.2-4.89,2.35-7.26,3.39-10,4.39-20.65,5.72-31.4,6.58-10.05,.51-21.77,1.75-33.03-.45-6.86-.95-10.82-3.09-17.4-5.46,0-1.86-.04-11.52,.86-14,3.62-9.96,9.15-13.93,19.62-13.81,2.95,.03,5.92,.39,8.84,.82,2.74,.41,5.56,.79,8.14,1.74,13.38,4.91,25.45,1.25,37.45-5.39-1.07-.42-1.92-.67-2.67-1.08-.93-.51-1.79-1.15-2.64-1.71,2.1-5,3.35-5.98,7.75-5.67,1.81,.13,3.62,.71,5.38,1.23,4.18,1.25,6.36,.49,7.87-3.55,.95-2.53,1.18-5.34,1.8-8.31-8.25-2.04-16.16-3.9-24.01-5.97-14.18-3.74-28.08-8.25-40.74-15.85-5.07-3.04-9.94-6.45-13.15-11.7,.51-1.33,.94-2.55,1.44-3.74,18.64-43.96,37.25-87.94,55.96-131.87,9.58-22.48,19.35-44.87,29.03-67.31,2.26-5.24,5.55-9.21,11.73-9.69,6.46-.01,12.92-.02,19.38-.03,1.43,.02,2.85,.05,4.28,.07,11.48,1.2,22.66,3.5,33.39,7.96,6.11,2.54,10.11,6.76,12.27,12.81,1.06,2.96,1.69,6.06,2.54,9.09,.51,1.82,1.09,3.61,1.63,5.42,2.15-4.84,3.36-9.6,4.68-14.32,1.53-5.47,4.72-9.58,10.04-11.88,18.53-8.02,37.74-10.52,57.69-7.31,4.69,.75,8.37,3.09,10.88,7.02,1.68,2.63,3.02,5.51,4.28,8.38,2.67,6.1,5.12,12.3,7.78,18.41,22.12,50.73,44.26,101.45,66.4,152.18,3.25,7.44,6.48,14.9,9.84,22.63-1.94,2.44-3.43,5.18-5.67,6.94-4.36,3.41-8.92,6.71-13.8,9.28-12.67,6.7-26.42,10.6-40.11,14.58-6,1.74-11.99,3.48-17.83,5.17-.13,1.09-.26,1.64-.24,2.19,.37,8.7,2.62,10.48,11.06,9.06,2.35-.4,4.82-.69,7.16-.39,3.63,.46,4.43,1.84,4.46,6.25-1.29,.77-2.62,1.57-4.73,2.84,5.33,1.88,9.78,3.64,14.34,5.01,8.05,2.41,16.04,2.43,23.91-1.08,5.38-2.4,11.15-2.74,16.93-2.18,8.96,.87,16.05,6.46,18.08,14.22,.56,2.13,.36,11.74,1.43,13.55-4.06,2.71-11.24,4.82-18.84,5.69-14.42,1.55-22.58,.65-33.72,.22Zm-48.1-59.86c-18.05-77.84-35.87-154.67-53.72-231.68-1.74,.14-2.84,.13-3.9,.34-1.05,.21-2.06,.63-3.3,1.03,14.32,77.87,28.6,155.45,42.97,233.59,5.98-1.09,11.39-2.08,17.95-3.28Zm-110.17-230.24c-2.79-.9-5-1.62-7.56-2.45-17.08,77.58-38.06,153.92-52.46,232.16,5.63,1,10.66,2.79,16.15,1.93,14.64-77.31,29.23-154.32,43.88-231.64Zm-107.19,218.03c26.24-74.89,52.27-149.16,78.36-223.64-1.68-.28-2.77-.54-3.86-.63-1.05-.09-2.1-.02-3.31-.02-28.83,72.78-58.19,145.09-84.49,218.81,1.08,.54,1.86,1,2.7,1.33,3.26,1.3,6.53,2.56,10.59,4.15Zm185.12-222.65c26.02,74.19,51.12,148.29,78.34,222.24,4.99-2.13,9.33-3.99,14.03-5.99-28.62-72.56-56.99-144.5-85.28-216.24h-7.08Zm-14.38,1.52c20.93,76.62,41.76,152.86,62.78,229.81,4.85-1.36,9.51-2.67,14.26-4.01-23.5-76.03-46.77-151.33-70.09-226.79-2.57,.37-4.52,.64-6.96,.99Zm-84.81-1.76c-12.6,34.27-68.79,219.98-68.95,228.24,4.14,1.03,8.38,2.1,12.63,3.16,20.95-77,41.76-153.49,62.67-230.34-2.51-.42-4.3-.72-6.36-1.06Zm110.71,275.07c8.05,2.95,19.87,2.58,24.71-.69,.47,.2,1.04,.32,1.48,.63,13.52,9.81,28.63,14.49,45.31,14.02,10.38-.29,20.77-.43,31.12-1.19,4.47-.33,8.84-2.05,13.31-3.15,0-1.66,0-2.58,0-3.49-.05-8.44-4.99-16.07-16.08-15.73-6.74,.21-13.22,1.39-19.67,3.04-4.14,1.06-8.15,1.88-12.51,.65-6-1.7-12.16-2.87-18.05-4.22-2.19,2.42-4.11,4.53-6.35,7-2.33-4.25,2.61-5.01,2.3-8.34-1.29-.63-2.86-1.41-4.46-2.2-1.87,1.2-3.57,2.28-5.08,3.25-.38,1.61-.69,2.92-1.04,4.4-3.84-1.57-2.58-4.44-2.76-6.77,1.29-1.4,2.47-2.68,3.57-3.88-1.96-3.71-4.69-2.51-6.87-1.38-5.28,2.73-10.84,2.13-16.36,1.81-3.27-.19-6.51-.87-9.85-1.35-2.81,5.81-3.12,11.46-2.7,17.58Zm-246.5,9.14c7.85,2.98,16,4.49,24.3,4.8,11.49,.42,22.9-.35,34.36-1.83,10.43-1.35,19.68-4.8,28.21-10.69,1.64-1.13,3.48-1.98,5.23-2.96,1.41,1.35,2.57,2.46,3.93,3.76,6.58-.59,13.14-1.17,19.63-1.75,.57-6.61-.71-12.09-3.43-17.72-2.2,.1-4.47-.11-6.57,.37-6.5,1.48-12.83,1.67-18.89-1.6-2.66-1.43-4.82-.99-6.86,1.61,2.5,1.74,4.73,3.29,6.8,4.73q-.06,4.75-3.14,5.71c-.16-1.78-.33-3.56-.51-5.61-3.96-1.26-7.66-.84-11.32-.25-.49,3.51,5.29,5.52,1.24,9.86-1.71-2.93-3.17-5.44-4.74-8.12-1.31,.38-2.54,.69-3.74,1.11-11.67,4.08-23.41,5.04-35.4,1.25-3.32-1.05-6.85-1.77-10.32-1.94-4.82-.24-9.64,.36-13.64,3.58-5.04,4.05-6.05,9.44-5.13,15.7Zm138.13-44.08c2.68-18.48,5.24-36.09,7.8-53.71,2.78-19.09,5.52-38.18,8.35-57.26,2.77-18.71,5.61-37.4,8.46-56.1,2.51-16.49,5.1-32.97,7.56-49.46,.38-2.55,.48-5.2,.23-7.77-.29-3.06-1.73-5.53-5.17-6.39-13.34,76.52-26.51,152.82-37.83,230.13,3.91,.2,6.97,.36,10.6,.55Zm97.37-.04c-12.6-77.65-25.04-154.29-37.6-231.67-1.7,1.01-2.65,1.47-3.48,2.1-.86,.65-1.61,1.46-2.52,2.29,11,76.07,21.99,152.01,33.05,228.46,3.81-.43,6.84-.77,10.54-1.18Zm-211.2-30.06c28.68-70.08,57.37-140.2,86.37-211.07-2.72,.58-4.63,.99-7.12,1.52-29.05,68.06-58.11,136.12-87.13,204.1,1.68,3.11,3.83,5.19,7.89,5.45Zm228.12-208.79c28.74,70.03,57.08,139.31,87.32,208.73,2.51-2.17,4.37-3.78,6.3-5.44-4.57-11.11-8.76-21.78-13.31-32.29-16.25-37.54-32.6-75.03-48.94-112.53-7.54-17.31-15.14-34.59-22.66-51.9-1.54-3.54-3.41-6.49-8.71-6.56Zm-98.97,239.15c1.46-10.56,2.86-20.48,4.19-30.41,2.83-21.16,5.63-42.32,8.41-63.48,2.13-16.19,4.27-32.39,6.32-48.59,1.82-14.36,3.78-28.7,5.16-43.1,.67-6.95,.15-14.01-2.15-22.02-9.27,69.97-20.9,138.36-28.95,207.6h7.01Zm34.74-208.34c-2.69,5.34-3.57,11.17-2.85,17.1,2.68,21.91,5.5,43.8,8.31,65.69,4.53,35.33,9.07,70.66,13.67,105.98,.88,6.76,2.03,13.49,3.06,20.26h6.83c-9.7-69.9-19.36-139.46-29.01-209.02Zm61.14,221.63c8.48,2.3,16.21,5,24.37-.1-.92-4.59-1.81-9-2.71-13.52-7.96,1.42-15.15,2.7-22.68,4.05,.36,3.38,.67,6.26,1.03,9.58Zm-157.83-13.8c-1.01,4.89-1.89,9.16-2.8,13.54,8.46,5.34,16,1.7,23.53-.29,.43-3.46,.79-6.36,1.22-9.87-7.27-1.12-14.32-2.21-21.95-3.38Zm198.36,15.42c-1.17-2.32-1.85-1.51-2.51,.26,.7-.07,1.41-.15,2.51-.26Zm-213.67-.65c-.03-.25-.05-.51-.08-.76h-4.37c.03,.42,.06,.84,.09,1.27,1.45-.17,2.91-.34,4.36-.51Z" fill="#f2f1f0" stroke="#221f20" stroke-miterlimit="10" stroke-width=".47"/>
        <path d="M1254.61,437.66c-6.57,1.2-11.97,2.19-17.95,3.28-14.37-78.14-28.64-155.72-42.97-233.59,1.25-.4,2.25-.82,3.3-1.03,1.06-.21,2.16-.2,3.9-.34,17.86,77.01,35.67,153.84,53.72,231.68Z" fill="#221f20" stroke="#221f20" stroke-miterlimit="10" stroke-width=".47"/>
        <path d="M1144.44,207.42c-14.65,77.32-29.23,154.33-43.88,231.64-5.5,.85-10.52-.93-16.15-1.93,14.4-78.23,35.38-154.58,52.46-232.16,2.56,.83,4.77,1.55,7.56,2.45Z" fill="#221f20" stroke="#221f20" stroke-miterlimit="10" stroke-width=".47"/>
        <path d="M1037.25,425.45c-4.06-1.59-7.34-2.85-10.59-4.15-.84-.33-1.62-.8-2.7-1.33,26.3-73.72,55.66-146.03,84.49-218.81,1.2,0,2.26-.07,3.31,.02,1.1,.1,2.18,.35,3.86,.63-26.1,74.47-52.12,148.75-78.36,223.64Z" fill="#221f20" stroke="#221f20" stroke-miterlimit="10" stroke-width=".47"/>
        <path d="M1222.38,202.8h7.08c28.29,71.74,56.66,143.68,85.28,216.24-4.69,2.01-9.04,3.86-14.03,5.99-27.21-73.95-52.32-148.05-78.34-222.24Z" fill="#221f20" stroke="#221f20" stroke-miterlimit="10" stroke-width=".47"/>
        <path d="M1208,204.31c2.44-.35,4.39-.62,6.96-.99,23.32,75.46,46.59,150.76,70.09,226.79-4.76,1.34-9.42,2.65-14.26,4.01-21.02-76.95-41.85-153.19-62.78-229.81Z" fill="#221f20" stroke="#221f20" stroke-miterlimit="10" stroke-width=".47"/>
        <path d="M1123.19,202.55c2.06,.34,3.85,.64,6.36,1.06-20.91,76.85-41.72,153.33-62.67,230.34-4.25-1.06-8.49-2.12-12.63-3.16,.16-8.26,56.35-193.97,68.95-228.24Z" fill="#221f20" stroke="#221f20" stroke-miterlimit="10" stroke-width=".47"/>
        <path d="M1233.9,477.62c-.42-6.13-.1-11.77,2.7-17.58,3.34,.47,6.58,1.15,9.85,1.35,5.53,.33,11.08,.93,16.36-1.81,2.19-1.13,4.91-2.33,6.87,1.38-1.1,1.19-2.28,2.48-3.57,3.88,.18,2.33-1.08,5.2,2.76,6.77,.35-1.48,.66-2.79,1.04-4.4,1.51-.97,3.21-2.05,5.08-3.25,1.6,.79,3.18,1.57,4.46,2.2,.31,3.34-4.64,4.09-2.3,8.34,2.24-2.47,4.16-4.59,6.35-7,5.89,1.35,12.04,2.52,18.05,4.22,4.36,1.24,8.36,.41,12.51-.65,6.45-1.65,12.93-2.83,19.67-3.04,11.09-.34,16.03,7.29,16.08,15.73,0,.91,0,1.82,0,3.49-4.46,1.1-8.83,2.82-13.31,3.15-10.35,.76-20.74,.9-31.12,1.19-16.68,.47-31.79-4.21-45.31-14.02-.43-.31-1.01-.43-1.48-.63-4.84,3.27-16.66,3.64-24.71,.69Z" fill="#e7363d" stroke="#221f20" stroke-miterlimit="10" stroke-width=".47"/>
        <path d="M987.4,486.76c-.91-6.26,.1-11.65,5.13-15.7,4-3.21,8.82-3.81,13.64-3.58,3.47,.17,7,.89,10.32,1.94,11.99,3.79,23.73,2.83,35.4-1.25,1.2-.42,2.43-.72,3.74-1.11,1.57,2.68,3.03,5.19,4.74,8.12,4.05-4.33-1.73-6.35-1.24-9.86,3.65-.59,7.36-1.01,11.32,.25,.19,2.05,.35,3.82,.51,5.61q3.08-.96,3.14-5.71c-2.06-1.44-4.3-2.99-6.8-4.73,2.04-2.6,4.2-3.04,6.86-1.61,6.06,3.27,12.38,3.08,18.89,1.6,2.11-.48,4.37-.27,6.57-.37,2.72,5.63,4,11.11,3.43,17.72-6.49,.58-13.05,1.17-19.63,1.75-1.35-1.29-2.51-2.4-3.93-3.76-1.75,.98-3.59,1.83-5.23,2.96-8.53,5.9-17.77,9.34-28.21,10.69-11.45,1.48-22.87,2.25-34.36,1.83-8.3-.31-16.45-1.82-24.3-4.8Z" fill="#e7363d" stroke="#221f20" stroke-miterlimit="10" stroke-width=".47"/>
        <path d="M1125.53,442.68c-3.63-.19-6.69-.35-10.6-.55,11.32-77.32,24.49-153.61,37.83-230.13,3.44,.86,4.88,3.32,5.17,6.39,.24,2.56,.15,5.22-.23,7.77-2.45,16.5-5.05,32.97-7.56,49.46-2.84,18.7-5.69,37.39-8.46,56.1-2.83,19.08-5.58,38.17-8.35,57.26-2.56,17.61-5.12,35.23-7.8,53.71Z" fill="#221f20" stroke="#221f20" stroke-miterlimit="10" stroke-width=".47"/>
        <path d="M1222.91,442.64c-3.7,.41-6.73,.75-10.54,1.18-11.06-76.45-22.05-152.39-33.05-228.46,.91-.84,1.65-1.64,2.52-2.29,.83-.62,1.78-1.09,3.48-2.1,12.56,77.38,25,154.02,37.6,231.67Z" fill="#221f20" stroke="#221f20" stroke-miterlimit="10" stroke-width=".47"/>
        <path d="M1011.71,412.58c-4.06-.26-6.21-2.34-7.89-5.45,29.02-67.98,58.08-136.05,87.13-204.1,2.49-.53,4.4-.94,7.12-1.52-29,70.87-57.69,140.99-86.37,211.07Z" fill="#221f20" stroke="#221f20" stroke-miterlimit="10" stroke-width=".47"/>
        <path d="M1239.83,203.78c5.3,.07,7.17,3.02,8.71,6.56,7.52,17.32,15.12,34.6,22.66,51.9,16.33,37.5,32.69,74.99,48.94,112.53,4.55,10.51,8.74,21.18,13.31,32.29-1.93,1.66-3.79,3.27-6.3,5.44-30.24-69.42-58.58-138.7-87.32-208.73Z" fill="#221f20" stroke="#221f20" stroke-miterlimit="10" stroke-width=".47"/>
        <path d="M1140.85,442.93h-7.01c8.06-69.24,19.68-137.63,28.95-207.6,2.3,8,2.81,15.07,2.15,22.02-1.38,14.4-3.35,28.74-5.16,43.1-2.05,16.2-4.19,32.4-6.32,48.59-2.79,21.16-5.59,42.33-8.41,63.48-1.33,9.93-2.73,19.85-4.19,30.41Z" fill="#221f20" stroke="#221f20" stroke-miterlimit="10" stroke-width=".47"/>
        <path d="M1175.59,234.59c9.65,69.56,19.31,139.12,29.01,209.02h-6.83c-1.03-6.77-2.18-13.5-3.06-20.26-4.59-35.32-9.13-70.65-13.67-105.98-2.81-21.89-5.63-43.78-8.31-65.69-.72-5.93,.16-11.76,2.85-17.1Z" fill="#221f20" stroke="#221f20" stroke-miterlimit="10" stroke-width=".47"/>
      </g>
    </g>
  </g>
</svg>