<?xml version="1.0" encoding="UTF-8"?>
<svg xmlns="http://www.w3.org/2000/svg" viewBox="0 0 1517.93 425.49">
  <g id="_фон" data-name="фон">
    <rect x="753.79" y="-1426.39" width="826.1" height="2482.01" fill="#221e1f"/>
    <rect x="-64.17" y="-1424.03" width="816.29" height="2479.64" fill="#f2f1f0"/>
  </g>
  <g id="_Логотипы" data-name="Логотипы">
    <g id="Logo_Vertical_2" data-name="Logo Vertical 2">
      <g>
        <g>
          <path d="M367.45,231.47c-17.93,4.37,7.88-60.65,7.68-71.22-12.82,19.84-22.64,51.5-44.73,62.54-21.93-.35-1.07-43.6-1.2-55.3-12.55,19.68-22.91,46.62-36.11,65.25-10.99-3.47-3.89-17.64,.88-23.41,9.08-17.58,21.54-39.49,31.27-55.43,2.26-4.39,4.94-13.08,10.57-10.13,16.64,8.63-5.84,49.59-2.96,64.18,15.69-16.53,24.35-39.37,38-59.65,3.62-6.91,8.42-11.8,14.72-5.03,7.55,6.52-4.99,35.54-6.54,46.05-2.91,9.14-3.5,15.79-5.41,24.91-.65,6.37,.63,15.32-6.17,17.24Z" fill="#010101"/>
          <path d="M435.53,237.13c-3.84-1.54-6.46-4.41-5.54-8.56,9.68-19.96,18.35-46.46,26.93-68.33-16.6,18.67-32.4,40.4-50.14,57.7-4.1,3.7-9.07,8.93-14.41,10.63-5.55-.97-8.05-2.95-6.86-7.87,7.61-26.42,14.03-52.79,26.74-77.33,1.8-2.95,.27-5.6,2.64-7.3,5.99-2.89,11.22,4.23,8.68,9.82-6.97,17.2-18.17,47.27-24.92,64.3,6.54-6.71,28.42-27.55,33.47-34.86,8.76-11.48,23.07-24.43,32.59-35.23,3.94-2.31,8.06-1.3,9.38,3.34-5.99,23.35-18.98,46.94-25.67,70.72-2.45,4.38-6.94,26.4-12.9,22.96Z" fill="#010101"/>
          <path d="M467.36,231.34c-4.87-2.2-4.16-6.93-3.02-11.33,7.6-22.52,15.18-47.31,25.67-69.21,1.17-1.4,2.13-5.94,3.78-7.43,6.17-3.73,9.36-1.06,9.69,5.1-3.56,10.16-10.86,22.03-13.72,32.4-3.26,7.86-7.23,17.27-9.56,25.98-2.37,4.2-6.28,31.39-12.84,24.47Zm15.35-48.32c8.51-3.49,54.04-50.98,57.19-35.17,1.74,3.86,1.14,5.42-2.83,7.49-11.29,6.08-20.91,15.62-30.33,21.77-5.6,5.69-13.83,9.49-19.5,15.35l-4.53-9.44Zm29.19,48.07c-15.41-5.66-24.19-24.61-26.93-39.89,0,0,.13-7.8,.13-7.8l9.19-.63c1.54,14.33,7.95,31.37,21.27,37.12,9.06,2.13,5.22,16.43-3.65,11.2Z" fill="#010101"/>
          <path d="M539.97,229.83c-19.88-10.9-5.08-49.94,4.15-66.06,6.14-11.01,17.38-20.26,27.43-22.4,50.82-10.84,4.58,106.42-31.59,88.46Zm25.89-42.66c9.5-.03,25.16-34.98,10.05-34.32-7.36,3.14-22.07,32.06-10.05,34.32Z" fill="#e03035"/>
          <path d="M607.79,233.73c-39.14-13.6,6.73-105.5,39.64-95.2,15.73,6.28,2.03,41.03-6.73,37.06-2.25-.6-6.81-3.89-5.22-5.66,2.12-2.77,5.06-8.25,6.29-11.58,9.07-33.48-39.92,23.79-36.74,47.88-2.42,29.7,21.58,9.02,35.11,3.33,16.38,5.85-25.12,27.69-32.34,24.16Z" fill="#010101"/>
        </g>
        <g>
          <path d="M287.13,257.28h22.31v3.83h-22.31v-3.83Zm8.74,1.69h4.83v19.56h-4.83v-19.56Z" fill="#010101"/>
          <path d="M323.09,279.06c-9.11,.71-16.02-9.08-11.14-16.99,6.41-10.02,23.39-4.94,22.07,7.57h-19.82v-3.72h17.4l-2.42,1.39c.27-7.01-9.74-9.16-12.98-3.44-5.01,10.99,10.33,14.32,17.22,8.43v3.53c-2.7,2.11-6.81,3.25-10.34,3.23Z" fill="#010101"/>
          <path d="M359.13,267.91c-1.26,13.95-22.59,15.04-22.24,0-.4-15.04,21.05-13.96,22.24,0Zm-17.33,0c0,10.27,13.7,8.51,15.62,0-1.92-8.51-15.62-10.26-15.62,0Zm15.84,10.63l-.82-7.89,.97-2.74-.97-2.7,.82-7.92h4.98l-1.12,10.63,1.12,10.63h-4.98Z" fill="#010101"/>
          <path d="M365.19,257.28h22.31v3.83h-22.31v-3.83Zm8.74,1.69h4.83v19.56h-4.83v-19.56Z" fill="#010101"/>
          <path d="M390.55,257.28h4.83c-.18,7.77,0,19.56,0,27.45h-4.83v-27.45Zm2.97,10.63c1.24-13.95,22.61-15.04,22.24,0,.34,15.05-20.95,13.93-22.24,0Zm17.33,0c-.02-10.27-13.66-8.5-15.62,0,1.96,8.5,15.6,10.27,15.62,0Z" fill="#010101"/>
          <path d="M429.63,278.54v-21.25h4.83v17.12l-1.45-.53,13.42-16.6h5.5l-17.85,21.25h-4.46Zm17.33,0l-6.54-10.51,3.38-3.08,8.81,13.59h-5.65Z" fill="#010101"/>
          <path d="M458.71,257.28h20.71v21.25h-4.83v-19.75l2.23,2.25h-15.69l2.08-1.73c1.07,8.13,1.47,23.8-10.34,18.7v-3.64c9.26,3.18,5.95-11.46,5.84-17.08Z" fill="#010101"/>
          <path d="M496.2,279.06c-16.84,.8-16.85-23.11,0-22.3,16.85-.8,16.84,23.1,0,22.3Zm0-3.83c10.39,.81,10.39-15.45,0-14.64-10.38-.79-10.38,15.43,0,14.64Z" fill="#010101"/>
          <path d="M519.33,277.86l-9.67-20.58h5.32l9.15,20.58h-4.8Zm-2.42,7.4c-2.33,0-4.29-.59-6.17-1.77v-3.72c3.2,2.16,8.5,2.95,10.26-1.39,0,0,9.48-21.1,9.48-21.1h5.13c-3.92,5.27-9.77,29.08-18.7,27.97Z" fill="#010101"/>
          <path d="M538.44,257.28h4.8v21.25h-4.8v-21.25Zm2.71,8.6h17.18v3.75h-17.18v-3.75Zm15.17-8.6h4.8v21.25h-4.8v-21.25Z" fill="#010101"/>
          <path d="M587.38,267.91c-1.26,13.95-22.59,15.04-22.24,0-.4-15.04,21.05-13.96,22.24,0Zm-17.33,0c0,10.27,13.7,8.51,15.62,0-1.92-8.51-15.62-10.26-15.62,0Zm15.84,10.63l-.82-7.89,.97-2.74-.97-2.7,.82-7.92h4.98l-1.12,10.63,1.12,10.63h-4.98Z" fill="#010101"/>
          <path d="M622.78,274.78v9.12h-4.2v-5.37h-21.05v5.37h-4.2v-9.12c8.2,.09,21.26,.07,29.45,0Zm-24.77-17.5h20.86v19.82h-4.83v-18.32l2.23,2.25h-15.73l2.08-1.65c.31,5.88,1.59,16.6-5.28,17.72l-1.97-1.69c3.51-2.04,3.33-12.86,2.64-18.13Z" fill="#010101"/>
          <path d="M626.27,278.54v-21.25h4.83v19.9l-1.71-2.25c3.34-.6,13.41,2.13,13.2-3.72,.26-5.87-9.72-3.18-13.05-3.76v-3.49c3.1,.22,11.26-.66,13.94,.92,5.32,2.24,5.32,10.52,0,12.75-2.75,1.65-14.02,.63-17.22,.9Zm23.65-21.25h4.83v21.25h-4.83v-21.25Z" fill="#010101"/>
        </g>
        <g>
          <path d="M209.59,286.51c-6.27-.51-12.41-1.57-18.05-4.53-.6,.8-1.14,1.52-1.67,2.23-6.03,.2-11.87-.3-18.04-1.27,.12-1.76,.07-3.32,.35-4.82,.67-3.63,1.55-7.22,2.22-10.84,.36-1.96,.53-3.97-.36-5.97-2.39,.32-4.57,.74-6.77,.88-3.3,.22-6.63,.43-9.93,.3-2.29-.09-2.81-.85-3.12-3.13-2.05-15.29-4.11-30.58-6.12-45.88-1.59-12.08-3.12-24.17-4.74-36.74-.32,1.26-.59,2.05-.7,2.85-1.18,8.6-2.34,17.21-3.48,25.81-1.39,10.44-2.77,20.88-4.13,31.32-.91,6.95-1.76,13.92-2.65,20.87-.21,1.66-.49,3.3-2.23,4.75-6.01-.39-12.34-.8-18.89-1.22-.17,1.18-.54,2.18-.42,3.12,.36,3.01,.85,6,1.4,8.98,.54,2.96,.87,5.77,1.35,9.55-1.03,.28-2.13,.18-3.12,.28-3.67,.39-7.36,.58-11.02,1.06-.66,.06-2.71-1.59-4.93-2.59-1.28,.6-2.44,1.17-3.62,1.69-4.98,2.19-10.28,2.85-15.64,3.28-5.01,.25-10.84,.87-16.45-.22-3.42-.48-5.39-1.54-8.66-2.72,0-.93-.02-5.74,.43-6.97,1.8-4.96,4.55-6.94,9.77-6.88,1.47,.02,2.95,.19,4.4,.41,1.37,.2,2.77,.39,4.05,.86,6.66,2.45,12.67,.62,18.65-2.68-.53-.21-.95-.33-1.33-.54-.47-.25-.89-.57-1.31-.85,1.05-2.49,1.67-2.98,3.86-2.82,.9,.07,1.8,.35,2.68,.61,2.08,.62,3.17,.24,3.92-1.77,.47-1.26,.59-2.66,.9-4.14-4.11-1.02-8.05-1.94-11.96-2.97-7.06-1.86-13.98-4.11-20.29-7.89-2.52-1.51-4.95-3.21-6.55-5.83,.25-.66,.47-1.27,.72-1.86,9.28-21.89,18.55-43.79,27.87-65.66,4.77-11.19,9.64-22.34,14.46-33.52,1.13-2.61,2.76-4.59,5.84-4.83,3.22,0,6.43-.01,9.65-.02,.71,.01,1.42,.02,2.13,.04,5.71,.6,11.28,1.74,16.63,3.96,3.04,1.26,5.03,3.36,6.11,6.38,.53,1.47,.84,3.02,1.26,4.53,.25,.9,.54,1.8,.81,2.7,1.07-2.41,1.67-4.78,2.33-7.13,.76-2.72,2.35-4.77,5-5.92,9.23-3.99,18.79-5.24,28.73-3.64,2.33,.38,4.17,1.54,5.42,3.5,.84,1.31,1.51,2.74,2.13,4.17,1.33,3.04,2.55,6.13,3.87,9.17,11.01,25.26,22.04,50.52,33.06,75.78,1.62,3.71,3.23,7.42,4.9,11.27-.97,1.22-1.71,2.58-2.83,3.46-2.17,1.7-4.44,3.34-6.87,4.62-6.31,3.33-13.15,5.28-19.97,7.26-2.99,.87-5.97,1.73-8.88,2.58-.06,.55-.13,.82-.12,1.09,.18,4.33,1.3,5.22,5.51,4.51,1.17-.2,2.4-.34,3.56-.2,1.81,.23,2.21,.92,2.22,3.11-.64,.39-1.3,.78-2.35,1.41,2.66,.94,4.87,1.81,7.14,2.49,4.01,1.2,7.99,1.21,11.9-.54,2.68-1.2,5.55-1.36,8.43-1.08,4.46,.43,7.99,3.21,9,7.08,.28,1.06,.18,5.85,.71,6.74-2.02,1.35-5.6,2.4-9.38,2.83-7.18,.77-11.25,.32-16.79,.11Zm-23.95-29.81c-8.99-38.76-17.86-77.02-26.75-115.37-.87,.07-1.41,.07-1.94,.17-.52,.1-1.02,.31-1.64,.51,7.13,38.78,14.24,77.41,21.4,116.32,2.98-.54,5.67-1.04,8.94-1.63Zm-54.86-114.65c-1.39-.45-2.49-.81-3.77-1.22-8.51,38.63-18.95,76.65-26.12,115.6,2.8,.5,5.31,1.39,8.04,.96,7.29-38.5,14.56-76.85,21.85-115.35Zm-53.38,108.57c13.07-37.29,26.03-74.28,39.02-111.36-.84-.14-1.38-.27-1.92-.31-.52-.05-1.05,0-1.65,0-14.35,36.24-28.98,72.25-42.07,108.96,.54,.27,.93,.5,1.34,.66,1.62,.65,3.25,1.27,5.28,2.06Zm92.18-110.87c12.96,36.94,25.46,73.84,39.01,110.66,2.48-1.06,4.65-1.99,6.98-2.98-14.25-36.13-28.38-71.95-42.47-107.68h-3.53Zm-7.16,.75c10.42,38.15,20.79,76.12,31.26,114.44,2.41-.68,4.73-1.33,7.1-2-11.7-37.86-23.29-75.35-34.9-112.93-1.28,.18-2.25,.32-3.47,.49Zm-42.23-.88c-6.28,17.07-34.25,109.54-34.33,113.65,2.06,.52,4.17,1.04,6.29,1.57,10.43-38.34,20.8-76.43,31.21-114.7-1.25-.21-2.14-.36-3.17-.53Zm55.13,136.97c4.01,1.47,9.9,1.29,12.3-.34,.23,.1,.52,.16,.74,.31,6.73,4.88,14.26,7.22,22.56,6.98,5.17-.14,10.34-.22,15.5-.59,2.23-.16,4.4-1.02,6.63-1.57,0-.83,0-1.28,0-1.74-.02-4.2-2.48-8-8.01-7.83-3.35,.1-6.58,.69-9.79,1.51-2.06,.53-4.06,.94-6.23,.32-2.99-.85-6.05-1.43-8.99-2.1-1.09,1.2-2.05,2.26-3.16,3.49-1.16-2.12,1.3-2.49,1.15-4.15-.64-.32-1.43-.7-2.22-1.1-.93,.6-1.78,1.14-2.53,1.62-.19,.8-.34,1.45-.52,2.19-1.91-.78-1.28-2.21-1.37-3.37,.64-.7,1.23-1.34,1.78-1.93-.98-1.85-2.33-1.25-3.42-.69-2.63,1.36-5.4,1.06-8.15,.9-1.63-.1-3.24-.44-4.91-.67-1.4,2.89-1.56,5.71-1.35,8.76Zm-122.75,4.55c3.91,1.48,7.97,2.24,12.1,2.39,5.72,.21,11.4-.17,17.11-.91,5.19-.67,9.8-2.39,14.05-5.32,.82-.57,1.73-.99,2.61-1.48,.7,.67,1.28,1.23,1.96,1.87,3.28-.29,6.54-.58,9.77-.87,.28-3.29-.35-6.02-1.71-8.82-1.1,.05-2.22-.05-3.27,.18-3.24,.74-6.39,.83-9.41-.8-1.32-.71-2.4-.49-3.41,.8,1.24,.87,2.36,1.64,3.38,2.36q-.03,2.37-1.56,2.84c-.08-.89-.16-1.77-.26-2.79-1.97-.63-3.82-.42-5.63-.13-.24,1.75,2.63,2.75,.62,4.91-.85-1.46-1.58-2.71-2.36-4.04-.65,.19-1.27,.34-1.86,.55-5.81,2.03-11.66,2.51-17.63,.62-1.65-.52-3.41-.88-5.14-.96-2.4-.12-4.8,.18-6.79,1.78-2.51,2.02-3.01,4.7-2.56,7.82Zm68.78-21.95c1.34-9.2,2.61-17.97,3.88-26.74,1.38-9.51,2.75-19.01,4.16-28.51,1.38-9.31,2.8-18.62,4.21-27.93,1.25-8.21,2.54-16.42,3.76-24.63,.19-1.27,.24-2.59,.12-3.87-.15-1.52-.86-2.75-2.57-3.18-6.64,38.1-13.2,76.1-18.84,114.6,1.94,.1,3.47,.18,5.28,.27Zm48.49-.02c-6.27-38.67-12.47-76.83-18.72-115.36-.85,.5-1.32,.73-1.73,1.04-.43,.32-.8,.72-1.25,1.14,5.48,37.88,10.95,75.7,16.46,113.76,1.9-.21,3.41-.38,5.25-.59Zm-105.17-14.97c14.28-34.9,28.57-69.81,43.01-105.1-1.36,.29-2.31,.49-3.55,.76-14.47,33.89-28.94,67.78-43.39,101.64,.84,1.55,1.91,2.58,3.93,2.71Zm113.59-103.97c14.31,34.87,28.42,69.37,43.48,103.94,1.25-1.08,2.18-1.88,3.14-2.71-2.27-5.53-4.36-10.84-6.63-16.08-8.09-18.69-16.24-37.36-24.37-56.04-3.75-8.62-7.54-17.22-11.28-25.85-.77-1.77-1.7-3.23-4.34-3.27Zm-49.28,119.09c.73-5.26,1.42-10.2,2.08-15.14,1.41-10.54,2.8-21.07,4.19-31.61,1.06-8.06,2.13-16.13,3.15-24.2,.91-7.15,1.88-14.29,2.57-21.46,.33-3.46,.07-6.98-1.07-10.96-4.62,34.84-10.41,68.9-14.42,103.38h3.49Zm17.3-103.74c-1.34,2.66-1.78,5.56-1.42,8.51,1.33,10.91,2.74,21.81,4.14,32.71,2.26,17.59,4.52,35.18,6.8,52.77,.44,3.37,1.01,6.72,1.52,10.09h3.4c-4.83-34.81-9.64-69.44-14.45-104.08Zm30.44,110.36c4.22,1.15,8.07,2.49,12.13-.05-.46-2.29-.9-4.48-1.35-6.73-3.96,.71-7.55,1.35-11.3,2.01,.18,1.68,.33,3.12,.51,4.77Zm-78.59-6.87c-.5,2.43-.94,4.56-1.39,6.74,4.21,2.66,7.97,.84,11.71-.14,.21-1.72,.39-3.17,.61-4.91-3.62-.56-7.13-1.1-10.93-1.68Zm98.77,7.68c-.58-1.15-.92-.75-1.25,.13,.35-.04,.7-.07,1.25-.13Zm-106.4-.33c-.01-.13-.03-.25-.04-.38h-2.18c.02,.21,.03,.42,.05,.63,.72-.08,1.45-.17,2.17-.25Z" fill="#141313"/>
          <path d="M185.64,256.7c-3.27,.6-5.96,1.09-8.94,1.63-7.16-38.91-14.26-77.54-21.4-116.32,.62-.2,1.12-.41,1.64-.51,.53-.1,1.08-.1,1.94-.17,8.89,38.35,17.76,76.61,26.75,115.37Z" fill="#f1f0f0"/>
          <path d="M130.78,142.05c-7.29,38.5-14.56,76.85-21.85,115.35-2.74,.43-5.24-.46-8.04-.96,7.17-38.96,17.62-76.97,26.12-115.6,1.28,.41,2.38,.77,3.77,1.22Z" fill="#f1f0f0"/>
          <path d="M77.4,250.62c-2.02-.79-3.65-1.42-5.28-2.06-.42-.17-.81-.4-1.34-.66,13.09-36.71,27.72-72.72,42.07-108.96,.6,0,1.13-.04,1.65,0,.55,.05,1.08,.17,1.92,.31-12.99,37.08-25.95,74.07-39.02,111.36Z" fill="#f1f0f0"/>
          <path d="M169.59,139.75h3.53c14.09,35.73,28.22,71.55,42.47,107.68-2.34,1-4.5,1.92-6.98,2.98-13.55-36.82-26.05-73.72-39.01-110.66Z" fill="#f1f0f0"/>
          <path d="M162.43,140.51c1.21-.17,2.19-.31,3.47-.49,11.61,37.58,23.2,75.07,34.9,112.93-2.37,.67-4.69,1.32-7.1,2-10.47-38.32-20.84-76.28-31.26-114.44Z" fill="#f1f0f0"/>
          <path d="M120.2,139.63c1.02,.17,1.92,.32,3.17,.53-10.41,38.27-20.78,76.35-31.21,114.7-2.12-.53-4.23-1.06-6.29-1.57,.08-4.11,28.06-96.59,34.33-113.65Z" fill="#f1f0f0"/>
          <path d="M175.33,276.6c-.21-3.05-.05-5.86,1.35-8.76,1.66,.24,3.28,.58,4.91,.67,2.75,.16,5.52,.46,8.15-.9,1.09-.56,2.45-1.16,3.42,.69-.55,.59-1.14,1.24-1.78,1.93,.09,1.16-.54,2.59,1.37,3.37,.17-.74,.33-1.39,.52-2.19,.75-.48,1.6-1.02,2.53-1.62,.8,.39,1.58,.78,2.22,1.1,.15,1.66-2.31,2.04-1.15,4.15,1.12-1.23,2.07-2.28,3.16-3.49,2.93,.67,6,1.25,8.99,2.1,2.17,.61,4.16,.21,6.23-.32,3.21-.82,6.44-1.41,9.79-1.51,5.52-.17,7.98,3.63,8.01,7.83,0,.45,0,.91,0,1.74-2.22,.55-4.4,1.4-6.63,1.57-5.15,.38-10.33,.45-15.5,.59-8.31,.23-15.83-2.1-22.56-6.98-.22-.16-.5-.22-.74-.31-2.41,1.63-8.3,1.81-12.3,.34Z" fill="#e03035"/>
          <path d="M52.58,281.15c-.46-3.12,.05-5.8,2.56-7.82,1.99-1.6,4.39-1.9,6.79-1.78,1.73,.08,3.48,.44,5.14,.96,5.97,1.89,11.82,1.41,17.63-.62,.6-.21,1.21-.36,1.86-.55,.78,1.34,1.51,2.58,2.36,4.04,2.02-2.16-.86-3.16-.62-4.91,1.82-.29,3.66-.5,5.63,.13,.09,1.02,.17,1.9,.26,2.79q1.53-.48,1.56-2.84c-1.03-.72-2.14-1.49-3.38-2.36,1.02-1.29,2.09-1.51,3.41-.8,3.02,1.63,6.17,1.53,9.41,.8,1.05-.24,2.18-.13,3.27-.18,1.35,2.8,1.99,5.53,1.71,8.82-3.23,.29-6.5,.58-9.77,.87-.67-.64-1.25-1.2-1.96-1.87-.87,.49-1.79,.91-2.61,1.48-4.25,2.94-8.85,4.65-14.05,5.32-5.7,.74-11.39,1.12-17.11,.91-4.13-.15-8.19-.91-12.1-2.39Z" fill="#e03035"/>
          <path d="M121.36,259.2c-1.81-.09-3.33-.17-5.28-.27,5.64-38.5,12.19-76.49,18.84-114.6,1.71,.43,2.43,1.66,2.57,3.18,.12,1.28,.07,2.6-.12,3.87-1.22,8.22-2.51,16.42-3.76,24.63-1.42,9.31-2.83,18.62-4.21,27.93-1.41,9.5-2.78,19.01-4.16,28.51-1.28,8.77-2.55,17.54-3.88,26.74Z" fill="#f1f0f0"/>
          <path d="M169.85,259.18c-1.84,.21-3.35,.38-5.25,.59-5.51-38.07-10.98-75.88-16.46-113.76,.45-.42,.82-.82,1.25-1.14,.41-.31,.88-.54,1.73-1.04,6.25,38.53,12.45,76.7,18.72,115.36Z" fill="#f1f0f0"/>
          <path d="M64.68,244.21c-2.02-.13-3.09-1.16-3.93-2.71,14.45-33.85,28.92-67.75,43.39-101.64,1.24-.26,2.19-.47,3.55-.76-14.44,35.29-28.73,70.21-43.01,105.1Z" fill="#f1f0f0"/>
          <path d="M178.28,140.24c2.64,.04,3.57,1.5,4.34,3.27,3.75,8.62,7.53,17.23,11.28,25.85,8.13,18.67,16.28,37.34,24.37,56.04,2.27,5.23,4.35,10.55,6.63,16.08-.96,.83-1.89,1.63-3.14,2.71-15.06-34.57-29.17-69.07-43.48-103.94Z" fill="#f1f0f0"/>
          <path d="M128.99,259.33h-3.49c4.01-34.48,9.8-68.54,14.42-103.38,1.14,3.99,1.4,7.5,1.07,10.96-.69,7.17-1.67,14.31-2.57,21.46-1.02,8.07-2.09,16.13-3.15,24.2-1.39,10.54-2.78,21.08-4.19,31.61-.66,4.94-1.36,9.88-2.08,15.14Z" fill="#f1f0f0"/>
          <path d="M146.29,155.58c4.81,34.64,9.61,69.28,14.45,104.08h-3.4c-.51-3.37-1.09-6.72-1.52-10.09-2.29-17.59-4.55-35.18-6.8-52.77-1.4-10.9-2.81-21.8-4.14-32.71-.36-2.95,.08-5.86,1.42-8.51Z" fill="#f1f0f0"/>
          <path d="M176.74,265.95c-.18-1.65-.33-3.09-.51-4.77,3.75-.67,7.33-1.31,11.3-2.01,.45,2.25,.89,4.45,1.35,6.73-4.06,2.54-7.91,1.2-12.13,.05Z" fill="#f1f0f0"/>
          <path d="M98.14,259.08c3.8,.59,7.31,1.13,10.93,1.68-.22,1.74-.4,3.19-.61,4.91-3.75,.99-7.5,2.8-11.71,.14,.45-2.18,.89-4.31,1.39-6.74Z" fill="#f1f0f0"/>
        </g>
      </g>
      <g>
        <g>
          <path d="M1142.52,233.06c-18.01,4.39,7.91-60.9,7.71-71.51-12.88,19.93-22.73,51.71-44.92,62.8-22.02-.35-1.08-43.78-1.2-55.53-12.6,19.76-23,46.81-36.26,65.51-11.03-3.48-3.9-17.72,.89-23.5,9.12-17.65,21.62-39.66,31.4-55.66,2.27-4.4,4.96-13.13,10.61-10.17,16.71,8.66-5.86,49.79-2.97,64.44,15.75-16.6,24.45-39.53,38.16-59.89,3.64-6.94,8.45-11.85,14.78-5.05,7.58,6.54-5.01,35.69-6.57,46.24-2.92,9.18-3.51,15.85-5.43,25.02-.66,6.39,.64,15.38-6.19,17.31Z" fill="#f2f1f0"/>
          <path d="M1210.87,238.75c-3.85-1.55-6.48-4.42-5.56-8.59,9.72-20.04,18.42-46.65,27.04-68.61-16.66,18.75-32.53,40.56-50.35,57.93-4.12,3.71-9.11,8.96-14.47,10.68-5.57-.97-8.08-2.96-6.89-7.9,7.64-26.53,14.08-53,26.85-77.64,1.81-2.96,.28-5.62,2.65-7.33,6.02-2.9,11.26,4.25,8.72,9.86-7,17.27-18.24,47.47-25.02,64.57,6.57-6.74,28.54-27.66,33.61-35,8.8-11.53,23.16-24.53,32.72-35.38,3.96-2.32,8.1-1.31,9.41,3.35-6.01,23.44-19.06,47.14-25.77,71.01-2.46,4.4-6.97,26.51-12.95,23.06Z" fill="#f2f1f0"/>
          <path d="M1242.84,232.94c-4.89-2.21-4.17-6.96-3.03-11.37,7.63-22.61,15.25-47.5,25.78-69.49,1.17-1.4,2.13-5.97,3.79-7.46,6.2-3.75,9.4-1.07,9.73,5.12-3.57,10.21-10.9,22.12-13.77,32.54-3.28,7.89-7.26,17.34-9.6,26.09-2.38,4.21-6.31,31.52-12.89,24.58Zm15.42-48.52c8.54-3.51,54.26-51.19,57.42-35.32,1.75,3.87,1.14,5.44-2.84,7.52-11.34,6.1-21,15.69-30.45,21.86-5.62,5.71-13.89,9.53-19.58,15.41l-4.55-9.48Zm29.31,48.27c-15.47-5.69-24.28-24.72-27.04-40.05,0,0,.13-7.83,.13-7.83l9.22-.63c1.54,14.39,7.98,31.5,21.35,37.27,9.1,2.14,5.24,16.49-3.66,11.24Z" fill="#f2f1f0"/>
          <path d="M1318.74,231.42c-19.97-10.94-5.1-50.15,4.17-66.33,6.16-11.05,17.45-20.34,27.55-22.49,51.03-10.88,4.59,106.86-31.71,88.82Zm26-42.84c9.54-.03,25.26-35.12,10.09-34.46-7.39,3.15-22.16,32.2-10.09,34.46Z" fill="#e03035" stroke="#f2f1f0" stroke-miterlimit="10" stroke-width="2"/>
          <path d="M1389.84,235.34c-39.3-13.66,6.76-105.93,39.8-95.59,15.8,6.31,2.04,41.19-6.76,37.21-2.26-.61-6.83-3.9-5.24-5.69,2.13-2.78,5.08-8.28,6.32-11.62,9.11-33.61-40.09,23.89-36.89,48.08-2.43,29.82,21.67,9.05,35.25,3.35,16.45,5.87-25.22,27.81-32.47,24.26Z" fill="#f2f1f0"/>
        </g>
        <g>
          <path d="M1058.87,258.79h22.4v3.85h-22.4v-3.85Zm8.77,1.7h4.85v19.64h-4.85v-19.64Z" fill="#f2f1f0"/>
          <path d="M1095.98,280.66c-9.15,.72-16.09-9.12-11.18-17.06,6.44-10.06,23.49-4.96,22.16,7.6h-19.9v-3.73h17.48l-2.43,1.4c.27-7.04-9.78-9.2-13.03-3.45-5.03,11.03,10.37,14.38,17.29,8.46v3.54c-2.71,2.12-6.84,3.26-10.38,3.24Z" fill="#f2f1f0"/>
          <path d="M1133.16,269.46c-1.27,14-22.68,15.1-22.33,0-.4-15.1,21.14-14.01,22.33,0Zm-17.4,0c0,10.31,13.76,8.54,15.68,0-1.92-8.55-15.68-10.3-15.68,0Zm15.91,10.67l-.82-7.92,.97-2.75-.97-2.71,.82-7.96h5l-1.12,10.67,1.12,10.67h-5Z" fill="#f2f1f0"/>
          <path d="M1140.24,258.79h22.4v3.85h-22.4v-3.85Zm8.77,1.7h4.85v19.64h-4.85v-19.64Z" fill="#f2f1f0"/>
          <path d="M1166.71,258.79h4.85c-.18,7.8,0,19.64,0,27.56h-4.85v-27.56Zm2.99,10.67c1.24-14.01,22.71-15.1,22.33,0,.35,15.11-21.03,13.99-22.33,0Zm17.4,0c-.02-10.32-13.71-8.53-15.68,0,1.97,8.53,15.66,10.31,15.68,0Z" fill="#f2f1f0"/>
          <path d="M1206.95,280.13v-21.34h4.85v17.19l-1.46-.53,13.48-16.66h5.53l-17.92,21.34h-4.48Zm17.4,0l-6.57-10.56,3.4-3.09,8.85,13.65h-5.68Z" fill="#f2f1f0"/>
          <path d="M1237.15,258.79h20.8v21.34h-4.85v-19.83l2.24,2.26h-15.76l2.09-1.73c1.08,8.16,1.48,23.9-10.38,18.77v-3.66c9.29,3.19,5.97-11.51,5.86-17.15Z" fill="#f2f1f0"/>
          <path d="M1275.79,280.66c-16.91,.8-16.92-23.21,0-22.39,16.91-.81,16.91,23.2,0,22.39Zm0-3.85c10.43,.81,10.43-15.51,0-14.7-10.43-.79-10.43,15.5,0,14.7Z" fill="#f2f1f0"/>
          <path d="M1300.01,279.45l-9.71-20.66h5.34l9.19,20.66h-4.82Zm-2.43,7.43c-2.34,0-4.31-.59-6.2-1.77v-3.73c3.21,2.16,8.54,2.96,10.31-1.4,0,0,9.52-21.19,9.52-21.19h5.15c-3.94,5.3-9.81,29.19-18.78,28.09Z" fill="#f2f1f0"/>
          <path d="M1320.2,258.79h4.82v21.34h-4.82v-21.34Zm2.73,8.63h17.25v3.77h-17.25v-3.77Zm15.23-8.63h4.82v21.34h-4.82v-21.34Z" fill="#f2f1f0"/>
          <path d="M1370.34,269.46c-1.27,14-22.68,15.1-22.33,0-.4-15.1,21.14-14.01,22.33,0Zm-17.4,0c0,10.31,13.76,8.54,15.68,0-1.92-8.55-15.68-10.3-15.68,0Zm15.91,10.67l-.82-7.92,.97-2.75-.97-2.71,.82-7.96h5l-1.12,10.67,1.12,10.67h-5Z" fill="#f2f1f0"/>
          <path d="M1406.89,276.36v9.16h-4.22v-5.39h-21.13v5.39h-4.22v-9.16c8.23,.09,21.35,.07,29.57,0Zm-24.87-17.57h20.95v19.91h-4.85v-18.4l2.24,2.26h-15.79l2.09-1.66c.31,5.9,1.6,16.67-5.3,17.79l-1.98-1.7c3.52-2.05,3.35-12.91,2.65-18.21Z" fill="#f2f1f0"/>
          <path d="M1411.4,280.13v-21.34h4.85v19.98l-1.72-2.26c3.35-.6,13.47,2.14,13.26-3.73,.26-5.89-9.76-3.19-13.11-3.77v-3.51c3.11,.22,11.31-.66,14,.92,5.34,2.25,5.34,10.56,0,12.8-2.76,1.66-14.08,.64-17.29,.9Zm23.75-21.34h4.85v21.34h-4.85v-21.34Z" fill="#f2f1f0"/>
        </g>
        <g>
          <path d="M998.47,284.51c-6.3-.51-12.46-1.57-18.12-4.55-.6,.8-1.14,1.53-1.67,2.24-6.05,.2-11.92-.3-18.11-1.27,.12-1.77,.07-3.33,.35-4.84,.67-3.64,1.55-7.25,2.23-10.89,.36-1.97,.53-3.99-.37-5.99-2.4,.32-4.59,.74-6.8,.89-3.32,.22-6.65,.43-9.97,.3-2.3-.09-2.83-.85-3.13-3.14-2.06-15.35-4.12-30.71-6.14-46.06-1.6-12.13-3.13-24.27-4.76-36.89-.32,1.27-.59,2.05-.71,2.87-1.18,8.64-2.35,17.28-3.5,25.92-1.39,10.48-2.78,20.96-4.15,31.45-.91,6.98-1.77,13.97-2.66,20.96-.21,1.67-.49,3.32-2.24,4.77-6.04-.39-12.39-.8-18.97-1.22-.18,1.18-.54,2.19-.43,3.14,.37,3.02,.85,6.03,1.4,9.02,.54,2.98,.88,5.8,1.35,9.59-1.03,.28-2.14,.18-3.13,.28-3.68,.39-7.39,.58-11.06,1.06-.66,.06-2.72-1.59-4.95-2.6-1.28,.6-2.45,1.18-3.63,1.7-5,2.2-10.33,2.86-15.7,3.29-5.03,.25-10.89,.87-16.52-.22-3.43-.48-5.41-1.55-8.7-2.73,0-.93-.02-5.76,.43-7,1.81-4.98,4.57-6.96,9.81-6.91,1.48,.02,2.96,.19,4.42,.41,1.37,.2,2.78,.39,4.07,.87,6.69,2.46,12.72,.62,18.73-2.69-.54-.21-.96-.34-1.34-.54-.47-.25-.9-.58-1.32-.86,1.05-2.5,1.67-2.99,3.88-2.83,.91,.07,1.81,.35,2.69,.62,2.09,.63,3.18,.24,3.94-1.78,.47-1.27,.59-2.67,.9-4.16-4.12-1.02-8.08-1.95-12.01-2.99-7.09-1.87-14.04-4.13-20.37-7.92-2.53-1.52-4.97-3.23-6.57-5.85,.26-.66,.47-1.28,.72-1.87,9.32-21.98,18.62-43.97,27.98-65.93,4.79-11.24,9.68-22.44,14.52-33.65,1.13-2.62,2.77-4.61,5.87-4.84,3.23,0,6.46-.01,9.69-.02,.71,.01,1.43,.02,2.14,.04,5.74,.6,11.33,1.75,16.7,3.98,3.06,1.27,5.05,3.38,6.14,6.4,.53,1.48,.84,3.03,1.27,4.55,.26,.91,.54,1.81,.82,2.71,1.07-2.42,1.68-4.8,2.34-7.16,.77-2.73,2.36-4.79,5.02-5.94,9.26-4.01,18.87-5.26,28.85-3.66,2.34,.38,4.18,1.55,5.44,3.51,.84,1.32,1.51,2.75,2.14,4.19,1.34,3.05,2.56,6.15,3.89,9.21,11.06,25.37,22.13,50.73,33.2,76.09,1.62,3.72,3.24,7.45,4.92,11.32-.97,1.22-1.71,2.59-2.84,3.47-2.18,1.71-4.46,3.35-6.9,4.64-6.33,3.35-13.21,5.3-20.05,7.29-3,.87-6,1.74-8.92,2.59-.06,.55-.13,.82-.12,1.09,.18,4.35,1.31,5.24,5.53,4.53,1.17-.2,2.41-.34,3.58-.2,1.81,.23,2.22,.92,2.23,3.13-.64,.39-1.31,.79-2.36,1.42,2.67,.94,4.89,1.82,7.17,2.51,4.03,1.21,8.02,1.22,11.95-.54,2.69-1.2,5.58-1.37,8.47-1.09,4.48,.43,8.02,3.23,9.04,7.11,.28,1.06,.18,5.87,.71,6.77-2.03,1.35-5.62,2.41-9.42,2.84-7.21,.78-11.29,.33-16.86,.11Zm-24.05-29.93c-9.02-38.92-17.93-77.34-26.86-115.84-.87,.07-1.42,.07-1.95,.17-.52,.1-1.03,.31-1.65,.51,7.16,38.93,14.3,77.73,21.48,116.8,2.99-.55,5.69-1.04,8.98-1.64Zm-55.08-115.12c-1.4-.45-2.5-.81-3.78-1.23-8.54,38.79-19.03,76.96-26.23,116.08,2.81,.5,5.33,1.39,8.08,.97,7.32-38.65,14.62-77.16,21.94-115.82Zm-53.6,109.02c13.12-37.44,26.13-74.58,39.18-111.82-.84-.14-1.38-.27-1.93-.32-.52-.05-1.05,0-1.65,0-14.41,36.39-29.09,72.54-42.24,109.4,.54,.27,.93,.5,1.35,.67,1.63,.65,3.27,1.28,5.3,2.07Zm92.56-111.33c13.01,37.09,25.56,74.14,39.17,111.12,2.49-1.07,4.67-1.99,7.01-3-14.31-36.28-28.49-72.25-42.64-108.12h-3.54Zm-7.19,.76c10.47,38.31,20.88,76.43,31.39,114.91,2.42-.68,4.75-1.34,7.13-2.01-11.75-38.02-23.38-75.66-35.04-113.4-1.28,.18-2.26,.32-3.48,.5Zm-42.4-.88c-6.3,17.14-34.39,109.99-34.47,114.12,2.07,.52,4.19,1.05,6.32,1.58,10.48-38.5,20.88-76.75,31.34-115.17-1.25-.21-2.15-.36-3.18-.53Zm55.36,137.53c4.02,1.47,9.94,1.29,12.35-.34,.24,.1,.52,.16,.74,.31,6.76,4.9,14.31,7.25,22.65,7.01,5.19-.15,10.39-.22,15.56-.6,2.24-.16,4.42-1.02,6.65-1.57,0-.83,0-1.29,0-1.74-.02-4.22-2.49-8.03-8.04-7.86-3.37,.1-6.61,.69-9.83,1.52-2.07,.53-4.08,.94-6.25,.32-3-.85-6.08-1.43-9.02-2.11-1.1,1.21-2.06,2.27-3.18,3.5-1.17-2.12,1.31-2.5,1.15-4.17-.64-.32-1.43-.71-2.23-1.1-.94,.6-1.78,1.14-2.54,1.62-.19,.8-.35,1.46-.52,2.2-1.92-.78-1.29-2.22-1.38-3.38,.64-.7,1.24-1.34,1.79-1.94-.98-1.85-2.34-1.25-3.44-.69-2.64,1.37-5.42,1.07-8.18,.9-1.64-.1-3.26-.44-4.93-.67-1.4,2.91-1.56,5.73-1.35,8.79Zm-123.25,4.57c3.93,1.49,8,2.25,12.15,2.4,5.74,.21,11.45-.17,17.18-.91,5.22-.67,9.84-2.4,14.1-5.35,.82-.57,1.74-.99,2.62-1.48,.71,.68,1.29,1.23,1.96,1.88,3.29-.29,6.57-.59,9.81-.88,.28-3.31-.35-6.04-1.71-8.86-1.1,.05-2.23-.05-3.29,.19-3.25,.74-6.41,.84-9.44-.8-1.33-.72-2.41-.5-3.43,.8,1.25,.87,2.37,1.65,3.4,2.37q-.03,2.38-1.57,2.86c-.08-.89-.16-1.78-.26-2.8-1.98-.63-3.83-.42-5.66-.13-.25,1.75,2.65,2.76,.62,4.93-.86-1.47-1.59-2.72-2.37-4.06-.65,.19-1.27,.34-1.87,.55-5.84,2.04-11.71,2.52-17.7,.63-1.66-.52-3.43-.88-5.16-.97-2.41-.12-4.82,.18-6.82,1.79-2.52,2.02-3.02,4.72-2.57,7.85Zm69.07-22.04c1.34-9.24,2.62-18.05,3.9-26.85,1.39-9.54,2.76-19.09,4.18-28.63,1.39-9.35,2.81-18.7,4.23-28.05,1.25-8.24,2.55-16.48,3.78-24.73,.19-1.27,.24-2.6,.12-3.88-.15-1.53-.86-2.77-2.58-3.19-6.67,38.26-13.25,76.41-18.91,115.07,1.95,.1,3.48,.18,5.3,.28Zm48.69-.02c-6.3-38.82-12.52-77.14-18.8-115.84-.85,.51-1.32,.74-1.74,1.05-.43,.33-.8,.73-1.26,1.15,5.5,38.04,11,76.01,16.52,114.23,1.9-.21,3.42-.38,5.27-.59Zm-105.6-15.03c14.34-35.04,28.68-70.1,43.18-105.53-1.36,.29-2.32,.49-3.56,.76-14.53,34.03-29.06,68.06-43.57,102.05,.84,1.55,1.91,2.59,3.94,2.72Zm114.06-104.4c14.37,35.01,28.54,69.65,43.66,104.36,1.26-1.09,2.19-1.89,3.15-2.72-2.28-5.56-4.38-10.89-6.65-16.15-8.12-18.77-16.3-37.52-24.47-56.27-3.77-8.65-7.57-17.29-11.33-25.95-.77-1.77-1.71-3.24-4.36-3.28Zm-49.49,119.58c.73-5.28,1.43-10.24,2.09-15.2,1.41-10.58,2.81-21.16,4.21-31.74,1.07-8.1,2.14-16.19,3.16-24.3,.91-7.18,1.89-14.35,2.58-21.55,.33-3.48,.07-7.01-1.07-11.01-4.63,34.98-10.45,69.18-14.48,103.8h3.51Zm17.37-104.17c-1.34,2.67-1.79,5.59-1.43,8.55,1.34,10.95,2.75,21.9,4.16,32.84,2.27,17.66,4.54,35.33,6.83,52.99,.44,3.38,1.01,6.74,1.53,10.13h3.41c-4.85-34.95-9.68-69.73-14.51-104.51Zm30.57,110.81c4.24,1.15,8.11,2.5,12.18-.05-.46-2.29-.9-4.5-1.36-6.76-3.98,.71-7.58,1.35-11.34,2.02,.18,1.69,.34,3.13,.51,4.79Zm-78.92-6.9c-.5,2.44-.95,4.58-1.4,6.77,4.23,2.67,8,.85,11.76-.15,.21-1.73,.39-3.18,.61-4.93-3.64-.56-7.16-1.1-10.98-1.69Zm99.18,7.71c-.59-1.16-.93-.75-1.26,.13,.35-.04,.7-.07,1.26-.13Zm-106.84-.33c-.01-.13-.03-.25-.04-.38h-2.19c.02,.21,.03,.42,.05,.63,.73-.08,1.45-.17,2.18-.25Z" fill="#f2f1f0" stroke="#221f20" stroke-miterlimit="10" stroke-width=".24"/>
          <path d="M974.42,254.58c-3.28,.6-5.99,1.09-8.98,1.64-7.19-39.07-14.32-77.86-21.48-116.8,.62-.2,1.13-.41,1.65-.51,.53-.1,1.08-.1,1.95-.17,8.93,38.5,17.84,76.92,26.86,115.84Z" fill="#221f20" stroke="#221f20" stroke-miterlimit="10" stroke-width=".24"/>
          <path d="M919.33,139.46c-7.32,38.66-14.62,77.16-21.94,115.82-2.75,.43-5.26-.46-8.08-.97,7.2-39.12,17.69-77.29,26.23-116.08,1.28,.42,2.39,.77,3.78,1.23Z" fill="#221f20" stroke="#221f20" stroke-miterlimit="10" stroke-width=".24"/>
          <path d="M865.74,248.47c-2.03-.79-3.67-1.42-5.3-2.07-.42-.17-.81-.4-1.35-.67,13.15-36.86,27.83-73.01,42.24-109.4,.6,0,1.13-.04,1.65,0,.55,.05,1.09,.17,1.93,.32-13.05,37.24-26.06,74.37-39.18,111.82Z" fill="#221f20" stroke="#221f20" stroke-miterlimit="10" stroke-width=".24"/>
          <path d="M958.3,137.15h3.54c14.15,35.87,28.33,71.84,42.64,108.12-2.35,1-4.52,1.93-7.01,3-13.61-36.97-26.16-74.03-39.17-111.12Z" fill="#221f20" stroke="#221f20" stroke-miterlimit="10" stroke-width=".24"/>
          <path d="M951.11,137.9c1.22-.17,2.2-.31,3.48-.5,11.66,37.73,23.29,75.38,35.04,113.4-2.38,.67-4.71,1.32-7.13,2.01-10.51-38.48-20.93-76.6-31.39-114.91Z" fill="#221f20" stroke="#221f20" stroke-miterlimit="10" stroke-width=".24"/>
          <path d="M908.7,137.02c1.03,.17,1.92,.32,3.18,.53-10.45,38.42-20.86,76.67-31.34,115.17-2.13-.53-4.25-1.06-6.32-1.58,.08-4.13,28.17-96.98,34.47-114.12Z" fill="#221f20" stroke="#221f20" stroke-miterlimit="10" stroke-width=".24"/>
          <path d="M964.06,274.56c-.21-3.06-.05-5.89,1.35-8.79,1.67,.24,3.29,.58,4.93,.67,2.76,.16,5.54,.46,8.18-.9,1.09-.57,2.46-1.17,3.44,.69-.55,.6-1.14,1.24-1.79,1.94,.09,1.17-.54,2.6,1.38,3.38,.18-.74,.33-1.4,.52-2.2,.76-.48,1.6-1.03,2.54-1.62,.8,.39,1.59,.78,2.23,1.1,.16,1.67-2.32,2.05-1.15,4.17,1.12-1.24,2.08-2.29,3.18-3.5,2.95,.68,6.02,1.26,9.02,2.11,2.18,.62,4.18,.21,6.25-.32,3.22-.82,6.47-1.41,9.83-1.52,5.55-.17,8.02,3.64,8.04,7.86,0,.46,0,.91,0,1.74-2.23,.55-4.42,1.41-6.65,1.57-5.17,.38-10.37,.45-15.56,.6-8.34,.23-15.9-2.11-22.65-7.01-.22-.16-.5-.22-.74-.31-2.42,1.64-8.33,1.82-12.35,.34Z" fill="#e7363d" stroke="#221f20" stroke-miterlimit="10" stroke-width=".24"/>
          <path d="M840.81,279.13c-.46-3.13,.05-5.83,2.57-7.85,2-1.61,4.41-1.91,6.82-1.79,1.73,.08,3.5,.44,5.16,.97,5.99,1.9,11.87,1.41,17.7-.63,.6-.21,1.22-.36,1.87-.55,.78,1.34,1.52,2.59,2.37,4.06,2.02-2.17-.87-3.17-.62-4.93,1.83-.29,3.68-.5,5.66,.13,.09,1.02,.18,1.91,.26,2.8q1.54-.48,1.57-2.86c-1.03-.72-2.15-1.5-3.4-2.37,1.02-1.3,2.1-1.52,3.43-.8,3.03,1.64,6.19,1.54,9.44,.8,1.05-.24,2.18-.13,3.29-.19,1.36,2.82,2,5.55,1.71,8.86-3.25,.29-6.53,.58-9.81,.88-.68-.65-1.26-1.2-1.96-1.88-.87,.49-1.79,.91-2.62,1.48-4.26,2.95-8.89,4.67-14.1,5.35-5.73,.74-11.44,1.12-17.18,.91-4.15-.15-8.23-.91-12.15-2.4Z" fill="#e7363d" stroke="#221f20" stroke-miterlimit="10" stroke-width=".24"/>
          <path d="M909.88,257.09c-1.81-.09-3.34-.17-5.3-.28,5.66-38.66,12.24-76.81,18.91-115.07,1.72,.43,2.44,1.66,2.58,3.19,.12,1.28,.07,2.61-.12,3.88-1.23,8.25-2.52,16.49-3.78,24.73-1.42,9.35-2.84,18.7-4.23,28.05-1.41,9.54-2.79,19.09-4.18,28.63-1.28,8.81-2.56,17.61-3.9,26.85Z" fill="#221f20" stroke="#221f20" stroke-miterlimit="10" stroke-width=".24"/>
          <path d="M958.56,257.07c-1.85,.21-3.37,.38-5.27,.59-5.53-38.22-11.02-76.19-16.52-114.23,.45-.42,.83-.82,1.26-1.15,.41-.31,.89-.54,1.74-1.05,6.28,38.69,12.5,77.01,18.8,115.84Z" fill="#221f20" stroke="#221f20" stroke-miterlimit="10" stroke-width=".24"/>
          <path d="M852.96,242.04c-2.03-.13-3.1-1.17-3.94-2.72,14.51-33.99,29.04-68.02,43.57-102.05,1.25-.27,2.2-.47,3.56-.76-14.5,35.43-28.85,70.5-43.18,105.53Z" fill="#221f20" stroke="#221f20" stroke-miterlimit="10" stroke-width=".24"/>
          <path d="M967.02,137.64c2.65,.04,3.59,1.51,4.36,3.28,3.76,8.66,7.56,17.3,11.33,25.95,8.17,18.75,16.35,37.5,24.47,56.27,2.27,5.26,4.37,10.59,6.65,16.15-.96,.83-1.89,1.63-3.15,2.72-15.12-34.71-29.29-69.35-43.66-104.36Z" fill="#221f20" stroke="#221f20" stroke-miterlimit="10" stroke-width=".24"/>
          <path d="M917.54,257.21h-3.51c4.03-34.62,9.84-68.82,14.48-103.8,1.15,4,1.41,7.53,1.07,11.01-.69,7.2-1.67,14.37-2.58,21.55-1.03,8.1-2.1,16.2-3.16,24.3-1.39,10.58-2.79,21.16-4.21,31.74-.66,4.96-1.36,9.92-2.09,15.2Z" fill="#221f20" stroke="#221f20" stroke-miterlimit="10" stroke-width=".24"/>
          <path d="M934.91,153.04c4.83,34.78,9.65,69.56,14.51,104.51h-3.41c-.51-3.38-1.09-6.75-1.53-10.13-2.3-17.66-4.57-35.32-6.83-52.99-1.4-10.95-2.82-21.89-4.16-32.84-.36-2.96,.08-5.88,1.43-8.55Z" fill="#221f20" stroke="#221f20" stroke-miterlimit="10" stroke-width=".24"/>
        </g>
      </g>
    </g>
  </g>
</svg>