<?xml version="1.0" encoding="UTF-8"?>
<svg id="_Слой_2" data-name="Слой 2" xmlns="http://www.w3.org/2000/svg" viewBox="0 0 548.47 369.05">
  <g id="_Слой_1-2" data-name="Слой 1">
    <rect y="0" width="548.47" height="369.05" rx="36.16" ry="36.16" fill="#2b4068"/>
    <g>
      <path d="M341.63,213.21c-6.49-.53-12.84-1.62-18.67-4.68-.62,.83-1.18,1.57-1.73,2.31-6.23,.21-12.28-.31-18.66-1.31,.12-1.82,.07-3.43,.36-4.98,.69-3.75,1.6-7.47,2.3-11.22,.38-2.03,.54-4.11-.38-6.18-2.47,.33-4.73,.76-7.01,.91-3.42,.23-6.86,.44-10.27,.31-2.37-.09-2.91-.88-3.23-3.23-2.12-15.82-4.25-31.64-6.33-47.46-1.64-12.5-3.23-25-4.91-38.01-.33,1.3-.61,2.12-.73,2.95-1.22,8.9-2.42,17.8-3.6,26.7-1.44,10.8-2.87,21.6-4.27,32.4-.94,7.19-1.82,14.4-2.74,21.59-.22,1.72-.51,3.42-2.31,4.91-6.22-.4-12.76-.82-19.54-1.26-.18,1.22-.56,2.25-.44,3.23,.38,3.11,.88,6.21,1.44,9.29,.56,3.07,.9,5.97,1.39,9.88-1.07,.29-2.21,.18-3.23,.29-3.8,.4-7.62,.6-11.4,1.1-.68,.06-2.8-1.64-5.1-2.68-1.32,.62-2.52,1.21-3.74,1.75-5.15,2.26-10.64,2.95-16.17,3.39-5.18,.26-11.22,.9-17.02-.23-3.54-.49-5.57-1.59-8.96-2.81,0-.96-.02-5.94,.44-7.21,1.87-5.13,4.71-7.18,10.11-7.12,1.52,.02,3.05,.2,4.55,.42,1.41,.21,2.86,.41,4.19,.89,6.89,2.53,13.11,.64,19.29-2.78-.55-.22-.99-.35-1.38-.56-.48-.26-.92-.59-1.36-.88,1.08-2.58,1.72-3.08,3.99-2.92,.93,.07,1.86,.36,2.77,.64,2.15,.64,3.28,.25,4.06-1.83,.49-1.31,.61-2.75,.93-4.28-4.25-1.05-8.32-2.01-12.37-3.08-7.3-1.93-14.47-4.25-20.99-8.16-2.61-1.57-5.12-3.32-6.77-6.03,.26-.69,.48-1.31,.74-1.93,9.6-22.65,19.19-45.3,28.83-67.93,4.93-11.58,9.97-23.12,14.96-34.67,1.17-2.7,2.86-4.75,6.04-4.99,3.33,0,6.65-.01,9.98-.02,.73,.01,1.47,.03,2.2,.04,5.91,.62,11.67,1.8,17.2,4.1,3.15,1.31,5.21,3.48,6.32,6.6,.54,1.52,.87,3.12,1.31,4.68,.26,.94,.56,1.86,.84,2.79,1.11-2.49,1.73-4.94,2.41-7.38,.79-2.82,2.43-4.93,5.17-6.12,9.54-4.13,19.44-5.42,29.72-3.77,2.41,.39,4.31,1.59,5.6,3.62,.87,1.36,1.56,2.84,2.2,4.31,1.38,3.14,2.64,6.34,4.01,9.48,11.39,26.13,22.8,52.26,34.2,78.39,1.67,3.83,3.34,7.67,5.07,11.66-1,1.26-1.76,2.67-2.92,3.58-2.24,1.76-4.59,3.45-7.11,4.78-6.53,3.45-13.61,5.46-20.66,7.51-3.09,.9-6.18,1.79-9.19,2.66-.06,.56-.14,.85-.12,1.13,.19,4.48,1.35,5.4,5.7,4.66,1.21-.2,2.48-.35,3.69-.2,1.87,.23,2.28,.95,2.3,3.22-.66,.4-1.35,.81-2.43,1.46,2.75,.97,5.04,1.88,7.39,2.58,4.15,1.24,8.26,1.25,12.31-.56,2.77-1.24,5.74-1.41,8.72-1.12,4.62,.45,8.27,3.33,9.31,7.33,.29,1.1,.18,6.05,.73,6.98-2.09,1.39-5.79,2.48-9.7,2.93-7.43,.8-11.63,.33-17.37,.11Zm-24.78-30.84c-9.3-40.1-18.48-79.68-27.67-119.35-.9,.07-1.46,.07-2.01,.18-.54,.11-1.06,.32-1.7,.53,7.38,40.11,14.73,80.08,22.13,120.33,3.08-.56,5.87-1.07,9.25-1.69Zm-56.75-118.61c-1.44-.47-2.58-.83-3.9-1.26-8.8,39.96-19.61,79.29-27.03,119.59,2.9,.52,5.49,1.44,8.32,.99,7.54-39.83,15.06-79.5,22.6-119.33Zm-55.22,112.32c13.52-38.58,26.93-76.84,40.37-115.2-.87-.15-1.42-.28-1.99-.33-.54-.05-1.08-.01-1.7-.01-14.85,37.49-29.98,74.74-43.52,112.72,.55,.28,.96,.51,1.39,.69,1.68,.67,3.36,1.32,5.46,2.14Zm95.37-114.7c13.4,38.22,26.33,76.39,40.35,114.48,2.57-1.1,4.81-2.06,7.22-3.09-14.74-37.38-29.36-74.44-43.93-111.4h-3.65Zm-7.41,.78c10.78,39.47,21.51,78.74,32.34,118.39,2.5-.7,4.9-1.38,7.35-2.07-12.1-39.17-24.09-77.96-36.1-116.83-1.32,.19-2.33,.33-3.59,.51Zm-43.69-.91c-6.49,17.66-35.43,113.32-35.52,117.58,2.13,.53,4.32,1.08,6.51,1.63,10.79-39.67,21.51-79.07,32.29-118.66-1.29-.22-2.21-.37-3.27-.55Zm57.03,141.7c4.15,1.52,10.24,1.33,12.73-.35,.24,.1,.54,.16,.76,.32,6.96,5.05,14.75,7.46,23.34,7.22,5.35-.15,10.7-.22,16.03-.61,2.3-.17,4.56-1.05,6.86-1.62,0-.86,0-1.33,0-1.8-.02-4.35-2.57-8.28-8.28-8.1-3.47,.11-6.81,.71-10.13,1.56-2.14,.55-4.2,.97-6.44,.33-3.09-.88-6.26-1.48-9.3-2.17-1.13,1.24-2.12,2.34-3.27,3.61-1.2-2.19,1.35-2.58,1.19-4.3-.66-.33-1.48-.73-2.3-1.13-.96,.62-1.84,1.17-2.62,1.67-.2,.83-.36,1.5-.54,2.27-1.98-.81-1.33-2.28-1.42-3.49,.66-.72,1.27-1.38,1.84-2-1.01-1.91-2.41-1.29-3.54-.71-2.72,1.41-5.58,1.1-8.43,.93-1.68-.1-3.35-.45-5.07-.69-1.45,2.99-1.61,5.9-1.39,9.06Zm-126.98,4.71c4.04,1.53,8.24,2.31,12.52,2.47,5.92,.22,11.8-.18,17.7-.94,5.37-.69,10.14-2.47,14.53-5.51,.85-.58,1.79-1.02,2.7-1.53,.73,.7,1.33,1.27,2.02,1.93,3.39-.3,6.77-.61,10.11-.9,.29-3.41-.37-6.23-1.77-9.13-1.13,.05-2.3-.06-3.38,.19-3.35,.76-6.61,.86-9.73-.82-1.37-.74-2.48-.51-3.53,.83,1.29,.9,2.44,1.7,3.5,2.44q-.03,2.45-1.62,2.94c-.08-.92-.17-1.83-.26-2.89-2.04-.65-3.95-.43-5.83-.13-.25,1.81,2.73,2.85,.64,5.08-.88-1.51-1.64-2.8-2.44-4.18-.67,.2-1.31,.36-1.93,.57-6.01,2.1-12.06,2.6-18.24,.65-1.71-.54-3.53-.91-5.32-1-2.48-.12-4.97,.19-7.03,1.84-2.59,2.09-3.12,4.86-2.64,8.09Zm71.16-22.71c1.38-9.52,2.7-18.59,4.02-27.67,1.43-9.83,2.85-19.67,4.3-29.5,1.43-9.64,2.89-19.27,4.36-28.9,1.29-8.49,2.63-16.98,3.89-25.48,.2-1.31,.25-2.68,.12-4-.15-1.58-.89-2.85-2.66-3.29-6.87,39.42-13.65,78.72-19.49,118.55,2.01,.1,3.59,.19,5.46,.28Zm50.16-.02c-6.49-40-12.9-79.48-19.37-119.34-.88,.52-1.36,.76-1.79,1.08-.44,.34-.83,.75-1.3,1.18,5.67,39.19,11.33,78.31,17.03,117.69,1.96-.22,3.52-.39,5.43-.61Zm-108.8-15.49c14.77-36.1,29.55-72.22,44.49-108.73-1.4,.3-2.39,.51-3.67,.78-14.97,35.06-29.94,70.12-44.89,105.14,.87,1.6,1.97,2.67,4.06,2.81Zm117.51-107.56c14.8,36.07,29.41,71.76,44.98,107.52,1.3-1.12,2.25-1.95,3.25-2.8-2.35-5.72-4.51-11.22-6.85-16.63-8.37-19.34-16.8-38.65-25.21-57.97-3.88-8.92-7.8-17.82-11.67-26.74-.79-1.83-1.76-3.34-4.49-3.38Zm-50.99,123.2c.75-5.44,1.47-10.55,2.16-15.67,1.46-10.9,2.9-21.8,4.33-32.7,1.1-8.34,2.2-16.68,3.26-25.03,.94-7.39,1.95-14.78,2.66-22.2,.34-3.58,.08-7.22-1.11-11.34-4.78,36.04-10.77,71.28-14.92,106.94h3.61Zm17.9-107.32c-1.38,2.75-1.84,5.75-1.47,8.81,1.38,11.29,2.83,22.56,4.28,33.84,2.33,18.2,4.67,36.4,7.04,54.59,.45,3.48,1.05,6.95,1.58,10.44h3.52c-5-36.01-9.97-71.84-14.94-107.67Zm31.5,114.17c4.37,1.18,8.35,2.57,12.55-.05-.47-2.36-.93-4.64-1.4-6.97-4.1,.73-7.81,1.39-11.69,2.08,.19,1.74,.35,3.23,.53,4.93Zm-81.31-7.11c-.52,2.52-.98,4.72-1.44,6.97,4.36,2.75,8.24,.87,12.12-.15,.22-1.78,.41-3.28,.63-5.08-3.75-.58-7.38-1.14-11.31-1.74Zm102.18,7.94c-.6-1.19-.96-.78-1.29,.14,.36-.04,.73-.08,1.29-.14Zm-110.07-.34c-.01-.13-.03-.26-.04-.39h-2.25c.02,.22,.03,.43,.05,.65,.75-.09,1.5-.17,2.25-.26Z" fill="#f2f1f0" stroke="#221f20" stroke-miterlimit="10" stroke-width=".24"/>
      <path d="M316.85,182.37c-3.38,.62-6.17,1.13-9.25,1.69-7.4-40.25-14.76-80.22-22.13-120.33,.64-.21,1.16-.42,1.7-.53,.55-.11,1.11-.1,2.01-.18,9.2,39.67,18.38,79.25,27.67,119.35Z" fill="#221f20" stroke="#221f20" stroke-miterlimit="10" stroke-width=".24"/>
      <path d="M260.1,63.77c-7.54,39.83-15.06,79.5-22.6,119.33-2.83,.44-5.42-.48-8.32-.99,7.42-40.3,18.23-79.63,27.03-119.59,1.32,.43,2.46,.8,3.9,1.26Z" fill="#221f20" stroke="#221f20" stroke-miterlimit="10" stroke-width=".24"/>
      <path d="M204.88,176.08c-2.09-.82-3.78-1.47-5.46-2.14-.43-.17-.84-.41-1.39-.69,13.55-37.98,28.67-75.23,43.52-112.72,.62,0,1.17-.04,1.7,.01,.56,.05,1.12,.18,1.99,.33-13.44,38.36-26.85,76.63-40.37,115.2Z" fill="#221f20" stroke="#221f20" stroke-miterlimit="10" stroke-width=".24"/>
      <path d="M300.25,61.38h3.65c14.58,36.96,29.19,74.02,43.93,111.4-2.42,1.03-4.66,1.99-7.22,3.09-14.02-38.09-26.95-76.27-40.35-114.48Z" fill="#221f20" stroke="#221f20" stroke-miterlimit="10" stroke-width=".24"/>
      <path d="M292.84,62.16c1.26-.18,2.26-.32,3.59-.51,12.01,38.87,24,77.66,36.1,116.83-2.45,.69-4.85,1.36-7.35,2.07-10.83-39.64-21.56-78.92-32.34-118.39Z" fill="#221f20" stroke="#221f20" stroke-miterlimit="10" stroke-width=".24"/>
      <path d="M249.15,61.26c1.06,.18,1.98,.33,3.27,.55-10.77,39.59-21.49,78.99-32.29,118.66-2.19-.55-4.38-1.09-6.51-1.63,.08-4.25,29.03-99.92,35.52-117.58Z" fill="#221f20" stroke="#221f20" stroke-miterlimit="10" stroke-width=".24"/>
      <path d="M306.18,202.96c-.22-3.16-.05-6.07,1.39-9.06,1.72,.24,3.39,.59,5.07,.69,2.85,.17,5.71,.48,8.43-.93,1.13-.58,2.53-1.2,3.54,.71-.57,.62-1.18,1.28-1.84,2,.09,1.2-.56,2.68,1.42,3.49,.18-.76,.34-1.44,.54-2.27,.78-.5,1.65-1.06,2.62-1.67,.82,.41,1.64,.81,2.3,1.13,.16,1.72-2.39,2.11-1.19,4.3,1.15-1.27,2.14-2.36,3.27-3.61,3.03,.7,6.2,1.3,9.3,2.17,2.24,.64,4.31,.21,6.44-.33,3.32-.85,6.66-1.46,10.13-1.56,5.71-.18,8.26,3.75,8.28,8.1,0,.47,0,.94,0,1.8-2.3,.57-4.55,1.45-6.86,1.62-5.33,.39-10.68,.46-16.03,.61-8.59,.24-16.38-2.17-23.34-7.22-.22-.16-.52-.22-.76-.32-2.49,1.69-8.58,1.87-12.73,.35Z" fill="#e7363d" stroke="#221f20" stroke-miterlimit="10" stroke-width=".24"/>
      <path d="M179.2,207.67c-.47-3.23,.05-6,2.64-8.09,2.06-1.66,4.54-1.96,7.03-1.84,1.79,.09,3.61,.46,5.32,1,6.18,1.95,12.22,1.46,18.24-.65,.62-.22,1.25-.37,1.93-.57,.81,1.38,1.56,2.67,2.44,4.18,2.09-2.23-.89-3.27-.64-5.08,1.88-.3,3.79-.52,5.83,.13,.1,1.06,.18,1.97,.26,2.89q1.59-.49,1.62-2.94c-1.06-.74-2.21-1.54-3.5-2.44,1.05-1.34,2.16-1.57,3.53-.83,3.12,1.69,6.38,1.59,9.73,.82,1.08-.25,2.25-.14,3.38-.19,1.4,2.9,2.06,5.72,1.77,9.13-3.34,.3-6.72,.6-10.11,.9-.7-.67-1.3-1.24-2.02-1.93-.9,.51-1.85,.94-2.7,1.53-4.39,3.04-9.16,4.81-14.53,5.51-5.9,.76-11.78,1.16-17.7,.94-4.27-.16-8.47-.94-12.52-2.47Z" fill="#e7363d" stroke="#221f20" stroke-miterlimit="10" stroke-width=".24"/>
      <path d="M250.36,184.96c-1.87-.1-3.45-.18-5.46-.28,5.83-39.83,12.61-79.13,19.49-118.55,1.77,.44,2.51,1.71,2.66,3.29,.13,1.32,.08,2.69-.12,4-1.26,8.5-2.6,16.99-3.89,25.48-1.47,9.63-2.93,19.26-4.36,28.9-1.46,9.83-2.87,19.67-4.3,29.5-1.32,9.07-2.64,18.15-4.02,27.67Z" fill="#221f20" stroke="#221f20" stroke-miterlimit="10" stroke-width=".24"/>
      <path d="M300.52,184.94c-1.91,.21-3.47,.39-5.43,.61-5.7-39.38-11.36-78.5-17.03-117.69,.47-.43,.85-.85,1.3-1.18,.43-.32,.92-.56,1.79-1.08,6.47,39.86,12.88,79.34,19.37,119.34Z" fill="#221f20" stroke="#221f20" stroke-miterlimit="10" stroke-width=".24"/>
      <path d="M191.72,169.45c-2.09-.13-3.2-1.2-4.06-2.81,14.95-35.02,29.92-70.08,44.89-105.14,1.28-.27,2.27-.48,3.67-.78-14.94,36.51-29.72,72.63-44.49,108.73Z" fill="#221f20" stroke="#221f20" stroke-miterlimit="10" stroke-width=".24"/>
      <path d="M309.24,61.89c2.73,.04,3.7,1.55,4.49,3.38,3.87,8.92,7.79,17.82,11.67,26.74,8.41,19.32,16.84,38.63,25.21,57.97,2.34,5.42,4.5,10.91,6.85,16.63-.99,.86-1.95,1.68-3.25,2.8-15.58-35.76-30.18-71.45-44.98-107.52Z" fill="#221f20" stroke="#221f20" stroke-miterlimit="10" stroke-width=".24"/>
      <path d="M258.25,185.09h-3.61c4.15-35.67,10.14-70.9,14.92-106.94,1.18,4.12,1.45,7.76,1.11,11.34-.71,7.42-1.72,14.81-2.66,22.2-1.06,8.35-2.16,16.69-3.26,25.03-1.44,10.9-2.88,21.8-4.33,32.7-.68,5.11-1.41,10.22-2.16,15.67Z" fill="#221f20" stroke="#221f20" stroke-miterlimit="10" stroke-width=".24"/>
      <path d="M276.15,77.76c4.97,35.83,9.95,71.67,14.94,107.67h-3.52c-.53-3.49-1.12-6.95-1.58-10.44-2.37-18.19-4.7-36.39-7.04-54.59-1.45-11.28-2.9-22.55-4.28-33.84-.37-3.05,.08-6.06,1.47-8.81Z" fill="#221f20" stroke="#221f20" stroke-miterlimit="10" stroke-width=".24"/>
    </g>
    <g>
      <path d="M216.59,283.29c-9.28,2.26,4.07-31.37,3.97-36.84-6.63,10.26-11.71,26.64-23.14,32.35-11.34-.18-.55-22.55-.62-28.61-6.49,10.18-11.85,24.11-18.68,33.75-5.68-1.79-2.01-9.13,.46-12.11,4.7-9.09,11.14-20.43,16.17-28.67,1.17-2.27,2.55-6.77,5.47-5.24,8.61,4.46-3.02,25.65-1.53,33.2,8.11-8.55,12.59-20.36,19.66-30.85,1.87-3.58,4.35-6.1,7.61-2.6,3.9,3.37-2.58,18.39-3.38,23.82-1.51,4.73-1.81,8.17-2.8,12.89-.34,3.29,.33,7.92-3.19,8.92Z" fill="#f2f1f0"/>
      <path d="M251.81,286.22c-1.98-.8-3.34-2.28-2.86-4.43,5.01-10.32,9.49-24.03,13.93-35.34-8.58,9.66-16.76,20.9-25.94,29.84-2.12,1.91-4.69,4.62-7.45,5.5-2.87-.5-4.16-1.52-3.55-4.07,3.94-13.66,7.25-27.3,13.83-40,.93-1.52,.14-2.9,1.37-3.78,3.1-1.49,5.8,2.19,4.49,5.08-3.61,8.89-9.4,24.45-12.89,33.26,3.38-3.47,14.7-14.25,17.31-18.03,4.53-5.94,11.93-12.64,16.86-18.23,2.04-1.19,4.17-.67,4.85,1.73-3.1,12.08-9.82,24.28-13.28,36.58-1.27,2.26-3.59,13.66-6.67,11.88Z" fill="#f2f1f0"/>
      <path d="M268.27,283.22c-2.52-1.14-2.15-3.59-1.56-5.86,3.93-11.65,7.85-24.47,13.28-35.8,.6-.72,1.1-3.07,1.95-3.84,3.19-1.93,4.84-.55,5.01,2.64-1.84,5.26-5.62,11.39-7.1,16.76-1.69,4.06-3.74,8.93-4.95,13.44-1.23,2.17-3.25,16.24-6.64,12.66Zm7.94-24.99c4.4-1.81,27.95-26.37,29.58-18.19,.9,1.99,.59,2.8-1.46,3.87-5.84,3.14-10.82,8.08-15.69,11.26-2.9,2.94-7.15,4.91-10.09,7.94l-2.34-4.88Zm15.1,24.86c-7.97-2.93-12.51-12.73-13.93-20.63,0,0,.07-4.04,.07-4.04l4.75-.33c.79,7.41,4.11,16.23,11,19.2,4.69,1.1,2.7,8.5-1.89,5.79Z" fill="#f2f1f0"/>
      <path d="M308.4,282.44c-10.28-5.64-2.63-25.83,2.15-34.17,3.17-5.69,8.99-10.48,14.19-11.59,26.29-5.61,2.37,55.05-16.34,45.76Zm13.39-22.07c4.92-.01,13.01-18.09,5.2-17.75-3.81,1.62-11.41,16.59-5.2,17.75Z" fill="#e03035" stroke="#f2f1f0" stroke-miterlimit="10" stroke-width="1.03"/>
      <path d="M346.06,284.46c-20.24-7.04,3.48-54.57,20.5-49.24,8.14,3.25,1.05,21.22-3.48,19.17-1.17-.31-3.52-2.01-2.7-2.93,1.1-1.43,2.62-4.27,3.25-5.99,4.69-17.32-20.65,12.31-19.01,24.77-1.25,15.36,11.16,4.66,18.16,1.72,8.47,3.03-12.99,14.32-16.73,12.5Z" fill="#f2f1f0"/>
    </g>
    <g>
      <path d="M174.53,296.54h11.54v1.98h-11.54v-1.98Zm4.52,.87h2.5v10.12h-2.5v-10.12Z" fill="#f2f1f0"/>
      <path d="M193.65,307.81c-4.71,.37-8.29-4.7-5.76-8.79,3.32-5.18,12.1-2.55,11.42,3.91h-10.25v-1.92h9l-1.25,.72c.14-3.63-5.04-4.74-6.71-1.78-2.59,5.68,5.34,7.41,8.91,4.36v1.83c-1.4,1.09-3.52,1.68-5.35,1.67Z" fill="#f2f1f0"/>
      <path d="M212.8,302.04c-.65,7.21-11.69,7.78-11.5,0-.2-7.78,10.89-7.22,11.5,0Zm-8.96,0c0,5.31,7.09,4.4,8.08,0-.99-4.4-8.08-5.31-8.08,0Zm8.19,5.5l-.42-4.08,.5-1.42-.5-1.4,.42-4.1h2.58l-.58,5.5,.58,5.5h-2.58Z" fill="#f2f1f0"/>
      <path d="M216.45,296.54h11.54v1.98h-11.54v-1.98Zm4.52,.87h2.5v10.12h-2.5v-10.12Z" fill="#f2f1f0"/>
      <path d="M230.09,296.54h2.5c-.09,4.02,0,10.12,0,14.2h-2.5v-14.2Zm1.54,5.5c.64-7.22,11.7-7.78,11.5,0,.18,7.78-10.84,7.2-11.5,0Zm8.96,0c0-5.31-7.06-4.39-8.08,0,1.02,4.4,8.07,5.31,8.08,0Z" fill="#f2f1f0"/>
      <path d="M250.82,307.53v-10.99h2.5v8.86l-.75-.27,6.94-8.58h2.85l-9.23,10.99h-2.31Zm8.96,0l-3.39-5.44,1.75-1.59,4.56,7.03h-2.92Z" fill="#f2f1f0"/>
      <path d="M266.37,296.54h10.71v10.99h-2.5v-10.22l1.15,1.17h-8.12l1.08-.89c.55,4.21,.76,12.31-5.35,9.67v-1.88c4.79,1.64,3.08-5.93,3.02-8.84Z" fill="#f2f1f0"/>
      <path d="M286.28,307.81c-8.71,.41-8.71-11.95,0-11.54,8.71-.42,8.71,11.95,0,11.54Zm0-1.98c5.37,.42,5.37-7.99,0-7.57-5.37-.41-5.37,7.98,0,7.57Z" fill="#f2f1f0"/>
      <path d="M298.76,307.18l-5-10.64h2.75l4.73,10.64h-2.48Zm-1.25,3.83c-1.21,0-2.22-.3-3.19-.91v-1.92c1.65,1.11,4.4,1.53,5.31-.72,0,0,4.9-10.91,4.9-10.91h2.65c-2.03,2.73-5.05,15.04-9.68,14.47Z" fill="#f2f1f0"/>
      <path d="M309.16,296.54h2.48v10.99h-2.48v-10.99Zm1.4,4.45h8.89v1.94h-8.89v-1.94Zm7.85-4.45h2.48v10.99h-2.48v-10.99Z" fill="#f2f1f0"/>
      <path d="M334.99,302.04c-.65,7.21-11.68,7.78-11.5,0-.21-7.78,10.89-7.22,11.5,0Zm-8.96,0c0,5.31,7.09,4.4,8.08,0-.99-4.4-8.08-5.31-8.08,0Zm8.19,5.5l-.42-4.08,.5-1.42-.5-1.4,.42-4.1h2.58l-.58,5.5,.58,5.5h-2.58Z" fill="#f2f1f0"/>
      <path d="M353.81,305.59v4.72h-2.17v-2.78h-10.89v2.78h-2.17v-4.72c4.24,.05,11,.04,15.23,0Zm-12.81-9.05h10.79v10.25h-2.5v-9.48l1.15,1.17h-8.14l1.08-.85c.16,3.04,.82,8.59-2.73,9.17l-1.02-.87c1.81-1.06,1.72-6.65,1.37-9.38Z" fill="#f2f1f0"/>
      <path d="M356.14,307.53v-10.99h2.5v10.29l-.88-1.17c1.73-.31,6.94,1.1,6.83-1.92,.13-3.03-5.03-1.64-6.75-1.94v-1.81c1.6,.12,5.83-.34,7.21,.48,2.75,1.16,2.75,5.44,0,6.59-1.42,.86-7.25,.33-8.91,.47Zm12.23-10.99h2.5v10.99h-2.5v-10.99Z" fill="#f2f1f0"/>
    </g>
  </g>
</svg>