<?xml version="1.0" encoding="UTF-8"?>
<svg xmlns="http://www.w3.org/2000/svg" viewBox="0 0 1517.93 425.49">
  <g id="_фон" data-name="фон">
    <rect x="753.79" y="-1426.39" width="826.1" height="2482.01" fill="#221e1f"/>
    <rect x="-64.17" y="-1424.03" width="816.29" height="2479.64" fill="#f2f1f0"/>
  </g>
  <g id="_Логотипы" data-name="Логотипы">
    <g id="Logo_Vertical_2" data-name="Logo Vertical 2">
      <g>
        <path d="M240.7,245.16c-17.93,4.37,7.88-60.65,7.68-71.22-12.82,19.84-22.64,51.5-44.73,62.54-21.93-.35-1.07-43.6-1.2-55.3-12.55,19.68-22.91,46.62-36.11,65.25-10.99-3.47-3.89-17.64,.88-23.41,9.08-17.58,21.54-39.49,31.27-55.43,2.26-4.39,4.94-13.08,10.57-10.13,16.64,8.63-5.84,49.59-2.96,64.18,15.69-16.53,24.35-39.37,38-59.65,3.62-6.91,8.42-11.8,14.72-5.03,7.55,6.52-4.99,35.54-6.54,46.05-2.91,9.14-3.5,15.79-5.41,24.91-.65,6.37,.63,15.32-6.17,17.24Z" fill="#010101"/>
        <path d="M308.78,250.82c-3.84-1.54-6.46-4.41-5.54-8.56,9.68-19.96,18.35-46.46,26.93-68.33-16.6,18.67-32.4,40.4-50.14,57.7-4.1,3.7-9.07,8.93-14.41,10.63-5.55-.97-8.05-2.95-6.86-7.87,7.61-26.42,14.03-52.79,26.74-77.33,1.8-2.95,.27-5.6,2.64-7.3,5.99-2.89,11.22,4.23,8.68,9.82-6.97,17.2-18.17,47.27-24.92,64.3,6.54-6.71,28.42-27.55,33.47-34.86,8.76-11.48,23.07-24.43,32.59-35.23,3.94-2.31,8.06-1.3,9.38,3.34-5.99,23.35-18.98,46.94-25.67,70.72-2.45,4.38-6.94,26.4-12.9,22.96Z" fill="#010101"/>
        <path d="M340.61,245.03c-4.87-2.2-4.16-6.93-3.02-11.33,7.6-22.52,15.18-47.31,25.67-69.21,1.17-1.4,2.13-5.94,3.78-7.43,6.17-3.73,9.36-1.06,9.69,5.1-3.56,10.16-10.86,22.03-13.72,32.4-3.26,7.86-7.23,17.27-9.56,25.98-2.37,4.2-6.28,31.39-12.84,24.47Zm15.35-48.32c8.51-3.49,54.04-50.98,57.19-35.17,1.74,3.86,1.14,5.42-2.83,7.49-11.29,6.08-20.91,15.62-30.33,21.77-5.6,5.69-13.83,9.49-19.5,15.35l-4.53-9.44Zm29.19,48.07c-15.41-5.66-24.19-24.61-26.93-39.89,0,0,.13-7.8,.13-7.8l9.19-.63c1.54,14.33,7.95,31.37,21.27,37.12,9.06,2.13,5.22,16.43-3.65,11.2Z" fill="#010101"/>
        <path d="M413.22,243.52c-19.88-10.9-5.08-49.94,4.15-66.06,6.14-11.01,17.38-20.26,27.43-22.4,50.82-10.84,4.58,106.42-31.59,88.46Zm25.89-42.66c9.5-.03,25.16-34.98,10.05-34.32-7.36,3.14-22.07,32.06-10.05,34.32Z" fill="#e03035"/>
        <path d="M481.04,247.42c-39.14-13.6,6.73-105.5,39.64-95.2,15.73,6.28,2.03,41.03-6.73,37.06-2.25-.6-6.81-3.89-5.22-5.66,2.12-2.77,5.06-8.25,6.29-11.58,9.07-33.48-39.92,23.79-36.74,47.88-2.42,29.7,21.58,9.02,35.11,3.33,16.38,5.85-25.12,27.69-32.34,24.16Z" fill="#010101"/>
      </g>
      <g>
        <path d="M160.38,270.97h22.31v3.83h-22.31v-3.83Zm8.74,1.69h4.83v19.56h-4.83v-19.56Z" fill="#010101"/>
        <path d="M196.34,292.75c-9.11,.71-16.02-9.08-11.14-16.99,6.41-10.02,23.39-4.94,22.07,7.57h-19.82v-3.72h17.4l-2.42,1.39c.27-7.01-9.74-9.16-12.98-3.44-5.01,10.99,10.33,14.32,17.22,8.43v3.53c-2.7,2.11-6.81,3.25-10.34,3.23Z" fill="#010101"/>
        <path d="M232.38,281.6c-1.26,13.95-22.59,15.04-22.24,0-.4-15.04,21.05-13.96,22.24,0Zm-17.33,0c0,10.27,13.7,8.51,15.62,0-1.92-8.51-15.62-10.26-15.62,0Zm15.84,10.63l-.82-7.89,.97-2.74-.97-2.7,.82-7.92h4.98l-1.12,10.63,1.12,10.63h-4.98Z" fill="#010101"/>
        <path d="M238.44,270.97h22.31v3.83h-22.31v-3.83Zm8.74,1.69h4.83v19.56h-4.83v-19.56Z" fill="#010101"/>
        <path d="M263.8,270.97h4.83c-.18,7.77,0,19.56,0,27.45h-4.83v-27.45Zm2.97,10.63c1.24-13.95,22.61-15.04,22.24,0,.34,15.05-20.95,13.93-22.24,0Zm17.33,0c-.02-10.27-13.66-8.5-15.62,0,1.96,8.5,15.6,10.27,15.62,0Z" fill="#010101"/>
        <path d="M302.88,292.23v-21.25h4.83v17.12l-1.45-.53,13.42-16.6h5.5l-17.85,21.25h-4.46Zm17.33,0l-6.54-10.51,3.38-3.08,8.81,13.59h-5.65Z" fill="#010101"/>
        <path d="M331.96,270.97h20.71v21.25h-4.83v-19.75l2.23,2.25h-15.69l2.08-1.73c1.07,8.13,1.47,23.8-10.34,18.7v-3.64c9.26,3.18,5.95-11.46,5.84-17.08Z" fill="#010101"/>
        <path d="M369.45,292.75c-16.84,.8-16.85-23.11,0-22.3,16.85-.8,16.84,23.1,0,22.3Zm0-3.83c10.39,.81,10.39-15.45,0-14.64-10.38-.79-10.38,15.43,0,14.64Z" fill="#010101"/>
        <path d="M392.57,291.55l-9.67-20.58h5.32l9.15,20.58h-4.8Zm-2.42,7.4c-2.33,0-4.29-.59-6.17-1.77v-3.72c3.2,2.16,8.5,2.95,10.26-1.39,0,0,9.48-21.1,9.48-21.1h5.13c-3.92,5.27-9.77,29.08-18.7,27.97Z" fill="#010101"/>
        <path d="M411.69,270.97h4.8v21.25h-4.8v-21.25Zm2.71,8.6h17.18v3.75h-17.18v-3.75Zm15.17-8.6h4.8v21.25h-4.8v-21.25Z" fill="#010101"/>
        <path d="M460.63,281.6c-1.26,13.95-22.59,15.04-22.24,0-.4-15.04,21.05-13.96,22.24,0Zm-17.33,0c0,10.27,13.7,8.51,15.62,0-1.92-8.51-15.62-10.26-15.62,0Zm15.84,10.63l-.82-7.89,.97-2.74-.97-2.7,.82-7.92h4.98l-1.12,10.63,1.12,10.63h-4.98Z" fill="#010101"/>
        <path d="M496.03,288.47v9.12h-4.2v-5.37h-21.05v5.37h-4.2v-9.12c8.2,.09,21.26,.07,29.45,0Zm-24.77-17.5h20.86v19.82h-4.83v-18.32l2.23,2.25h-15.73l2.08-1.65c.31,5.88,1.59,16.6-5.28,17.72l-1.97-1.69c3.51-2.04,3.33-12.86,2.64-18.13Z" fill="#010101"/>
        <path d="M499.52,292.23v-21.25h4.83v19.9l-1.71-2.25c3.34-.6,13.41,2.13,13.2-3.72,.26-5.87-9.72-3.18-13.05-3.76v-3.49c3.1,.22,11.26-.66,13.94,.92,5.32,2.24,5.32,10.52,0,12.75-2.75,1.65-14.02,.63-17.22,.9Zm23.65-21.25h4.83v21.25h-4.83v-21.25Z" fill="#010101"/>
      </g>
      <g>
        <path d="M1063.1,245.13c-18.01,4.39,7.91-60.9,7.71-71.51-12.88,19.93-22.73,51.71-44.92,62.8-22.02-.35-1.08-43.78-1.2-55.53-12.6,19.76-23,46.81-36.26,65.51-11.03-3.48-3.9-17.72,.89-23.5,9.12-17.65,21.62-39.66,31.4-55.66,2.27-4.4,4.96-13.13,10.61-10.17,16.71,8.66-5.86,49.79-2.97,64.44,15.75-16.6,24.45-39.53,38.16-59.89,3.64-6.94,8.45-11.85,14.78-5.05,7.58,6.54-5.01,35.69-6.57,46.24-2.92,9.18-3.51,15.85-5.43,25.02-.66,6.39,.64,15.38-6.19,17.31Z" fill="#f2f1f0"/>
        <path d="M1131.46,250.82c-3.85-1.55-6.48-4.42-5.56-8.59,9.72-20.04,18.42-46.65,27.04-68.61-16.66,18.75-32.53,40.56-50.35,57.93-4.12,3.71-9.11,8.96-14.47,10.68-5.57-.97-8.08-2.96-6.89-7.9,7.64-26.53,14.08-53,26.85-77.64,1.81-2.96,.28-5.62,2.65-7.33,6.02-2.9,11.26,4.25,8.72,9.86-7,17.27-18.24,47.47-25.02,64.57,6.57-6.74,28.54-27.66,33.61-35,8.8-11.53,23.16-24.53,32.72-35.38,3.96-2.32,8.1-1.31,9.41,3.35-6.01,23.44-19.06,47.14-25.77,71.01-2.46,4.4-6.97,26.51-12.95,23.06Z" fill="#f2f1f0"/>
        <path d="M1163.42,245c-4.89-2.21-4.17-6.96-3.03-11.37,7.63-22.61,15.25-47.5,25.78-69.49,1.17-1.4,2.13-5.97,3.79-7.46,6.2-3.75,9.4-1.07,9.73,5.12-3.57,10.21-10.9,22.12-13.77,32.54-3.28,7.89-7.26,17.34-9.6,26.09-2.38,4.21-6.31,31.52-12.89,24.58Zm15.42-48.52c8.54-3.51,54.26-51.19,57.42-35.32,1.75,3.87,1.14,5.44-2.84,7.52-11.34,6.1-21,15.69-30.45,21.86-5.62,5.71-13.89,9.53-19.58,15.41l-4.55-9.48Zm29.31,48.27c-15.47-5.69-24.28-24.72-27.04-40.05,0,0,.13-7.83,.13-7.83l9.22-.63c1.54,14.39,7.98,31.5,21.35,37.27,9.1,2.14,5.24,16.49-3.66,11.24Z" fill="#f2f1f0"/>
        <path d="M1239.33,243.49c-19.97-10.94-5.1-50.15,4.17-66.33,6.16-11.05,17.45-20.34,27.55-22.49,51.03-10.88,4.59,106.86-31.71,88.82Zm26-42.84c9.54-.03,25.26-35.12,10.09-34.46-7.39,3.15-22.16,32.2-10.09,34.46Z" fill="#e03035" stroke="#f2f1f0" stroke-miterlimit="10" stroke-width="2"/>
        <path d="M1310.43,247.41c-39.3-13.66,6.76-105.93,39.8-95.59,15.8,6.31,2.04,41.19-6.76,37.21-2.26-.61-6.83-3.9-5.24-5.69,2.13-2.78,5.08-8.28,6.32-11.62,9.11-33.61-40.09,23.89-36.89,48.08-2.43,29.82,21.67,9.05,35.25,3.35,16.45,5.87-25.22,27.81-32.47,24.26Z" fill="#f2f1f0"/>
      </g>
      <g>
        <path d="M979.46,270.86h22.4v3.85h-22.4v-3.85Zm8.77,1.7h4.85v19.64h-4.85v-19.64Z" fill="#f2f1f0"/>
        <path d="M1016.56,292.73c-9.15,.72-16.09-9.12-11.18-17.06,6.44-10.06,23.49-4.96,22.16,7.6h-19.9v-3.73h17.48l-2.43,1.4c.27-7.04-9.78-9.2-13.03-3.45-5.03,11.03,10.37,14.38,17.29,8.46v3.54c-2.71,2.12-6.84,3.26-10.38,3.24Z" fill="#f2f1f0"/>
        <path d="M1053.74,281.53c-1.27,14-22.68,15.1-22.33,0-.4-15.1,21.14-14.01,22.33,0Zm-17.4,0c0,10.31,13.76,8.54,15.68,0-1.92-8.55-15.68-10.3-15.68,0Zm15.91,10.67l-.82-7.92,.97-2.75-.97-2.71,.82-7.96h5l-1.12,10.67,1.12,10.67h-5Z" fill="#f2f1f0"/>
        <path d="M1060.83,270.86h22.4v3.85h-22.4v-3.85Zm8.77,1.7h4.85v19.64h-4.85v-19.64Z" fill="#f2f1f0"/>
        <path d="M1087.29,270.86h4.85c-.18,7.8,0,19.64,0,27.56h-4.85v-27.56Zm2.99,10.67c1.24-14.01,22.71-15.1,22.33,0,.35,15.11-21.03,13.99-22.33,0Zm17.4,0c-.02-10.32-13.71-8.53-15.68,0,1.97,8.53,15.66,10.31,15.68,0Z" fill="#f2f1f0"/>
        <path d="M1127.54,292.2v-21.34h4.85v17.19l-1.46-.53,13.48-16.66h5.53l-17.92,21.34h-4.48Zm17.4,0l-6.57-10.56,3.4-3.09,8.85,13.65h-5.68Z" fill="#f2f1f0"/>
        <path d="M1157.74,270.86h20.8v21.34h-4.85v-19.83l2.24,2.26h-15.76l2.09-1.73c1.08,8.16,1.48,23.9-10.38,18.77v-3.66c9.29,3.19,5.97-11.51,5.86-17.15Z" fill="#f2f1f0"/>
        <path d="M1196.38,292.73c-16.91,.8-16.92-23.21,0-22.39,16.91-.81,16.91,23.2,0,22.39Zm0-3.85c10.43,.81,10.43-15.51,0-14.7-10.43-.79-10.43,15.5,0,14.7Z" fill="#f2f1f0"/>
        <path d="M1220.6,291.52l-9.71-20.66h5.34l9.19,20.66h-4.82Zm-2.43,7.43c-2.34,0-4.31-.59-6.2-1.77v-3.73c3.21,2.16,8.54,2.96,10.31-1.4,0,0,9.52-21.19,9.52-21.19h5.15c-3.94,5.3-9.81,29.19-18.78,28.09Z" fill="#f2f1f0"/>
        <path d="M1240.79,270.86h4.82v21.34h-4.82v-21.34Zm2.73,8.63h17.25v3.77h-17.25v-3.77Zm15.23-8.63h4.82v21.34h-4.82v-21.34Z" fill="#f2f1f0"/>
        <path d="M1290.93,281.53c-1.27,14-22.68,15.1-22.33,0-.4-15.1,21.14-14.01,22.33,0Zm-17.4,0c0,10.31,13.76,8.54,15.68,0-1.92-8.55-15.68-10.3-15.68,0Zm15.91,10.67l-.82-7.92,.97-2.75-.97-2.71,.82-7.96h5l-1.12,10.67,1.12,10.67h-5Z" fill="#f2f1f0"/>
        <path d="M1327.48,288.43v9.16h-4.22v-5.39h-21.13v5.39h-4.22v-9.16c8.23,.09,21.35,.07,29.57,0Zm-24.87-17.57h20.95v19.91h-4.85v-18.4l2.24,2.26h-15.79l2.09-1.66c.31,5.9,1.6,16.67-5.3,17.79l-1.98-1.7c3.52-2.05,3.35-12.91,2.65-18.21Z" fill="#f2f1f0"/>
        <path d="M1331.98,292.2v-21.34h4.85v19.98l-1.72-2.26c3.35-.6,13.47,2.14,13.26-3.73,.26-5.89-9.76-3.19-13.11-3.77v-3.51c3.11,.22,11.31-.66,14,.92,5.34,2.25,5.34,10.56,0,12.8-2.76,1.66-14.08,.64-17.29,.9Zm23.75-21.34h4.85v21.34h-4.85v-21.34Z" fill="#f2f1f0"/>
      </g>
    </g>
  </g>
</svg>