<?xml version="1.0" encoding="UTF-8"?>
<svg xmlns="http://www.w3.org/2000/svg" viewBox="0 0 1877.43 1564.71">
  <g id="_Слой_7" data-name="Слой 7">
    <g id="_Слой_13" data-name="Слой 13">
      <g opacity=".6">
        <g>
          <polyline points="514.57 205.88 514.57 215.88 524.57 215.88" fill="none" stroke="#000" stroke-miterlimit="10" stroke-width="2"/>
          <line x1="540.42" y1="215.88" x2="564.19" y2="215.88" fill="none" stroke="#000" stroke-dasharray="0 0 15.85 15.85" stroke-miterlimit="10" stroke-width="2"/>
          <polyline points="572.11 215.88 582.11 215.88 582.11 205.88" fill="none" stroke="#000" stroke-miterlimit="10" stroke-width="2"/>
          <polyline points="582.11 182.94 582.11 172.94 572.11 172.94" fill="none" stroke="#000" stroke-miterlimit="10" stroke-width="2"/>
          <line x1="556.26" y1="172.94" x2="532.49" y2="172.94" fill="none" stroke="#000" stroke-dasharray="0 0 15.85 15.85" stroke-miterlimit="10" stroke-width="2"/>
          <polyline points="524.57 172.94 514.57 172.94 514.57 182.94" fill="none" stroke="#000" stroke-miterlimit="10" stroke-width="2"/>
        </g>
      </g>
    </g>
    <g>
      <g>
        <rect x="513.46" y="215.05" width="69.11" height="1133.86" fill="#221e1f"/>
        <rect x="644.77" y="215.05" width="69.11" height="1133.86" fill="#221e1f"/>
        <rect x="776.85" y="215.05" width="69.11" height="1133.86" fill="#221e1f"/>
        <rect x="907.39" y="215.05" width="69.11" height="1133.86" fill="#221e1f"/>
        <rect x="1039.86" y="215.05" width="69.11" height="1133.86" fill="#221e1f"/>
        <rect x="1171.17" y="215.05" width="69.11" height="1133.86" fill="#221e1f"/>
        <rect x="1303.25" y="215.05" width="69.11" height="1133.86" fill="#221e1f"/>
      </g>
      <rect x="446.85" y="215.05" width="992.13" height="1133.86" fill="none" stroke="#221e1f" stroke-miterlimit="10" stroke-width="2.68"/>
    </g>
    <g id="_Слой_12" data-name="Слой 12">
      <g opacity=".6">
        <g>
          <polyline points="1237.71 800.93 1237.71 810.93 1227.71 810.93" fill="none" stroke="#000" stroke-miterlimit="10" stroke-width="2"/>
          <line x1="1207.98" y1="810.93" x2="665.65" y2="810.93" fill="none" stroke="#000" stroke-dasharray="0 0 19.72 19.72" stroke-miterlimit="10" stroke-width="2"/>
          <polyline points="655.79 810.93 645.79 810.93 645.79 800.93" fill="none" stroke="#000" stroke-miterlimit="10" stroke-width="2"/>
          <line x1="645.79" y1="781.04" x2="645.79" y2="194.1" fill="none" stroke="#000" stroke-dasharray="0 0 19.9 19.9" stroke-miterlimit="10" stroke-width="2"/>
          <polyline points="645.79 184.15 645.79 174.15 655.79 174.15" fill="none" stroke="#000" stroke-miterlimit="10" stroke-width="2"/>
          <line x1="675.51" y1="174.15" x2="1217.85" y2="174.15" fill="none" stroke="#000" stroke-dasharray="0 0 19.72 19.72" stroke-miterlimit="10" stroke-width="2"/>
          <polyline points="1227.71 174.15 1237.71 174.15 1237.71 184.15" fill="none" stroke="#000" stroke-miterlimit="10" stroke-width="2"/>
          <line x1="1237.71" y1="204.05" x2="1237.71" y2="790.98" fill="none" stroke="#000" stroke-dasharray="0 0 19.9 19.9" stroke-miterlimit="10" stroke-width="2"/>
        </g>
      </g>
      <g opacity=".6">
        <g>
          <polyline points="956.94 1143.93 956.94 1153.93 946.94 1153.93" fill="none" stroke="#000" stroke-miterlimit="10" stroke-width="2"/>
          <line x1="927.15" y1="1153.93" x2="422.55" y2="1153.93" fill="none" stroke="#000" stroke-dasharray="0 0 19.79 19.79" stroke-miterlimit="10" stroke-width="2"/>
          <polyline points="412.65 1153.93 402.65 1153.93 402.65 1143.93" fill="none" stroke="#000" stroke-miterlimit="10" stroke-width="2"/>
          <line x1="402.65" y1="1124.32" x2="402.65" y2="428.4" fill="none" stroke="#000" stroke-dasharray="0 0 19.6 19.6" stroke-miterlimit="10" stroke-width="2"/>
          <polyline points="402.65 418.6 402.65 408.6 412.65 408.6" fill="none" stroke="#000" stroke-miterlimit="10" stroke-width="2"/>
          <line x1="432.44" y1="408.6" x2="937.05" y2="408.6" fill="none" stroke="#000" stroke-dasharray="0 0 19.79 19.79" stroke-miterlimit="10" stroke-width="2"/>
          <polyline points="946.94 408.6 956.94 408.6 956.94 418.6" fill="none" stroke="#000" stroke-miterlimit="10" stroke-width="2"/>
          <line x1="956.94" y1="438.2" x2="956.94" y2="1134.13" fill="none" stroke="#000" stroke-dasharray="0 0 19.6 19.6" stroke-miterlimit="10" stroke-width="2"/>
        </g>
      </g>
    </g>
    <g id="_Слой_11" data-name="Слой 11">
      <g>
        <ellipse cx="942.91" cy="781.98" rx="297.49" ry="371.3" fill="#9c8254"/>
        <ellipse cx="942.91" cy="780.98" rx="279.96" ry="353.26" fill="#ead6ac"/>
        <ellipse cx="942.91" cy="781.06" rx="275.28" ry="343.58" fill="#9c8254"/>
        <ellipse cx="944.51" cy="780.82" rx="269.87" ry="339.75" fill="#e3e0cc"/>
      </g>
      <path d="M663.84,894c36.22,2.31,41.98,27.24,4.13,35.38-11.26-3.92-7.94-26.37-4.13-35.38Z" fill="#221e1f" stroke="#221e1f" stroke-miterlimit="10" stroke-width="8.18"/>
      <path d="M711.69,909.77c-.91-12.48,16.77-12.09,25.19-15.8,12.61,.27,5.32,20.54,6.25,29,.66,11.82-35.32-3.3-31.44-13.21Z" fill="#221e1f" stroke="#221e1f" stroke-miterlimit="10" stroke-width="8.18"/>
      <path d="M728.04,954.43c-7.92-4.11-26.85-32.61-17.22-33.62,5.49,11.81,15.74,20.11,24.27,29.42-4.99-1.52-5.02-.31-7.05,4.2Z" fill="#221e1f" stroke="#221e1f" stroke-miterlimit="10" stroke-width="8.18"/>
      <path d="M680.27,955.49c-17.69,4.72,12.76-28.51,17.48-35.75-.38,14.74-9.19,25.54-17.48,35.75Z" fill="#221e1f" stroke="#221e1f" stroke-miterlimit="10" stroke-width="8.18"/>
      <path d="M710.13,912.18c1.2,9.58-15.7,6.3-13.3-1.69-1.55-10.43,15.25-6.54,13.3,1.69Z" fill="#221e1f" stroke="#221e1f" stroke-miterlimit="10" stroke-width="8.18"/>
      <path d="M664.24,893.76c36.22,2.31,41.98,27.24,4.13,35.38-11.26-3.92-7.94-26.37-4.13-35.38Z" fill="#9c8254"/>
      <path d="M712.1,909.53c-.91-12.48,16.77-12.09,25.19-15.8,12.61,.27,5.32,20.54,6.25,29,.66,11.82-35.32-3.3-31.44-13.21Z" fill="#9c8254"/>
      <path d="M728.45,954.19c-7.92-4.11-26.85-32.61-17.22-33.62,5.49,11.81,15.74,20.11,24.27,29.42-4.99-1.52-5.02-.31-7.05,4.2Z" fill="#9c8254"/>
      <path d="M680.67,955.25c-17.69,4.72,12.76-28.51,17.48-35.75-.38,14.74-9.19,25.54-17.48,35.75Z" fill="#9c8254"/>
      <path d="M710.54,911.94c1.2,9.58-15.7,6.3-13.3-1.69-1.55-10.43,15.25-6.54,13.3,1.69Z" fill="#9c8254"/>
      <path d="M1244.55,894c-36.22,2.31-41.98,27.24-4.13,35.38,11.26-3.92,7.94-26.37,4.13-35.38Z" fill="#221e1f" stroke="#221e1f" stroke-miterlimit="10" stroke-width="8.18"/>
      <path d="M1196.69,909.77c.91-12.48-16.77-12.09-25.19-15.8-12.61,.27-5.32,20.54-6.25,29-.66,11.82,35.32-3.3,31.44-13.21Z" fill="#221e1f" stroke="#221e1f" stroke-miterlimit="10" stroke-width="8.18"/>
      <path d="M1180.34,954.43c7.92-4.11,26.85-32.61,17.22-33.62-5.49,11.81-15.74,20.11-24.27,29.42,4.99-1.52,5.02-.31,7.05,4.2Z" fill="#221e1f" stroke="#221e1f" stroke-miterlimit="10" stroke-width="8.18"/>
      <path d="M1228.12,955.49c17.69,4.72-12.76-28.51-17.48-35.75,.38,14.74,9.19,25.54,17.48,35.75Z" fill="#221e1f" stroke="#221e1f" stroke-miterlimit="10" stroke-width="8.18"/>
      <path d="M1198.25,912.18c-1.2,9.58,15.7,6.3,13.3-1.69,1.55-10.43-15.25-6.54-13.3,1.69Z" fill="#221e1f" stroke="#221e1f" stroke-miterlimit="10" stroke-width="8.18"/>
      <path d="M1244.14,893.76c-36.22,2.31-41.98,27.24-4.13,35.38,11.26-3.92,7.94-26.37,4.13-35.38Z" fill="#9c8254"/>
      <path d="M1196.29,909.53c.91-12.48-16.77-12.09-25.19-15.8-12.61,.27-5.32,20.54-6.25,29-.66,11.82,35.32-3.3,31.44-13.21Z" fill="#9c8254"/>
      <path d="M1179.94,954.19c7.92-4.11,26.85-32.61,17.22-33.62-5.49,11.81-15.74,20.11-24.27,29.42,4.99-1.52,5.02-.31,7.05,4.2Z" fill="#9c8254"/>
      <path d="M1227.71,955.25c17.69,4.72-12.76-28.51-17.48-35.75,.38,14.74,9.19,25.54,17.48,35.75Z" fill="#9c8254"/>
      <path d="M1197.85,911.94c-1.2,9.58,15.7,6.3,13.3-1.69,1.55-10.43-15.25-6.54-13.3,1.69Z" fill="#9c8254"/>
      <g>
        <path d="M778.95,599.27c1.27,3.66,8.04-.87,9.02,2.83-12,2.44-29.73-4.24-23.34-18.95,4.85-8.64,19.8-1.01,10.13,7.25-1.87,1.63-2.32,3.13-.45,4.91,1.47,1.4,1.65,4.33,4.64,3.96Z" fill="#221e1f"/>
        <path d="M933.65,515.5c2.2,.15,10.22,.84,5.52,3.93-5.77,.76-12.52-.63-16.49,4.64-20.34,21.44-23.8,57.92-51.76,72.07-1.31-.16-2.96,.3-3.24-1.76,16.8-21.04,21.58-49.77,43.38-67.08,4.79-3.09,10.47-4.98,13.68-10.19,2.97-.54,5.94-1.08,8.9-1.61Z" fill="#221e1f"/>
        <path d="M878.31,525.85c-12.67,16.2-19.54,35.53-28.41,53.81-1.45,1.85-3.62,3.5-4.19,5.59-.96,3.55-5.04,5.45-4.59,9.53-2.11,4.57-7.44,4.32-10.76,7.1-.69-.36-1.84-1.34-.85-2.55,11.25-25.24,18.85-52.93,40.06-71.93,3.9,1.84,7.16-5.9,8.74-1.55Z" fill="#221e1f"/>
        <path d="M905.41,584.43c5.11-7.91,21.17-36.89,29.01-22.91-3.51,6.81-23.78,30.82-18.72,36.72,22.08-1.77-23,16.93-10.29-13.81Z" fill="#221e1f"/>
        <path d="M878.31,525.85c-1.54-4.36-4.97,3.43-8.74,1.55-32.81,13.83-46.2,70.97-82.36,74.7-.98-3.7-7.75,.84-9.02-2.83,33.33,2.03,46.86-35.68,67.01-55.72,11.22-11.29,28.52-26.99,44.73-27.53-3.1,3.91-7.88,6.46-11.62,9.83Z" fill="#221e1f"/>
        <path d="M841.12,594.78c-.45-4.08,3.63-5.99,4.59-9.53,.56-2.09,2.74-3.74,4.19-5.59,.07,.73,.14,1.45,.21,2.18,24.22-20.45,40.02-58.3,74.64-64.72-3.2,5.21-8.89,7.1-13.68,10.19-10.53-5.94-56.72,61.48-69.94,67.47Z" fill="#221e1f"/>
        <path d="M901.76,591.94c.3-.04,.6-.07,.93-.07,.55,0,1.06,.07,1.53,.19,.3-2.55,.74-5.09,1.19-7.62-6.9,6.79-25.33,17.4-34.49,11.71-1.31-.16-2.96,.3-3.24-1.76-4.81,3.81-10.43,3.04-16.02,3.93-2.88,1.45,.04,3.96,2.21,3.71,16.09,.41,32.06,.27,45.93-9.8,.99-.72,1.58-.71,1.95-.29Z" fill="#221e1f"/>
        <path d="M1005.02,600.67c-9.78-9.59-2.45-15.69-10.04-11.96l-.13-.12c0-.98,0-1.96-.01-2.94,9.06-13.59,13.72-23.17,30.2-28.25,29.2-8.29,19.28,16.98,37.16,19.35l-.1-.11c-4.71,5.71-9.59-6.54-11.88,1.25-7.29,17.49-26.47,31.12-45.2,22.77Zm6.12-9.14c.32,30.33,41.31-23.84,24.68-32.33-10.96-3.21-25.31,22.31-24.68,32.33Z" fill="#221e1f"/>
        <path d="M1085.98,600.46c-10.82,4.92-30.42,5.1-33.69-8.95,.04-5.13,4.56-14.37,11.04-11.14,4.74,1.69,4.92,9.43-.8,10.12-3.92,.92-4.44,3.32-1.97,6.4,6.5,9.31,22.97-1.59,17.22-11.17-2.2-4.08-5.32-7.69-8.25-11.33-2.12-.93-5.39,1.33-7.45,2.26l.1,.11c3.16-3.99,5.88-8.3,8.8-12.44,5.92-11.37,32.97-12.75,31.58,3.35-.16,3.11-9.86,9.06-11.46,3.85,3.19-4.61,2.35-13.35-4.27-13.89-5.15,1.09-8.04,7.72-5.3,12.26,5.17,7.2,12.02,13.47,8.62,23.11-3.39,1.37-2.15,5.35-4.19,7.47Z" fill="#221e1f"/>
        <path d="M1085.98,600.46c2.04-2.13,.8-6.1,4.19-7.47,6.48,6.5,24.23-21.1,30.01-23.06-5,14.47-20.38,25.66-34.2,30.53Z" fill="#221e1f"/>
        <path d="M957.6,579.62c-10.76,2.43-15.18,31.37-31.36,20.99,18.62-25.1,33.92-56.47,53.75-81.86,34.98-7.82-28.74,46.18-19.66,56.39-2.31,.7-3,2.41-2.84,4.63l.12-.15Z" fill="#221e1f"/>
        <path d="M946.95,534.95c3.07,9.22-7.74,14.89-12.4,6.13-1.84-6.78,6.48-12.45,12.4-6.13Z" fill="#14130f"/>
        <path d="M929.53,596.22c-1.1,1.47-2.19,2.93-3.29,4.4-1.59-.2-3.56,3.79-4.78-.44,2.22-2.15,5.68-1.9,8.07-3.96Z" fill="#e3e0cc"/>
        <path d="M994.97,588.71c-3.9,10.14-28.83,23.5-31.46,6.39-.71-4.55,7.41-14.6-.79-14.04-1.75-.16-4.07,1.26-5.14-1.44,6.22-2.33,15.71-3.44,21.23-8.46,4.4-6.58-1.61-11.83-7.89-7.83,21.67-23.42,34.05,14.36,4.39,13.59-.69-.07-1.52,1.12-2.28,1.73,12.18,7.54,.01,12.23,3.74,19.05,6.13,4.6,11.09-10.81,18.18-8.98Z" fill="#221e1f"/>
        <path d="M971.09,563.19c-1.54,1.09-3.09,2.18-4.63,3.27,.64-2.36,2.35-3.22,4.63-3.27Z" fill="#070605"/>
      </g>
      <path d="M1001.31,652.21c.62-.47,1.24-.94,1.86-1.41,.79,1.94,1.07,4.7,2.51,5.6,1.61,1,4.27,.32,6.48,.36,1.37,.5,2.98,.71,4.07,1.56,3.09,2.43,6.47,3.08,10.34,3.17,2.25,.05,5.62,1.07,6.48,2.71,2.19,4.17,4.78,1.66,7.31,1.36,.56,.55,1.11,1.1,1.67,1.65-.57,.48-1.14,.96-1.71,1.44-2.03,.96-1.67,2.62-.05,2.87,3.04,.47,6.21,.11,9.33,.09,2.46,.51,4.93,1.03,7.39,1.54,0,.52,0,1.04,0,1.56-3.1-.52-6.2-1.21-9.32-1.49-1.28-.11-3.67,.46-3.79,1.08-.45,2.26,1.65,1.6,2.97,1.95,1.86,.49,3.59,1.44,5.44,1.95,1.85,.5,3.79,.91,5.7,.96,2.29,.07,1.39-1.13,.6-2.16-.58-.76-1.11-1.57-1.66-2.35l4.13,.25c.55,.44,1.04,1.06,1.66,1.28,2.74,.95,2.41,2.74,1.03,4.41-.87,1.05-2.36,1.59-3.54,2.4-1.88,1.31-1.74,2.38,.46,3.38,1.25,.57,2.55,1.04,3.82,1.56,2.74,2.21,5.82,2.39,8.69,.48,.11-.07,.02-.45,.02-.68-.47-1.79-.95-3.58-1.42-5.37,.05-2.02,.09-4.03,.14-6.05,.96,.09,1.92,.18,2.88,.26,.3,2.12,2.21,5.49,4.76,8.38l-.02-.02c.57,.58,1.09,1.59,1.72,1.66,1.94,.21,3.92-.02,5.87,.14,.39,.03,.81,1.06,.96,1.69,.06,.27-.47,.85-.85,1.03-2.02,.91-4.95-1.57-6.36,1.71h0c-2,.48-4.6-1.55-6.03,1.39-2.55,.49-5.1,.98-7.65,1.47-.38,.28-1.11,.6-1.08,.83,.71,6,1.39,6.68,6.66,6.72,1.74,.01,3.48-.06,5.22-.1,8.02,3.52,16.37,5.18,25.14,4.5,3.1-.28,6.19-.58,9.29-.83,.81-.06,1.64,.06,2.46,.09-.34,.87-.69,1.74-1.03,2.61,.18,5.41,1.97,9.76,7.29,12.23,1.93,.9,4.17,2.26,5.03,4.01,.8,1.63,.13,4.1-.33,6.1-.07,.31-2.48,.13-3.8,.1-.97-.03-1.94-.28-2.91-.27-1.2,0-2.4,.17-3.61,.27,.75,.82,1.45,1.7,2.26,2.45,1.42,1.32,3.72,2.31,4.22,3.89,1.75,5.52,6.11,6.98,10.9,8.1,.48,.11,.97,.18,1.45,.27,.77,1.25,1.49,2.53,2.31,3.75,1.25,1.86,2.9,2.57,5.1,1.63,.89-.38,1.85-.7,2.8-.84,7.52-1.07,11.63,4.03,9.55,11.83-2.1-.45-1.23-2.18-1.58-3.44-.26-.91-1.08-1.67-1.66-2.49-5.19-2.67-5.55-2.71-8.96,.7-1.89,1.89-3.32,4.01-6.53,4.15-1.9,.09-2.18,2.23-2.18,4.14,0,.99-.89,2.83-1.32,2.81-1.34-.05-2.91-.5-3.91-1.37-1.03-.89-1.43-2.47-2.22-3.67-.17-.26-.95-.42-1.2-.25-.33,.22-.69,.94-.56,1.22,1.03,2.18,2.11,4.34,3.29,6.45,1.53,2.74,3.82,5.13,1.9,8.8-1.05,2,.75,3.24,2.61,3.49,1.95,.26,4.04-.25,5.93,.18,2.06,.47,4.16,1.35,5.87,2.59,2.3,1.66,.91,3.34-.55,4.93-1.82,1.97-3.37,.76-4.04-.72-1.27-2.81-2.85-4.08-6.13-3.94-5.17,.22-5.08-.02-5.68,5.55-.31,2.91-1.26,5.75-1.54,8.65-.17,1.75,.83,2.78,2.8,1.77,.88-.45,1.9-.68,2.69-1.24,1.92-1.36,3.32-.57,4.36,1.04,1.41,2.2-.81,3-1.91,4.14-.48,.5-1.3,.97-1.95,.94-3.46-.13-4.05,3.09-5.89,4.84-2.06,.58-2.16,1.89-.52,2.74,.75,.39,2.26-.68,3.43-1.09,3.46-2.66,6.89-2.87,10.3,.1-1.89,.61-4.31,.7-5.54,1.95-2.2,2.24-4.61,2.19-7.27,2.27-.68,.02-1.32,.96-1.98,1.48-.52,.45-.98,1.04-1.57,1.34-1.91,.95-2.01,2.4-.16,2.97,6.25,1.94,9.43,5.96,10.63,12.39,.47,2.54,3.06,4.69,4.69,7.01-.04,1.83,.03,3.67-.18,5.47-.08,.71-.79,1.34-1.21,2.01-.14-.21-.23-.5-.43-.6-2.07-1.12,0-5.16-3.25-4.94-.67,.05-1.05,3.34-1.7,5.08-.25,.65-.83,1.49-1.4,1.62-.68,.15-2.11-.28-2.16-.62-.22-1.45,.15-2.98-.08-4.43-.35-2.15-.86-4.31-1.63-6.33-.41-1.07-1.53-1.86-2.34-2.77-.04,1.34-.41,2.77-.06,3.99,1.76,6.18-.19,11.64-3.06,16.93-.24,.45-1.14,.55-1.73,.81-.17-.45-.56-.95-.47-1.34,.43-1.9,1.05-3.77,1.49-5.67,.59-2.57-.57-3.68-3.24-3.21-7.61,1.33-8.56,3.05-5.44,9.69,2.3,4.88,5.77,8.51,10.66,10.9,2.86,1.4,5.52,3.2,8.24,4.88,.45,.28,.73,.83,1.09,1.25-.71,.06-1.54,.39-2.1,.13-4.69-2.2-9.3-4.56-14-6.75-3.02-1.41-3.55-.98-4.26,2.39-.86,4.07-1.71,8.15-2.82,12.15-.73,2.65-2.2,2.89-4.14,.78-.51-.56-1.73-.69-2.58-.61-.33,.03-.97,1.45-.75,1.82,2.31,3.99,.48,7.02-2.02,10.01-.39,.46-.64,1.52-.38,1.91,.31,.47,1.28,.76,1.91,.69,.95-.1,1.84-.71,2.8-.87,2.09-.34,3.61,.85,3.67,2.72,.19,5.45,.04,10.92-.12,16.37,0,.28-1.76,.98-2.2,.7-2.42-1.53-4.22-3.4-2.91-6.73,.8-2.04,1.07-4.29,1.74-6.39,.66-2.07-.41-2.67-2.11-2.88-7.59-.93-7.62-.94-4.32-8.06,.64-1.37,1.57-2.49,.17-3.97-1.78-1.88-3.02-.52-4.46,.46-1.61,1.09-3.32,2.02-4.98,3.03-1.19-.05-2.4-.23-3.57-.13-3.07,.26-3.26,.97-1.33,4.53,1.54,2.53,3.09,5.05,4.63,7.58,.44,2.41-.96,2.93-2.94,2.84-.98-.98-1.96-1.95-2.93-2.94-1.47-1.49-2.94-2.99-4.41-4.49-1.01-.46-2.33-.68-2.95-1.45-.84-1.05-.86-2.81-1.77-3.74-.69-.7-2.26-.85-3.36-.69-.45,.07-.8,1.55-1.02,2.42-1.08,4.16,2.06,5.93,4.63,8-1.44,.55-2.89,1.11-4.33,1.66-.57,.28-1.22,.46-1.68,.86-.64,.58-1.13,1.32-1.68,1.99l-.02-.02c-.16-.43-.22-1.13-.51-1.25-2.92-1.2-5.8-2.33-6.11-6.18-.04-.53-1.08-1.4-1.6-1.37-.7,.05-1.95,1.21-1.93,1.24,1.89,2.95,.35,3.29-2.12,2.76-1.16-.25-2.26-1.22-3.38-1.2-2.14,.02-4.27,.51-6.41,.81,.29,3.82,3.57,1.28,5.21,2.37,1.14,.76,2.77,.73,4.14,1.2,3.83,1.32,8.16,1.42,11.27,4.52,.6,4.01,2.79,6.13,7,6.06,1.2-.02,2.68,.03,3.57,.67,5.54,4.02,12.17,6.29,17.15,11.22,4.04,3.99,8.43,7.63,12.73,11.35,6.91,5.99,13.81,11.99,20.84,17.85,4.55,3.79,9.49,7.13,13.94,11.02,4.86,4.26,5.68,3.39,1.32,9.5-9.49,13.27-19.78,25.93-31.46,37.42-10.26,10.09-21.38,19.05-33.08,27.42-11.06,7.92-22.63,14.99-34.72,21.04-13.15,6.58-27.03,11.61-41.39,15.09-13.65,3.31-27.49,5.06-41.47,6.57-13.24,1.43-26.27,.37-39.18-.96-21.78-2.24-42.97-7.67-63.07-16.73-.86-.39-1.87-.46-2.8-.67-14.13-7.47-28.53-14.48-41.53-23.9-5.36-3.89-10.65-7.88-15.8-12.04-14.68-11.88-27.27-25.86-39.8-39.88-.49-.55-.97-1.12-1.39-1.73-2.62-3.78-2.71-4.47,.62-7.48,5.11-4.63,10.45-9.01,15.65-13.53,1.64-1.43,3.18-2.98,4.76-4.48,6.79-5.7,13.55-11.44,20.39-17.08,9.13-7.54,18.25-15.09,27.53-22.44,2.26-1.79,5.15-2.77,7.7-4.2,2.93-1.64,6.37-2.48,7.12-6.79,.48-2.77,3.4-3.21,5.93-3.28,2.48-.07,4.97,.08,7.44-.03,1.46-.07,3.02-.19,4.34-.76,1.49-.65,2.36-2.05,.76-3.43-1.05-.9-3.16-2.24-3.62-1.88-3.6,2.81-5.74,.14-8.85-1.1-2.37-.94-6.89-1.64-9.26,2.21-.49,.79-1.8,1.97-2.2,1.79-4.04-1.84-5.41-.07-5.67,3.73-.02,.22-1.38,.71-1.85,.5-5.43-2.48-8.71-7.18-11.05-12.26-.73-1.59,1.11-4.58,2.18-6.73,1.3-2.61,.65-4.03-1.89-5.22-2.42-1.14-3.59-.91-3.31,1.44,.6,5.11-1.41,9.06-4.62,12.67-.49-1.02-.98-2.03-1.47-3.05-.1-.48-.04-.93,.18-1.37,2.39-4.44,2.19-5.43-1.83-9.29,1.58-2.96,4.33-5.56,2.69-9.47-1.02-2.44-2.76-2.99-4.35-1.01-2.63,3.27-5.13,6.64-7.51,10.09-.62,.9-.59,2.25-.85,3.39-.34,.62-.58,1.33-1.05,1.83-.43,.46-1.1,.69-1.67,1.02-.14-.68-.33-1.35-.42-2.04-.1-.71-.11-1.44-.16-2.16,.39-1.64,.82-3.27,1.18-4.92,.61-2.83,1.21-5.66,1.76-8.5,.37-1.91,.32-3.97,1-5.75,1.5-3.88,1.13-6.92-2.23-9.82-1.53-1.33-2.12-3.78-3.05-5.76-.41-.87-.33-2.18-.96-2.68-1.24-.98-2.83-2.06-4.26-2.05-.79,0-2.13,2.13-2.21,3.36-.16,2.64,.36,5.31,.54,7.97,.06,.86-.06,1.74-.09,2.61-1.02-.38-2.08-.69-3.04-1.19-.34-.18-.44-.83-.64-1.27-.54-.6-1.13-1.75-1.6-1.7-2.5,.26-2.77-1.22-2.79-3.06,3.32-7.65,6.63-15.3,9.98-22.94,1.05-2.39,.71-3.58-2.25-3.83-2.59-.23-5.11-1.49-7.49,.68-3.49,3.17-7.08,6.24-7.78,11.3-.13,.97,.09,2.01-.1,2.96-.29,1.44,1.48,3.74-1.15,4.05-.62,.07-1.76-2.52-2.31-4.01-1.5-4.06-.08-7.74,2.04-11.13,1.3-2.08,3.11-3.83,4.51-5.84,.97-1.39,.11-2.23-1.28-2.66,.68-2.46,1.92-2.93,4.13-1.46,.55,.36,2.02-.04,2.62-.59,.36-.33-.15-1.61-.3-2.46-.75-4.24-4.9-5.43-7.69-7.11-2.27-1.36-3.02,3-4.62,4.65-.49,.51-1.55,.63-1.79,1.17-.62,1.42-.94,2.97-1.37,4.47-1.44,3.39-2.75,6.83-4.35,10.14-1.77,3.66-4.42,6.72-8.46,7.82-5.62,1.53-12.02-2.26-14.03-8.03-.21-.59,.16-1.39,.26-2.09,.59,.27,1.31,.4,1.75,.82,1.24,1.21,2.34,2.55,3.53,3.82,2.77,2.96,3.48,3.1,7.01,1.44,5.68-2.68,7.13-5.37,5.65-11.63-.76-3.26,.32-5.87,2.01-8.33,2.09-3.05,4.43-5.92,6.66-8.87,1.86-1.52,4.76-.14,6.43-2.75,1.96-3.04,4.61-5.64,6.87-8.5,.43-.54,.45-1.42,.65-2.14-.95,.04-2.2-.31-2.78,.17-2.28,1.87-4.32,4.02-6.51,6-.34,.31-1.03,.22-1.56,.31l-.25-2.16c.38-.59,.66-1.32,1.17-1.75,2.14-1.79,2.32-3.51,.1-5.38-.54-.45-.9-1.12-1.34-1.69,.1-.72-.06-1.78,.35-2.12,4.68-3.8,4.49-3.71,3.29-7.45-.89-2.79-1.77-2.14-3.33-.68-2.13,2-1.35-.44-1.76-1.2-.39-.73-.98-1.35-1.49-2.01h0c-.58-.47-1.16-.94-1.74-1.41-.37,.97-.73,1.94-1.1,2.9-1.68,3.24-3.09,6.67-5.13,9.67-1.62,2.38-2.69,4.6-2.27,7.51,.22,1.51-.89,2.63-2.14,1.76-3.81-2.65-7.58-.92-11.38-.34-.96,.15-1.9,.62-2.85,.65-.88,.03-1.78-.33-2.67-.52,.62-.37,1.21-.84,1.88-1.08,2.98-1.05,5.93-2.61,8.99-2.88,3.4-.3,4.31-1.85,5.4-4.76,2.31-6.18,5.4-12.07,8.11-18.1,.71-1.57,1.39-2.56,3-.87,1.6,1.68,2.52,1.32,3.91-.64,3.52-5,7.46-9.72,11.22-14.55,2.4-.35,3.41-1.82,3.36-4.15l.05-.05c1.2-1.44,2.4-2.87,3.61-4.31-1.78,.39-3.58,.7-5.32,1.22-.58,.17-.99,.88-1.48,1.35-.97,.56-1.93,1.13-2.9,1.69-1.29-.21-2.95,.26-3.24-1.77,2.48-1.47,4.96-2.93,7.45-4.4,1.94-.42,3.92-.75,5.81-1.32,.72-.22,1.26-1,1.89-1.53,.43-.11,.87-.15,1.32-.13,1.64-.14,3.82,1.48,4.61-1.41h-.01c1.21-.44,2.86-.53,3.56-1.4,2-2.47,.47-3.15-1.97-3.02-1.48-1.03-2.95-2.06-4.43-3.09-.03-.99,.19-2.07-.14-2.94-.73-1.91-1.86-2.06-3.01-.22-.52,.57-1.05,1.14-1.57,1.71-1.05-1.09-2.09-2.17-3.14-3.26,.6-.38,1.2-.76,1.8-1.15,2.44,.34,3.75-.92,4.4-3.11,2.06-1.9,4.11-3.8,6.17-5.69,3.15-.07,6.32,0,9.46-.29,1.55-.15,3.08-.9,4.5-1.61,.39-.2,.5-1.25,.47-1.89-.01-.26-.74-.68-1.15-.7-3.39-.18-6.78-.28-10.18-.4-3.84-2.3-4.63-6.28-3.77-9.87,.77-3.21,1.74-6.68,6.5-7.96,4.18-1.12,7.67-4.79,11.43-7.39,.22-.15,.28-.95,.1-1.14-.3-.31-.88-.54-1.31-.5-4.13,.43-8.26,.93-12.39,1.42-.73,.09-1.46,.23-2.19,.35-1.28-.47-2.52-1.23-3.83-1.34-3.87-.35-.29-2.2-.74-3.2,4.38-2.78,9.49-2.26,14.17-2.31,6.09-.07,12.2,1.44,18.3,2.23,.98,.13,2.07,.26,2.96-.04,6.05-2.06,11.93-4.57,18.57-4.43,1.32,.03,2.69-1.98,4.04-3.05,3.46-.45,7.09-.41,10.33-1.52,2.03-.69,5.29,.1,6.03-3.23,.05-1.26,.09-2.52,.14-3.78,.55-1.61,1.1-3.21,1.65-4.82,4.1-.56,8.49-.4,12.22-1.89,3.73-1.49,6.8-4.63,10.15-7.04,.53-.79,1.06-1.58,1.58-2.37,.43-.65,.84-1.31,1.25-1.97,0,2.3,1.35,3.6,3.37,4.16,1.16,.32,2.44,.15,3.67,.24,5.42,.4,8.25,1.6,11.98,4.85,.69,.6,1.63,1.11,2.52,1.27,2.84,.52,5.71,.92,8.58,1.23,.89,.1,1.82-.2,2.73-.32-.28-1.07-.26-2.37-.89-3.15-1.5-1.86-3.31-3.46-5-5.17-.53-3.06-2.82-1.4-4.39-1.64h-.02c1.34-3.17,4.1-.81,6.06-1.57,3.6,.98,5.69,3.67,7.62,6.59,.28,.42,1.23,.4,1.86,.58-.1-.59-.14-1.19-.32-1.76-.95-3.02-2.65-6.01-2.76-9.06-.23-6.39-4.2-9.55-9.31-10.99-4.89-1.38-10.18-1.3-15.28-1.98-2.38-.32-4.74-.88-7.09-1.4-.43-.09-.8-.49-1.2-.75,.46-.15,.9-.32,1.37-.44,.23-.06,.52-.1,.74-.02,7.92,2.86,16.15,.32,24.16,1.42,1.6,.95,3.19,1.89,4.79,2.84,1.4,1.16,2.8,2.32,4.19,3.47,1.02,.86,2.03,1.73,3.05,2.59,.56,1.43,1.11,2.85,1.67,4.28,.98,.03,1.97,.06,2.95,.09,6.4,3.07,11.07,7.28,10.43,15.21-.07,.87,.45,1.89,.93,2.7,2.1,3.5,4.29,6.94,6.44,10.4,2.06-3.43,4.13-6.86,6.19-10.29,.85,.81,1.71,1.62,2.56,2.43,.95-2.47,4.05-1.52,5.5-3.71,2.12-3.2,3.98-1.5,5.26,1.15-1.85,1.75-5.22,1.72-5.81,4.97-.15,.8-.45,1.57-.68,2.36,.66-.1,1.42-.02,1.98-.32,6.28-3.39,12.82-6.42,18.69-10.41,5.11-3.47,10.29-5.62,16.44-5.63,.64,0,1.28-.92,1.93-1.42Zm-155.02,239.03c-.04-.7,.19-1.7-.18-2.01-.52-.45-1.48-.38-2.25-.54,.22,.55,.3,1.22,.68,1.6,.44,.45,1.14,.66,1.72,.97-.21,3.59,3.12,4.77,4.89,6.98,.79,.98,1.87,2.93,3.42,1.36,.5-.51-.23-2.57-.8-3.72-1.5-3.04-3.65-5.25-7.48-4.64Zm252.58-174.67c-.22,.07-.6,.09-.63,.22-.09,.34-.2,.82-.03,1.06,2.87,4.07,4.75,9.62,11.66,7.77,.8-.21,1.83,.54,2.77,.73,3.3,.68,6.6,1.42,9.94,1.88,.74,.1,1.9-.69,2.34-1.4,.28-.45-.18-1.86-.71-2.21-1.38-.9-2.94-1.68-4.53-2.1-6.75-1.77-14.18-1.18-20.09-5.83-.16-.13-.47-.07-.71-.11Zm-312.72,67.53c-.83-.13-1.66-.54-2.21-.29-4.95,2.23-7.77-.24-9.94-4.31-.46-.85-.76-1.93-1.46-2.46-.42-.32-2.08,.06-2.17,.41-1.16,4.19-2.23,8.42-3.05,12.69-.12,.6,1.56,2.25,1.87,2.12,5.41-2.24,10.74-4.67,16.07-7.09,.33-.15,.51-.6,.89-1.07Zm4.18,67.18c1.2,2.89,2.4,5.77,3.61,8.66,.63,1.5,1.83,1.8,2.85,.71,1.29-1.37,3.01-3,3.15-4.64,.28-3.28,.86-6.26,2.7-9.03,.22-.33-.33-1.31-.71-1.84-.12-.17-1-.04-1.32,.22-.77,.61-1.53,1.29-2.09,2.09-1.8,2.58-1.85,5.52-1.62,8.52,.05,.67-.34,1.37-.53,2.06-.26-.63-.6-1.25-.76-1.9-.96-4.01-2.37-8.05,.93-11.76,.43-.48,.48-1.37,.53-2.08,.03-.43-.19-1-.51-1.29-.16-.14-.86,.1-1.16,.35-3.02,2.51-4.76,5.62-5.07,9.94Zm27.36-158.64c.84,.16,2.06,.29,3.22,.64,3.7,1.14,7.36,2.41,11.06,3.53,.58,.18,1.31-.13,1.97-.21-.34-.58-.62-1.21-1.04-1.72-.47-.57-1.03-1.09-1.63-1.51-7.77-5.5-21.95-3.9-28.34,3.23-.62,.69-1.12,1.61-1.32,2.5-.13,.59,.19,1.56,.65,1.91,.37,.28,1.47,.13,1.86-.24,.87-.82,1.37-2.03,2.24-2.86,3.06-2.94,6.53-5.11,11.34-5.28Zm-14.95,135c-.17-.24-.64-1.65-1.46-1.89-.7-.2-2.34,.75-2.61,1.52-1.38,4.02-4.8,6.05-7.66,8.71-2.11,1.96-3.81,4.38-5.56,6.7-.26,.34,.03,1.56,.42,1.82,.44,.29,1.38,.13,1.95-.15,.64-.31,1.31-.86,1.61-1.49,2.02-4.23,5.27-6.85,9.67-8.52,2.28-.87,4.1-2.85,3.63-6.7Zm302.09,41.88c-.15-4.02-2.31-6.89-5.33-9.23-.26-.2-.91-.05-1.29,.12-.12,.05-.11,.78,.06,1.06,2.31,3.94,3.39,7.69-.87,11.19-.73,.61-.82,2-1.2,3.04,1.15,.27,2.35,.91,3.43,.75,3.41-.53,5.32-3.23,5.2-6.92Zm-13.57,6.91c-.43-.53-1.26-1.96-2.49-2.82-.36-.25-2.59,1-2.69,1.72-.46,3.5-1.68,6.45-4.46,8.7-.04,.03,.5,1.14,.8,1.16,4.53,.28,8.91-3.55,8.84-8.77Zm-157.77-214.12c-.9,.76-1.82,1.17-1.84,1.61-.17,3.43-.46,6.9-.09,10.28,.16,1.44,1.76,2.78,2.87,4.02,.25,.28,1.21,.12,1.73-.1,.38-.16,.84-.78,.8-1.15-.27-3.08-.44-6.19-1.06-9.21-.36-1.78-1.48-3.42-2.41-5.46Zm-106.96,224.27c-.52,.72-1.14,1.21-1.24,1.79-.88,5.15,1.57,9.37,4.09,13.5,.39,.64,1.62,.78,2.46,1.15,.31-1.08,1.23-2.68,.83-3.15-2.99-3.46-4.73-7.24-4.47-11.9,.02-.39-.98-.84-1.67-1.39Zm-31.94-174.21c1.32-1.74,3.75-3.57,3.54-4.99-.31-2.02-2.57-3.75-3.99-5.6-1.1,1.74-2.57,3.36-3.15,5.26-.33,1.07,.67,2.66,1.31,3.89,.28,.53,1.15,.75,2.3,1.45Zm321.91,23.53c-.49,.46-1.17,.83-1.13,1.09,.45,2.85,.89,5.72,1.59,8.52,.42,1.66,3.98,3.3,4.85,2.24,.69-.84,.76-2.75,.3-3.86-1.01-2.48-2.46-4.79-3.87-7.08-.32-.51-1.23-.66-1.75-.92Zm-88.64-62.84c1.69-1.39,3.34-2.13,3.87-3.35,.71-1.66-2.47-5.62-4.17-5.05-1.81,.6-3.15,2.58-4.7,3.96,1.49,1.32,2.99,2.65,5,4.43Zm-165.3,233.19c-.93-3.39-1.84-6.79-2.8-10.18-.38-1.35-.69-2.78-1.41-3.94-.29-.47-1.6-.42-2.43-.36-.15,0-.52,1.59-.28,1.76,2.83,2.05,2.32,5.08,2.67,7.94,.23,1.84,.97,3.65,1.68,5.39,.15,.37,1.19,.51,1.8,.48,.27-.01,.51-.7,.77-1.09Zm147.9-240.04c-.1,.78-2.19,1.84-.04,2.54,.9,.29,2.38-.32,3.25-.98,1.5-1.13,1.85-2.8,.93-4.56-1.41-2.69-3.66-3.88-6.65-3.35-.58,.1-1.38,.7-1.48,1.19-.08,.43,.7,1.49,1.06,1.47,2.65-.12,3.64,.97,2.93,3.69Zm-145.1,7.49c1.77-.8,3.01-1.46,4.31-1.93,1.9-.68,3.87-1.71,2.96-3.82-.29-.66-3.53-.51-5.19,.01-1.2,.38-2.18,1.89-2.91,3.1-.27,.45,.44,1.48,.83,2.63Zm253.49,135.38c-2.39,.21-3.94,2.72-3.52,5.18,.15,.86,1.2,2.09,1.99,2.21,2.28,.34,4.46-1.8,3.9-3.93-.36-1.38-1.69-2.52-2.37-3.45Zm-21.43-82.79c-1.24-4.32-2.38-8.27-6.08-10.65-.6-.39-1.64-.1-2.47-.12,.22,.78,.19,1.92,.71,2.29,2.66,1.92,6.34,3.22,3.46,7.67-.06,.09,1.17,1.39,1.92,1.53,.75,.14,1.64-.45,2.46-.72Zm-306.79,8.2c2.48-.09,5.17-3.13,4.56-4.59-.31-.75-1.79-1.29-2.81-1.43-2.22-.31-4.09,.89-4.17,2.99-.04,1.12,1.8,2.3,2.42,3.03Zm253.18-54.46c-2.24,.56-3.37,.84-4.5,1.12,1.14,.47,2.32,.87,3.42,1.41,2.33,1.14,4.59,2.43,6.96,3.49,.66,.3,1.6-.02,2.41-.05-.23-.84-.21-2.15-.75-2.43-2.67-1.43-5.49-2.6-7.54-3.53Zm-220.36,221.15c-1.13-2.01-2.05-3.63-2.96-5.24-1.31,1.27-2.61,2.54-3.92,3.81,1.32,1.24,2.55,2.61,4.03,3.62,.26,.17,1.54-1.16,2.84-2.18Zm64.77-238.23c-.05-3.05-2.18-5.06-4.08-4.16-1.65,.79-3.02,2.17-4.52,3.28,1.59,.33,3.19,.62,4.76,1.02,.69,.18,1.34,.89,1.96,.82,.75-.08,1.43-.72,1.89-.97Zm235.72,92.6c-.12-.44-.1-1.05-.39-1.29-1.08-.89-2.17-1.86-3.43-2.4-.88-.38-2.04-.12-3.08-.15,.22,1.31,.03,3.36,.75,3.76,1.5,.84,3.49,.84,5.29,1.07,.24,.03,.57-.65,.86-1Zm-325.44,112.65c.66,1.41-1.88,4.38,1.77,4.8,.24,.03,.98-3.23,1.26-5,.18-1.19,.09-2.46-.15-3.64-.11-.53-.87-1.27-1.36-1.28-.49-.02-1.37,.67-1.46,1.16-.22,1.18-.07,2.43-.07,3.97Zm-15.02-88.2c.01-2.9-2.38-5.67-4.2-5.19-.69,.18-1.61,1.14-1.66,1.8-.2,2.61,1.47,3.93,3.84,4.26,.69,.09,1.48-.63,2.02-.88Zm340.82,9.41c-.13-.56-.15-1.32-.46-1.93-1.6-3.16-5.5-5.56-5.3-4.54,.38,1.93,1.7,3.69,2.67,5.5,.34,.62,.76,1.22,1.25,1.74,.3,.32,.8,.46,1.21,.68,.19-.43,.38-.86,.63-1.45Zm-127.08-127.26c-.36-.29-.99-.88-1.04-.84-1.64,1.52-3.24,3.08-4.78,4.7-.07,.07,.39,.95,.75,1.08,1.71,.61,5.38-3.01,5.07-4.94Zm-164.34,224.57c-.91,.58-1.46,.73-1.52,1-.62,2.75,1.18,4.51,2.74,6.32,.13,.16,.83-.12,1.24-.28,.2-.08,.5-.42,.46-.51-.93-2.14-1.9-4.26-2.93-6.53Zm-52.01-69.19c-.13-.67-.28-1.89-.62-3.06-.09-.33-.72-.68-1.11-.69-.4-.01-1.18,.43-1.16,.58,.27,1.87,.6,3.73,1.04,5.57,.09,.36,.68,.61,1.04,.91,.24-.42,.56-.82,.69-1.28,.13-.47,.07-.99,.13-2.03Zm-29.2,4.97c.33,.94,.65,1.83,.96,2.72,.69-.59,1.68-1.05,2.02-1.8,.49-1.08,.62-2.36,.66-3.57,.02-.54-.56-1.1-.87-1.65-.39,.29-.92,.51-1.14,.89-.59,1.04-1.04,2.16-1.62,3.4Z" fill="#221e1f"/>
    </g>
    <g id="_Слой_14" data-name="Слой 14">
      <g opacity=".5">
        <g>
          <line x1="773.09" y1="602.27" x2="782.86" y2="602.27" fill="none" stroke="#000" stroke-miterlimit="10" stroke-width="2"/>
          <line x1="802.45" y1="602.28" x2="1458.55" y2="602.52" fill="none" stroke="#000" stroke-dasharray="0 0 19.59 19.59" stroke-miterlimit="10" stroke-width="2"/>
          <polyline points="1468.34 602.53 1478.11 602.53 1478.11 592.76" fill="none" stroke="#000" stroke-miterlimit="10" stroke-width="2"/>
          <line x1="1478.11" y1="569.37" x2="1478.11" y2="534.27" fill="none" stroke="#000" stroke-dasharray="0 0 23.4 23.4" stroke-miterlimit="10" stroke-width="2"/>
          <polyline points="1478.11 522.57 1478.11 512.8 1468.34 512.82" fill="none" stroke="#000" stroke-miterlimit="10" stroke-width="2"/>
          <line x1="1448.6" y1="512.87" x2="787.29" y2="514.31" fill="none" stroke="#000" stroke-dasharray="0 0 19.74 19.74" stroke-miterlimit="10" stroke-width="2"/>
          <line x1="777.42" y1="514.33" x2="767.65" y2="514.36" fill="none" stroke="#000" stroke-miterlimit="10" stroke-width="2"/>
        </g>
      </g>
    </g>
  </g>
  <g id="_Слой_10" data-name="Слой 10">
    <g opacity=".6">
      <g>
        <line x1="1635.12" y1="231.73" x2="1635.13" y2="241.73" fill="none" stroke="#221e1f" stroke-miterlimit="10" stroke-width="2"/>
        <line x1="1635.14" y1="261.46" x2="1636.08" y2="1316.81" fill="none" stroke="#221e1f" stroke-dasharray="0 0 19.73 19.73" stroke-miterlimit="10" stroke-width="2"/>
        <line x1="1636.08" y1="1326.67" x2="1636.09" y2="1336.67" fill="none" stroke="#221e1f" stroke-miterlimit="10" stroke-width="2"/>
        <polygon points="1635.1 217.61 1626.99 237.52 1635.12 232.79 1643.25 237.5 1635.1 217.61" fill="#221e1f"/>
        <path d="M1636.1,1348.74c-2.11-5.68-5.71-12.72-9.53-17.09l9.51,3.43,9.51-3.45c-3.8,4.37-7.39,11.42-9.49,17.1Z" fill="#221e1f"/>
      </g>
    </g>
    <g opacity=".6">
      <g>
        <line x1="462.13" y1="1391.37" x2="472.13" y2="1391.36" fill="none" stroke="#221e1f" stroke-miterlimit="10" stroke-width="2"/>
        <line x1="492.26" y1="1391.34" x2="1408" y2="1390.41" fill="none" stroke="#221e1f" stroke-dasharray="0 0 20.13 20.13" stroke-miterlimit="10" stroke-width="2"/>
        <line x1="1418.07" y1="1390.4" x2="1428.07" y2="1390.39" fill="none" stroke="#221e1f" stroke-miterlimit="10" stroke-width="2"/>
        <polygon points="448.01 1391.38 467.92 1399.49 463.19 1391.37 467.9 1383.23 448.01 1391.38" fill="#221e1f"/>
        <path d="M1440.14,1390.38c-5.68,2.11-12.72,5.72-17.09,9.53l3.43-9.52-3.45-9.51c4.37,3.8,11.42,7.39,17.1,9.49Z" fill="#221e1f"/>
      </g>
    </g>
    <g opacity=".6">
      <path d="M880.98,1420.96c.11-1.1,.52-2.1,1.21-2.99,.7-.89,1.67-1.59,2.93-2.11,1.26-.52,2.76-.78,4.5-.78,1.55,0,2.9,.2,4.04,.61,1.14,.41,2.03,.98,2.65,1.7,.62,.73,.94,1.59,.94,2.58,0,.83-.24,1.58-.73,2.24-.49,.66-1.23,1.19-2.22,1.57-.99,.38-2.23,.58-3.72,.58v-.46c1.47-.06,2.74,.07,3.79,.4,1.06,.33,1.87,.82,2.44,1.49s.85,1.48,.85,2.44c0,1.07-.33,2.02-.98,2.86-.66,.83-1.6,1.48-2.84,1.96-1.24,.47-2.76,.71-4.55,.71s-3.26-.25-4.56-.76c-1.3-.5-2.31-1.21-3.04-2.12-.73-.91-1.13-1.98-1.21-3.19h3.19c.14,1.12,.69,1.98,1.63,2.58,.94,.6,2.27,.9,3.98,.9s3-.28,3.86-.84c.86-.56,1.3-1.33,1.3-2.3,0-.58-.15-1.06-.44-1.45-.3-.39-.78-.69-1.46-.9s-1.6-.31-2.75-.31h-3.26v-2.35h3.26c1.49,0,2.57-.24,3.24-.73,.67-.49,1.01-1.12,1.01-1.88,0-.85-.37-1.51-1.12-1.99-.74-.48-1.9-.72-3.47-.72s-2.76,.28-3.66,.85c-.9,.57-1.44,1.38-1.62,2.44h-3.19Z"/>
      <path d="M901.93,1415.41h13.15v2.57h-12.12l1.32-.84-1.01,7.58-.94,.02c.37-.56,.87-1.09,1.5-1.58,.63-.5,1.4-.9,2.3-1.21,.9-.31,1.92-.47,3.06-.47,1.57,0,2.9,.27,3.98,.8s1.92,1.26,2.48,2.17c.57,.91,.85,1.94,.85,3.1s-.34,2.26-1.01,3.19-1.62,1.66-2.84,2.2c-1.22,.54-2.68,.8-4.36,.8s-3.14-.25-4.37-.74c-1.23-.5-2.2-1.17-2.92-2.03-.71-.86-1.15-1.81-1.31-2.87h3.19c.22,.94,.8,1.69,1.73,2.23s2.15,.82,3.67,.82c1.02,0,1.91-.15,2.65-.44,.74-.3,1.32-.71,1.74-1.25,.42-.54,.62-1.17,.62-1.91s-.17-1.35-.52-1.88c-.34-.54-.86-.95-1.56-1.25-.7-.3-1.58-.44-2.65-.44-.88,0-1.67,.1-2.36,.31s-1.3,.47-1.8,.79c-.5,.32-.92,.66-1.26,1.01h-2.64l1.39-10.68Z"/>
      <path d="M928.23,1433.75c-1.97,0-3.66-.39-5.09-1.16-1.42-.78-2.52-1.86-3.29-3.26s-1.15-3.04-1.15-4.91,.38-3.51,1.15-4.91c.77-1.4,1.86-2.49,3.29-3.26,1.42-.78,3.12-1.16,5.09-1.16s3.66,.39,5.08,1.16,2.51,1.86,3.28,3.26c.77,1.4,1.15,3.04,1.15,4.91s-.38,3.51-1.15,4.91c-.77,1.4-1.86,2.49-3.28,3.26-1.42,.78-3.11,1.16-5.08,1.16Zm0-2.62c2,0,3.55-.59,4.66-1.76,1.1-1.18,1.66-2.83,1.66-4.96s-.55-3.78-1.66-4.96c-1.1-1.18-2.66-1.76-4.66-1.76s-3.56,.59-4.67,1.76c-1.11,1.18-1.67,2.83-1.67,4.96s.56,3.78,1.67,4.96c1.11,1.18,2.67,1.76,4.67,1.76Z"/>
      <path d="M946.95,1433.41v-13.58h4.63l5.71,12.1h-1.22l5.66-12.1h4.63v13.58h-2.93v-12.55h.82l-6.07,12.55h-3.05l-6.07-12.5,.82-.02v12.53h-2.93Z"/>
      <path d="M969.68,1433.41v-13.58h4.63l5.71,12.1h-1.22l5.66-12.1h4.63v13.58h-2.93v-12.55h.82l-6.07,12.55h-3.05l-6.07-12.5,.82-.02v12.53h-2.93Z"/>
    </g>
    <g opacity=".6">
      <path d="M1676.04,792.55v18h-3.17v-16.68h1.3l-10.32,11.47-.07-1.13h15.55v2.54h-18.05v-2.28l10.73-11.93h4.03Z"/>
      <path d="M1690.73,810.88c-1.97,0-3.66-.39-5.09-1.16-1.42-.78-2.52-1.86-3.29-3.26-.77-1.4-1.15-3.04-1.15-4.91s.38-3.51,1.15-4.91c.77-1.4,1.86-2.49,3.29-3.26,1.42-.78,3.12-1.16,5.09-1.16s3.66,.39,5.08,1.16,2.51,1.86,3.28,3.26c.77,1.4,1.15,3.04,1.15,4.91s-.38,3.51-1.15,4.91c-.77,1.4-1.86,2.49-3.28,3.26-1.42,.78-3.11,1.16-5.08,1.16Zm0-2.62c2,0,3.55-.59,4.66-1.76,1.1-1.18,1.66-2.83,1.66-4.96s-.55-3.78-1.66-4.96c-1.1-1.18-2.66-1.76-4.66-1.76s-3.56,.59-4.67,1.76c-1.11,1.18-1.67,2.83-1.67,4.96s.56,3.78,1.67,4.96c1.11,1.18,2.67,1.76,4.67,1.76Z"/>
      <path d="M1712.16,810.88c-1.97,0-3.66-.39-5.09-1.16-1.42-.78-2.52-1.86-3.29-3.26-.77-1.4-1.15-3.04-1.15-4.91s.38-3.51,1.15-4.91c.77-1.4,1.86-2.49,3.29-3.26,1.42-.78,3.12-1.16,5.09-1.16s3.66,.39,5.08,1.16,2.51,1.86,3.28,3.26c.77,1.4,1.15,3.04,1.15,4.91s-.38,3.51-1.15,4.91c-.77,1.4-1.86,2.49-3.28,3.26-1.42,.78-3.11,1.16-5.08,1.16Zm0-2.62c2,0,3.55-.59,4.66-1.76,1.1-1.18,1.66-2.83,1.66-4.96s-.55-3.78-1.66-4.96c-1.1-1.18-2.66-1.76-4.66-1.76s-3.56,.59-4.67,1.76c-1.11,1.18-1.67,2.83-1.67,4.96s.56,3.78,1.67,4.96c1.11,1.18,2.67,1.76,4.67,1.76Z"/>
      <path d="M1730.88,810.55v-13.58h4.63l5.71,12.1h-1.22l5.66-12.1h4.63v13.58h-2.93v-12.55h.82l-6.07,12.55h-3.05l-6.07-12.5,.82-.02v12.53h-2.93Z"/>
      <path d="M1753.61,810.55v-13.58h4.63l5.71,12.1h-1.22l5.66-12.1h4.63v13.58h-2.93v-12.55h.82l-6.07,12.55h-3.05l-6.07-12.5,.82-.02v12.53h-2.93Z"/>
    </g>
    <g opacity=".6">
      <path d="M875.8,146.17c.1-1.33,.52-2.48,1.28-3.46,.76-.98,1.77-1.73,3.04-2.27,1.26-.54,2.7-.8,4.32-.8s2.88,.24,4.04,.72c1.16,.48,2.06,1.15,2.71,2.02,.65,.86,.97,1.86,.97,3,0,.88-.21,1.7-.64,2.45-.42,.75-1.12,1.52-2.09,2.29-.97,.78-2.28,1.65-3.92,2.63l-5.98,3.53-.41-.94h13.58v2.64h-16.75v-2.3l7.66-4.66c1.34-.82,2.4-1.52,3.18-2.12,.78-.6,1.33-1.16,1.67-1.69,.34-.53,.5-1.09,.5-1.68,0-.62-.17-1.18-.5-1.68s-.84-.89-1.52-1.18c-.68-.29-1.55-.43-2.6-.43-1.2,0-2.18,.18-2.95,.53s-1.34,.83-1.72,1.43-.6,1.26-.68,1.98h-3.19Z"/>
      <path d="M904.45,158.32c-1.97,0-3.66-.39-5.09-1.16-1.42-.78-2.52-1.86-3.29-3.26s-1.15-3.04-1.15-4.91,.38-3.51,1.15-4.91c.77-1.4,1.86-2.49,3.29-3.26,1.42-.78,3.12-1.16,5.09-1.16s3.66,.39,5.08,1.16,2.51,1.86,3.28,3.26c.77,1.4,1.15,3.04,1.15,4.91s-.38,3.51-1.15,4.91-1.86,2.49-3.28,3.26c-1.42,.78-3.11,1.16-5.08,1.16Zm0-2.62c2,0,3.55-.59,4.66-1.76s1.66-2.83,1.66-4.96-.55-3.78-1.66-4.96-2.66-1.76-4.66-1.76-3.56,.59-4.67,1.76c-1.11,1.18-1.67,2.83-1.67,4.96s.56,3.78,1.67,4.96c1.11,1.18,2.67,1.76,4.67,1.76Z"/>
      <path d="M925.41,139.64c2.67,0,4.74,.43,6.19,1.3,1.46,.86,2.18,2.07,2.18,3.62,0,1.42-.66,2.52-1.99,3.29-1.33,.77-3.18,1.13-5.57,1.08v-.5c2.62-.14,4.66,.18,6.1,.98,1.44,.8,2.16,2.01,2.16,3.62s-.78,2.98-2.35,3.9c-1.57,.92-3.81,1.38-6.72,1.38s-5.13-.46-6.71-1.38c-1.58-.92-2.36-2.22-2.36-3.9s.72-2.83,2.17-3.64c1.45-.81,3.48-1.13,6.08-.97v.5c-2.37,.05-4.22-.31-5.56-1.08-1.34-.77-2-1.86-2-3.29,0-1.55,.73-2.76,2.18-3.62,1.46-.86,3.52-1.3,6.19-1.3Zm0,16.13c1.9,0,3.36-.24,4.37-.73,1.01-.49,1.51-1.21,1.51-2.17s-.5-1.72-1.51-2.18c-1.01-.46-2.46-.7-4.37-.7s-3.36,.23-4.37,.7c-1.01,.46-1.51,1.19-1.51,2.18s.5,1.68,1.51,2.17c1.01,.49,2.46,.73,4.37,.73Zm0-8.28c1.1,0,2.04-.1,2.82-.29,.78-.19,1.37-.49,1.78-.89,.41-.4,.61-.9,.61-1.49,0-.85-.45-1.5-1.36-1.96-.9-.46-2.19-.68-3.85-.68s-2.93,.23-3.84,.68c-.91,.46-1.37,1.11-1.37,1.96,0,.59,.2,1.09,.61,1.49,.41,.4,1,.7,1.78,.89,.78,.19,1.72,.29,2.82,.29Z"/>
      <path d="M938.75,158.17c-.37,0-.7-.09-1-.26-.3-.18-.53-.41-.71-.71-.18-.3-.26-.63-.26-1s.09-.7,.26-1c.18-.3,.41-.53,.71-.71,.3-.18,.63-.26,1-.26s.7,.09,1,.26c.3,.18,.53,.41,.71,.71,.18,.3,.26,.63,.26,1s-.09,.7-.26,1c-.18,.3-.41,.53-.71,.71s-.63,.26-1,.26Z"/>
      <path d="M952.09,139.64c2.67,0,4.74,.43,6.19,1.3,1.46,.86,2.18,2.07,2.18,3.62,0,1.42-.66,2.52-1.99,3.29-1.33,.77-3.18,1.13-5.57,1.08v-.5c2.62-.14,4.66,.18,6.1,.98,1.44,.8,2.16,2.01,2.16,3.62s-.78,2.98-2.35,3.9-3.81,1.38-6.72,1.38-5.13-.46-6.71-1.38-2.36-2.22-2.36-3.9,.72-2.83,2.17-3.64c1.45-.81,3.48-1.13,6.08-.97v.5c-2.37,.05-4.22-.31-5.56-1.08-1.34-.77-2-1.86-2-3.29,0-1.55,.73-2.76,2.18-3.62s3.52-1.3,6.19-1.3Zm0,16.13c1.9,0,3.36-.24,4.37-.73,1.01-.49,1.51-1.21,1.51-2.17s-.5-1.72-1.51-2.18-2.46-.7-4.37-.7-3.36,.23-4.37,.7-1.51,1.19-1.51,2.18,.5,1.68,1.51,2.17c1.01,.49,2.46,.73,4.37,.73Zm0-8.28c1.1,0,2.04-.1,2.82-.29,.78-.19,1.37-.49,1.78-.89,.41-.4,.61-.9,.61-1.49,0-.85-.45-1.5-1.36-1.96-.9-.46-2.19-.68-3.85-.68s-2.93,.23-3.84,.68-1.37,1.11-1.37,1.96c0,.59,.2,1.09,.61,1.49,.41,.4,1,.7,1.78,.89,.78,.19,1.72,.29,2.82,.29Z"/>
      <path d="M970.36,157.98v-13.58h4.63l5.71,12.1h-1.22l5.66-12.1h4.63v13.58h-2.93v-12.55h.82l-6.07,12.55h-3.05l-6.07-12.5,.82-.02v12.53h-2.93Z"/>
      <path d="M993.09,157.98v-13.58h4.63l5.71,12.1h-1.22l5.66-12.1h4.63v13.58h-2.93v-12.55h.82l-6.07,12.55h-3.05l-6.07-12.5,.82-.02v12.53h-2.93Z"/>
    </g>
    <g opacity=".6">
      <path d="M502.26,146.17c.1-1.33,.52-2.48,1.28-3.46,.76-.98,1.77-1.73,3.04-2.27,1.26-.54,2.7-.8,4.32-.8s2.88,.24,4.04,.72c1.16,.48,2.06,1.15,2.71,2.02,.65,.86,.97,1.86,.97,3,0,.88-.21,1.7-.64,2.45-.42,.75-1.12,1.52-2.09,2.29-.97,.78-2.28,1.65-3.92,2.63l-5.98,3.53-.41-.94h13.58v2.64h-16.75v-2.3l7.66-4.66c1.34-.82,2.4-1.52,3.18-2.12,.78-.6,1.33-1.16,1.67-1.69,.34-.53,.5-1.09,.5-1.68,0-.62-.17-1.18-.5-1.68s-.84-.89-1.52-1.18c-.68-.29-1.55-.43-2.6-.43-1.2,0-2.18,.18-2.95,.53s-1.34,.83-1.72,1.43-.6,1.26-.68,1.98h-3.19Z"/>
      <path d="M535.5,139.98v18h-3.17v-16.68h1.3l-10.32,11.47-.07-1.13h15.55v2.54h-18.05v-2.28l10.73-11.93h4.03Z"/>
      <path d="M547.48,157.98v-13.58h4.63l5.71,12.1h-1.22l5.66-12.1h4.63v13.58h-2.93v-12.55h.82l-6.07,12.55h-3.05l-6.07-12.5,.82-.02v12.53h-2.93Z"/>
      <path d="M570.2,157.98v-13.58h4.63l5.71,12.1h-1.22l5.66-12.1h4.63v13.58h-2.93v-12.55h.82l-6.07,12.55h-3.05l-6.07-12.5,.82-.02v12.53h-2.93Z"/>
    </g>
    <g opacity=".6">
      <path d="M271.93,756.96c.1-1.33,.52-2.48,1.28-3.46,.76-.98,1.77-1.73,3.04-2.27,1.26-.54,2.7-.8,4.32-.8s2.88,.24,4.04,.72c1.16,.48,2.06,1.15,2.71,2.02,.65,.86,.97,1.86,.97,3,0,.88-.21,1.7-.64,2.45-.42,.75-1.12,1.52-2.09,2.29-.97,.78-2.28,1.65-3.92,2.63l-5.98,3.53-.41-.94h13.58v2.64h-16.75v-2.3l7.66-4.66c1.34-.82,2.4-1.52,3.18-2.12,.78-.6,1.33-1.16,1.67-1.69,.34-.53,.5-1.09,.5-1.68,0-.62-.17-1.18-.5-1.68s-.84-.89-1.52-1.18c-.68-.29-1.55-.43-2.6-.43-1.2,0-2.18,.18-2.95,.53s-1.34,.83-1.72,1.43-.6,1.26-.68,1.98h-3.19Z"/>
      <path d="M300.27,750.43c1.42,0,2.69,.22,3.79,.65,1.1,.43,2.01,1.02,2.71,1.76s1.14,1.6,1.32,2.56h-3.12c-.26-.66-.74-1.21-1.44-1.67-.7-.46-1.77-.68-3.19-.68s-2.62,.27-3.53,.8-1.58,1.3-2,2.28c-.42,.98-.64,2.16-.64,3.54s.24,2.65,.72,3.67c.48,1.02,1.19,1.8,2.14,2.34,.94,.54,2.11,.8,3.5,.8,1.06,0,1.94-.15,2.65-.44s1.25-.71,1.61-1.24,.54-1.12,.54-1.78-.16-1.18-.48-1.67c-.32-.49-.81-.88-1.48-1.16s-1.52-.43-2.56-.43c-1.39,0-2.68,.34-3.86,1.01s-2.17,1.54-2.95,2.62l-1.34-.98c.53-.98,1.21-1.86,2.05-2.65,.84-.79,1.82-1.42,2.95-1.9,1.13-.47,2.39-.71,3.78-.71s2.67,.24,3.73,.71c1.06,.47,1.89,1.14,2.47,2,.58,.86,.88,1.89,.88,3.07s-.33,2.29-.98,3.22c-.66,.93-1.58,1.65-2.77,2.17-1.19,.52-2.6,.78-4.24,.78-2.06,0-3.8-.4-5.21-1.19-1.41-.79-2.47-1.89-3.18-3.3-.71-1.41-1.07-3.02-1.07-4.85s.35-3.44,1.06-4.85,1.74-2.51,3.11-3.3c1.37-.79,3.04-1.19,5.03-1.19Z"/>
      <path d="M311.02,756.31c.11-1.1,.52-2.1,1.21-2.99,.7-.89,1.67-1.59,2.93-2.11,1.26-.52,2.76-.78,4.5-.78,1.55,0,2.9,.2,4.04,.61,1.14,.41,2.03,.98,2.65,1.7,.62,.73,.94,1.59,.94,2.58,0,.83-.24,1.58-.73,2.24-.49,.66-1.23,1.19-2.22,1.57-.99,.38-2.23,.58-3.72,.58v-.46c1.47-.06,2.74,.07,3.79,.4,1.06,.33,1.87,.82,2.44,1.49s.85,1.48,.85,2.44c0,1.07-.33,2.02-.98,2.86-.66,.83-1.6,1.48-2.84,1.96-1.24,.47-2.76,.71-4.55,.71s-3.26-.25-4.56-.76c-1.3-.5-2.31-1.21-3.04-2.12-.73-.91-1.13-1.98-1.21-3.19h3.19c.14,1.12,.69,1.98,1.63,2.58,.94,.6,2.27,.9,3.98,.9s3-.28,3.86-.84c.86-.56,1.3-1.33,1.3-2.3,0-.58-.15-1.06-.44-1.45-.3-.39-.78-.69-1.46-.9s-1.6-.31-2.75-.31h-3.26v-2.35h3.26c1.49,0,2.57-.24,3.24-.73,.67-.49,1.01-1.12,1.01-1.88,0-.85-.37-1.51-1.12-1.99-.74-.48-1.9-.72-3.47-.72s-2.76,.28-3.66,.85c-.9,.57-1.44,1.38-1.62,2.44h-3.19Z"/>
      <path d="M336.97,768.77v-13.58h4.63l5.71,12.1h-1.22l5.66-12.1h4.63v13.58h-2.93v-12.55h.82l-6.07,12.55h-3.05l-6.07-12.5,.82-.02v12.53h-2.93Z"/>
      <path d="M359.69,768.77v-13.58h4.63l5.71,12.1h-1.22l5.66-12.1h4.63v13.58h-2.93v-12.55h.82l-6.07,12.55h-3.05l-6.07-12.5,.82-.02v12.53h-2.93Z"/>
    </g>
    <g opacity=".6">
      <path d="M1502.96,554.77c.11-1.1,.52-2.1,1.21-2.99,.7-.89,1.67-1.59,2.93-2.11,1.26-.52,2.76-.78,4.5-.78,1.55,0,2.9,.2,4.04,.61,1.14,.41,2.03,.98,2.65,1.7,.62,.73,.94,1.59,.94,2.58,0,.83-.24,1.58-.73,2.24-.49,.66-1.23,1.19-2.22,1.57s-2.23,.58-3.72,.58v-.46c1.47-.06,2.74,.07,3.79,.4,1.06,.33,1.87,.82,2.44,1.49,.57,.66,.85,1.48,.85,2.44,0,1.07-.33,2.02-.98,2.86s-1.6,1.48-2.84,1.96-2.76,.71-4.55,.71-3.26-.25-4.56-.76c-1.3-.5-2.31-1.21-3.04-2.12-.73-.91-1.13-1.98-1.21-3.19h3.19c.14,1.12,.69,1.98,1.63,2.58,.94,.6,2.27,.9,3.98,.9s3-.28,3.86-.84c.86-.56,1.3-1.33,1.3-2.3,0-.58-.15-1.06-.44-1.45-.3-.39-.78-.69-1.46-.9-.68-.21-1.6-.31-2.75-.31h-3.26v-2.35h3.26c1.49,0,2.57-.24,3.24-.73,.67-.49,1.01-1.12,1.01-1.88,0-.85-.37-1.51-1.12-1.99-.74-.48-1.9-.72-3.47-.72s-2.76,.28-3.66,.85c-.9,.57-1.44,1.38-1.62,2.44h-3.19Z"/>
      <path d="M1521.89,555.42c.1-1.33,.52-2.48,1.28-3.46,.76-.98,1.77-1.73,3.04-2.27s2.7-.8,4.32-.8,2.88,.24,4.04,.72c1.16,.48,2.06,1.15,2.71,2.02,.65,.86,.97,1.86,.97,3,0,.88-.21,1.7-.64,2.45-.42,.75-1.12,1.52-2.09,2.29-.97,.78-2.28,1.65-3.92,2.63l-5.98,3.53-.41-.94h13.58v2.64h-16.75v-2.3l7.66-4.66c1.34-.82,2.4-1.52,3.18-2.12,.78-.6,1.33-1.16,1.67-1.69,.34-.53,.5-1.09,.5-1.68,0-.62-.17-1.18-.5-1.68s-.84-.89-1.52-1.18c-.68-.29-1.55-.43-2.6-.43-1.2,0-2.18,.18-2.95,.53-.77,.35-1.34,.83-1.72,1.43s-.6,1.26-.68,1.98h-3.19Z"/>
      <path d="M1547.84,567.22v-13.58h4.63l5.71,12.1h-1.22l5.66-12.1h4.63v13.58h-2.93v-12.55h.82l-6.07,12.55h-3.05l-6.07-12.5,.82-.02v12.53h-2.93Z"/>
      <path d="M1570.56,567.22v-13.58h4.63l5.71,12.1h-1.22l5.66-12.1h4.63v13.58h-2.93v-12.55h.82l-6.07,12.55h-3.05l-6.07-12.5,.82-.02v12.53h-2.93Z"/>
    </g>
    <g opacity=".5">
      <g>
        <line x1="908.03" y1="1084.56" x2="917.02" y2="1084.59" fill="none" stroke="#000" stroke-miterlimit="10" stroke-width="1.8"/>
        <line x1="934.83" y1="1084.63" x2="1460.22" y2="1085.87" fill="none" stroke="#000" stroke-dasharray="0 0 17.81 17.81" stroke-miterlimit="10" stroke-width="1.8"/>
        <polyline points="1469.12 1085.89 1478.11 1085.91 1478.11 1076.92" fill="none" stroke="#000" stroke-miterlimit="10" stroke-width="1.8"/>
        <line x1="1478.1" y1="1059.4" x2="1477.95" y2="647.78" fill="none" stroke="#000" stroke-dasharray="0 0 17.52 17.52" stroke-miterlimit="10" stroke-width="1.8"/>
        <polyline points="1477.95 639.02 1477.95 630.03 1468.96 630.04" fill="none" stroke="#000" stroke-miterlimit="10" stroke-width="1.8"/>
        <line x1="1451.01" y1="630.06" x2="921.6" y2="630.78" fill="none" stroke="#000" stroke-dasharray="0 0 17.95 17.95" stroke-miterlimit="10" stroke-width="1.8"/>
        <line x1="912.62" y1="630.79" x2="903.63" y2="630.81" fill="none" stroke="#000" stroke-miterlimit="10" stroke-width="1.8"/>
      </g>
    </g>
    <g opacity=".6">
      <path d="M1511.43,848.57v18h-3.17v-17.04l1.73,1.54-7.54,1.32v-2.52l6.6-1.3h2.38Z"/>
      <path d="M1523.96,848.24c1.42,0,2.69,.22,3.79,.65,1.1,.43,2.01,1.02,2.71,1.76s1.14,1.6,1.32,2.56h-3.12c-.26-.66-.74-1.21-1.44-1.67s-1.77-.68-3.19-.68-2.62,.27-3.53,.8-1.58,1.3-2,2.28c-.42,.98-.64,2.16-.64,3.54s.24,2.65,.72,3.67c.48,1.02,1.19,1.8,2.14,2.34s2.11,.8,3.5,.8c1.06,0,1.94-.15,2.65-.44s1.25-.71,1.61-1.24c.36-.53,.54-1.12,.54-1.78s-.16-1.18-.48-1.67c-.32-.49-.81-.88-1.48-1.16s-1.52-.43-2.56-.43c-1.39,0-2.68,.34-3.86,1.01-1.18,.67-2.17,1.54-2.95,2.62l-1.34-.98c.53-.98,1.21-1.86,2.05-2.65,.84-.79,1.82-1.42,2.95-1.9,1.13-.47,2.39-.71,3.78-.71s2.67,.24,3.73,.71c1.06,.47,1.89,1.14,2.47,2,.58,.86,.88,1.89,.88,3.07s-.33,2.29-.98,3.22c-.66,.93-1.58,1.65-2.77,2.17-1.19,.52-2.6,.78-4.24,.78-2.06,0-3.8-.4-5.21-1.19s-2.47-1.89-3.18-3.3c-.71-1.41-1.07-3.02-1.07-4.85s.35-3.44,1.06-4.85,1.74-2.51,3.11-3.3,3.04-1.19,5.03-1.19Z"/>
      <path d="M1544.07,866.91c-1.97,0-3.66-.39-5.09-1.16-1.42-.78-2.52-1.86-3.29-3.26-.77-1.4-1.15-3.04-1.15-4.91s.38-3.51,1.15-4.91c.77-1.4,1.86-2.49,3.29-3.26,1.42-.78,3.12-1.16,5.09-1.16s3.66,.39,5.08,1.16,2.51,1.86,3.28,3.26c.77,1.4,1.15,3.04,1.15,4.91s-.38,3.51-1.15,4.91c-.77,1.4-1.86,2.49-3.28,3.26-1.42,.78-3.11,1.16-5.08,1.16Zm0-2.62c2,0,3.55-.59,4.66-1.76,1.1-1.18,1.66-2.83,1.66-4.96s-.55-3.78-1.66-4.96c-1.1-1.18-2.66-1.76-4.66-1.76s-3.56,.59-4.67,1.76c-1.11,1.18-1.67,2.83-1.67,4.96s.56,3.78,1.67,4.96c1.11,1.18,2.67,1.76,4.67,1.76Z"/>
      <path d="M1562.79,866.57v-13.58h4.63l5.71,12.1h-1.22l5.66-12.1h4.63v13.58h-2.93v-12.55h.82l-6.07,12.55h-3.05l-6.07-12.5,.82-.02v12.53h-2.93Z"/>
      <path d="M1585.51,866.57v-13.58h4.63l5.71,12.1h-1.22l5.66-12.1h4.63v13.58h-2.93v-12.55h.82l-6.07,12.55h-3.05l-6.07-12.5,.82-.02v12.53h-2.93Z"/>
    </g>
  </g>
</svg>