<?xml version="1.0" encoding="UTF-8"?>
<svg id="_Слой_2_копия_" data-name="Слой 2 (копия)" xmlns="http://www.w3.org/2000/svg" viewBox="0 0 811.74 458.03">
  <g>
    <rect x="199.81" y="155.58" width="425.2" height="127.56" fill="#221e1f"/>
    <path d="M494.46,202.31l-1.33,2.99s-.64,18.45,.2,20.58,2.17,3.98,2.17,3.98l85.33-2.04s3.65-7,3.08-12.33-8.97-19.35-8.97-19.35l-77.48,2.22-3,3.95Z" fill="#f2f1f0"/>
    <g>
      <g>
        <g>
          <path d="M272.66,227c-6.83,1.57,3-21.87,2.92-25.68-4.89,7.15-8.63,18.57-17.05,22.55-8.36-.13-.41-15.72-.46-19.94-4.78,7.09-8.73,16.81-13.76,23.52-4.19-1.25-1.48-6.36,.34-8.44,3.46-6.34,8.21-14.24,11.92-19.99,.86-1.58,1.88-4.72,4.03-3.65,6.34,3.11-2.22,17.88-1.13,23.14,5.98-5.96,9.28-14.19,14.48-21.5,1.38-2.49,3.21-4.25,5.61-1.81,2.88,2.35-1.9,12.82-2.49,16.6-1.11,3.3-1.33,5.69-2.06,8.98-.25,2.3,.24,5.52-2.35,6.22Z" fill="#f2f1f0"/>
          <path d="M298.6,229.05c-1.46-.56-2.46-1.59-2.11-3.09,3.69-7.2,6.99-16.75,10.26-24.64-6.32,6.73-12.35,14.56-19.11,20.8-1.56,1.33-3.46,3.22-5.49,3.83-2.11-.35-3.07-1.06-2.61-2.84,2.9-9.52,5.34-19.03,10.19-27.88,.69-1.06,.1-2.02,1.01-2.63,2.28-1.04,4.27,1.52,3.31,3.54-2.66,6.2-6.92,17.04-9.49,23.18,2.49-2.42,10.83-9.93,12.76-12.57,3.34-4.14,8.79-8.81,12.42-12.7,1.5-.83,3.07-.47,3.57,1.2-2.28,8.42-7.23,16.93-9.78,25.5-.93,1.58-2.65,9.52-4.92,8.28Z" fill="#f2f1f0"/>
          <path d="M310.74,226.96c-1.86-.79-1.58-2.5-1.15-4.08,2.89-8.12,5.79-17.06,9.78-24.95,.45-.5,.81-2.14,1.44-2.68,2.35-1.35,3.57-.38,3.69,1.84-1.36,3.66-4.14,7.94-5.23,11.68-1.24,2.83-2.75,6.23-3.64,9.37-.9,1.51-2.39,11.32-4.89,8.82Zm5.85-17.42c3.24-1.26,20.59-18.38,21.79-12.68,.66,1.39,.43,1.95-1.08,2.7-4.3,2.19-7.97,5.63-11.56,7.85-2.13,2.05-5.27,3.42-7.43,5.53l-1.73-3.4Zm11.12,17.33c-5.87-2.04-9.22-8.87-10.26-14.38,0,0,.05-2.81,.05-2.81l3.5-.23c.59,5.17,3.03,11.31,8.1,13.38,3.45,.77,1.99,5.92-1.39,4.04Z" fill="#f2f1f0"/>
          <path d="M339.54,226.41c-7.58-3.93-1.94-18.01,1.58-23.82,2.34-3.97,6.62-7.3,10.45-8.08,19.37-3.91,1.74,38.37-12.04,31.89Zm9.87-15.38c3.62,0,9.59-12.61,3.83-12.37-2.8,1.13-8.41,11.56-3.83,12.37Z" fill="#df2f34" stroke="#f2f0ef" stroke-miterlimit="10" stroke-width=".74"/>
          <path d="M366.53,227.82c-14.91-4.9,2.57-38.04,15.1-34.32,5.99,2.27,.77,14.79-2.56,13.36-.86-.22-2.59-1.4-1.99-2.04,.81-1,1.93-2.97,2.4-4.17,3.46-12.07-15.21,8.58-14,17.26-.92,10.71,8.22,3.25,13.38,1.2,6.24,2.11-9.57,9.98-12.32,8.71Z" fill="#f2f1f0"/>
        </g>
        <g>
          <path d="M240.92,236.24h8.5v1.38h-8.5v-1.38Zm3.33,.61h1.84v7.05h-1.84v-7.05Z" fill="#f2f1f0"/>
          <path d="M255,244.09c-3.47,.26-6.1-3.28-4.24-6.13,2.44-3.61,8.91-1.78,8.41,2.73h-7.55v-1.34h6.63l-.92,.5c.1-2.53-3.71-3.3-4.95-1.24-1.91,3.96,3.94,5.16,6.56,3.04v1.27c-1.03,.76-2.59,1.17-3.94,1.16Z" fill="#f2f1f0"/>
          <path d="M269.11,240.07c-.48,5.03-8.61,5.42-8.47,0-.15-5.42,8.02-5.03,8.47,0Zm-6.6,0c0,3.7,5.22,3.07,5.95,0-.73-3.07-5.95-3.7-5.95,0Zm6.04,3.83l-.31-2.84,.37-.99-.37-.97,.31-2.86h1.9l-.43,3.83,.43,3.83h-1.9Z" fill="#f2f1f0"/>
          <path d="M271.8,236.24h8.5v1.38h-8.5v-1.38Zm3.33,.61h1.84v7.05h-1.84v-7.05Z" fill="#f2f1f0"/>
          <path d="M281.84,236.24h1.84c-.07,2.8,0,7.05,0,9.9h-1.84v-9.9Zm1.13,3.83c.47-5.03,8.62-5.42,8.47,0,.13,5.43-7.98,5.02-8.47,0Zm6.6,0c0-3.7-5.2-3.06-5.95,0,.75,3.06,5.94,3.7,5.95,0Z" fill="#f2f1f0"/>
          <path d="M297.12,243.9v-7.66h1.84v6.17l-.55-.19,5.12-5.98h2.1l-6.8,7.66h-1.7Zm6.6,0l-2.49-3.79,1.29-1.11,3.36,4.9h-2.15Z" fill="#f2f1f0"/>
          <path d="M308.58,236.24h7.89v7.66h-1.84v-7.12l.85,.81h-5.98l.79-.62c.41,2.93,.56,8.58-3.94,6.74v-1.31c3.53,1.15,2.27-4.13,2.22-6.16Z" fill="#f2f1f0"/>
          <path d="M323.24,244.09c-6.42,.29-6.42-8.33,0-8.04,6.42-.29,6.42,8.33,0,8.04Zm0-1.38c3.96,.29,3.96-5.57,0-5.28-3.96-.28-3.96,5.56,0,5.28Z" fill="#f2f1f0"/>
          <path d="M332.43,243.66l-3.68-7.42h2.03l3.49,7.42h-1.83Zm-.92,2.67c-.89,0-1.64-.21-2.35-.64v-1.34c1.22,.78,3.24,1.06,3.91-.5,0,0,3.61-7.61,3.61-7.61h1.96c-1.49,1.9-3.72,10.48-7.13,10.09Z" fill="#f2f1f0"/>
          <path d="M340.1,236.24h1.83v7.66h-1.83v-7.66Zm1.03,3.1h6.55v1.35h-6.55v-1.35Zm5.78-3.1h1.83v7.66h-1.83v-7.66Z" fill="#f2f1f0"/>
          <path d="M359.12,240.07c-.48,5.03-8.61,5.42-8.47,0-.15-5.42,8.02-5.03,8.47,0Zm-6.6,0c0,3.7,5.22,3.07,5.95,0-.73-3.07-5.95-3.7-5.95,0Zm6.04,3.83l-.31-2.84,.37-.99-.37-.97,.31-2.86h1.9l-.43,3.83,.43,3.83h-1.9Z" fill="#f2f1f0"/>
          <path d="M372.99,242.55v3.29h-1.6v-1.94h-8.02v1.94h-1.6v-3.29c3.12,.03,8.1,.03,11.22,0Zm-9.44-6.31h7.95v7.15h-1.84v-6.61l.85,.81h-5.99l.79-.6c.12,2.12,.61,5.99-2.01,6.39l-.75-.61c1.34-.74,1.27-4.64,1.01-6.54Z" fill="#f2f1f0"/>
          <path d="M374.71,243.9v-7.66h1.84v7.17l-.65-.81c1.27-.22,5.11,.77,5.03-1.34,.1-2.11-3.71-1.15-4.97-1.35v-1.26c1.18,.08,4.29-.24,5.31,.33,2.03,.81,2.03,3.79,0,4.6-1.05,.6-5.34,.23-6.56,.32Zm9.01-7.66h1.84v7.66h-1.84v-7.66Z" fill="#f2f1f0"/>
        </g>
      </g>
      <g>
        <path d="M495.07,229.16c0-.1-.01-.06,0-.04,.06,.12,.13,.25,.2,.37,3.02,5.08,7.21,9.13,12.28,12.39,7.6,4.89,16.06,7.44,25.17,8.18,4.73,.38,9.44,.23,14.12-.52,.48-.08,.86,0,1.26,.3,2.51,1.83,5.03,3.64,7.56,5.44,1.34,.96,2.65,1.98,4.07,2.81,1.86,1.09,3.8,.4,4.49-1.55,.36-1.03,.54-2.11,.76-3.18,.75-3.56,1.47-7.13,2.22-10.69,.06-.27,.21-.6,.43-.77,1.6-1.23,3.31-2.35,4.84-3.66,4.95-4.25,8.56-9.33,10.35-15.49,.22-.76,.39-1.53,.61-2.37-1.31,.48-2.49,.91-3.7,1.36-.27-.7-.52-1.34-.78-2.01,.66-.39,1.31-.77,1.98-1.16-.06-.1-.12-.19-.17-.27-.95-1.36-1.9-2.71-2.84-4.07-.6-.86-.6-.87-1.62-.5-1.97,.72-3.94,1.46-5.97,2.21,.31,2.08,.61,4.15,.91,6.22,.79-.14,1.5-.26,2.24-.39,.32,.77,.63,1.5,.95,2.25-1.54,.8-2.99,1.61-4.5,2.31-.91,.42-1.91,.66-2.88,.94-.15,.04-.49-.1-.55-.24-.35-.76-.64-1.54-.96-2.32,.44-.26,.84-.54,1.27-.76,.37-.18,.41-.4,.36-.76-.19-1.18-.35-2.37-.51-3.55-.39-2.83-.78-5.67-1.16-8.5-.28-2.01-.55-4.02-.83-6.03-.09-.66-.2-1.31-.3-2-.86,.36-1.64,.7-2.45,1.04-.37-.77-.73-1.51-1.1-2.27,3.81-1.2,7.57-2.38,11.35-3.57,3.89,5.9,7.77,11.79,11.65,17.67,.11-.18,.11-.32,.11-.46,.04-4.76-1.08-9.27-3.35-13.51-3.05-5.7-7.58-10.15-13.14-13.69-7.79-4.97-16.48-7.44-25.79-8.11-.9-.06-1.8-.13-2.69-.11-2.08,.06-4.15,.17-6.22,.28-1.13,.06-2.27,.1-3.39,.25-5.18,.71-10.18,2.04-14.93,4.15-6.41,2.84-11.96,6.73-16.32,12.06-1.38,1.68-2.57,3.48-3.61,5.49,1.4-.18,2.72-.36,4.03-.53,1.92-.26,3.84-.52,5.76-.79,.33-.05,.46,.05,.59,.35,2.84,6.72,5.7,13.44,8.54,20.16,.13,.31,.28,.43,.63,.41,.54-.03,1.09,0,1.65,0,.14,.75,.27,1.46,.39,2.16-2.79,.52-5.48,1.03-8.21,1.54-.14-.77-.27-1.44-.4-2.14,.74-.28,1.47-.56,2.21-.84-.9-1.96-1.78-3.89-2.67-5.81-2.52,.47-4.97,.94-7.44,1.4-.09,2.13-.17,4.23-.26,6.35h2.32c.17,.8,.34,1.58,.53,2.45-2.38,.72-4.71,1.42-7.07,2.13Zm-1.56-3.16c.31-.12,.59-.25,.88-.32,.52-.12,.63-.42,.64-.9,.05-1.76,.15-3.51,.23-5.27,.07-1.5,.15-2.99,.21-4.49,.04-1.16,.05-2.32,.1-3.47,.05-1.12,.15-2.23,.22-3.35,.05-.77,.08-1.54,.12-2.31,.02-.47,.05-.94,.07-1.45-.93,.2-1.79,.37-2.64,.56-.08,.02-.16,.13-.2,.21-.93,2.41-1.53,4.9-1.77,7.46-.25,2.67-.09,5.33,.44,7.96,.37,1.83,.93,3.62,1.68,5.37Zm5.82-10.44c2.3-.46,4.44-.88,6.63-1.31-.51-3.33-2.17-6.25-3.18-9.38-1.07,.19-2.05,.37-3.04,.55-.28,.05-.39,.18-.4,.45-.04,1.04-.1,2.07-.15,3.11-.05,1.21-.14,2.43-.12,3.64,.01,.96,.17,1.91,.27,2.95Zm76.49-4.56c-1.12-3.16-3.24-5.72-4.8-8.59-1.1,.41-2.13,.79-3.18,1.18,.32,2.26,.59,4.49,.96,6.71,.17,1.02,.54,2.02,.82,3.07,2.16-.83,4.17-1.6,6.21-2.38Z" fill="#fefefe"/>
        <path d="M495.07,229.16c2.36-.71,4.68-1.41,7.07-2.13-.19-.86-.36-1.65-.53-2.45h-2.32c.09-2.12,.17-4.22,.26-6.35,2.47-.47,4.92-.93,7.44-1.4,.88,1.93,1.77,3.85,2.67,5.81-.74,.28-1.47,.56-2.21,.84,.13,.7,.26,1.38,.4,2.14,2.72-.51,5.42-1.01,8.21-1.54-.13-.7-.26-1.4-.39-2.16-.56,0-1.11-.02-1.65,0-.35,.02-.5-.11-.63-.41-2.84-6.72-5.7-13.44-8.54-20.16-.13-.3-.26-.4-.59-.35-1.92,.27-3.84,.53-5.76,.79-1.32,.18-2.63,.35-4.03,.53,1.04-2,2.23-3.8,3.61-5.49,4.36-5.32,9.91-9.22,16.32-12.06,4.75-2.1,9.75-3.43,14.93-4.15,1.12-.15,2.26-.19,3.39-.25,2.07-.11,4.15-.22,6.22-.28,.89-.03,1.8,.04,2.69,.11,9.31,.67,18,3.14,25.79,8.11,5.55,3.54,10.08,7.99,13.14,13.69,2.27,4.24,3.39,8.75,3.35,13.51,0,.14,0,.27-.11,.46-3.88-5.88-7.76-11.77-11.65-17.67-3.78,1.19-7.53,2.37-11.35,3.57,.37,.76,.73,1.5,1.1,2.27,.81-.34,1.59-.68,2.45-1.04,.1,.69,.21,1.34,.3,2,.28,2.01,.56,4.02,.83,6.03,.39,2.83,.77,5.67,1.16,8.5,.16,1.18,.32,2.37,.51,3.55,.06,.35,0,.58-.36,.76-.44,.21-.83,.49-1.27,.76,.32,.79,.61,1.57,.96,2.32,.06,.14,.4,.28,.55,.24,.97-.28,1.97-.52,2.88-.94,1.51-.69,2.96-1.51,4.5-2.31-.32-.76-.62-1.48-.95-2.25-.73,.13-1.45,.25-2.24,.39-.3-2.07-.61-4.13-.91-6.22,2.03-.75,3.99-1.49,5.97-2.21,1.02-.37,1.02-.36,1.62,.5,.95,1.36,1.9,2.71,2.84,4.07,.06,.08,.11,.17,.17,.27-.67,.39-1.32,.77-1.98,1.16,.26,.67,.51,1.32,.78,2.01,1.21-.45,2.39-.88,3.7-1.36-.22,.85-.39,1.62-.61,2.37-1.78,6.16-5.39,11.24-10.35,15.49-1.53,1.31-3.24,2.43-4.84,3.66-.22,.17-.37,.49-.43,.77-.75,3.56-1.47,7.13-2.22,10.69-.22,1.07-.4,2.15-.76,3.18-.69,1.95-2.63,2.64-4.49,1.55-1.42-.84-2.73-1.85-4.07-2.81-2.53-1.8-5.05-3.61-7.56-5.44-.4-.29-.78-.38-1.26-.3-4.68,.75-9.39,.9-14.12,.52-9.11-.73-17.57-3.29-25.17-8.18-5.06-3.26-9.26-7.31-12.28-12.39-.07-.12-.14-.24-.2-.37-.01-.03,0-.06,0,.04Zm34.08-23.36s.09,0,.13,0c.82,4.12,1.63,8.23,2.45,12.36-.58,.28-1.12,.54-1.64,.81-.13,.07-.32,.22-.3,.31,.11,.71,.27,1.41,.41,2.11,3.13-.59,6.17-1.16,9.22-1.73-.11-.66-.21-1.25-.31-1.85-.05-.29-.17-.45-.53-.45-.62-.01-1.23-.09-1.85-.15-1.48-7.23-2.96-14.44-4.45-21.67-1.55,.29-3.03,.61-4.53,.83-.64,.09-.94,.39-1.18,.9-1.53,3.38-3.07,6.76-4.61,10.14-.14,.3-.27,.61-.4,.91-.03,0-.07-.02-.1-.02-.72-3.45-1.43-6.9-2.15-10.38-2.45,.24-4.84,.47-7.25,.71,.24,1.13,.46,2.17,.68,3.22h2.27c.43,2.11,.84,4.2,1.27,6.28,.83,4.02,1.66,8.05,2.5,12.07,.06,.3-.02,.44-.29,.56-.56,.25-1.1,.53-1.67,.81,.16,.75,.31,1.48,.46,2.24,3.11-.59,6.18-1.16,9.26-1.74-.15-.79-.28-1.5-.42-2.25-.76-.06-1.5-.12-2.29-.19,1.79-4.65,3.55-9.25,5.32-13.85Zm24.03-.5c-5.14,1.64-10.24,3.27-15.36,4.91,.38,.76,.73,1.47,1.1,2.21,.85-.35,1.64-.69,2.48-1.04,.31,2.22,.64,4.38,.91,6.54,.41,3.28,.8,6.55,1.18,9.83,.15,1.27,.24,2.54,.36,3.81,.03,.34-.08,.62-.42,.82-.39,.24-.75,.55-1.13,.83,1.12,2.17,2.22,4.3,3.32,6.41,1.15-.49,2.25-.95,3.36-1.42-.27-1.35-.54-2.67-.81-4.02,4.19-1.55,8.36-3.1,12.55-4.65,.7,1.32,1.38,2.59,2.08,3.91,1.2-.56,2.35-1.1,3.49-1.64,0-.09,.01-.14,0-.19-.63-2.09-1.25-4.19-1.9-6.27-.04-.12-.28-.25-.43-.25-.47,0-.95,.05-1.42,.1-.33,.04-.47-.07-.6-.36-1.66-3.73-3.33-7.44-5.01-11.16-1.26-2.81-2.53-5.62-3.76-8.36Zm-35.88-9.78c3.72-.5,7.37-.99,11.02-1.48,.04-.74,.08-1.42,.13-2.12-3.7,.06-7.32,.11-10.99,.17-.05,1.16-.11,2.28-.16,3.44Zm-2.99,40.21c.05,.25,.1,.49,.15,.74-.05-.01-.11-.03-.16-.04-.1,.25-.2,.5-.33,.84,.88-.16,1.57-.28,2.33-.42-.07-.2-.12-.49-.17-.49-.67,0-.52-.49-.6-.87,.26-.04,.51-.08,.76-.13,1.04-.21,1.68-.83,1.7-1.64,.02-1.03-.66-1.85-1.68-2.19-.6-.2-1.33,.12-1.84-.41-.02-.02-.11,0-.16,0-.25,.03-.5,.07-.76,.1-.1,.26-.27,.45-.47,.58-.44,.3-.96,.51-1.35,.86-.62,.55-.72,1.53-.3,2.32,.36,.68,1.01,.85,1.76,.8,.36-.02,.72-.05,1.13-.07Zm8.92-1.87c-.27,.04-.47,.06-.66,.09-.06,.43-.12,.81-.17,1.2-.71,.05-1.38,.09-2.05,.14-.11-.64-.2-1.19-.3-1.75,.6-.11,1.14-.21,1.72-.31-.06-.21-.11-.4-.17-.62-.58,.09-1.12,.18-1.69,.27-.12-.6-.23-1.17-.35-1.77,.67-.18,1.31-.36,1.97-.54,.2,.36,.38,.7,.58,1.06,.21-.03,.41-.06,.68-.1-.23-.6-.43-1.15-.63-1.67-1.51,.21-2.97,.42-4.44,.63,.04,.22,.07,.44,.11,.67,.19,.03,.36,.05,.55,.08,.28,1.48,.56,2.93,.84,4.39-.05-.01-.09-.03-.14-.04-.11,.25-.23,.49-.4,.86,1.65-.29,3.1-.54,4.56-.8v-1.79Zm4.08-5.17c-.71,.17-1.35,.31-1.98,.47-1.11,.28-1.83,.91-1.98,2.03-.15,1.13,0,2.21,.59,3.21,.38,.64,1,1.02,1.77,.92,.84-.1,1.67-.35,2.49-.55,.12-.03,.28-.2,.29-.31,.03-.49,.01-.98,.01-1.48q-.67,.06-.88,1.34c-.52,0-1.07,.06-1.6-.02-.3-.05-.67-.28-.83-.53-.57-.89-.76-1.88-.47-2.89,.24-.81,1.03-.98,1.76-1.12,.63-.12,.45,.56,.74,.79,.03,.02,.05,.05,.09,.09,.19-.03,.4-.07,.65-.11-.23-.65-.45-1.25-.67-1.85Zm5.94,5.22c.04-.06,.07-.11,.11-.17-.17-.14-.34-.27-.49-.42-.11-.11-.24-.23-.27-.37-.19-.88-.35-1.77-.51-2.65-.09-.45-.17-.91-.26-1.39,.51-.13,.96-.25,1.41-.36,.21,.39,.39,.73,.58,1.07,.23-.05,.42-.08,.65-.13-.21-.59-.42-1.15-.61-1.68-1.88,.29-3.68,.56-5.49,.84v1.93c.25-.05,.45-.09,.68-.14,.04-.38,.08-.74,.12-1.09,.51-.09,.97-.17,1.46-.25,.27,1.4,.55,2.72,.78,4.05,.03,.16-.16,.36-.26,.53-.03,.05-.1,.08-.16,.13,.05,.15,.1,.28,.16,.44,.72-.12,1.41-.24,2.11-.36Z" fill="#da1213"/>
        <path d="M493.51,226c-.76-1.75-1.31-3.54-1.68-5.37-.54-2.63-.69-5.29-.44-7.96,.24-2.56,.84-5.05,1.77-7.46,.03-.08,.12-.2,.2-.21,.85-.19,1.7-.36,2.64-.56-.03,.5-.05,.98-.07,1.45-.04,.77-.07,1.54-.12,2.31-.07,1.12-.17,2.23-.22,3.35-.05,1.16-.05,2.32-.1,3.47-.06,1.5-.14,2.99-.21,4.49-.08,1.76-.19,3.51-.23,5.27-.01,.48-.13,.78-.64,.9-.3,.07-.57,.21-.88,.32Z" fill="#da1213"/>
        <path d="M499.33,215.56c-.1-1.03-.25-1.99-.27-2.95-.02-1.21,.07-2.42,.12-3.64,.04-1.04,.11-2.07,.15-3.11,0-.28,.12-.4,.4-.45,.99-.17,1.97-.35,3.04-.55,1.01,3.13,2.67,6.05,3.18,9.38-2.19,.43-4.33,.86-6.63,1.31Z" fill="#da1213"/>
        <path d="M575.82,211.01c-2.04,.78-4.04,1.55-6.21,2.38-.29-1.05-.65-2.05-.82-3.07-.37-2.22-.64-4.45-.96-6.71,1.05-.39,2.08-.77,3.18-1.18,1.56,2.87,3.68,5.43,4.8,8.59Z" fill="#da1213"/>
        <path d="M529.16,205.8c-1.77,4.6-3.53,9.2-5.32,13.85,.79,.07,1.53,.13,2.29,.19,.14,.75,.27,1.46,.42,2.25-3.08,.58-6.15,1.16-9.26,1.74-.16-.76-.31-1.49-.46-2.24,.57-.28,1.12-.55,1.67-.81,.27-.12,.36-.27,.29-.56-.84-4.02-1.67-8.04-2.5-12.07-.43-2.09-.84-4.17-1.27-6.28h-2.27c-.22-1.06-.44-2.1-.68-3.22,2.41-.24,4.8-.47,7.25-.71,.72,3.47,1.44,6.92,2.15,10.38,.03,0,.07,.02,.1,.02,.13-.3,.27-.61,.4-.91,1.54-3.38,3.08-6.76,4.61-10.14,.23-.51,.54-.81,1.18-.9,1.5-.22,2.98-.54,4.53-.83,1.49,7.24,2.97,14.45,4.45,21.67,.62,.05,1.24,.13,1.85,.15,.36,0,.48,.17,.53,.45,.1,.6,.2,1.19,.31,1.85-3.05,.57-6.09,1.14-9.22,1.73-.14-.7-.3-1.4-.41-2.11-.01-.09,.17-.24,.3-.31,.53-.27,1.07-.53,1.64-.81-.82-4.13-1.63-8.25-2.45-12.36-.04,0-.09,0-.13,0Z" fill="#fefefe"/>
        <path d="M553.18,205.29c1.23,2.73,2.49,5.55,3.76,8.36,1.67,3.72,3.35,7.44,5.01,11.16,.13,.29,.27,.4,.6,.36,.47-.06,.95-.1,1.42-.1,.15,0,.39,.13,.43,.25,.65,2.09,1.27,4.18,1.9,6.27,.01,.05,0,.1,0,.19-1.14,.53-2.3,1.08-3.49,1.64-.7-1.32-1.38-2.59-2.08-3.91-4.19,1.55-8.36,3.1-12.55,4.65,.27,1.34,.54,2.66,.81,4.02-1.11,.47-2.21,.93-3.36,1.42-1.09-2.11-2.19-4.24-3.32-6.41,.38-.29,.74-.59,1.13-.83,.34-.21,.45-.48,.42-.82-.11-1.27-.21-2.54-.36-3.81-.38-3.28-.77-6.56-1.18-9.83-.27-2.16-.6-4.31-.91-6.54-.84,.35-1.64,.69-2.48,1.04-.37-.74-.72-1.45-1.1-2.21,5.12-1.63,10.23-3.27,15.36-4.91Zm-3.8,24.85c3.07-1.15,5.97-2.24,8.87-3.33-2.65-5.71-5.29-11.37-7.93-17.05-1.59,.7-3.1,1.39-4.64,2.04-.39,.16-.47,.35-.39,.7,.46,2.13,.92,4.27,1.37,6.4,.57,2.69,1.11,5.4,1.72,8.08,.24,1.05,.64,2.07,.99,3.16Z" fill="#fefefe"/>
        <path d="M517.31,195.51c.05-1.16,.11-2.28,.16-3.44,3.66-.06,7.28-.11,10.99-.17-.04,.7-.08,1.38-.13,2.12-3.65,.49-7.3,.98-11.02,1.48Z" fill="#fefefe"/>
        <path d="M514.31,235.72c-.41,.03-.77,.05-1.13,.07-.74,.04-1.4-.12-1.76-.8-.42-.79-.32-1.77,.3-2.32,.39-.35,.91-.56,1.35-.86,.2-.13,.37-.32,.47-.58,.25-.03,.5-.07,.76-.1,.05,0,.14-.03,.16,0,.51,.54,1.24,.21,1.84,.41,1.02,.34,1.69,1.17,1.68,2.19-.01,.81-.65,1.43-1.7,1.64-.25,.05-.5,.09-.76,.13,.08,.38-.07,.87,.6,.87,.05,0,.1,.29,.17,.49-.76,.14-1.45,.26-2.33,.42,.14-.34,.24-.59,.33-.84,.05,.01,.11,.03,.16,.04-.05-.25-.1-.49-.15-.74Zm-.52-2.78c-.58,.1-1.17,.16-1.29,.75-.07,.31,.02,.75,.23,.99,.36,.42,.91,.29,1.44,.2-.13-.66-.25-1.27-.38-1.94Zm1.57,1.7c.25-.05,.41-.07,.56-.12,.62-.2,.92-.7,.73-1.2-.17-.46-.92-.74-1.45-.53-.09,.04-.19,.21-.17,.31,.08,.51,.2,1.01,.32,1.55Z" fill="#fefefe"/>
        <path d="M523.23,233.85v1.79c-1.46,.26-2.91,.51-4.56,.8,.17-.37,.29-.61,.4-.86,.05,.01,.09,.03,.14,.04-.28-1.46-.56-2.92-.84-4.39-.19-.03-.36-.05-.55-.08-.04-.23-.08-.45-.11-.67,1.47-.21,2.93-.41,4.44-.63,.2,.53,.4,1.07,.63,1.67-.27,.04-.47,.07-.68,.1-.2-.37-.38-.7-.58-1.06-.66,.18-1.3,.36-1.97,.54,.12,.6,.23,1.17,.35,1.77,.57-.09,1.11-.18,1.69-.27,.06,.21,.11,.4,.17,.62-.58,.11-1.12,.2-1.72,.31,.1,.56,.19,1.12,.3,1.75,.67-.05,1.33-.09,2.05-.14,.06-.39,.11-.78,.17-1.2,.19-.03,.4-.05,.66-.09Z" fill="#fefefe"/>
        <path d="M527.31,228.68c.22,.6,.43,1.2,.67,1.85-.25,.04-.45,.07-.65,.11-.04-.04-.06-.07-.09-.09-.29-.23-.11-.91-.74-.79-.74,.14-1.53,.32-1.76,1.12-.3,1.01-.1,2,.47,2.89,.16,.25,.52,.48,.83,.53,.52,.09,1.08,.02,1.6,.02q.21-1.29,.88-1.34c0,.5,.02,.99-.01,1.48,0,.11-.17,.28-.29,.31-.82,.21-1.65,.45-2.49,.55-.76,.09-1.39-.28-1.77-.92-.59-1-.75-2.08-.59-3.21,.15-1.12,.88-1.75,1.98-2.03,.63-.16,1.27-.3,1.98-.47Z" fill="#fefefe"/>
        <path d="M533.25,233.9c-.7,.12-1.39,.24-2.11,.36-.06-.17-.1-.29-.16-.44,.06-.05,.13-.08,.16-.13,.1-.17,.29-.37,.26-.53-.23-1.33-.5-2.65-.78-4.05-.49,.08-.96,.17-1.46,.25-.04,.35-.08,.71-.12,1.09-.22,.05-.43,.09-.68,.14v-1.93c1.81-.28,3.61-.55,5.49-.84,.19,.52,.39,1.09,.61,1.68-.23,.05-.42,.09-.65,.13-.19-.35-.36-.68-.58-1.07-.45,.11-.9,.23-1.41,.36,.09,.48,.17,.93,.26,1.39,.17,.88,.33,1.77,.51,2.65,.03,.13,.16,.26,.27,.37,.15,.15,.33,.28,.49,.42-.04,.06-.07,.11-.11,.17Z" fill="#fefefe"/>
        <path d="M549.38,230.15c-.35-1.09-.75-2.11-.99-3.16-.61-2.69-1.15-5.39-1.72-8.08-.45-2.13-.91-4.27-1.37-6.4-.08-.35,0-.54,.39-.7,1.54-.64,3.05-1.33,4.64-2.04,2.64,5.68,5.27,11.34,7.93,17.05-2.91,1.09-5.8,2.18-8.87,3.33Z" fill="#da1213"/>
        <path d="M513.8,232.94c.13,.67,.25,1.28,.38,1.94-.54,.1-1.08,.23-1.44-.2-.2-.24-.29-.68-.23-.99,.13-.59,.72-.65,1.29-.75Z" fill="#da1213"/>
        <path d="M515.36,234.64c-.12-.54-.24-1.04-.32-1.55-.02-.1,.08-.27,.17-.31,.52-.21,1.28,.08,1.45,.53,.19,.5-.12,1-.73,1.2-.15,.05-.32,.07-.56,.12Z" fill="#da1213"/>
      </g>
      <g>
        <polygon points="454.17 232.8 452.82 234.08 423.05 205.91 424.4 204.64 454.17 232.8" fill="#f2f1f0" stroke="#f2f0ef" stroke-miterlimit="10" stroke-width="1.01"/>
        <polygon points="423.05 232.8 424.4 234.08 454.17 205.91 452.82 204.64 423.05 232.8" fill="#f2f1f0" stroke="#f2f0ef" stroke-miterlimit="10" stroke-width="1.01"/>
      </g>
    </g>
    <g>
      <polyline points="617.41 270.27 617.41 272.96 614.71 272.96" fill="none" stroke="#f2f1f0" stroke-miterlimit="10" stroke-width=".45"/>
      <line x1="609.32" y1="272.96" x2="212.81" y2="272.96" fill="none" stroke="#f2f1f0" stroke-dasharray="0 0 5.39 5.39" stroke-miterlimit="10" stroke-width=".45"/>
      <polyline points="210.11 272.96 207.41 272.96 207.41 270.27" fill="none" stroke="#f2f1f0" stroke-miterlimit="10" stroke-width=".45"/>
      <line x1="207.41" y1="264.91" x2="207.41" y2="171.13" fill="none" stroke="#f2f1f0" stroke-dasharray="0 0 5.36 5.36" stroke-miterlimit="10" stroke-width=".45"/>
      <polyline points="207.41 168.45 207.41 165.75 210.11 165.75" fill="none" stroke="#f2f1f0" stroke-miterlimit="10" stroke-width=".45"/>
      <line x1="215.5" y1="165.75" x2="612.02" y2="165.75" fill="none" stroke="#f2f1f0" stroke-dasharray="0 0 5.39 5.39" stroke-miterlimit="10" stroke-width=".45"/>
      <polyline points="614.71 165.75 617.41 165.75 617.41 168.45" fill="none" stroke="#f2f1f0" stroke-miterlimit="10" stroke-width=".45"/>
      <line x1="617.41" y1="173.81" x2="617.41" y2="267.59" fill="none" stroke="#f2f1f0" stroke-dasharray="0 0 5.36 5.36" stroke-miterlimit="10" stroke-width=".45"/>
    </g>
  </g>
  <g opacity=".6">
    <g>
      <polyline points="385.56 285.77 385.56 291.77 379.56 291.77" fill="none" stroke="#221e1f" stroke-miterlimit="10"/>
      <line x1="367.5" y1="291.77" x2="252.95" y2="291.77" fill="none" stroke="#221e1f" stroke-dasharray="0 0 12.06 12.06" stroke-miterlimit="10"/>
      <polyline points="246.92 291.77 240.92 291.77 240.92 285.77" fill="none" stroke="#221e1f" stroke-miterlimit="10"/>
      <line x1="240.92" y1="273.22" x2="240.92" y2="204.18" fill="none" stroke="#221e1f" stroke-dasharray="0 0 12.55 12.55" stroke-miterlimit="10"/>
      <polyline points="240.92 197.91 240.92 191.91 246.92 191.91" fill="none" stroke="#221e1f" stroke-miterlimit="10"/>
      <line x1="258.98" y1="191.91" x2="373.53" y2="191.91" fill="none" stroke="#221e1f" stroke-dasharray="0 0 12.06 12.06" stroke-miterlimit="10"/>
      <polyline points="379.56 191.91 385.56 191.91 385.56 197.91" fill="none" stroke="#221e1f" stroke-miterlimit="10"/>
      <line x1="385.56" y1="210.46" x2="385.56" y2="279.5" fill="none" stroke="#221e1f" stroke-dasharray="0 0 12.55 12.55" stroke-miterlimit="10"/>
    </g>
  </g>
  <g opacity=".6">
    <g>
      <polyline points="455.62 288.22 455.62 294.22 449.62 294.22" fill="none" stroke="#221e1f" stroke-miterlimit="10"/>
      <line x1="442.28" y1="294.22" x2="431.27" y2="294.22" fill="none" stroke="#221e1f" stroke-dasharray="0 0 7.34 7.34" stroke-miterlimit="10"/>
      <polyline points="427.6 294.22 421.6 294.22 421.6 288.22" fill="none" stroke="#221e1f" stroke-miterlimit="10"/>
      <line x1="421.6" y1="277.17" x2="421.6" y2="216.39" fill="none" stroke="#221e1f" stroke-dasharray="0 0 11.05 11.05" stroke-miterlimit="10"/>
      <polyline points="421.6 210.87 421.6 204.87 427.6 204.87" fill="none" stroke="#221e1f" stroke-miterlimit="10"/>
      <line x1="434.94" y1="204.87" x2="445.95" y2="204.87" fill="none" stroke="#221e1f" stroke-dasharray="0 0 7.34 7.34" stroke-miterlimit="10"/>
      <polyline points="449.62 204.87 455.62 204.87 455.62 210.87" fill="none" stroke="#221e1f" stroke-miterlimit="10"/>
      <line x1="455.62" y1="221.92" x2="455.62" y2="282.69" fill="none" stroke="#221e1f" stroke-dasharray="0 0 11.05 11.05" stroke-miterlimit="10"/>
    </g>
  </g>
  <g opacity=".6">
    <g>
      <polyline points="584.07 285.77 584.07 291.77 578.07 291.77" fill="none" stroke="#221e1f" stroke-miterlimit="10"/>
      <line x1="566.51" y1="291.77" x2="502.88" y2="291.77" fill="none" stroke="#221e1f" stroke-dasharray="0 0 11.57 11.57" stroke-miterlimit="10"/>
      <polyline points="497.1 291.77 491.1 291.77 491.1 285.77" fill="none" stroke="#221e1f" stroke-miterlimit="10"/>
      <line x1="491.1" y1="274.71" x2="491.1" y2="191.77" fill="none" stroke="#221e1f" stroke-dasharray="0 0 11.06 11.06" stroke-miterlimit="10"/>
      <polyline points="491.1 186.24 491.1 180.24 497.1 180.24" fill="none" stroke="#221e1f" stroke-miterlimit="10"/>
      <line x1="508.67" y1="180.24" x2="572.29" y2="180.24" fill="none" stroke="#221e1f" stroke-dasharray="0 0 11.57 11.57" stroke-miterlimit="10"/>
      <polyline points="578.07 180.24 584.07 180.24 584.07 186.24" fill="none" stroke="#221e1f" stroke-miterlimit="10"/>
      <line x1="584.07" y1="197.3" x2="584.07" y2="280.24" fill="none" stroke="#221e1f" stroke-dasharray="0 0 11.06 11.06" stroke-miterlimit="10"/>
    </g>
  </g>
  <g opacity=".6">
    <g>
      <polyline points="385.56 240.14 385.56 246.14 379.56 246.14" fill="none" stroke="#221e1f" stroke-miterlimit="10"/>
      <line x1="367.02" y1="246.14" x2="197.7" y2="246.14" fill="none" stroke="#221e1f" stroke-dasharray="0 0 12.54 12.54" stroke-miterlimit="10"/>
      <polyline points="191.43 246.14 185.43 246.14 185.43 240.14" fill="none" stroke="#221e1f" stroke-miterlimit="10"/>
      <line x1="185.43" y1="226.06" x2="185.43" y2="204.94" fill="none" stroke="#221e1f" stroke-dasharray="0 0 14.08 14.08" stroke-miterlimit="10"/>
      <polyline points="185.43 197.91 185.43 191.91 191.43 191.91" fill="none" stroke="#221e1f" stroke-miterlimit="10"/>
      <line x1="203.97" y1="191.91" x2="373.29" y2="191.91" fill="none" stroke="#221e1f" stroke-dasharray="0 0 12.54 12.54" stroke-miterlimit="10"/>
      <polyline points="379.56 191.91 385.56 191.91 385.56 197.91" fill="none" stroke="#221e1f" stroke-miterlimit="10"/>
      <line x1="385.56" y1="211.98" x2="385.56" y2="233.1" fill="none" stroke="#221e1f" stroke-dasharray="0 0 14.08 14.08" stroke-miterlimit="10"/>
    </g>
  </g>
  <g opacity=".6">
    <g>
      <polyline points="638.58 253.12 638.58 259.12 632.58 259.12" fill="none" stroke="#221e1f" stroke-miterlimit="10"/>
      <line x1="620.18" y1="259.12" x2="502.46" y2="259.12" fill="none" stroke="#221e1f" stroke-dasharray="0 0 12.39 12.39" stroke-miterlimit="10"/>
      <polyline points="496.27 259.12 490.27 259.12 490.27 253.12" fill="none" stroke="#221e1f" stroke-miterlimit="10"/>
      <line x1="490.27" y1="239.72" x2="490.27" y2="192.81" fill="none" stroke="#221e1f" stroke-dasharray="0 0 13.4 13.4" stroke-miterlimit="10"/>
      <polyline points="490.27 186.11 490.27 180.11 496.27 180.11" fill="none" stroke="#221e1f" stroke-miterlimit="10"/>
      <line x1="508.66" y1="180.11" x2="626.38" y2="180.11" fill="none" stroke="#221e1f" stroke-dasharray="0 0 12.39 12.39" stroke-miterlimit="10"/>
      <polyline points="632.58 180.11 638.58 180.11 638.58 186.11" fill="none" stroke="#221e1f" stroke-miterlimit="10"/>
      <line x1="638.58" y1="199.51" x2="638.58" y2="246.42" fill="none" stroke="#221e1f" stroke-dasharray="0 0 13.4 13.4" stroke-miterlimit="10"/>
    </g>
  </g>
  <g opacity=".6">
    <g>
      <polyline points="420.27 275.69 420.27 281.69 414.27 281.69" fill="none" stroke="#221e1f" stroke-miterlimit="10"/>
      <line x1="406.93" y1="281.69" x2="395.92" y2="281.69" fill="none" stroke="#221e1f" stroke-dasharray="0 0 7.34 7.34" stroke-miterlimit="10"/>
      <polyline points="392.25 281.69 386.25 281.69 386.25 275.69" fill="none" stroke="#221e1f" stroke-miterlimit="10"/>
      <line x1="386.25" y1="264.18" x2="386.25" y2="154.83" fill="none" stroke="#221e1f" stroke-dasharray="0 0 11.51 11.51" stroke-miterlimit="10"/>
      <polyline points="386.25 149.08 386.25 143.08 392.25 143.08" fill="none" stroke="#221e1f" stroke-miterlimit="10"/>
      <line x1="399.59" y1="143.08" x2="410.6" y2="143.08" fill="none" stroke="#221e1f" stroke-dasharray="0 0 7.34 7.34" stroke-miterlimit="10"/>
      <polyline points="414.27 143.08 420.27 143.08 420.27 149.08" fill="none" stroke="#221e1f" stroke-miterlimit="10"/>
      <line x1="420.27" y1="160.59" x2="420.27" y2="269.94" fill="none" stroke="#221e1f" stroke-dasharray="0 0 11.51 11.51" stroke-miterlimit="10"/>
    </g>
  </g>
  <g opacity=".6">
    <g>
      <polyline points="490.48 275.88 490.48 281.88 484.48 281.88" fill="none" stroke="#221e1f" stroke-miterlimit="10"/>
      <line x1="477.14" y1="281.88" x2="466.14" y2="281.88" fill="none" stroke="#221e1f" stroke-dasharray="0 0 7.34 7.34" stroke-miterlimit="10"/>
      <polyline points="462.47 281.88 456.47 281.88 456.47 275.88" fill="none" stroke="#221e1f" stroke-miterlimit="10"/>
      <line x1="456.47" y1="264.35" x2="456.47" y2="154.84" fill="none" stroke="#221e1f" stroke-dasharray="0 0 11.53 11.53" stroke-miterlimit="10"/>
      <polyline points="456.47 149.08 456.47 143.08 462.47 143.08" fill="none" stroke="#221e1f" stroke-miterlimit="10"/>
      <line x1="469.8" y1="143.08" x2="480.81" y2="143.08" fill="none" stroke="#221e1f" stroke-dasharray="0 0 7.34 7.34" stroke-miterlimit="10"/>
      <polyline points="484.48 143.08 490.48 143.08 490.48 149.08" fill="none" stroke="#221e1f" stroke-miterlimit="10"/>
      <line x1="490.48" y1="160.6" x2="490.48" y2="270.12" fill="none" stroke="#221e1f" stroke-dasharray="0 0 11.53 11.53" stroke-miterlimit="10"/>
    </g>
  </g>
  <g opacity=".6">
    <g>
      <line x1="153.32" y1="162.64" x2="153.32" y2="168.64" fill="none" stroke="#221e1f" stroke-miterlimit="10"/>
      <line x1="153.32" y1="179.91" x2="153.32" y2="264.44" fill="none" stroke="#221e1f" stroke-dasharray="0 0 11.27 11.27" stroke-miterlimit="10"/>
      <line x1="153.32" y1="270.08" x2="153.32" y2="276.08" fill="none" stroke="#221e1f" stroke-miterlimit="10"/>
      <polygon points="153.32 155.58 149.26 165.53 153.32 163.17 157.39 165.53 153.32 155.58" fill="#221e1f"/>
      <polygon points="153.32 283.14 149.26 273.19 153.32 275.55 157.39 273.19 153.32 283.14" fill="#221e1f"/>
    </g>
  </g>
  <g opacity=".6">
    <g>
      <line x1="206.87" y1="324.63" x2="212.87" y2="324.63" fill="none" stroke="#221e1f" stroke-miterlimit="10"/>
      <line x1="224.97" y1="324.63" x2="605.9" y2="324.63" fill="none" stroke="#221e1f" stroke-dasharray="0 0 12.09 12.09" stroke-miterlimit="10"/>
      <line x1="611.95" y1="324.63" x2="617.95" y2="324.63" fill="none" stroke="#221e1f" stroke-miterlimit="10"/>
      <polygon points="199.81 324.63 209.76 328.7 207.4 324.63 209.76 320.57 199.81 324.63" fill="#221e1f"/>
      <polygon points="625.01 324.63 615.06 328.7 617.42 324.63 615.06 320.57 625.01 324.63" fill="#221e1f"/>
    </g>
  </g>
  <g opacity=".6">
    <path d="M380.07,336.47v10.5h-1.85v-9.94l1.01,.9-4.4,.77v-1.47l3.85-.76h1.39Z"/>
    <path d="M383.06,336.47h7.67v1.5h-7.07l.77-.49-.59,4.42h-.54c.21-.31,.51-.62,.88-.91,.37-.29,.82-.53,1.34-.71s1.12-.27,1.79-.27c.91,0,1.69,.16,2.32,.47,.63,.31,1.12,.74,1.45,1.27,.33,.53,.5,1.13,.5,1.81s-.2,1.32-.59,1.86-.95,.97-1.66,1.28c-.71,.31-1.56,.47-2.54,.47s-1.83-.14-2.55-.43-1.29-.68-1.7-1.18c-.42-.5-.67-1.06-.76-1.67h1.86c.13,.55,.47,.98,1.01,1.3,.54,.32,1.26,.48,2.14,.48,.6,0,1.11-.09,1.55-.26,.43-.17,.77-.41,1.01-.73,.24-.31,.37-.68,.37-1.11s-.1-.79-.3-1.1c-.2-.31-.5-.55-.91-.73-.41-.17-.92-.26-1.55-.26-.51,0-.97,.06-1.38,.18-.41,.12-.76,.28-1.05,.46-.29,.19-.54,.38-.73,.59h-1.54l.81-6.23Z"/>
    <path d="M398.41,347.17c-1.15,0-2.14-.23-2.97-.68-.83-.45-1.47-1.09-1.92-1.9-.45-.82-.67-1.77-.67-2.86s.22-2.05,.67-2.86c.45-.82,1.09-1.45,1.92-1.9s1.82-.68,2.97-.68,2.13,.23,2.96,.68,1.46,1.09,1.91,1.9c.45,.82,.67,1.77,.67,2.86s-.22,2.05-.67,2.86c-.45,.82-1.08,1.45-1.91,1.9-.83,.45-1.81,.68-2.96,.68Zm0-1.53c1.17,0,2.07-.34,2.71-1.03,.64-.69,.97-1.65,.97-2.89s-.32-2.21-.97-2.89c-.64-.69-1.55-1.03-2.71-1.03s-2.07,.34-2.72,1.03c-.65,.69-.97,1.65-.97,2.89s.32,2.21,.97,2.89c.65,.69,1.55,1.03,2.72,1.03Z"/>
    <path d="M409.33,346.97v-7.92h2.7l3.33,7.05h-.71l3.3-7.05h2.7v7.92h-1.71v-7.32h.48l-3.54,7.32h-1.78l-3.54-7.29h.47s0,7.29,0,7.29h-1.71Z"/>
    <path d="M422.58,346.97v-7.92h2.7l3.33,7.05h-.71l3.3-7.05h2.7v7.92h-1.71v-7.32h.48l-3.54,7.32h-1.78l-3.54-7.29h.47s0,7.29,0,7.29h-1.71Z"/>
  </g>
  <g opacity=".6">
    <path d="M133.95,235.26h10.5v1.85h-9.73v-.76l6.69,6.02-.66,.04v-9.07h1.48v10.53h-1.33l-6.96-6.26v-2.35Z"/>
    <path d="M133.95,231.18v-7.67h1.5v7.07l-.49-.77,4.42,.59v.55c-.31-.21-.62-.51-.91-.88-.29-.37-.53-.82-.71-1.34-.18-.53-.27-1.12-.27-1.79,0-.92,.16-1.69,.47-2.32,.31-.63,.74-1.12,1.27-1.45,.53-.33,1.13-.5,1.81-.5s1.32,.2,1.86,.59c.54,.39,.97,.95,1.28,1.66,.31,.71,.47,1.56,.47,2.54s-.15,1.83-.43,2.55c-.29,.72-.68,1.29-1.18,1.7-.5,.42-1.06,.67-1.67,.76v-1.86c.55-.13,.98-.47,1.3-1.01s.48-1.26,.48-2.14c0-.6-.09-1.11-.26-1.55-.17-.43-.42-.77-.73-1.01-.31-.24-.68-.36-1.11-.36s-.79,.1-1.1,.3c-.31,.2-.56,.5-.73,.91s-.26,.92-.26,1.55c0,.51,.06,.97,.18,1.38,.12,.41,.28,.76,.46,1.05,.19,.29,.38,.54,.59,.73v1.54l-6.23-.81Z"/>
    <path d="M144.45,217.42h-7.92v-2.7l7.06-3.33v.71l-7.06-3.3v-2.7h7.92v1.71h-7.32v-.48l7.32,3.54v1.78l-7.29,3.54v-.48s7.29,0,7.29,0v1.71Z"/>
    <path d="M144.45,204.16h-7.92v-2.7l7.06-3.33v.71l-7.06-3.3v-2.7h7.92v1.71h-7.32v-.48l7.32,3.54v1.78l-7.29,3.54v-.48s7.29,0,7.29,0v1.71Z"/>
  </g>
  <g opacity=".6">
    <path d="M167.55,237.36h10.5v1.85h-9.94l.9-1.01,.77,4.4h-1.47l-.76-3.85v-1.39Z"/>
    <path d="M178.24,230.65c0,.82-.13,1.56-.38,2.21-.25,.65-.6,1.18-1.04,1.58-.44,.41-.93,.66-1.48,.78v-1.82c.38-.15,.71-.43,.97-.84,.27-.41,.4-1.03,.4-1.86s-.16-1.54-.47-2.07-.76-.91-1.34-1.16c-.58-.25-1.26-.37-2.06-.37-.84,0-1.56,.14-2.15,.42-.59,.28-1.05,.7-1.36,1.25s-.47,1.23-.47,2.04c0,.62,.09,1.13,.26,1.55,.17,.42,.41,.73,.71,.94,.3,.21,.65,.32,1.04,.32,.36,0,.68-.09,.97-.28,.29-.19,.52-.48,.69-.87s.25-.89,.25-1.48c0-.81-.2-1.56-.59-2.25-.39-.69-.9-1.26-1.53-1.72l.57-.78c.57,.3,1.08,.7,1.55,1.19,.46,.49,.83,1.07,1.11,1.73s.41,1.39,.41,2.21-.14,1.56-.41,2.18c-.28,.62-.67,1.1-1.18,1.44-.51,.34-1.1,.51-1.78,.51s-1.33-.19-1.88-.57c-.54-.38-.96-.92-1.27-1.62-.3-.7-.46-1.52-.46-2.46,0-1.2,.23-2.22,.69-3.04,.46-.82,1.1-1.44,1.92-1.86s1.76-.62,2.83-.62c1.06,0,2,.19,2.82,.61,.82,.42,1.46,1.02,1.92,1.82s.7,1.78,.7,2.93Z"/>
    <path d="M178.05,219.9h-7.92v-2.7l7.06-3.33v.71l-7.06-3.3v-2.7h7.92v1.71h-7.32v-.48l7.32,3.54v1.78l-7.29,3.54v-.48s7.29,0,7.29,0v1.71Z"/>
    <path d="M178.05,206.64h-7.92v-2.7l7.06-3.33v.71l-7.06-3.3v-2.7h7.92v1.71h-7.32v-.48l7.32,3.54v1.78l-7.29,3.54v-.48s7.29,0,7.29,0v1.71Z"/>
  </g>
  <g opacity=".6">
    <path d="M291.34,300.76h7.67v1.5h-7.07l.77-.49-.59,4.42h-.54c.21-.31,.51-.62,.88-.91,.37-.29,.82-.53,1.34-.71,.53-.18,1.12-.27,1.79-.27,.91,0,1.69,.16,2.32,.47,.63,.31,1.12,.74,1.45,1.27,.33,.53,.5,1.13,.5,1.81s-.2,1.32-.59,1.86-.95,.97-1.66,1.28c-.71,.31-1.56,.47-2.54,.47s-1.83-.15-2.55-.43-1.29-.68-1.7-1.18-.67-1.06-.76-1.67h1.86c.13,.55,.47,.98,1.01,1.3s1.26,.48,2.14,.48c.6,0,1.11-.09,1.55-.26,.43-.17,.77-.42,1.01-.73,.24-.31,.37-.68,.37-1.11s-.1-.79-.3-1.1c-.2-.31-.5-.56-.91-.73s-.92-.26-1.55-.26c-.51,0-.97,.06-1.38,.18-.41,.12-.76,.28-1.05,.46-.29,.19-.54,.38-.73,.59h-1.54l.81-6.23Z"/>
    <path d="M305.69,300.76v10.5h-1.85v-9.94l1.01,.9-4.4,.77v-1.47l3.85-.76h1.39Z"/>
    <path d="M311.6,311.26v-7.92h2.7l3.33,7.06h-.71l3.3-7.06h2.7v7.92h-1.71v-7.32h.48l-3.54,7.32h-1.78l-3.54-7.29h.47s0,7.29,0,7.29h-1.71Z"/>
    <path d="M324.86,311.26v-7.92h2.7l3.33,7.06h-.71l3.3-7.06h2.7v7.92h-1.71v-7.32h.48l-3.54,7.32h-1.78l-3.54-7.29h.47s0,7.29,0,7.29h-1.71Z"/>
  </g>
  <g opacity=".6">
    <path d="M422.77,300.56v10.5h-1.85v-9.94l1.01,.9-4.4,.77v-1.47l3.85-.76h1.39Z"/>
    <path d="M424.59,304.17c.05-.77,.3-1.45,.75-2.02s1.03-1.01,1.77-1.32c.74-.31,1.58-.47,2.52-.47s1.68,.14,2.36,.42c.68,.28,1.21,.67,1.58,1.18,.38,.5,.57,1.09,.57,1.75,0,.51-.12,.99-.37,1.43-.25,.44-.65,.88-1.22,1.34-.56,.45-1.33,.96-2.29,1.53l-3.49,2.06-.24-.55h7.92v1.54h-9.77v-1.34l4.47-2.72c.78-.48,1.4-.89,1.85-1.24,.45-.35,.78-.68,.97-.99,.2-.31,.29-.63,.29-.98,0-.36-.1-.69-.29-.98-.2-.29-.49-.52-.89-.69s-.9-.25-1.52-.25c-.7,0-1.28,.1-1.72,.31s-.78,.48-1,.83c-.22,.35-.35,.74-.4,1.16h-1.86Z"/>
    <path d="M439.73,311.06v-7.92h2.7l3.33,7.06h-.71l3.3-7.06h2.7v7.92h-1.71v-7.32h.47l-3.54,7.32h-1.78l-3.54-7.29h.48s0,7.29,0,7.29h-1.71Z"/>
    <path d="M452.98,311.06v-7.92h2.7l3.33,7.06h-.71l3.3-7.06h2.7v7.92h-1.71v-7.32h.47l-3.54,7.32h-1.78l-3.54-7.29h.48s0,7.29,0,7.29h-1.71Z"/>
  </g>
  <g opacity=".6">
    <path d="M506.76,303.79c.07-.64,.3-1.23,.71-1.74,.41-.52,.98-.93,1.71-1.23,.73-.3,1.61-.46,2.62-.46,.91,0,1.69,.12,2.36,.36,.67,.24,1.18,.57,1.55,.99s.55,.93,.55,1.5c0,.49-.14,.92-.43,1.31-.29,.39-.72,.69-1.29,.92-.58,.22-1.3,.34-2.17,.34v-.27c.86-.04,1.6,.04,2.21,.23,.62,.19,1.09,.48,1.42,.87,.33,.39,.5,.86,.5,1.42,0,.63-.19,1.18-.57,1.67-.38,.49-.94,.87-1.66,1.14s-1.61,.41-2.65,.41-1.9-.15-2.66-.44c-.76-.29-1.35-.71-1.77-1.24-.42-.53-.66-1.15-.71-1.86h1.86c.08,.65,.4,1.15,.95,1.5,.55,.35,1.33,.52,2.32,.52s1.75-.16,2.25-.49c.5-.33,.76-.78,.76-1.34,0-.34-.09-.62-.26-.85s-.46-.4-.85-.53c-.4-.12-.93-.18-1.6-.18h-1.9v-1.37h1.9c.87,0,1.5-.14,1.89-.43,.39-.28,.59-.65,.59-1.1,0-.5-.22-.88-.65-1.16-.43-.28-1.11-.42-2.02-.42s-1.61,.17-2.13,.5c-.53,.33-.84,.8-.95,1.42h-1.86Z"/>
    <path d="M517.8,304.17c.06-.77,.31-1.45,.75-2.02s1.03-1.01,1.77-1.32c.74-.31,1.58-.47,2.52-.47s1.68,.14,2.36,.42c.68,.28,1.2,.67,1.58,1.18s.57,1.09,.57,1.75c0,.51-.12,.99-.37,1.43s-.65,.88-1.22,1.34c-.56,.45-1.33,.96-2.29,1.53l-3.49,2.06-.24-.55h7.92v1.54h-9.77v-1.34l4.47-2.72c.78-.48,1.4-.89,1.85-1.24,.45-.35,.78-.68,.97-.99,.2-.31,.29-.63,.29-.98,0-.36-.1-.69-.29-.98-.2-.29-.49-.52-.89-.69s-.9-.25-1.52-.25c-.7,0-1.27,.1-1.72,.31-.45,.21-.78,.48-1,.83-.22,.35-.35,.74-.4,1.16h-1.86Z"/>
    <path d="M530.07,311.17c-.21,0-.41-.05-.58-.15s-.31-.24-.41-.41c-.1-.17-.15-.37-.15-.58s.05-.41,.15-.58c.1-.17,.24-.31,.41-.41,.17-.1,.37-.15,.58-.15s.41,.05,.58,.15c.17,.1,.31,.24,.41,.41s.15,.37,.15,.58-.05,.41-.15,.58-.24,.31-.41,.41-.37,.15-.58,.15Z"/>
    <path d="M537.85,300.36c1.56,0,2.76,.25,3.61,.76,.85,.5,1.27,1.21,1.27,2.11,0,.83-.39,1.47-1.16,1.92-.78,.45-1.86,.66-3.25,.63v-.29c1.53-.08,2.72,.11,3.56,.57s1.26,1.17,1.26,2.11-.46,1.74-1.37,2.27c-.92,.54-2.22,.81-3.92,.81s-2.99-.27-3.91-.81c-.92-.54-1.38-1.29-1.38-2.27s.42-1.65,1.27-2.12,2.03-.66,3.55-.57v.29c-1.38,.03-2.46-.18-3.24-.63s-1.17-1.09-1.17-1.92c0-.91,.42-1.61,1.27-2.11,.85-.5,2.05-.76,3.61-.76Zm0,9.41c1.11,0,1.96-.14,2.55-.43,.59-.29,.88-.71,.88-1.27s-.29-1-.88-1.27-1.44-.41-2.55-.41-1.96,.14-2.55,.41-.88,.7-.88,1.27,.29,.98,.88,1.27c.59,.28,1.44,.43,2.55,.43Zm0-4.83c.64,0,1.19-.06,1.65-.17,.45-.11,.8-.28,1.04-.52s.36-.52,.36-.87c0-.5-.26-.88-.79-1.14-.53-.27-1.28-.4-2.25-.4s-1.71,.13-2.24,.4c-.53,.27-.8,.65-.8,1.14,0,.35,.12,.63,.36,.87s.58,.41,1.04,.52c.45,.11,1,.17,1.64,.17Z"/>
    <path d="M548.5,311.06v-7.92h2.7l3.33,7.06h-.71l3.3-7.06h2.7v7.92h-1.71v-7.32h.48l-3.54,7.32h-1.78l-3.54-7.29h.48s0,7.29,0,7.29h-1.71Z"/>
    <path d="M561.76,311.06v-7.92h2.7l3.33,7.06h-.71l3.3-7.06h2.7v7.92h-1.71v-7.32h.48l-3.54,7.32h-1.78l-3.54-7.29h.48s0,7.29,0,7.29h-1.71Z"/>
  </g>
  <g opacity=".6">
    <path d="M384.11,124.72v10.5h-1.85v-9.94l1.01,.9-4.4,.77v-1.47l3.85-.76h1.39Z"/>
    <path d="M385.93,128.33c.06-.77,.31-1.45,.75-2.02s1.03-1.01,1.77-1.32c.74-.31,1.58-.47,2.52-.47s1.68,.14,2.36,.42c.68,.28,1.2,.67,1.58,1.18s.57,1.09,.57,1.75c0,.51-.12,.99-.37,1.43s-.65,.88-1.22,1.34c-.56,.45-1.33,.96-2.29,1.53l-3.49,2.06-.24-.55h7.92v1.54h-9.77v-1.34l4.47-2.72c.78-.48,1.4-.89,1.85-1.24,.45-.35,.78-.68,.97-.99,.2-.31,.29-.63,.29-.98,0-.36-.1-.69-.29-.98-.2-.29-.49-.52-.89-.69s-.9-.25-1.52-.25c-.7,0-1.27,.1-1.72,.31-.45,.21-.78,.48-1,.83-.22,.35-.35,.74-.4,1.16h-1.86Z"/>
    <path d="M401.06,135.22v-7.92h2.7l3.33,7.06h-.71l3.3-7.06h2.7v7.92h-1.71v-7.32h.48l-3.54,7.32h-1.78l-3.54-7.29h.48s0,7.29,0,7.29h-1.71Z"/>
    <path d="M414.32,135.22v-7.92h2.7l3.33,7.06h-.71l3.3-7.06h2.7v7.92h-1.71v-7.32h.48l-3.54,7.32h-1.78l-3.54-7.29h.48s0,7.29,0,7.29h-1.71Z"/>
  </g>
  <g opacity=".6">
    <path d="M454.07,124.72v10.5h-1.85v-9.94l1.01,.9-4.4,.77v-1.47l3.85-.76h1.39Z"/>
    <path d="M455.89,128.33c.06-.77,.31-1.45,.75-2.02s1.03-1.01,1.77-1.32c.74-.31,1.58-.47,2.52-.47s1.68,.14,2.36,.42c.68,.28,1.2,.67,1.58,1.18s.57,1.09,.57,1.75c0,.51-.12,.99-.37,1.43s-.65,.88-1.22,1.34c-.56,.45-1.33,.96-2.29,1.53l-3.49,2.06-.24-.55h7.92v1.54h-9.77v-1.34l4.47-2.72c.78-.48,1.4-.89,1.85-1.24,.45-.35,.78-.68,.97-.99,.2-.31,.29-.63,.29-.98,0-.36-.1-.69-.29-.98-.2-.29-.49-.52-.89-.69s-.9-.25-1.52-.25c-.7,0-1.27,.1-1.72,.31-.45,.21-.78,.48-1,.83-.22,.35-.35,.74-.4,1.16h-1.86Z"/>
    <path d="M471.02,135.22v-7.92h2.7l3.33,7.06h-.71l3.3-7.06h2.7v7.92h-1.71v-7.32h.48l-3.54,7.32h-1.78l-3.54-7.29h.48s0,7.29,0,7.29h-1.71Z"/>
    <path d="M484.28,135.22v-7.92h2.7l3.33,7.06h-.71l3.3-7.06h2.7v7.92h-1.71v-7.32h.48l-3.54,7.32h-1.78l-3.54-7.29h.48s0,7.29,0,7.29h-1.71Z"/>
  </g>
  <g opacity=".6">
    <path d="M650.83,252.36c-.77-.06-1.45-.31-2.02-.75s-1.01-1.03-1.32-1.77c-.31-.74-.47-1.58-.47-2.52s.14-1.68,.42-2.36c.28-.68,.67-1.2,1.18-1.58s1.09-.57,1.75-.57c.51,0,.99,.12,1.43,.37s.88,.65,1.34,1.22c.45,.56,.96,1.33,1.53,2.29l2.06,3.49-.55,.24v-7.92h1.54v9.77h-1.34l-2.72-4.47c-.48-.78-.89-1.4-1.24-1.85-.35-.45-.68-.78-.99-.97-.31-.2-.63-.29-.98-.29-.36,0-.69,.1-.98,.29-.29,.2-.52,.49-.69,.89s-.25,.9-.25,1.52c0,.7,.1,1.27,.31,1.72,.21,.45,.48,.78,.83,1,.35,.22,.74,.35,1.16,.4v1.86Z"/>
    <path d="M657.71,239.92l-9.51-5.85h.55v7.71h-1.54v-9.34h1.5l9,5.5v1.97Z"/>
    <path d="M657.83,232.05c0,.21-.05,.41-.15,.58s-.24,.31-.41,.41c-.17,.1-.37,.15-.58,.15s-.41-.05-.58-.15c-.17-.1-.31-.24-.41-.41-.1-.17-.15-.37-.15-.58s.05-.41,.15-.58c.1-.17,.24-.31,.41-.41s.37-.15,.58-.15,.41,.05,.58,.15,.31,.24,.41,.41,.15,.37,.15,.58Z"/>
    <path d="M647.02,224.27c0-1.56,.25-2.76,.76-3.61,.5-.85,1.21-1.27,2.11-1.27,.83,0,1.47,.39,1.92,1.16,.45,.78,.66,1.86,.63,3.25h-.29c-.08-1.53,.11-2.72,.57-3.56s1.17-1.26,2.11-1.26,1.74,.46,2.27,1.37c.54,.92,.81,2.22,.81,3.92s-.27,2.99-.81,3.91c-.54,.92-1.29,1.38-2.27,1.38s-1.65-.42-2.12-1.27-.66-2.03-.57-3.55h.29c.03,1.38-.18,2.46-.63,3.24s-1.09,1.17-1.92,1.17c-.91,0-1.61-.42-2.11-1.27-.5-.85-.76-2.05-.76-3.61Zm4.58,0c0-.64-.06-1.19-.17-1.65-.11-.45-.28-.8-.52-1.04s-.52-.36-.87-.36c-.5,0-.88,.26-1.14,.79-.27,.53-.4,1.28-.4,2.25s.13,1.71,.4,2.24c.27,.53,.65,.8,1.14,.8,.35,0,.63-.12,.87-.36s.41-.58,.52-1.04c.11-.45,.17-1,.17-1.64Zm4.83,0c0-1.11-.14-1.96-.43-2.55-.29-.59-.71-.88-1.27-.88s-1,.29-1.27,.88-.41,1.44-.41,2.55,.14,1.96,.41,2.55,.7,.88,1.27,.88,.98-.29,1.27-.88c.28-.59,.43-1.44,.43-2.55Z"/>
    <path d="M657.71,213.61h-7.92v-2.7l7.06-3.33v.71l-7.06-3.3v-2.7h7.92v1.71h-7.32v-.48l7.32,3.54v1.78l-7.29,3.54v-.48s7.29,0,7.29,0v1.71Z"/>
    <path d="M657.71,200.35h-7.92v-2.7l7.06-3.33v.71l-7.06-3.3v-2.7h7.92v1.71h-7.32v-.48l7.32,3.54v1.78l-7.29,3.54v-.48s7.29,0,7.29,0v1.71Z"/>
  </g>
</svg>